<?xml version="1.0" encoding="utf-8" ?>
<svg baseProfile="full" height="93.4358916465193" version="1.1" width="515.3643030674198" xmlns="http://www.w3.org/2000/svg" xmlns:ev="http://www.w3.org/2001/xml-events" xmlns:xlink="http://www.w3.org/1999/xlink"><defs /><rect fill="white" height="93.4358916465193" width="515.3643030674198" x="0" y="0" /><path d="M25,58.26879646219312 m37.697506713867185,10.167095184326172 l-1.4041011810302735,-0.85582275390625 -1.4968443870544434,-0.8008709907531738 l-1.468934917449951,-1.1768833160400392 -1.2923952102661134,-0.9890734672546386 l-1.107749843597412,-1.344205093383789 -0.8357816696166992,-1.3137420654296874 l-0.04172885119915008,-1.2928915977478028 0.5214349746704101,-1.7344890594482423 l1.3238367080688476,-1.8626611709594727 1.6911293029785157,-2.0895807266235353 l2.658915710449219,-0.9861983299255371 2.5302202224731447,-0.7353988647460937 l2.645940971374512,0.44408373832702636 2.065830039978027,1.0648999214172363 l1.4836445808410645,1.569413948059082 1.1208209991455078,2.4198280334472657 l-0.6272444725036621,0.9958365440368653 -0.592430591583252,1.6109869003295898 l-1.2098423004150392,0.9199160575866699 -1.299614429473877,0.7703588008880615 l-1.3635969161987305,-0.0899865984916687 -1.23739013671875,-0.4421248435974121 l-0.728233528137207,-0.912381362915039 0.140718412399292,-1.249431037902832 m13.725965881347657,-8.887999725341796 l-0.39441776275634766,0.001977930590510368 0.049387937784194945,-0.5571817398071289 l0.20908923149108888,0.18240127563476563 -0.15026116371154785,0.4367213249206543 l0.04927341639995575,1.138035774230957 -0.17498124837875367,1.5795276641845704 l0.2165769100189209,2.4852375030517577 0.13327653408050538,2.559044075012207 l0.3505300521850586,2.237437438964844 0.11509103775024414,1.6979902267456055 l0.5624851703643798,1.6313201904296875 0.36574749946594237,0.3002039909362793 m6.915785217285157,-25.1775390625 l0.17451105117797852,-0.11427928209304809 -0.11829766035079955,-0.30976452827453616 l0.2124420166015625,0.2591167688369751 0.03222765922546387,0.6082261085510254 m4.043208312988281,19.537298583984374 l0.24889371395111085,-0.3560670852661133 0.891724967956543,-1.181296157836914 l0.9005603790283203,-1.666101837158203 0.6326648712158203,-1.5618395805358887 l0.1829737424850464,-2.1399257659912108 0.34773447513580324,-0.6951113224029541 l-0.5693026065826416,-1.0900108337402343 -0.4374854564666748,0.026150378584861755 l-0.6821743011474609,0.41192169189453126 -1.3675402641296386,0.35315766334533694 l-0.6506269454956055,1.9661289215087892 -0.9274496078491211,1.5599928855895997 l-0.31585094928741453,1.905887985229492 0.28034772872924807,1.997708511352539 l0.8563433647155761,1.6229942321777344 1.6564746856689454,1.2753803253173828 l1.712133026123047,-0.45580496788024905 2.548745346069336,0.22461371421813964 l2.7689191818237306,-0.780333423614502 2.4790727615356447,-1.7891422271728517 m3.8915660858154295,-11.2807861328125 l-0.047451901435852054,3.002410125732422 0.48433599472045896,2.9599002838134765 l0.4241485118865967,2.886326026916504 m2.193878936767578,-9.90579605102539 l-0.7806764125823975,-0.47085962295532224 -0.32994561195373534,-0.11610660552978516 l-0.33733491897583007,-0.26351907253265383 0.1518011212348938,-0.1345265030860901 m11.930121612548827,7.706561279296875 l0.07941775918006896,0.0542938232421875 -0.6652831077575684,-1.0162745475769044 l-1.1211609840393066,-1.4136799812316894 -1.201249122619629,-0.8135063171386718 l-1.095964527130127,-0.29526257514953613 -1.3308639526367188,-0.34395360946655273 l-0.9197280883789063,0.5225895881652832 -1.2142640113830567,0.7260379791259766 l-1.0527087211608888,1.8986108779907227 -0.7143353462219239,2.416042709350586 l-0.5274567127227783,2.6090766906738283 0.3629989862442017,1.5046998977661132 l1.3939557075500488,0.9396242141723633 1.6690357208251954,-0.02183445394039154 l1.748105812072754,-0.8501872062683106 2.103907585144043,-1.564733123779297 l1.3467687606811523,-2.342068672180176 1.5085081100463866,-1.8252227783203125 l0.6100311279296875,-2.3772441864013674 0.1651029109954834,-2.676804542541504 l-0.6410229682922364,-2.665496826171875 -0.8584434509277343,-1.968465232849121 l-0.9196477890014648,-1.3755853652954102 -1.2446325302124024,-1.0568390846252442 l-0.43128261566162107,-0.1506554126739502 -0.1804324984550476,0.08690109252929687 l0.17814788818359376,0.7291068077087403 0.5417027473449707,2.403569984436035 l0.28956875801086424,2.3054622650146483 1.1706557273864746,3.345766067504883 l0.8901673316955566,3.048029327392578 0.6336033344268799,2.9172332763671873 l0.6149036407470703,2.2773542404174805 0.07638870477676392,0.6797109127044678 l-0.07718610763549805,0.14860821962356568 1.129942035675049,-0.04581243097782135 m9.683089447021484,-11.24093017578125 l-1.4788057327270507,-0.4887274742126465 -1.5671323776245116,-0.1808411955833435 l-1.7402765274047851,0.20303697586059571 -1.509977436065674,0.3130796432495117 l-0.8907459259033204,0.4453422546386719 -0.27633023262023926,0.2515970230102539 l0.5287951946258544,0.9753823280334473 1.0732737541198731,0.9210155487060547 l1.4506759643554688,0.819085693359375 1.3889692306518555,0.364791202545166 l1.7397941589355468,0.7786414623260498 0.841044807434082,-0.24310450553894042 l0.41584105491638185,-0.26191039085388185 0.036304581165313723,-0.02725054621696472 l-0.6228389263153076,-0.13083333969116212 -1.7687507629394532,-0.2958356857299805 l-1.2478880882263184,0.4042209625244141 -1.3169055938720704,0.11250721216201783 l-0.03391076326370239,0.8051986694335938 0.15857741832733155,-0.0225114643573761 m3.9835231781005858,0.10728000402450562 l1.522732639312744,-6.524437713623047 0.015067307651042939,-2.4821062088012695 l-0.024502797424793242,-1.624934768676758 -0.052018511295318606,-0.511933708190918 l0.10166959762573242,0.33481473922729493 0.42612285614013673,0.7316561222076416 l0.9596349716186523,1.701744270324707 1.7435989379882812,2.800836372375488 l1.5687910079956056,2.119074821472168 1.345193099975586,1.2591476440429688 l0.9664358139038086,0.5435779094696045 0.8384255409240723,0.042832985520362854 l1.3381577491760255,-0.32850792407989504 1.2095499992370606,-1.0750454902648925 l1.465853214263916,-1.850534439086914 0.990533447265625,-2.290681838989258 l1.3125786781311035,-1.1342021942138671 0.31330137252807616,-0.4400338172912598 l0.3057930707931519,0.24740090370178222 0.2823784828186035,0.7836232662200928 l1.0949803352355958,2.089380073547363 0.5241024494171143,1.9825170516967774 l1.1508293151855469,1.052079677581787 0.9699143409729004,-0.06316112279891968 l1.463294506072998,-0.6266692161560059 1.5288387298583985,-0.607591199874878 l0.9645149230957031,-1.3780542373657227 0.4327597141265869,-1.2412142753601074 l0.28847668170928953,-1.0156574249267578 0.8816594123840332,0.23831391334533691 l1.9755796432495116,0.9043845176696778 m1.8672304153442383,-8.359976196289063 l0.31773841381073,1.5933638572692872 0.2635204315185547,2.285211372375488 l0.9935851097106934,2.4861841201782227 1.0172084808349608,2.085427474975586 m-2.892911911010742,-2.4161296844482423 l-0.18375082015991212,-0.12075536251068116 0.17654269933700562,-0.04407635629177094 l0.15617177486419678,-0.2795149803161621 m4.228126144409179,4.8561553955078125 l0.825767707824707,-0.031682029366493225 0.5513849258422852,-0.6203091621398926 l0.591067886352539,-1.4201298713684083 0.5415637969970704,-1.716830062866211 l0.15220844745635986,-2.088459014892578 0.11219768524169922,-1.835751724243164 l0.0987001121044159,-0.7477244853973388 -0.16387407779693602,-0.10807566642761231 l0.39284682273864746,0.6066213130950928 -0.4044002056121826,0.8867683410644531 l0.7652556896209717,2.191579818725586 0.7927386283874511,2.2160120010375977 l1.1753023147583008,1.4388975143432616 1.28216495513916,0.6294269561767578 l1.137745475769043,-0.33209288120269775 1.1587895393371581,-1.2151204109191895 l0.7707850456237793,-1.7905670166015626 0.619065237045288,-1.7719970703125 l0.5709563255310058,-0.7814469814300538 0.49745664596557615,-0.23349180221557617 l1.1729289054870606,1.0084331512451172 1.1908689498901368,1.5136628150939941 l1.3181535720825195,1.7453649520874024 1.145538330078125,1.469057559967041 l1.2674867630004882,1.0394877433776855 0.8562928199768066,0.01170133352279663 m4.953461074829102,-5.407787322998047 l0.3478051424026489,0.7627068042755127 -0.24226820468902588,1.1777964591979981 l-0.16090667247772217,1.3784198760986328 0.31024191379547117,1.1853236198425292 l1.2352787017822267,1.3495516777038574 1.3880748748779297,0.46228728294372556 l1.755042839050293,-0.12326738834381104 1.182316207885742,-1.128172016143799 l1.674479866027832,-1.4852646827697753 1.4121673583984375,-1.7564495086669922 l1.3977569580078124,-1.5746956825256349 1.4839917182922364,-1.076533317565918 l1.1782279014587402,-0.369205379486084 1.285112476348877,0.23791115283966063 l1.5418739318847656,0.886876106262207 1.1734901428222657,0.8304278373718261 l1.498477077484131,1.1596041679382325 0.6508637428283691,0.6012917041778565 l0.07718441486358643,0.3994694709777832 m-1.5699897766113282,-11.829896545410156 l-0.1489243507385254,-0.9207901954650879 -0.09793328642845153,-0.4428149700164795 l0.19284188747406006,-0.013656747341156007 0.6634020328521728,0.31699931621551514 m10.984652709960937,12.91995849609375 l0.21447060108184815,0.4301632881164551 0.59982271194458,0.5883817672729492 l-0.9676649093627929,-0.9124666213989258 -0.4777716636657715,-0.9803691864013672 l-2.345972442626953,-2.5132720947265623 -0.87874755859375,-1.9248979568481446 l-0.5292470932006836,-1.7834465026855468 0.5938509941101074,-1.0783185005187987 l1.026280403137207,-0.6550118923187256 1.1977590560913085,-0.11013175249099731 l1.7923200607299805,0.5057687282562255 1.7856128692626954,1.0681442260742187 l1.8803037643432616,1.4879761695861817 0.9534828186035156,1.4954822540283204 l0.6044233322143555,1.2889484405517577 0.05383362174034119,0.8628093719482421 l0.24547488689422609,0.6781224250793457 -0.23557636737823487,0.023058012127876282 l0.13574109077453614,-0.008048014342784881 m15.375796508789062,-17.888726806640626 l-0.1531394600868225,-0.2595543622970581 -0.05917943716049194,0.25229220390319823 l-0.17327332496643066,1.698968505859375 -0.22648544311523439,2.726016044616699 l-0.25051259994506836,3.785477066040039 0.5655466079711914,4.092542266845703 l0.6847009658813477,3.9500064849853516 1.1966203689575194,3.336635971069336 l1.5601600646972655,2.3401927947998047 1.9850557327270508,1.1730898857116698 l1.9381555557250976,0.27606165409088135 1.6423480987548829,-0.5505168437957764 l1.2742024421691895,-1.0629379272460937 0.47066259384155273,-1.576061725616455 l0.0014566184021532536,-1.5791058540344238 -1.1007678985595704,-1.27268705368042 l-1.6587812423706054,-0.6053665161132813 -2.198891830444336,0.4486840724945068 l-1.4693321228027343,1.4139203071594237 -0.6233638763427735,2.190538787841797 l0.4089076042175293,1.7388734817504883 1.9550512313842774,1.5273427009582519 l2.9589492797851564,0.677396011352539 4.295999145507812,-0.07637521028518676 m15.591519165039063,-6.8073570251464846 l-0.29530346393585205,0.015382814407348632 -0.06513189673423767,0.5895407199859619 l0.13235979080200194,1.112631893157959 0.48303971290588377,0.6660244941711426 l1.3310983657836915,0.8181909561157227 1.095425796508789,-0.37138853073120115 l1.9490875244140624,-0.697637939453125 2.0115251541137695,-1.2512182235717773 l1.7954574584960938,-1.4868656158447267 1.1724743843078613,-1.0163934707641602 l0.5076040744781494,-0.7688767433166503 0.5522679328918457,0.13574702739715577 l0.23580322265625,0.5530556678771973 0.5034566879272461,1.182972526550293 l1.0617514610290528,1.435902976989746 1.017977237701416,1.152102565765381 l1.8340417861938476,0.8729179382324219 2.2183313369750977,0.849481201171875 m8.909585571289062,-13.497618103027344 l0.7815700531005859,1.5838579177856444 0.3871309280395508,2.27545166015625 l0.36052370071411133,2.532805633544922 0.40574159622192385,2.851948928833008 l0.37936086654663087,2.18771915435791 0.7133450031280517,2.137800407409668 l0.7512729167938232,1.1540719985961914 m-10.230316925048829,-5.222666168212891 l2.8060205459594725,-0.98410062789917 3.5791431427001954,-1.4471567153930665 l4.7245361328125,-0.9613908767700196 3.9142223358154298,-1.4572078704833984 m-1.8484527587890625,-6.3272850036621096 l-0.296268367767334,-0.06453717947006225 0.04569069147109985,0.1996838092803955 l1.030593490600586,1.2244677543640137 1.6164546966552735,1.798835563659668 l1.7349239349365235,1.6485876083374023 1.9020450592041016,1.7512828826904296 l1.1102290153503418,1.5208420753479004 0.07918363213539123,1.1966485023498534 l0.9363459587097168,1.1742570877075196 0.16110516786575318,0.5459949970245361 l0.5995219230651856,0.5811448574066163 0.9075299263000488,0.29739990234375 l1.7018537521362305,0.2881964445114136 1.2938946723937987,0.08841603994369507 l0.5461826324462891,-0.22556333541870116 -0.17434136867523192,-0.1739135980606079 l-0.637894582748413,-0.27025504112243653 -1.4248913764953612,-0.41639132499694825 l-1.9536424636840821,0.07386574149131775 -1.534434700012207,0.5460986614227294 l-0.6351224899291992,0.8405864715576172 0.343027925491333,0.7851799011230469 l1.6252429962158204,0.7696783065795898 2.997293472290039,0.6874382495880127 l3.453701400756836,0.1289612054824829 3.0073883056640627,-0.461884880065918 m5.690931701660157,-17.585330200195312 l0.18352837562561036,-0.06008220314979553 -0.07689815163612365,0.1289145827293396 l0.3204989433288574,1.1689037322998046 0.7321797370910644,2.3741737365722657 l0.5105822086334229,3.046757125854492 0.7193477153778076,3.3421890258789064 l-0.09435344338417054,2.6429365158081053 0.470427131652832,1.982588005065918 l0.009659696370363235,1.062504196166992 -0.20441341400146484,0.01005614995956421 l0.6538595199584961,0.1305532217025757 -0.5741660594940186,-0.7484686374664307 l-1.3488373756408691,-1.1038622856140137 -1.7192937850952148,-0.8047995567321777 l-1.5996458053588867,-0.5496212005615234 -0.8641851425170899,-0.4235126495361328 l-0.13200218677520753,-0.38739278316497805 0.626012134552002,-0.43895559310913085 l1.064906692504883,-1.032282257080078 1.450273323059082,-1.004193115234375 l2.4662897109985353,-0.690781545639038 2.552045440673828,-0.09803423881530762 l1.7363460540771485,0.17600603103637696 1.6548973083496095,0.6235640525817872 l1.0460320472717286,0.8561459541320801 1.215273094177246,1.2339917182922364 l0.9226018905639648,1.0469465255737305 1.0659427642822266,0.6608461380004883 l1.8093538284301758,0.3310997724533081 1.2827648162841796,-0.3535296440124512 l1.752541732788086,-0.7926194190979003 1.3600245475769044,-1.1329706192016602 l1.1941482543945312,-0.9547357559204102 0.6301549911499024,-0.18592716455459596 l-1.1249238967895507,-0.5121006011962891 -0.6272702693939209,0.1978348970413208 l-1.7989961624145507,0.5232205390930176 -1.0709693908691407,0.9718639373779296 l-0.5904012203216553,1.3839832305908204 -0.023665688931941986,1.7121469497680664 l1.3317106246948243,1.6267894744873046 2.1333633422851563,1.5359634399414062 l3.4142692565917967,1.0085816383361816 3.4789730072021485,0.014220783114433288 l3.988864517211914,-0.18666224479675292 3.382776641845703,-1.0381833076477052 l2.5146629333496096,-1.0377418518066406 0.7467327117919922,-1.7360101699829102 m-2.2413291931152344,-9.970840454101562 l1.2920912742614745,-0.8110128402709961 0.7945321083068848,-1.5393720626831056 l0.5003790378570556,-1.9565694808959961 -0.6484708309173584,-2.2590112686157227 l0.12221111059188842,-1.9743873596191406 -1.0239272117614746,-1.2710660934448241 l-0.34528360366821287,-0.43720250129699706 -0.04089089035987854,0.05359833836555481 l0.5292797088623047,1.0206659317016602 -0.5804852485656739,2.402236557006836 l0.25937724113464355,4.026699447631836 0.787175178527832,4.719367218017578 l1.0507450103759766,4.588402175903321 1.2315771102905273,3.984541320800781 l1.2925987243652344,3.135203170776367 0.8334792137145997,1.6290128707885743 l0.1354668617248535,0.5584258556365966 0.2627552032470703,-0.06829217672348023 l-0.3241181612014771,-0.5116293430328369 -0.5923448085784913,-1.0021227836608886 m-6.980617523193359,-7.501392364501953 l-0.1756954789161682,0.021754848957061767 0.15472060441970825,-0.06903931498527527 l0.20091352462768555,-0.18723413944244385 3.2109233856201174,-0.18674099445343018 l2.502347946166992,-0.551754093170166 3.263667678833008,-0.31181442737579346 l3.066463851928711,0.13152445554733277 2.239772415161133,-0.3062947988510132 l1.912636947631836,-0.2630234956741333 m37.888946533203125,-8.121710205078125 l0.14572696685791015,-0.44359488487243653 -0.1452963948249817,-0.20712656974792482 l0.011014006286859512,0.05418132543563843 0.16240614652633667,0.6521651744842529 l-0.12756496667861938,1.8529619216918944 -0.32765707969665525,3.0611440658569338 l-0.26641030311584474,3.8926113128662108 -0.051014065742492676,4.504112243652344 l-0.20924549102783202,4.131416702270508 0.37156829833984373,2.8799800872802734 l0.8462954521179199,1.7346712112426759 0.9780091285705567,0.5591121673583984 l0.9757743835449219,-0.34635493755340574 1.3353046417236327,-1.032248306274414 l1.1927154541015625,-1.0467573165893556 0.8154744148254395,-0.43271737098693847 l0.857505989074707,0.13812463283538817 1.411174201965332,0.5191417694091797 l0.01418667882680893,0.5656433582305909 0.35297703742980957,0.41672320365905763 l0.25000629425048826,0.04116697609424591 -0.23967747688293456,-0.08848320245742798 l-0.1147159218788147,-0.7620928287506104 -0.2755082607269287,-0.6861304759979248 m0.5798980712890625,1.19706449508667 l1.3470181465148925,0.7176212787628173 2.501175308227539,-0.00975242182612419 l2.3404094696044924,-1.0667737960815429 2.5191455841064454,-1.895570945739746 l2.490025520324707,-2.3623703002929686 1.902487564086914,-2.229064178466797 l0.9318771362304688,-1.686763381958008 -0.1317335247993469,-0.8335860252380372 l-0.45336384773254396,-0.21960086822509767 -0.6770241737365723,0.29104745388031006 l-1.4316129684448242,0.8099508285522461 -0.8017629623413086,2.143006134033203 l-0.8158554077148438,2.7148242950439454 0.050405693054199216,2.814386749267578 l0.7590091228485107,2.161944580078125 1.803766632080078,1.4410300254821777 l2.2512807846069336,0.47944025993347167 2.831466484069824,-0.25246338844299315 l3.0437543869018553,-0.8958749771118164 2.176837921142578,-1.2011831283569336 l1.3853668212890624,-1.7550603866577148 0.5559488296508789,-1.6008026123046875 l-0.17568963766098022,-1.5186067581176759 -0.9501776695251465,-1.3594573974609374 l-1.4960738182067872,-1.3533516883850099 -1.5281194686889648,-0.9459218978881836 l-1.378623104095459,-0.3248558521270752 0.15495095252990723,0.22040214538574218 l-0.3842251539230347,-0.02464243620634079 0.08412721157073974,0.07182538509368896 l1.945549774169922,0.6885446548461914 m17.12352294921875,4.0503997802734375 l0.37644481658935547,-0.14185068607330323 0.45935497283935545,-0.4365667819976807 l0.3659829616546631,-0.6594889640808106 0.40439481735229493,-1.0898849487304687 m-2.6227437973022463,-3.600429153442383 l-2.6706521987915037,-0.2243204355239868 -2.242489051818848,-0.1408296823501587 l-1.1501046180725099,0.420837926864624 -0.46054692268371583,0.9881211280822754 l-0.09988349676132202,1.463381576538086 0.9301327705383301,1.512988567352295 l2.5257068634033204,1.427308940887451 2.098932647705078,0.8754514694213867 l3.055423927307129,0.6935901165008544 2.3019180297851562,0.45589656829833985 l1.699346923828125,0.3772535800933838 0.6795192241668702,0.03347368240356445 l0.21140246391296386,-0.0001595088862814009 -0.18218921422958373,-0.03544439077377319 l0.07513631582260132,-0.08144770860671997 -0.6838902473449707,0.2089247703552246 l-1.7480342864990235,-0.008396300673484802 0.004608328640460968,0.03591331541538238 l-0.42420387268066406,-0.7916224002838135 m30.627359008789064,-14.094058227539062 l-0.5386113166809082,-1.308331298828125 -0.9440249443054199,-1.24072208404541 l-1.5002622604370117,-0.8372097969055176 -2.0601470947265623,-0.19358229637145996 l-2.0685823440551756,0.5938776016235352 -1.7486555099487304,1.038667869567871 l-0.9623152732849121,1.6855243682861327 -0.041231825947761536,2.6163251876831053 l-0.2306696891784668,3.6867000579833986 " fill="none" stroke="black" stroke-width="1" /></svg>