<?xml version="1.0" encoding="utf-8" ?>
<svg baseProfile="full" height="131.07547794878485" version="1.1" width="891.6379151642338" xmlns="http://www.w3.org/2000/svg" xmlns:ev="http://www.w3.org/2001/xml-events" xmlns:xlink="http://www.w3.org/1999/xlink"><defs /><rect fill="white" height="131.07547794878485" width="891.6379151642338" x="0" y="0" /><path d="M25,57.58176377862692 m66.56505126953125,-21.491436767578126 l0.04377453923225403,-0.8077127456665039 0.18589580059051514,-0.7874436378479004 l-0.3137445688247681,-1.2826530456542968 -0.5998227596282959,-1.7663936614990234 l-0.5776004314422607,-1.6605545043945313 -1.6915096282958983,-1.5796972274780274 l-2.264413833618164,-1.3011232376098634 -3.027781295776367,-0.32935688495635984 l-3.2754539489746093,0.604511022567749 -4.149445343017578,2.0538291931152344 l-5.769863128662109,2.872005081176758 -5.275674438476562,4.272944641113281 l-4.7551532745361325,4.556974029541015 -2.685165214538574,5.129860687255859 l-1.768287467956543,4.985700988769532 -0.24739716053009034,4.901449203491211 l0.9021697998046875,4.2208293914794925 2.438142776489258,3.4825645446777345 l2.7892745971679687,1.9054988861083983 4.177436065673828,0.6723916053771972 l4.8767436981201175,-0.9007905006408692 5.817569351196289,-2.037636566162109 l6.781106567382812,-2.636867332458496 6.813027954101562,-3.0346126556396484 l5.92255973815918,-2.8734127044677735 3.724853515625,-3.018232536315918 l1.9313238143920899,-2.2364429473876952 1.3411706924438476,-0.2935673952102661 l-0.6429428100585938,-0.05154376029968262 -1.7305900573730468,0.6904023170471192 l-2.2367168426513673,2.1429725646972657 -3.0074745178222657,2.790163993835449 l-1.6406429290771485,3.5960742950439455 -0.6170005798339844,3.532822036743164 l1.101387119293213,3.279501724243164 2.5946208953857424,1.9109176635742187 l4.45987548828125,0.7075116634368896 5.517078399658203,-1.4221491813659668 l7.0018455505371096,-2.161441993713379 6.575273132324218,-3.1480148315429686 m41.76985168457031,-9.888693237304688 l-0.4382315635681152,-0.771280574798584 -0.5177998542785645,-1.39766845703125 l-0.9072848320007324,-1.6091194152832031 -3.0442895889282227,-1.6802309036254883 l-4.156867980957031,-0.6024517059326172 -4.250748062133789,0.6253569602966309 l-4.289037704467773,1.9338155746459962 -3.0854118347167967,3.207599639892578 l-2.1541187286376955,3.6044284820556642 -0.5257057666778564,3.5241157531738283 l1.0984251022338867,2.2747261047363283 1.7986837387084962,0.6803153038024903 l3.221223831176758,-0.2124774217605591 4.618497467041015,-1.9702703475952148 l5.353790283203125,-2.740190315246582 4.385673141479492,-3.242327880859375 l3.7563575744628905,-1.8020589828491211 -0.6578754901885986,-0.3662098407745361 l-0.6297780990600585,0.7566222190856934 -1.22294340133667,2.1303756713867186 l-1.1344866752624512,2.18062744140625 0.04641626477241516,2.227871131896973 l1.28959321975708,2.2268774032592775 1.9001739501953125,1.1670099258422852 m30.683203125,-11.698527526855468 l0.3059621095657349,0.2658697605133057 -1.1948452949523927,0.7448492527008057 l-0.9155655860900879,2.8785608291625975 -2.304511833190918,4.605651092529297 l-1.9714014053344726,6.009561157226562 -1.8333417892456054,7.3673561096191404 l-1.7705490112304687,7.085926818847656 -1.624319839477539,7.016862487792968 l-1.4261672973632813,4.579930114746094 -0.6344954490661621,2.064585876464844 l-0.48755292892456054,-0.27041194438934324 m3.1217241287231445,-37.60010986328125 l2.2816848754882812,-5.121067810058594 3.9186195373535155,-4.467957305908203 l7.463114929199219,-3.1174388885498048 6.921074676513672,0.7110645294189453 l5.06474609375,1.9857614517211915 4.001914215087891,3.4452056884765625 l1.462633991241455,3.1642860412597655 -1.2989326477050782,2.9337596893310547 l-3.954947662353516,2.185712432861328 -5.059946441650391,1.9663206100463868 l-5.5411323547363285,0.7517953395843506 -3.583342361450195,-0.2138953685760498 l-1.7931838989257813,-0.6064236164093018 0.5951628684997559,-0.9151457786560059 l2.5355411529541017,-1.4475963592529297 5.634870529174805,-0.7533123016357421 m37.84231872558594,-3.3187946319580077 l0.268045449256897,-0.3128700256347656 -1.8006978988647462,-1.2116165161132812 l-1.650313377380371,-0.854036521911621 -1.7990406036376954,-0.7003654479980469 l-2.967796516418457,0.24303810596466063 -3.2038990020751954,1.4816664695739745 l-3.249186706542969,2.840974807739258 -3.173359680175781,3.781577301025391 l-1.8679283142089844,3.5271190643310546 0.8455913543701172,2.4543384552001952 l2.8042247772216795,0.9008609771728515 3.7456172943115233,-0.967127513885498 l3.8093845367431642,-2.2904491424560547 3.2951885223388673,-2.8760337829589844 l2.6929569244384766,-2.132704162597656 1.4490565299987792,-1.1394926071166993 l-0.22096610069274902,0.016089029610157013 0.06925712823867798,0.3232497930526733 l-1.2585250854492187,2.368458557128906 -0.4135692596435547,2.7140405654907225 l0.6977035999298096,1.3957921981811523 2.8111696243286133,1.0941351890563964 l4.182340621948242,-0.3341085433959961 m17.385736083984376,-12.17361068725586 l-1.1157565116882324,-1.1086090087890625 -0.8978635787963867,-0.5348859786987304 l-1.942194366455078,-0.2180864095687866 -3.8931419372558596,0.37871532440185546 l-3.4670455932617186,1.2335922241210937 -2.094942092895508,1.804159927368164 l-0.9264658927917481,2.2905054092407227 0.8329927444458007,2.2730472564697264 l2.328217697143555,1.6514760971069335 3.147130584716797,1.312096405029297 l2.937635040283203,0.9195047378540039 2.0415279388427736,1.4461816787719726 l0.16293294429779054,0.35240955352783204 0.16286170482635498,0.24746320247650147 l-1.409542942047119,0.35014545917510986 -2.4159782409667967,-0.06436150670051574 l-3.142100143432617,-0.49623794555664064 m37.785403442382815,-36.54478759765625 l-0.176447331905365,0.16644864082336425 -0.14916665554046632,0.09102022647857666 l0.2557338237762451,0.8629133224487304 -0.6155657291412353,2.5951438903808595 l-1.2502264022827148,4.089531326293946 -1.3406100273132324,5.565753173828125 l-0.8741559982299805,6.293082809448242 -0.918458080291748,5.949681091308594 l-1.2270722389221191,5.496384048461914 -0.5215177536010742,4.942857360839843 l-0.15106465816497802,3.696778106689453 0.3282227754592896,1.9883821487426758 l1.6075870513916015,0.8204435348510742 2.4988765716552734,-0.5597109317779541 l2.905210494995117,-1.8765581130981446 3.6928325653076173,-2.2812873840332033 m2.2802106857299806,-2.612149238586426 l1.8390209197998046,-1.723411750793457 1.993248748779297,-2.355950927734375 l2.5580108642578123,-3.094906234741211 1.9057601928710937,-3.4898300170898438 l2.4142730712890623,-3.356059265136719 0.3142679691314697,-2.8503904342651367 l0.08029851913452149,-2.103281784057617 -0.5340444564819335,-1.2732158660888673 l-2.1075555801391603,-0.5557546615600586 -2.5852310180664064,0.6963508129119873 l-2.934975814819336,2.158519744873047 -2.45910530090332,4.03181266784668 l-0.8887347221374512,4.416770553588867 0.7039920806884765,4.449004745483398 l2.127364921569824,3.3990100860595702 2.9219692230224608,2.565946578979492 l3.167642593383789,1.492635726928711 2.6906917572021483,0.5301134586334229 l2.790793228149414,-0.39963743686676023 1.9791664123535155,-1.156470775604248 l2.4609100341796877,-2.72628173828125 1.1945123672485352,-2.8049835205078124 l0.1693161129951477,-2.733893394470215 -1.2339309692382812,-2.8090435028076173 l-1.7639333724975585,-2.332716369628906 -2.51479549407959,-1.3085615158081054 l-1.7270721435546874,0.07366400957107544 m10.18265151977539,-4.379600143432617 l0.13509923219680786,0.04435465335845947 1.8642387390136719,-0.4099329948425293 l2.1781906127929687,-0.7544071197509765 2.783796691894531,-1.4709972381591796 l3.334203338623047,-1.6859375 2.810771179199219,-1.7752157211303712 l1.8487825393676758,-0.6771980285644531 0.9527750015258789,-0.13147622346878052 l0.25974833965301514,0.7740111827850342 -0.6114301681518555,2.6395763397216796 l-0.45781331062316893,3.9287872314453125 -0.5973207950592041,5.198082733154297 l-0.8029941558837891,5.708677673339844 -1.1305408477783203,5.608212280273437 l-0.4881442070007324,4.9415325164794925 -0.27140796184539795,2.274921417236328 l0.023188209533691405,0.6804130554199219 0.22188398838043213,-0.5091593265533447 l-0.12145794630050659,-2.3542367935180666 -0.5399075031280518,-3.509329986572266 l-1.3238933563232422,-2.580959510803223 -2.0022567749023437,-1.0754599571228027 l-1.6762510299682618,-0.1434719443321228 -0.7819266319274902,0.13716447353363037 l0.6359207153320312,0.44025893211364747 2.290712356567383,0.8538335800170899 l4.350776290893554,0.34517407417297363 4.5040748596191404,0.2525317192077637 m18.731936645507812,-1.9652584075927735 l-0.01843399703502655,-1.0099374771118164 -1.066643524169922,-0.9758998870849609 l-1.0682077407836914,-0.15243982076644896 -2.670865058898926,-0.26233055591583254 l-3.0754505157470704,1.430385208129883 -3.1008584976196287,2.4987125396728516 l-2.115843963623047,2.988338279724121 -1.4194499015808106,3.149668884277344 l-0.39787566661834717,2.926108551025391 0.7783135414123535,2.363918495178223 l1.1291206359863282,0.6405732154846191 2.6202478408813477,-0.7900257587432862 l3.5078044891357423,-2.489472579956055 3.520137405395508,-3.1309186935424806 l2.3517494201660156,-2.6418178558349608 0.9188776969909668,-1.6077095031738282 l0.12919085025787352,-0.24567961692810059 -0.06171390414237976,0.032765594124794004 l-0.4679131984710693,1.1313972473144531 -1.2123178482055663,4.033426284790039 l-1.379075527191162,5.035789489746094 -1.098954677581787,5.709032440185547 l-1.0395283699035645,6.308503723144531 -1.1716989517211913,6.4328460693359375 l-1.7344654083251954,5.951902389526367 -2.879459571838379,5.134003067016602 l-3.5504104614257814,3.6583553314208985 -4.364399337768555,2.0878578186035157 l-4.579248046875,0.49508090019226075 -3.784577178955078,-1.1776686668395997 l-2.6350772857666014,-2.116827201843262 -0.6121155738830566,-2.8748037338256838 l1.467490005493164,-3.310047912597656 3.005068778991699,-3.7225452423095704 l3.231427764892578,-3.0228416442871096 3.5028385162353515,-1.837832260131836 m59.880853271484376,-31.914208984375 l-1.6775243759155274,-0.9263047218322754 -2.7902679443359375,-0.5728016376495362 l-3.278788757324219,1.165384864807129 -4.706673431396484,2.505842590332031 l-4.3934062957763675,3.7450672149658204 -3.364996337890625,4.695156860351562 l-1.7125724792480468,4.8744548797607425 0.5908320426940918,3.8099151611328126 l2.239497947692871,2.0752172470092773 3.6198104858398437,-0.013963666558265687 l5.045951461791992,-1.771534538269043 5.29901351928711,-3.601307678222656 l4.056769943237304,-4.985690307617188 3.377141571044922,-4.303138351440429 l0.7549967288970947,-2.8326608657836916 -0.5779109954833984,-1.5224246978759766 l-0.6975926876068115,-0.23672280311584473 -0.7956189155578614,0.21906259059906005 l-0.634248924255371,0.8347375869750977 0.2892249584197998,1.5058771133422852 m12.979910278320313,-3.033692169189453 l-0.24806382656097412,-0.2355252981185913 -0.9176687240600586,0.13399161100387574 l-0.6209968566894531,0.7093638420104981 -0.9611891746520996,0.3562762260437012 l0.14492402076721192,1.2782282829284668 0.5870513439178466,1.2055213928222657 l2.5443355560302736,2.0101301193237306 2.02355842590332,1.4050546646118165 l2.2566755294799803,1.5502992630004884 1.4988598823547363,1.5556001663208008 l0.698594331741333,1.7678281784057617 -0.10585664510726929,2.390829849243164 l-0.5936052322387695,3.0553619384765627 -1.6913806915283203,3.2947757720947264 l-1.7147592544555663,3.2865100860595704 -2.1438011169433593,1.9637605667114257 l-1.774442481994629,0.15417999029159546 -0.5610520362854003,-1.1133602142333985 l-0.5932002067565918,-4.4499366760253904 m24.476589965820313,-25.06449737548828 m-1.4967426300048827,-2.8368234634399414 l-0.41720261573791506,0.9400270462036133 -1.0269108772277833,2.3779071807861327 l-1.5697383880615234,3.81456298828125 -1.5090314865112304,4.757611083984375 l-1.283677864074707,4.724530029296875 -1.6282543182373046,4.53938102722168 l-0.7146024703979492,3.424099349975586 -0.37473158836364745,1.504127025604248 l-0.058022153377532956,0.0882520079612732 0.6264794349670411,-2.198714256286621 l1.7154731750488281,-5.320320510864258 3.0711462020874025,-5.91856575012207 l3.4893562316894533,-4.737426376342773 2.798445701599121,-3.2116111755371093 l2.1215465545654295,-1.451474952697754 1.4962577819824219,0.12506654262542724 l0.8793326377868652,2.286085510253906 0.5440677642822266,4.226826477050781 l-0.05574078559875488,5.435245132446289 -0.2093214750289917,4.839527130126953 l0.03522307276725769,3.545451354980469 1.1296191215515137,2.0487319946289064 l1.8813426971435547,0.6528291225433349 2.3452823638916014,-0.667388916015625 l2.5914819717407225,-1.3192926406860352 3.1564157485961912,-1.1118010520935058 l2.45727424621582,-1.2611533164978028 1.862678337097168,-0.3392956256866455 l1.0547826766967774,-0.6237838268280029 -0.470082950592041,-0.7371566295623779 l-0.578780221939087,-0.5353916168212891 -1.6020408630371095,-1.1104562759399415 l-2.683403205871582,-0.6333807945251465 -3.4258037567138673,0.36185307502746583 l-3.1409076690673827,0.7975564002990723 -1.885441780090332,1.226780891418457 l-0.5810676574707031,1.3535737991333008 0.9709819793701172,0.8514668464660644 l1.8859296798706056,0.37730672359466555 1.7443120956420899,-0.06222690343856811 l0.7106219291687011,-0.11019552946090698 0.3477772235870361,0.258772611618042 l-0.3303856611251831,0.6324080944061279 0.16511924266815187,1.2692879676818847 l-0.3657984256744385,1.33903169631958 -0.3799300670623779,0.8010555267333984 l0.42177543640136717,0.49883327484130857 0.3947282791137695,-0.034076797962188723 l1.402425193786621,-0.43707966804504395 1.4914507865905762,-1.1994709014892577 l1.1355972290039062,-1.3141666412353517 0.8136244773864746,-0.5280277252197265 l0.41392974853515624,0.10447497367858886 0.7030055046081543,0.7482947826385498 l-0.4593236446380615,0.4989753246307373 0.2015249490737915,1.5234108924865724 l-0.4838311195373535,1.7442434310913086 -0.14267683029174805,2.1641944885253905 l-0.3320366382598877,2.4425546646118166 -0.417207670211792,2.2936641693115236 l-0.646538257598877,2.271578788757324 -0.7003331184387207,2.286614990234375 l-1.1353245735168458,1.8829385757446289 -0.9877840995788574,1.6225284576416015 l-1.0330299377441405,0.887575340270996 -0.07391048669815063,0.13125377893447876 l-0.3808999300003052,-0.5017874240875244 -0.042918598651885985,-0.9914206504821778 l-0.43927536010742185,-1.5752081871032715 -0.55621337890625,-1.8074655532836914 l0.4976183891296387,-1.6979667663574218 0.941617774963379,-1.8271495819091796 l1.6154678344726563,-1.9511032104492188 0.9733036041259766,-2.0789098739624023 l1.9617734909057618,-1.3828102111816407 2.5266199111938477,-0.9260866165161132 m40.36668701171875,-14.69454345703125 l-0.3816672325134277,-0.34264776706695554 -0.4877033710479736,-0.2386298656463623 l-0.20806279182434081,-0.3268009424209595 -0.7750594615936279,-0.3780039310455322 l-1.0740981101989746,0.02098989188671112 -1.3121587753295898,0.7656112670898437 l-2.1659263610839843,1.7480262756347655 -2.2656600952148436,2.6506931304931642 l-1.5925989151000977,2.9934410095214843 -0.8199090003967285,2.6441221237182617 l0.38222699165344237,2.610394287109375 0.482433557510376,1.6248628616333007 l0.7915949821472168,1.0106009483337401 1.1621316909790038,0.4531336784362793 l1.2158512115478515,-0.24692139625549317 1.0202648162841796,-0.9838724136352539 l1.7945289611816406,-1.805483627319336 1.8413848876953125,-2.4491500854492188 l1.4325881004333496,-2.538239288330078 1.1853705406188966,-2.3290319442749023 l1.3091245651245118,-1.539197063446045 -0.07404519319534301,-1.4096645355224608 l-0.07602245807647705,-0.2697641611099243 0.18770034313201905,0.11080530881881714 l-0.318141508102417,0.19051088094711305 0.0760909378528595,1.7960931777954101 l0.19683492183685303,2.27130126953125 0.1927852749824524,1.7652587890625 l0.5002005577087403,1.4743579864501952 0.6201433181762696,0.43447237014770507 l0.9980957984924317,-0.3435271978378296 1.1818909645080566,-0.7595325469970703 l1.4575262069702148,-1.6793546676635742 1.9726127624511718,-1.8778448104858398 l1.6627130508422852,-2.086688232421875 1.5681472778320313,-1.475568675994873 l0.9763313293457031,-0.3528307914733887 0.6598508834838868,0.5708122730255127 l0.7411639213562011,1.0221935272216798 0.372939133644104,1.3811187744140625 l0.1666062593460083,0.7754970073699952 0.8472981452941895,0.41941113471984864 l0.9977596282958985,0.06035760045051575 0.31816835403442384,-0.32813448905944825 l0.7967795848846435,-0.5490255355834961 0.4836512565612793,-0.8404428482055664 l0.7916737556457519,-1.4125489234924316 1.2446450233459472,-1.3732260704040526 l0.8576273918151855,-0.8011086463928223 0.4567667007446289,-0.10515601634979248 l0.5951744079589844,0.48697824478149415 0.9089426040649414,1.6057950973510742 l0.8985307693481446,1.3955753326416016 0.796593427658081,0.8499456405639648 l0.860108757019043,0.08371127843856811 0.6201879501342773,0.012435813248157502 l0.3764507532119751,-0.6577975749969482 0.6909513473510742,-0.8253811836242676 l1.0833430290222168,-0.7398554801940918 0.8104759216308594,-1.135246181488037 l0.8838540077209472,-1.647968864440918 1.3110750198364258,-1.2711746215820312 l1.4398241996765138,-1.3005966186523437 1.366143798828125,-1.1319397926330566 l1.411242961883545,-0.5051322460174561 1.1179866790771484,-0.15533612966537474 l0.24464185237884523,-0.10029363632202148 0.18424630165100098,0.14773095846176149 l0.08979963660240173,0.18733325004577636 -0.5190306663513183,0.05087546110153198 l0.2367844581604004,0.6286715984344482 -0.21226401329040528,0.7597442626953125 l-0.479097318649292,1.2351554870605468 -0.6375463008880615,1.3540151596069336 l-0.7445409297943115,1.5548666954040526 -0.7662361145019532,1.666252899169922 l-0.12726641893386842,1.7343784332275392 -0.7751565933227539,0.9800058364868164 l0.22411754131317138,1.0150150299072265 -0.5866611480712891,0.22994537353515626 l0.22028162479400634,0.24431869983673096 0.11557959318161011,-0.11596421003341675 l-0.573357343673706,-0.9499174118041992 -0.026358145475387573,-1.1393303871154785 l0.044494473934173585,-1.3230265617370605 0.06335023045539856,-0.9900479316711426 l0.05936705470085144,-1.1129034042358399 -0.10715157985687256,-0.8102750778198242 m15.658502197265625,-11.877992248535156 l-0.10316132307052613,1.8618324279785157 -0.24160728454589844,2.6273902893066405 l-0.10448620319366456,3.759119415283203 0.7969038009643554,5.116191864013672 l-0.26966774463653564,5.179886245727539 -0.4142143249511719,4.001353454589844 l-0.13758527040481566,3.3101390838623046 -0.4815122127532959,1.9528783798217773 l0.12333648204803467,0.8090324401855469 0.34270391464233396,0.13587325811386108 l0.13984551429748535,-0.11123547554016114 0.13262535333633424,-0.712841272354126 l0.06561180353164672,-2.1340358734130858 0.21331169605255126,-2.5277660369873045 l0.06014890670776367,-2.9348028182983397 0.2705929517745972,-3.992324447631836 l0.8245457649230957,-3.616869354248047 0.6046886444091797,-3.0528486251831053 l0.5276569366455078,-1.9134986877441407 1.3471151351928712,-0.8690570831298828 l1.266408348083496,-0.7111430168151855 1.221914291381836,-0.2038198709487915 l0.8436954498291016,-0.17534440755844116 1.124326515197754,0.5375672340393066 l1.4795982360839843,1.4447809219360352 0.4900027275085449,2.1397571563720703 l-0.3440415382385254,2.2482673645019533 -0.46530399322509763,2.336317443847656 l-1.6334135055541992,1.8306787490844727 -1.706161880493164,1.226538848876953 l-1.2252687454223632,0.7857246398925781 -1.250421142578125,0.15187313556671142 l-0.9205337524414062,-0.020435822010040284 -0.4040400505065918,-0.2693751335144043 l-0.24842374324798583,-0.49473004341125487 1.1055134773254394,0.24640414714813233 l1.1104576110839843,-0.2521647930145264 1.2020217895507812,-0.9126187324523926 l2.492450714111328,-0.8482064247131348 2.8794126510620117,-1.103234100341797 l3.3157318115234373,-1.2103189468383788 2.771269989013672,-1.462160015106201 l2.697356033325195,-1.9844341278076172 2.506077766418457,-1.9636796951293944 l1.7107234954833985,-2.2447931289672853 1.1251989364624024,-1.7675308227539062 l-0.19300298690795897,-1.1859025001525878 -0.4195250988006592,-0.5921035289764405 l-0.9818891525268555,-0.3525237083435059 -1.3302282333374023,0.3858468532562256 l-1.3763813972473145,1.2296103477478026 -1.2555426597595214,2.0063217163085936 l-1.2236312866210937,2.484378433227539 -0.28441905975341797,2.976500701904297 l0.11206140518188476,2.9924648284912108 0.7740743637084961,2.737021636962891 l1.4031627655029297,2.447646141052246 1.8201644897460938,1.5296191215515136 l1.6810447692871093,0.28242671489715576 2.9361324310302734,-0.16211389303207396 l2.573879623413086,-1.237171745300293 3.436249542236328,-1.5300371170043945 m23.782316589355467,-29.221652221679687 l0.10351600646972656,0.31759371757507326 0.3061525344848633,1.1278095245361328 l-0.09895809888839721,2.309298515319824 -0.06971022486686707,2.705878257751465 l-0.37281007766723634,3.341370391845703 -0.9566594123840332,4.019311904907227 l-0.96590576171875,4.414347839355469 -0.8034881591796875,4.3528388977050785 l-0.7680705070495606,4.1331134796142575 -0.6525446891784668,3.3374847412109374 l-0.7647516250610351,2.473081588745117 -1.0824174880981445,1.6859188079833984 l-1.1778762817382813,0.9028870582580566 -1.1581209182739258,-0.02446363717317581 l-1.4432944297790526,-1.085824203491211 -0.8594438552856445,-1.3928258895874024 m1.727427101135254,-8.156317138671875 l1.3140968322753905,-1.151542854309082 1.6728021621704101,-1.0147122383117675 l2.6503753662109375,-1.1583215713500976 2.9140411376953126,-0.6836967468261719 l2.772616958618164,-0.19363000392913818 2.541669464111328,0.28281149864196775 l2.0864421844482424,0.413195276260376 1.6185754776000976,0.6402000904083252 l1.5981563568115233,0.8920463562011719 0.15730284452438353,0.8300477981567382 l0.3087773323059082,1.5756925582885741 m11.914600372314453,-2.637899398803711 l-0.393508243560791,-1.1012632369995117 -0.9303208351135254,-1.5554956436157226 l-0.9290302276611329,-1.1023382186889648 -1.6111854553222655,-0.4776139736175537 l-1.644742774963379,0.7727673053741455 -1.9540374755859375,2.3680307388305666 l-1.288942241668701,3.2858150482177733 -1.0063411712646484,3.866625213623047 l-0.5890659809112548,3.5972854614257814 0.10603485107421876,2.1308162689208983 l1.0247800827026368,0.7845229625701904 1.0005813598632813,-0.7458205699920655 l2.147619438171387,-1.4189301490783692 1.8260065078735352,-2.8404163360595702 l1.8968650817871093,-3.3977115631103514 1.316195011138916,-3.6404624938964845 l1.3097646713256836,-2.448809051513672 0.6779394626617432,-1.357252597808838 l0.31700916290283204,0.10369648933410644 -0.2823729753494263,0.881742286682129 l-0.7790343284606933,2.7399574279785157 -1.2829740524291993,3.8919654846191407 l-0.32953217029571535,3.514297103881836 0.7746039390563965,2.9378875732421874 l1.3367930412292481,2.098057746887207 1.5279592514038085,0.8266619682312012 l1.7524894714355468,0.17852401733398438 1.7535505294799805,-0.7692776679992676 m4.862090682983398,-5.501212692260742 l0.12814122438430786,-0.3008206129074097 1.2028280258178712,-0.08722429871559143 l1.8616697311401367,-0.5647523403167725 2.6830997467041016,-1.274943733215332 l2.5344011306762697,-2.041685104370117 2.9095516204833984,-2.2672136306762694 l2.0645957946777345,-2.2262399673461912 1.201920986175537,-1.6903411865234375 l-0.3256587028503418,-1.3984965324401855 -1.6202186584472655,-0.6271017074584961 l-1.925804901123047,1.0830035209655762 -2.5368236541748046,2.1179628372192383 l-2.545682907104492,3.190526580810547 -1.2969825744628907,3.9032630920410156 l-0.7358354568481446,3.309553527832031 0.9728775978088379,2.940667152404785 l2.1176855087280275,2.880777359008789 2.9444761276245117,2.2584245681762694 l3.0973512649536135,0.8198662757873535 3.4985366821289063,-0.14200657606124878 l3.5344852447509765,-1.5376384735107422 4.03058090209961,-2.1988899230957033 l3.1995769500732423,-2.41090087890625 2.1171009063720705,-2.3531448364257814 m32.730902099609374,-13.484027099609374 l-0.4222817897796631,-0.38965141773223877 -0.14848096370697023,-0.31528687477111816 l-0.23234882354736328,-0.23912384510040283 -0.2676337957382202,0.12198587656021118 l-1.5750730514526368,0.21484730243682862 -1.3622282028198243,1.6428487777709961 l-2.0050926208496094,2.4749448776245115 -1.792983055114746,3.874089813232422 l-1.1068259239196778,3.893290328979492 0.13812142610549927,3.203578567504883 l0.7382812976837159,1.6180191040039062 1.645479393005371,0.8936497688293457 l2.0076486587524416,0.24396560192108155 2.2546281814575195,-0.3653151750564575 l2.1750070571899416,-0.7078395366668702 2.285797882080078,-0.680512523651123 m13.794198608398437,-5.808858489990234 l0.8868269920349121,-0.7034600257873536 1.1904504776000977,-1.3312345504760743 l0.7027229785919189,-2.1842575073242188 0.3181875944137573,-2.448857879638672 l0.40343689918518066,-1.9943044662475586 -0.2019188404083252,-2.0443065643310545 l-0.8640158653259278,-2.0965059280395506 -1.3264358520507813,-1.0494442939758302 l-1.4901260375976562,0.25264265537261965 -1.7838842391967773,1.355171012878418 l-2.0552186965942383,2.6935493469238283 -2.5201351165771486,3.5838237762451173 l-1.0700827598571778,4.213436508178711 -0.25499658584594725,3.7670387268066405 l0.9325242042541504,2.8262962341308593 0.9668892860412598,1.2655614852905273 l1.392538833618164,0.4791224479675293 2.1495847702026367,-0.29956908226013185 l2.724478912353516,-1.2532903671264648 2.2659465789794924,-2.94409065246582 l1.9714887619018555,-3.4226757049560548 2.458246612548828,-2.965769958496094 l1.1149930000305175,-2.704979133605957 0.5676479339599609,-2.1189577102661135 l0.46528162956237795,-0.9003602027893066 -0.016231048107147216,-0.25208971500396726 l0.23118791580200196,0.2103630542755127 -0.20700464248657227,0.28387603759765623 l-0.6340667724609375,2.744362640380859 -0.8538190841674804,3.547290802001953 l0.6047831058502198,3.08172607421875 0.4407991886138916,2.336551284790039 l0.7962154388427735,1.7947652816772461 0.7945452690124511,0.9482563972473145 l1.082755947113037,0.3205642938613892 0.7901803016662597,-0.5700897216796875 m10.578479766845703,-13.190997314453124 l-0.15061956644058228,-0.3326216220855713 0.10072001218795776,0.19111888408660888 l-0.3417032241821289,1.4738821983337402 -1.0543745040893555,2.752846908569336 l-0.49559569358825684,4.663111877441406 -1.6031635284423829,3.639948272705078 l-0.9642943382263184,2.0967996597290037 -0.13838868141174315,0.8838935852050781 l-0.024330952763557435,-0.14791356325149535 0.5236136436462402,-0.16747782230377198 l0.7404146671295166,-1.668684959411621 3.0566898345947267,-3.224730682373047 l2.3422563552856444,-4.216375350952148 2.9067821502685547,-3.05849552154541 l2.028227996826172,-2.210181999206543 1.8837703704833983,-0.6866391181945801 l0.6614959239959717,0.30814762115478517 0.9124591827392579,1.2859030723571778 l0.05974640250205994,2.8007061004638674 -0.2625967264175415,3.08001823425293 l-0.004763293266296387,3.078443717956543 0.16770118474960327,2.4971508026123046 l-0.3613475561141968,1.8735391616821289 m4.003940582275391,6.111568832397461 l-0.14542849063873292,2.8093366622924805 -0.5509355545043946,3.6649120330810545 l-0.9836910247802735,2.9381196975708006 -0.6645289421081543,2.5927038192749023 m38.32040710449219,-35.88120727539062 l-0.0728638768196106,-0.42027907371520995 0.2943150997161865,0.08443003296852111 l-0.09408684968948364,0.1772916316986084 -0.23536176681518556,1.102903461456299 l0.061223453283309935,2.630726623535156 -0.12187724113464356,4.078986740112304 l0.3931443691253662,5.006363296508789 0.21340205669403076,4.182651138305664 l0.7035811424255372,2.31044979095459 0.8503318786621094,0.7593987464904786 l1.4612850189208983,-0.20848188400268555 1.9161415100097656,-0.774470329284668 l1.3197437286376954,-1.8593996047973633 1.6143585205078126,-2.486863708496094 l2.181411361694336,-3.9993141174316404 1.4625130653381349,-4.044360733032226 l0.7756914138793946,-2.666469192504883 0.8289846420288086,-1.2646867752075195 l-0.32689104080200193,-0.8664555549621582 0.5897858619689942,-0.31411383152008054 m9.928191375732421,-4.017752075195313 l-0.25022244453430176,0.14268946647644043 -0.06854408979415894,1.0078838348388672 l0.07977540493011474,2.2083532333374025 -0.16202940940856933,3.488031768798828 l0.6914215087890625,4.148886108398438 0.5944046020507813,3.5608757019042967 l0.8838589668273926,2.408523941040039 1.1716099739074708,0.8403009414672852 l1.8993034362792969,-0.18447840213775635 1.717630386352539,-1.0324536323547364 l0.9886311531066895,-1.6444608688354492 1.2545685768127441,-1.999432373046875 l1.1033903121948243,-2.9626659393310546 1.3163610458374024,-3.0200576782226562 l1.406419849395752,-3.1522796630859373 0.2251002311706543,-2.351356315612793 l0.5303106307983398,-0.7505786895751954 0.16306442022323608,0.151456880569458 l0.22765748500823973,0.2303520679473877 -0.16098875999450685,1.0512306213378906 m9.921107482910156,2.299485778808594 l0.1929459810256958,-1.0586971282958983 -0.19075047969818115,-1.8298717498779298 l-0.059519064426422116,-1.3158714294433593 -0.3702811002731323,-1.1770774841308593 l-0.9073647499084473,-0.4806964874267578 -1.0606035232543944,0.12853950262069702 l-1.8811573028564452,1.107144832611084 -1.7460906982421875,2.802474594116211 l-1.6904376983642577,4.200885009765625 -0.35002551078796384,4.74996337890625 l-0.2522844076156616,3.381422424316406 0.590431022644043,2.0113079071044924 l0.8548604011535644,0.6984428405761719 1.4361038208007812,-0.2243915319442749 l1.5647262573242187,-1.2009027481079102 1.3686498641967773,-2.355877685546875 l1.1549442291259766,-3.054029655456543 1.0610918045043944,-3.153231620788574 l0.33496851921081544,-2.642470359802246 0.12837257385253906,-1.5109704971313476 m11.859629821777343,-5.380276107788086 l-0.23291733264923095,0.03765864670276642 0.047851675748825075,0.6867356300354004 l-0.039012756943702695,2.300149154663086 -0.6373143196105957,2.588732147216797 l-0.3723959684371948,3.7048412322998048 -0.45499424934387206,4.232852935791016 l-0.40889654159545896,3.9111392974853514 0.21789143085479737,1.7492223739624024 l0.47483119964599607,0.5155144691467285 1.0735787391662597,-0.1031460165977478 l0.9978526115417481,-0.8088007926940918 1.6103931427001954,-1.5888425827026367 l0.9846600532531739,-2.429839324951172 0.7780313491821289,-3.0466472625732424 l0.3436758995056152,-3.165008544921875 0.255857515335083,-2.7575458526611327 l0.19095677137374878,-1.1093633651733399 -0.11044557094573974,0.020250818133354186 l0.19524364471435546,0.25083389282226565 -0.5304666042327881,0.18909401893615724 l0.09963264465332031,0.3539851188659668 -0.18659911155700684,0.010875539481639862 l-0.5894551753997803,-0.43463501930236814 0.07560782432556153,-0.36288716793060305 l0.5777816295623779,-0.4180016994476318 0.660571813583374,-0.5770103454589843 l0.8693970680236817,-0.8182542800903321 1.670184326171875,-0.7029016017913818 l1.58662109375,-0.7721798419952393 1.7190057754516601,-0.08562827706336976 l1.243943214416504,-0.015078665316104889 m9.154736328125,-11.118856811523438 l-0.1701259732246399,0.9016069412231446 -0.05417333841323853,1.7770698547363282 l0.11485106945037842,2.355343818664551 -0.6241827011108398,2.895262908935547 l-0.24349782466888428,3.0933454513549803 -0.2963235855102539,2.6918560028076173 l-0.34251091480255125,1.8281763076782227 0.006373289227485657,1.319003200531006 l0.14015822410583495,0.7019110202789307 0.10859777927398681,0.10081684589385986 l-0.08853279948234558,-0.19614415168762206 0.061846834421157834,-0.5749022960662842 l-0.28707084655761717,-1.777013397216797 0.7712306976318359,-2.409686279296875 l0.8874536514282226,-2.46555118560791 1.8805273056030274,-1.762650489807129 l1.144928550720215,-1.0578596115112304 1.0414852142333983,-0.6096737861633301 l1.4658103942871095,-0.1912306308746338 " fill="none" stroke="black" stroke-width="1" /></svg>