<?xml version="1.0" encoding="utf-8" ?>
<svg baseProfile="full" height="150.4982398808002" version="1.1" width="899.1450570228274" xmlns="http://www.w3.org/2000/svg" xmlns:ev="http://www.w3.org/2001/xml-events" xmlns:xlink="http://www.w3.org/1999/xlink"><defs /><rect fill="white" height="150.4982398808002" width="899.1450570228274" x="0" y="0" /><path d="M69.19976674318313,60.226870314963165 m-44.04774169921875,-13.022146606445313 l-0.152025043964386,-0.08033088445663453 0.48017220497131347,0.8380817413330078 l0.47606658935546875,2.0451801300048826 0.6333947658538819,2.350213050842285 l0.9087692260742187,2.599216270446777 1.384072494506836,2.523035430908203 l1.8039867401123046,2.2735565185546873 3.042935371398926,2.382965087890625 l3.329608917236328,1.669537353515625 3.4629173278808594,0.5618629932403565 l4.1356658935546875,-0.16358484029769899 4.122994232177734,-1.0178212165832519 l4.350223541259766,-1.9875736236572266 3.5554248809814455,-2.4490982055664063 l2.595432090759277,-2.838354301452637 2.3561122894287108,-3.0972991943359376 l2.0647586822509765,-3.592929458618164 1.30375394821167,-3.5784908294677735 l1.2974208831787108,-2.768317985534668 0.7260846614837646,-2.136766052246094 l-0.0036387942731380464,-0.8312631607055664 -0.0003551882924512029,0.07491729259490967 l0.1716395139694214,0.883979606628418 0.03891898393630981,2.973963737487793 l-0.19776444435119628,4.560649490356445 -0.7233023166656494,4.800124740600586 l0.234621262550354,4.891639328002929 -0.9206042289733887,3.5440128326416014 l-0.9027009963989258,2.3918407440185545 -0.8114145278930665,0.8713035583496094 l-0.6573911190032959,-0.3809551954269409 -1.1402358055114745,-0.6869395256042481 l-1.4521170616149903,-2.0420623779296876 -1.0965503692626952,-1.8839061737060547 l-0.9761283874511719,-2.0730205535888673 -0.7557106018066406,-1.8565788269042969 l0.1758462071418762,-0.6082236766815186 -0.11449291706085205,-0.26592354774475097 l0.5061928749084472,-0.38817265033721926 1.6230947494506835,0.0015706626698374748 l2.5765613555908202,-0.39886984825134275 3.5510250091552735,-0.18789030313491822 l3.898366928100586,-0.30240468978881835 4.186599349975586,-0.13672962188720703 l4.22949447631836,-0.32374093532562254 4.003041839599609,-0.15708714723587036 m26.619561767578126,-0.24322361946105958 l0.08292127847671509,0.02384801208972931 -0.18975567817687988,0.4529445648193359 l0.5939058303833008,1.1103780746459961 0.12155007123947144,1.7147697448730468 l0.4664886951446533,2.4950143814086916 0.1325419545173645,3.4362937927246096 l0.25451183319091797,3.8630912780761717 0.16117892265319825,3.9351654052734375 l-0.12039105892181397,3.3855972290039062 -0.009552419185638428,1.898331642150879 l0.07120790481567382,0.5898395538330078 -0.08504584431648254,-0.017827524244785307 l0.24461205005645753,-0.5988473415374755 -0.36885924339294435,-1.5922964096069336 l0.01905377209186554,-2.3930427551269533 0.2597951412200928,-3.3232555389404297 l0.49482126235961915,-3.786480712890625 0.3855826616287231,-3.3745346069335938 l0.9786664962768554,-3.221536636352539 0.9886973381042481,-2.6885284423828124 l1.3901369094848632,-1.5075328826904297 0.8586613655090332,-0.3514299154281616 l1.1411216735839844,0.7576460361480712 0.8599827766418457,1.9506771087646484 l0.4676048278808594,3.0865774154663086 0.9926304817199707,3.633854293823242 l0.6024391651153564,3.35650634765625 0.9077289581298829,3.1033634185791015 l0.821270751953125,1.7025205612182617 0.9576729774475098,0.957180404663086 l0.7208342552185059,-0.33043785095214845 1.679499626159668,-1.1803747177124024 l1.831975555419922,-2.2685569763183593 1.8462251663208007,-2.9400243759155273 l2.193460464477539,-3.20025520324707 2.1800983428955076,-2.361307144165039 l1.5523032188415526,-1.0494298934936523 0.9211037635803223,0.009079967439174653 l0.9207399368286133,0.9115385055541992 1.0624542236328125,1.9029638290405273 l0.5238886833190918,2.615822601318359 0.5189075946807862,2.689243507385254 l1.1953701019287108,3.4562740325927734 1.0225418090820313,2.7001983642578127 l1.6844125747680665,1.8136903762817382 2.1251745223999023,0.869289779663086 l1.7281229019165039,-0.2935389518737793 2.196127700805664,-1.0789427757263184 l1.6296476364135741,-2.130479621887207 0.9903929710388184,-3.0378534317016603 l0.6773192405700683,-2.6899703979492187 0.07343399524688721,-1.6387048721313477 l-0.12401564121246338,-0.7695621967315673 -0.35277178287506106,-0.12457051277160644 l0.09729124307632446,0.29956200122833254 -0.3720864295959473,0.29402472972869875 l0.7481791496276855,2.113162803649902 0.6175179481506348,2.7898672103881834 l1.3698915481567382,2.3662174224853514 2.213454818725586,2.177240562438965 l1.8962331771850587,1.0893588066101074 2.570490264892578,-0.13395769596099855 l2.0431539535522463,-1.8414192199707031 1.9159133911132813,-3.172757148742676 l1.17321834564209,-4.141128158569336 0.7531418323516845,-4.953216934204102 l0.07837634682655334,-4.5161903381347654 -0.8241534233093262,-3.4793010711669923 l-2.000571441650391,-2.812246322631836 -2.4795318603515626,-1.5872112274169923 l-1.2806783676147462,-0.1675095796585083 -0.36767480373382566,0.3133631944656372 l0.6776357173919678,1.1951923370361328 0.37616255283355715,2.3503307342529296 l1.8649637222290039,2.953080177307129 m24.481259155273438,-15.263398742675781 l0.016879281401634215,0.5646095752716065 -0.0792510449886322,1.4571109771728517 l0.20475342273712158,3.2397224426269533 -0.03278384208679199,4.267748260498047 l-0.2729673147201538,4.977104187011719 0.3047185897827148,5.031629943847657 l-0.017543688416481018,4.71196403503418 -0.8327108383178711,4.10943832397461 l-0.16182281970977783,3.338217926025391 -0.3090111970901489,2.2759281158447267 l-0.4901069164276123,0.5817851066589356 0.018397749960422517,0.051587355136871335 m-1.7873065948486329,-13.280210876464844 l0.1022216796875,-0.060534578561782834 0.497527551651001,-0.21998586654663085 l1.6542871475219727,0.27450056076049806 2.144100379943848,0.43225836753845215 l2.1835277557373045,0.5713207244873046 2.412873458862305,0.4218698024749756 l2.8614103317260744,0.11834186315536499 m4.878976440429687,-27.768307495117188 l0.3948108911514282,-0.4826051712036133 0.05058161616325378,0.19679360389709472 l0.305672287940979,1.568634605407715 0.23155488967895507,2.8735733032226562 l-0.802116870880127,3.770426559448242 -0.6316490173339844,5.470741271972656 l-0.4090869903564453,5.625482177734375 -0.005071353167295456,6.104824829101562 l0.370503306388855,6.206330871582031 -0.5448651313781738,5.00999870300293 l0.3944177389144897,3.8402755737304686 0.9365456581115723,2.2540817260742188 l1.1328357696533202,0.6661605358123779 1.6493553161621093,-0.7132922172546386 l1.7290451049804687,-2.0585391998291014 2.770014762878418,-3.5254356384277346 l3.277492141723633,-3.334502029418945 3.024036407470703,-2.1418609619140625 l2.5869823455810548,-0.7302956581115723 1.2342616081237794,0.4998482704162598 l0.857830810546875,1.3857430458068847 0.5200882434844971,2.3069999694824217 l0.05842156410217285,2.875844955444336 0.2765660285949707,3.159603309631348 l0.45743608474731445,2.7675477981567385 0.3384395599365234,1.6457773208618165 l1.032938575744629,0.5437597751617431 0.8342392921447754,-0.9048635482788085 l3.074791145324707,-3.7826301574707033 2.104294013977051,-4.823984146118164 l2.254290008544922,-4.072838211059571 1.2587593078613282,-3.6621376037597657 l0.941977596282959,-2.045297622680664 -0.041420891880989075,-0.7995833396911621 l-0.3874287843704224,0.14811609983444213 0.16664122343063353,1.4606900215148926 l-0.29368388652801514,3.2111377716064453 0.31179449558258054,4.145637130737304 l0.21541225910186768,4.098520278930664 0.5145461082458496,3.942657470703125 l1.083361530303955,2.9842737197875975 1.1892040252685547,1.7208520889282226 l1.7857305526733398,0.9726004600524902 1.3569451332092286,-0.40023236274719237 m-8.690293121337891,-33.77369689941406 l0.032768619060516355,0.8558060646057128 m13.234001159667969,7.502228546142578 l-0.4297958850860596,-0.611128282546997 -0.27403850555419923,-0.6886229991912842 l-0.30722644329071047,-0.12350801229476929 -0.33173389434814454,0.600613021850586 l-1.6290752410888671,2.0586551666259765 -1.1253047943115235,3.8147293090820313 l-0.3657121419906616,5.189372253417969 -0.2542433261871338,4.933220291137696 l0.6340356826782226,3.1909561157226562 0.7411060810089112,1.3592480659484862 l0.8756874084472657,0.18447155952453614 0.7900216102600097,-1.150380516052246 l1.7808650970458983,-3.1305305480957033 1.21087646484375,-5.220335006713867 l0.6647813320159912,-3.6668296813964845 -0.1873264193534851,-2.9288461685180662 l0.1516231417655945,-1.6012540817260743 0.4541346073150635,-0.28110575675964355 l-0.024114669859409334,-0.5260797500610351 0.653446102142334,-0.04155844449996948 l0.3527899026870728,-0.09745961427688599 1.4962305068969726,0.17641868591308593 l1.267488670349121,-0.3209249019622803 2.189630317687988,0.13813842535018922 m9.29539794921875,-2.256669807434082 l-0.04593287408351898,-0.17782256603240967 -0.22646336555480956,-0.3514897584915161 l-0.07693232297897339,-0.17403231859207152 -0.15095585584640503,0.22149314880371093 l-1.5328097343444824,0.5913576126098633 -2.0804470062255858,1.1529043197631836 l-2.327433395385742,1.7146717071533204 -1.999173927307129,3.001857948303223 l-1.0013238906860351,4.306205749511719 -0.9963332176208496,4.744818115234375 l0.2981579303741455,4.235313796997071 0.4520843982696533,1.9219528198242188 l1.358002281188965,0.5205916404724121 2.768714714050293,-0.4527578830718994 l2.6194442749023437,-2.9236661911010744 2.8600135803222657,-3.9148067474365233 l2.5277976989746094,-4.181095123291016 1.0019173622131348,-3.824217987060547 l0.5717591285705567,-2.096807289123535 0.28405280113220216,-0.2997321605682373 l-0.1776911973953247,0.13433828353881835 -0.6633725166320801,1.4254892349243165 l-0.2616515398025513,3.1919002532958984 -0.6166090488433837,3.0898046493530273 l0.32085628509521485,2.914262580871582 0.4791377544403076,1.9046245574951173 l1.454257869720459,1.0203058242797851 2.1890256881713865,-0.6351538181304932 l3.711091995239258,-3.0326900482177734 5.391963195800781,-4.304984283447266 l4.111633682250977,-3.976231002807617 2.883093070983887,-2.2871540069580076 l1.3197847366333009,-0.10728095769882202 0.5058674335479736,0.7163862705230712 l-0.3387068510055542,2.2663379669189454 -0.4542126178741455,4.271532440185547 l-1.3406173706054687,4.326964950561523 -1.311078929901123,4.175432205200195 l-1.0644917488098145,2.4429290771484373 0.1605085015296936,0.5819192409515381 l0.06276238560676575,-0.9825079917907715 1.6570436477661132,-2.667150115966797 l2.731459617614746,-4.479578018188477 2.5204105377197266,-4.044437408447266 l1.9974636077880858,-2.5228899002075194 0.5518382072448731,-1.4200873374938965 l0.8553237915039062,0.12928647994995118 -0.30554790496826173,-0.04406139254570007 l0.18438636064529418,1.2153271675109862 0.027750569581985473,2.2138919830322266 l-0.1743851900100708,1.362715721130371 0.4396070003509521,0.6948203086853028 l2.0056669235229494,0.04325658679008484 2.6739791870117187,-1.5912747383117676 l3.507143020629883,-1.9763687133789063 2.5640182495117188,-1.5306939125061034 l2.3059576034545897,-0.7409486770629883 1.9636857986450196,0.49030637741088867 l1.3154162406921386,1.3351276397705079 0.5959839344024658,2.04493408203125 l-0.06629108190536499,3.6857421875 -0.7948176860809326,4.679998397827148 l-1.7031042098999023,4.409064865112304 -0.89114990234375,4.225130081176758 l-0.5392262935638428,2.6599403381347657 0.3648779630661011,0.8279155731201172 l0.9789651870727539,-0.8527096748352051 m9.296609497070312,-38.20094604492188 l-0.024079629778862,-0.7137866020202637 -1.2812586784362794,-0.47457180023193357 m16.081744384765624,4.033314514160156 l0.0074536681175231935,0.4287466049194336 -0.011443711817264557,0.024261759221553804 l-0.7176991462707519,-0.13750903606414794 -1.9287973403930665,-0.8541618347167969 l-2.568964385986328,0.07235815525054931 -2.494184684753418,-0.21412458419799804 l-2.372023010253906,0.2500253915786743 -0.9687274932861328,0.6062251091003418 l-0.4383062839508057,0.401489782333374 0.3767728805541992,1.0292416572570802 l1.1291322708129883,1.4139257431030274 2.4925952911376954,2.420751190185547 l2.9779451370239256,2.6794082641601564 3.067600631713867,3.305525207519531 l3.0580148696899414,3.5984657287597654 1.7853830337524415,3.5312217712402343 l0.6962143898010253,3.1493865966796877 -0.4565484046936035,1.6734748840332032 l-0.9045620918273926,0.7353524208068848 -1.8308839797973633,-0.33904709815979006 l-2.5733409881591798,-1.056789016723633 -2.5296180725097654,-1.1451194763183594 l-2.418214797973633,-1.567887783050537 -1.4819480895996093,-1.990839385986328 l-1.2539463996887208,-1.2690567016601562 -1.194634246826172,-1.547183132171631 m33.811883544921876,-39.953607177734376 l0.19798797369003296,-0.027320176362991333 -0.09439455866813659,-0.12956616878509522 l0.24271602630615235,0.15078775882720946 -0.08747352361679077,0.27962489128112794 l0.07939156889915466,0.9808865547180176 0.7790153503417969,1.9442235946655273 l0.42914857864379885,2.381476402282715 0.4476466655731201,3.220027542114258 l0.8967365264892578,4.133606719970703 0.5312726974487305,4.763436889648437 l1.712568473815918,5.684624099731446 1.4452997207641602,6.338230895996094 l1.7458364486694335,6.470011901855469 1.5158403396606446,6.668407440185547 l0.5076519012451172,7.571862030029297 -0.4816153049468994,7.4238441467285154 l-1.8080718994140625,6.452359008789062 -2.106215476989746,4.682862854003906 l-2.8598941802978515,2.1919170379638673 -2.9509599685668944,0.39810853004455565 l-3.0378820419311525,-1.2143832206726075 -3.2683944702148438,-1.8810306549072267 l-2.4861473083496093,-2.089366912841797 -1.6225831985473633,-2.507700729370117 l-1.032691764831543,-1.7337579727172852 -0.22873852252960206,-0.5331531047821045 l0.43987507820129396,-0.15340521335601806 0.8934369087219238,-0.5789065837860108 l0.9254570007324219,0.37331137657165525 1.4742013931274414,0.7783544540405274 l1.6036823272705079,0.8976763725280762 1.892329788208008,0.8213007926940918 l2.167770767211914,0.1831070065498352 2.361122894287109,-0.49451484680175783 l1.9848175048828125,-1.9880910873413087 2.4458932876586914,-2.221917915344238 l2.1410171508789064,-2.9521018981933596 1.7761667251586915,-2.4854541778564454 l1.4776287078857422,-1.5670424461364747 1.4116011619567872,-0.34342634677886963 l0.47732906341552733,0.22471466064453124 1.4665287017822266,1.5121587753295898 l1.2352237701416016,2.0886932373046876 1.3312249183654785,2.8336565017700197 l1.6152708053588867,2.686454010009766 1.6562076568603517,2.1654109954833984 l2.106601524353027,1.437060260772705 1.8903730392456055,0.5460841178894043 l1.8750789642333985,-0.31127243041992186 2.021741485595703,-1.3683215141296388 l1.616419219970703,-1.9322212219238282 1.2681622505187988,-2.180937957763672 l0.4228811740875244,-3.272142791748047 0.4021164417266846,-2.937771797180176 l0.034199577569961545,-2.7457469940185546 0.1794300675392151,-1.9794197082519531 l-0.24470674991607666,-1.527967643737793 0.05236092209815979,-1.3008585929870606 l-0.03392380475997925,-0.4853346824645996 m23.293063354492187,8.828731536865234 l0.7369288921356201,1.0865680694580078 0.8553990364074707,0.629380750656128 l1.5956040382385255,-0.18990434408187867 1.5403802871704102,-0.712258768081665 l2.699386978149414,-0.3742631673812866 2.288558769226074,-1.0540706634521484 l2.478067398071289,-0.6350482940673828 2.190373420715332,-1.2768054008483887 l1.7212831497192382,-2.294611930847168 1.1123032569885254,-2.9559736251831055 l0.15321506261825563,-3.434188461303711 -0.7787349224090576,-3.7520820617675783 l-1.7669687271118164,-3.08233528137207 -2.7205831527709963,-2.0606517791748047 l-3.266210174560547,-1.1532886505126954 -3.0879804611206056,0.04106649160385132 l-2.4162220001220702,1.1943055152893067 -1.577934741973877,2.981230545043945 l-0.506197738647461,4.222143173217773 -0.021125134825706483,4.482229614257813 l1.4018367767333983,4.900230026245117 2.2048463821411133,3.8633426666259765 l2.605462074279785,2.5998723983764647 3.3713844299316404,1.396550178527832 l3.3313724517822267,-1.1957198143005372 2.8922348022460938,-2.4711875915527344 l2.6629783630371096,-2.7251815795898438 2.154064178466797,-3.4078479766845704 l1.6984783172607423,-2.5918338775634764 0.8107110023498535,-1.8664348602294922 l0.031054943799972534,-1.2948474884033203 0.08008599281311035,0.24415385723114014 l0.2173082113265991,0.3542593002319336 -0.06857942938804626,0.7907582283020019 l0.5160747051239014,2.3168014526367187 1.1896924018859862,2.9369743347167967 l1.789738082885742,3.265552520751953 2.22723503112793,2.9658870697021484 l2.20650634765625,1.5082128524780274 1.7306358337402343,0.3558358192443848 l1.3543542861938476,-1.3221892356872558 0.8027800559997559,-2.181392288208008 l0.22174301147460937,-3.138677406311035 -0.5141810894012451,-2.3268768310546877 l-0.6817909240722656,-1.5250271797180175 0.01797729730606079,-0.310120677947998 l-0.020882442593574524,0.08574104309082031 0.7930211067199707,1.1040184020996093 l1.943311882019043,1.247996711730957 3.135832595825195,1.2578655242919923 l3.637677764892578,0.6951184272766113 3.81732292175293,-0.7994146823883057 l3.3838264465332033,-1.8258016586303711 2.758445930480957,-2.842513084411621 l1.551530361175537,-3.2256370544433595 1.0678583145141602,-3.160413932800293 l-0.05448676347732544,-3.6137420654296877 -1.128065586090088,-3.674591827392578 l-1.2602715492248535,-2.973425102233887 -1.470830535888672,-2.0894891738891603 l-1.7601749420166015,-1.0426430702209473 -1.936337661743164,-0.06565021872520446 l-1.2141197204589844,1.5481021881103516 -0.5647383213043213,3.6309757232666016 l0.6090827465057373,4.778754425048828 1.4181251525878906,5.991039657592774 l2.0238842010498046,7.159443664550781 2.499931526184082,6.792101287841797 l2.211881637573242,5.144862365722656 2.0678070068359373,3.3185569763183596 l1.6079875946044921,1.3636739730834961 1.4305943489074706,-1.0134111404418946 m9.17545394897461,-13.23707275390625 l1.0697089195251466,-0.057510900497436526 0.959657859802246,-0.5376931190490722 l0.2835890293121338,-2.113784980773926 0.953867244720459,-1.974249267578125 l0.1482109546661377,-2.350133514404297 -0.6935850143432617,-2.21416015625 l-0.9787071228027344,-1.4796903610229493 -1.9956977844238282,-1.1208368301391602 l-2.033163833618164,0.8623968124389648 -2.684670639038086,1.9530942916870118 l-1.720465087890625,3.1683349609375 -1.2751869201660155,4.565688705444336 l-0.3037242412567139,4.678399658203125 0.2728663444519043,3.9802242279052735 l1.3657230377197265,2.1560123443603514 1.9008041381835938,0.7053730964660645 l2.5944406509399416,-1.243391990661621 3.2033058166503907,-2.9257957458496096 l2.723002624511719,-3.7832237243652345 2.012945556640625,-3.3527858734130858 l1.713320541381836,-1.619436264038086 0.5064054489135742,-0.8035951614379883 l0.2899781227111816,0.5203025341033936 0.3944293260574341,1.4279996871948242 l0.4769784927368164,2.275848388671875 0.5026323795318604,2.883041763305664 l-0.13458036184310912,1.7675918579101562 0.2479400157928467,0.2560311794281006 l-0.16114234924316406,-0.6910004138946533 0.0836234450340271,-2.194519805908203 l0.18906272649765016,-3.5980030059814454 0.4040236949920654,-4.0164329528808596 l0.6108798980712891,-2.898718070983887 0.531521224975586,-1.1795576095581055 l-0.07889459133148194,0.08677113056182861 1.964607048034668,1.3782976150512696 l2.484111022949219,1.587860107421875 2.869031524658203,0.9485221862792969 l3.333860397338867,0.7857491493225097 3.0150783538818358,0.13570637702941896 l2.154199409484863,-0.24934694766998292 1.3062126159667968,0.578898811340332 l-0.013736777007579803,0.07301344871520996 -0.7015852451324462,0.3077634334564209 l-2.09771614074707,0.7883712768554687 -3.4174884796142577,0.8813370704650879 l-3.359326171875,1.4260354042053223 -2.390742301940918,2.4380813598632813 l-1.3942527770996094,2.6634296417236327 0.9468048095703125,3.520933151245117 l2.1752693176269533,3.6823734283447265 2.8710891723632814,2.2554462432861326 l3.264257049560547,0.7901819229125977 2.6909248352050783,-1.2069547653198243 l3.7635894775390626,-1.8920106887817383 2.4237945556640623,-3.5778560638427734 l1.155971145629883,-3.2747074127197267 0.32533464431762693,-2.8766469955444336 l-0.10931189060211181,-0.8522565841674805 -0.14200067520141602,-0.18350677490234374 l-0.030619296431541442,0.5467352390289306 -0.4426115036010742,2.0260234832763673 l-0.17594934701919557,3.493022155761719 0.5474841117858886,4.111917114257812 l0.7161705493927002,4.605551147460938 1.1307936668395997,4.316460037231446 l1.5932831764221191,3.573186492919922 1.1444462776184081,1.4757253646850585 l0.8030216217041015,0.0857228696346283 0.9653969764709472,-1.1800373077392579 l1.3719166755676269,-1.784011459350586 1.169658088684082,-3.309530258178711 l0.8242416381835938,-3.772358703613281 0.9836653709411621,-2.734623146057129 l0.9206400871276855,-1.0992753982543946 0.8870109558105469,-0.1359385848045349 l1.1115495681762695,0.20759954452514648 1.1782136917114259,1.641869354248047 l0.9184231758117676,1.059801959991455 0.9509161949157715,0.9249746322631835 l0.43101887702941893,-0.027963712811470032 0.21561288833618164,-1.1632429122924806 l0.4717374801635742,-0.9700618743896484 -0.04885897636413574,-2.5869293212890625 l0.23723950386047363,-1.2830981254577636 0.1349021315574646,-0.07000136971473694 l0.22580173015594482,0.2971701145172119 0.9847743034362793,1.8742345809936523 l1.3664488792419434,3.403424835205078 1.7689569473266602,4.0412132263183596 l1.8638341903686524,3.7825321197509765 2.212253379821777,2.949574661254883 l2.65399169921875,2.082120895385742 2.219668388366699,-0.07956147193908691 l2.2835731506347656,-2.9429935455322265 1.9606088638305663,-5.502168273925781 m4.561552429199219,-26.94434814453125 l-0.544218921661377,-1.3517396926879883 -0.027261647582054137,-0.10178416967391968 l-0.24517333507537842,-0.05635896921157837 -0.20147130489349366,0.9434949874877929 l0.07318053245544434,4.1831916809082035 -0.06278234124183654,5.914111709594726 l1.28253173828125,7.954074096679688 1.2144259452819823,7.421633911132813 l0.854581642150879,6.070923233032227 0.44502549171447753,4.143431091308594 l0.31687088012695314,1.327918243408203 0.12570370435714723,-0.33127357959747317 m-9.735649871826173,-11.640573120117187 l-0.2086456298828125,-0.03252002000808716 0.30184948444366455,-0.08608044385910034 l1.0712598800659179,0.05171262621879578 1.035491371154785,-0.7732058048248291 l1.8912349700927735,-0.7444846153259277 2.218420219421387,-1.6633594512939454 l2.775050163269043,-2.0052568435668947 3.1233798980712892,-1.6186973571777343 l2.695936584472656,-1.573598861694336 2.7938770294189452,-0.7963987350463867 l2.0648284912109376,-0.483643913269043 2.139750289916992,0.9393271446228028 l2.0320743560791015,2.0301021575927733 1.3015470504760742,2.207523727416992 l0.6775218963623046,2.6102333068847656 -0.7467453479766846,1.9036121368408203 l-1.6924989700317383,1.766672706604004 -2.9207523345947264,0.6210413455963135 l-3.414795684814453,-0.06894903182983399 -2.872355651855469,-0.8369236946105957 l-1.1586899757385254,-1.3706542015075684 0.3795154333114624,-1.5220347404479981 m27.000369262695312,5.638746643066407 l2.3477619171142576,-0.08002623915672302 2.0425729751586914,-1.8263467788696288 l1.8750860214233398,-2.1150585174560548 1.872216033935547,-2.2568584442138673 l1.1896065711975097,-2.246405029296875 0.6721596240997314,-1.2992307662963867 l-0.16453166007995607,-0.4032141208648682 0.7239706516265869,-0.33269529342651366 l1.073763370513916,-0.5889616489410401 1.819135856628418,0.3899422883987427 l1.8870466232299805,0.8627408981323242 2.659044647216797,2.3244998931884764 l2.949566650390625,3.4601207733154298 2.191716766357422,4.539299774169922 l0.34381856918334963,5.160758590698242 -1.1527807235717773,4.768703460693359 l-2.3813497543334963,4.240302658081054 -3.362596130371094,2.2226583480834963 l-2.98251895904541,-0.09258338212966918 -2.649513053894043,-2.718990135192871 l-1.0685333251953124,-4.4086151123046875 0.9322199821472168,-4.699284362792969 l1.3849201202392578,-4.490972518920898 2.344968795776367,-4.147862243652344 m26.974896240234376,-15.995382690429688 l0.3126915454864502,0.1843198537826538 0.3788778781890869,0.8360905647277832 l0.28658759593963623,2.913927459716797 0.003255736455321312,4.6826728820800785 l0.13142743110656738,6.058061981201172 -0.03128222823143005,6.019356536865234 l-0.5964197635650634,4.527400207519531 -1.0712833404541016,1.1989429473876954 l-0.6603150367736816,-0.24805381298065185 -0.43434534072875974,-2.2060415267944338 l1.1643857955932617,-2.6982669830322266 1.3009819030761718,-3.3757450103759767 l1.3235193252563477,-2.183700370788574 1.7728023529052734,-1.3602302551269532 l1.1446690559387207,0.11816792488098145 1.0376310348510742,-0.04020939767360687 l2.2220266342163084,1.389455795288086 2.305655288696289,1.2461162567138673 l1.5341827392578125,0.3639107942581177 2.6004032135009765,0.5599815845489502 l1.3374882698059083,-0.6912196159362793 0.40804505348205566,-1.7155317306518554 l-0.41457362174987794,-2.180440902709961 -0.575402307510376,-1.891011619567871 m49.13876037597656,-4.18565673828125 l0.050415915250778195,0.5557486534118652 0.13201746940612794,0.5256566047668457 l-0.6921477317810059,-0.2308349370956421 -1.8626346588134766,-0.23376257419586183 l-2.010452461242676,0.6463456153869629 -1.3961867332458495,2.168342399597168 l-0.9672645568847656,3.963805389404297 0.27907848358154297,5.479761123657227 l0.9736783981323243,4.876147842407226 1.7494754791259766,3.555643844604492 l2.0523529052734375,1.3756887435913085 2.8606292724609377,-0.4366046905517578 l3.4279624938964846,-2.0228891372680664 3.3703819274902345,-3.8350025177001954 l2.9050289154052735,-4.739414978027344 2.143184280395508,-5.516751098632812 l0.2784168481826782,-6.773439025878906 0.5850279808044434,-5.254386901855469 l-0.5652674674987793,-5.6001850128173825 -0.3113653898239136,-3.4467464447021485 l-0.7146172523498535,-1.706083106994629 -0.6013980388641358,-0.20136048793792724 l0.3009605407714844,0.5146926879882813 0.16236215829849243,2.472802925109863 l0.5930665016174317,4.452121734619141 1.2401991844177247,5.568437576293945 l1.6508085250854492,5.8875267028808596 1.6222312927246094,5.0925743103027346 l1.9059412002563476,3.5312263488769533 1.3068262100219727,1.9001474380493164 l0.8724668502807618,0.5931730747222901 0.4452985763549805,-0.3720486402511597 l1.192025089263916,-2.185271072387695 1.3009065628051757,-4.1816551208496096 l1.0770558357238769,-5.1233055114746096 0.3674204111099243,-5.471672058105469 l-0.06265462636947632,-5.226095581054688 -0.46259121894836425,-3.2782405853271483 l-0.660765552520752,-1.663714599609375 -0.21394762992858887,-0.21311287879943847 l0.062225347757339476,0.4964632511138916 0.3489790916442871,3.2187625885009767 l1.4767409324645997,4.957294464111328 1.7347757339477539,4.843411254882812 l2.2702159881591797,4.582142639160156 3.203708267211914,3.2515914916992186 l2.1773738861083984,1.0666979789733886 2.132573890686035,-0.3140105724334717 l2.0196624755859376,-1.3325981140136718 1.3218805313110351,-2.6397096633911135 l1.4459358215332032,-3.0175891876220704 -0.04353987872600555,-2.323106384277344 l0.052705615758895874,-0.1672844648361206 -0.3645833969116211,0.47710413932800294 l-0.3136448860168457,1.7561840057373046 -0.20634477138519286,2.812991142272949 l-0.1791841506958008,3.2439239501953123 0.541005802154541,3.092219352722168 l0.6423885822296143,1.7956363677978515 0.20759305953979493,-1.150919532775879 m-3.2347522735595704,-26.27061767578125 l-1.4000535011291504,-1.4680360794067382 -0.059996044635772704,-0.1307516574859619 l0.8192092895507812,0.31384902000427245 0.7374112606048584,0.7814584732055664 m15.810467529296876,19.39910888671875 l0.5572772026062012,1.211980438232422 0.10413802862167358,0.3203249454498291 l0.15568984746932985,-0.13869844675064086 -0.7021402359008789,0.21602041721343995 l0.9753940582275391,0.3961439371109009 0.6542253971099854,1.1474815368652345 l1.2209068298339845,2.52364501953125 1.4307250022888183,3.1979780197143555 l1.0953869819641113,3.2247928619384765 2.399743843078613,1.532623291015625 l1.6551553726196289,-0.3079987049102783 2.2574357986450195,-2.0804588317871096 l2.9136329650878907,-3.846516418457031 3.10647029876709,-5.4182697296142575 l2.5409032821655275,-6.51973876953125 0.530287218093872,-5.455259704589844 l-0.6875581741333008,-3.7326034545898437 -0.5851861000061035,-2.2481595993041994 l-0.06931582689285279,-1.1715667724609375 0.35062708854675295,-0.16439971923828126 l0.9793792724609375,0.3988835573196411 1.3832910537719727,2.31033935546875 l1.891319465637207,4.936871337890625 2.3893423080444336,7.074820709228516 l2.0361814498901367,7.976145172119141 2.1156320571899414,9.388075256347657 l1.0516838073730468,8.438240814208985 1.6296442031860352,7.726401519775391 l0.1965636968612671,5.231201171875 -0.714275312423706,1.491643524169922 l-1.1540184020996094,-0.07040954828262329 -2.6626564025878907,-3.04691104888916 m-11.693831634521484,-31.013455200195313 l1.345541000366211,-0.7776761531829834 2.2067447662353517,-0.09178939461708069 l2.520093536376953,-0.05664154887199402 2.713519287109375,-0.10460962057113647 l2.7673976898193358,-1.2672320365905763 3.168125534057617,-2.1990013122558594 l2.857871246337891,-1.6791637420654297 1.5585012435913086,-1.5741189956665038 l0.2857348918914795,-1.5198820114135743 0.42109174728393556,-0.7237978935241699 l-0.0031795766204595565,0.2689659833908081 -0.5613807678222656,1.033952522277832 l-0.5342259883880616,3.36999626159668 -0.2098095655441284,4.3520465850830075 l0.7673784255981445,4.5524944305419925 1.3243952751159669,3.9476985931396484 l1.451901626586914,1.525847816467285 1.8477396011352538,-0.20458340644836426 l2.139817237854004,-2.422387886047363 m-3.4946250915527344,-35.50355834960938 l0.11472429037094116,-1.6636644363403321 1.0002116203308105,-0.1865597367286682 l1.3957929611206055,-0.05268783569335937 m-0.5033045768737793,16.832078552246095 l0.013224279880523682,0.6957657337188721 0.49552135467529296,0.2249769926071167 l-0.24168238639831544,-0.057395970821380614 0.7240346908569336,0.6532899856567382 l0.37330241203308107,2.4649917602539064 0.619072151184082,2.819209861755371 l1.3501951217651367,3.229180908203125 0.7954478740692139,2.3960287094116213 l0.6559504508972168,1.6626428604125976 0.566404914855957,0.3459374666213989 l0.5428604125976563,-1.2089405059814453 1.3252292633056642,-3.2475025177001955 l0.9946105003356933,-2.8455646514892576 0.7864627838134766,-2.00311164855957 l1.1942506790161134,-0.7425494194030762 0.8882140159606934,0.679572057723999 l1.4332795143127441,2.0941484451293944 1.249003791809082,3.8248485565185546 l1.2904132843017577,3.624027633666992 1.4189912796020507,2.511133003234863 l1.6767709732055665,0.253141975402832 2.3306482315063475,-1.7596990585327148 l2.431495475769043,-2.888399124145508 1.4681702613830567,-2.146122932434082 l0.2650623798370361,-0.3870896100997925 1.0537431716918946,-0.1912304162979126 l2.1228139877319334,0.17533745765686035 1.687263298034668,0.07123016119003296 m45.752685546875,2.279357147216797 l0.012210381031036378,-0.00832880213856697 -0.6806693553924561,0.6437376976013184 l-1.3222835540771485,2.042509841918945 -1.7108959197998046,3.0068122863769533 l-1.161171817779541,3.892047119140625 -0.5206094741821289,3.997079086303711 l-0.5049044609069824,3.2106086730957033 -0.29506871700286863,1.0782350540161132 l0.11468254327774048,-0.7360424518585205 0.5539811134338379,-2.5206642150878906 l0.8635699272155761,-4.285712814331054 1.1978407859802247,-5.7633003234863285 m12.012688446044923,-15.2568115234375 l-0.4309994697570801,0.28084256649017336 -0.5619263648986816,3.426789474487305 l-1.4411173820495606,4.721206283569336 -0.33126890659332275,4.715348815917968 " fill="none" stroke="black" stroke-width="1" /></svg>