<?xml version="1.0" encoding="utf-8" ?>
<svg baseProfile="full" height="111.28869391158224" version="1.1" width="855.2707359336797" xmlns="http://www.w3.org/2000/svg" xmlns:ev="http://www.w3.org/2001/xml-events" xmlns:xlink="http://www.w3.org/1999/xlink"><defs /><rect fill="white" height="111.28869391158224" width="855.2707359336797" x="0" y="0" /><path d="M25,65.85717964991926 m11.912403106689453,-21.02631378173828 l-0.95571870803833,1.7998512268066407 -0.7527374744415283,2.6936933517456056 l-0.6463127136230469,2.9806819915771485 -0.0029908401891589166,3.656413269042969 l-0.4169478893280029,3.217072296142578 0.33055064678192136,3.593087387084961 l0.4862061500549316,3.671993637084961 0.5160923004150391,2.831532669067383 l0.297373628616333,2.0018550872802736 0.5086225509643555,1.253509521484375 l0.36055636405944824,0.36125912666320803 0.4196214199066162,0.20803112983703614 l0.27268803119659424,-0.6200947761535645 -0.36386756896972655,-2.3175662994384765 l0.31932244300842283,-1.2532548904418945 0.04098716974258423,-1.2816773414611817 l0.4695725440979004,-0.8676835060119629 0.2238978147506714,-0.8326273918151855 m25.445289611816406,-5.646768569946289 l-1.347301959991455,-0.0443856418132782 -1.0236305236816405,0.5652866363525391 l-1.713575553894043,0.27821576595306396 -1.5201900482177735,1.302616024017334 l-1.1912611961364745,2.150489616394043 -1.404970073699951,2.7539413452148436 l-0.1839085578918457,3.203774261474609 0.7698750972747803,2.427682113647461 l2.2908260345458986,1.410489845275879 3.0641834259033205,0.21563246250152587 l3.948625946044922,-0.7339935779571534 3.5367103576660157,-1.3625492095947265 l1.9610374450683594,-1.998183822631836 2.2569690704345704,-1.2337100982666016 l0.25016882419586184,-2.098094940185547 -0.38243918418884276,-1.9980985641479492 l-1.627783966064453,-1.8625371932983399 -2.7452617645263673,-1.6004524230957031 l-3.3927639007568358,-0.8397089958190918 -3.172518730163574,-0.19631719589233398 l-2.146480369567871,0.2965001106262207 -0.8900033950805664,0.38467135429382326 l0.2777628660202026,0.1469438672065735 1.9452579498291016,0.4187647819519043 m14.954771423339844,-2.7751564025878905 l0.24886629581451417,0.7698110580444336 -0.02589099109172821,1.0020695686340333 l-0.06740835905075074,1.8971988677978515 0.011189992725849151,2.5578222274780273 l-0.7758957862854003,1.9351036071777343 -0.05208008885383606,1.9761104583740234 l0.16109211444854737,1.242009162902832 -0.061147439479827884,0.03504360020160675 l0.11943496465682983,-0.058036011457443235 0.23911747932434083,-0.3742387294769287 l-0.28642380237579346,-1.589133071899414 0.12348997592926025,-2.504867744445801 l0.07010924220085143,-2.8291908264160157 0.24628212451934814,-2.6935447692871093 l0.3146101236343384,-0.9685686111450196 0.5884914398193359,-0.4679213523864746 l1.9884603500366211,-0.07193368673324585 2.0858013153076174,0.44411611557006836 l2.8515100479125977,1.0039064407348632 1.4866317749023437,1.2228353500366211 l1.3722414016723632,1.998886489868164 0.6357015609741211,1.958834457397461 l0.49254655838012695,2.257548522949219 0.000698682339861989,1.6932411193847656 l0.33518779277801514,2.0502819061279296 0.6790237426757812,1.3802547454833984 l1.8416532516479491,1.2765899658203126 1.5758230209350585,0.2867846727371216 m30.668911743164063,-33.8463134765625 l-0.4568345546722412,-0.4437241077423096 0.16353249549865723,0.34005782604217527 l0.4048591136932373,1.4454398155212402 0.3657437801361084,3.697645568847656 l-0.18793731927871704,4.864447021484375 0.3368086338043213,4.979955673217773 l0.5336837768554688,4.298999786376953 0.6007513999938965,3.850387954711914 l0.48834595680236814,3.128876876831055 0.05084258317947388,1.482476043701172 l0.5672876358032226,0.33709111213684084 0.5430120468139649,-0.29451327323913573 l1.104180145263672,-1.469571876525879 1.756968116760254,-3.1368234634399412 l1.9878011703491212,-2.896940994262695 2.5825803756713865,-2.0587894439697267 l2.6366119384765625,-0.42002363204956056 1.9977935791015624,0.5700032234191894 l2.558477592468262,2.7380428314208984 1.5085817337036134,3.850312042236328 l1.182909870147705,3.793300247192383 1.9372188568115234,2.2577728271484374 l1.6517791748046875,0.6966183662414551 2.0078861236572267,0.2116002082824707 m13.934150695800781,-7.783348846435547 l0.624976396560669,-1.3405508041381835 0.10155584812164306,-1.5661933898925782 l-0.1493116497993469,-1.6825105667114257 -1.298051643371582,-1.8781158447265625 l-1.2458386421203613,-1.4768951416015625 -2.144670295715332,-0.2175074577331543 l-2.1311737060546876,1.025965118408203 -2.5120311737060548,1.7737504959106445 l-1.4388304710388184,2.734937286376953 -0.3764233350753784,2.887941360473633 l0.5396738052368164,2.2209522247314455 1.6009929656982422,1.2861515045166017 l1.6995986938476562,0.16051883697509767 2.4384660720825195,-0.688499927520752 l2.339461898803711,-1.760432243347168 2.046523857116699,-1.936788558959961 l1.4823740005493165,-2.2460844039916994 0.9178549766540527,-2.070749282836914 l0.17994816303253175,-0.5314350605010987 0.019217461347579956,0.015297377109527588 l-0.0950530469417572,1.2418803215026855 -0.31537518501281736,2.265613555908203 l0.5217661380767822,2.993822479248047 0.29255995750427244,1.878756332397461 m-0.4565295696258545,-24.87580108642578 l-1.27159423828125,-0.8430469512939454 -0.5332197189331055,-0.3733178377151489 l-0.3123112678527832,-0.04201991558074951 0.05838433504104614,0.06074126958847046 m15.425755310058594,7.527006530761719 l-0.17431654930114746,-0.27861552238464354 -0.6293623447418213,0.06471573114395142 l-1.2144088745117188,0.5284475803375244 -1.6389314651489257,1.5606391906738282 l-1.1082237243652344,1.9514122009277344 -0.5029870986938476,0.45458393096923827 l0.8023768424987793,1.2838384628295898 1.2087125778198242,1.8087251663208008 l1.3397961616516114,1.7775175094604492 1.8497426986694336,1.6211091995239257 l1.2797414779663085,1.0495475769042968 0.9439759254455566,1.0306540489196778 l0.5120303630828857,0.6390133380889893 0.4277037620544434,1.156361961364746 l0.15646349191665648,0.4677776336669922 -0.17318965196609498,0.4358567714691162 l-1.4659348487854005,0.6352618217468262 -1.7274429321289062,0.5683201789855957 l-1.9656713485717774,-0.07744369506835938 -1.2322319984436034,-0.27632641792297363 l-0.7695949077606201,-1.0657299041748047 -0.4962319850921631,-1.9976701736450195 l0.49707803726196287,-2.3434383392333986 1.0870326995849608,-2.6906625747680666 m13.805909729003906,-22.348773193359374 l-0.21486363410949708,0.31502761840820315 0.2705002069473267,0.9689826965332031 l0.19272193908691407,2.5166107177734376 0.014269183576107024,3.2978546142578127 l0.7628832340240479,3.9738330841064453 0.8740708351135253,3.835972213745117 l0.49756627082824706,3.1139413833618166 0.599364185333252,2.293828010559082 l0.7504225254058838,1.254502296447754 0.32621467113494873,0.4691990852355957 l0.55484037399292,0.15940178632736207 0.2417597532272339,-0.03229020237922668 m5.1312095642089846,-6.34623908996582 l0.21979095935821533,0.21966097354888917 0.560552978515625,0.8457180023193359 l0.6108980655670166,1.056994342803955 1.827582550048828,1.348963737487793 l1.9839881896972655,0.3106454610824585 2.8487571716308593,-0.035241511464118955 l2.6385286331176756,-0.3197490930557251 2.182468223571777,-0.5297786712646484 l1.4846790313720704,-0.3127997875213623 0.34366812705993655,-0.18099211454391478 l0.1238666296005249,-0.1292699694633484 -1.1999293327331544,-1.4255257606506349 l-1.550286865234375,-1.7305896759033204 -2.5027088165283202,-1.9265548706054687 l-2.512795257568359,-1.1652356147766114 -3.159917640686035,-0.9793169021606445 l-3.4777061462402346,-0.8754658699035645 -2.223825454711914,-0.6660287380218506 l-1.5012008666992187,-0.8091568946838379 -0.7468771934509277,-1.6096881866455077 l-0.013668452203273774,-2.1787317276000975 1.5428401947021484,-1.6615459442138671 l1.8556825637817382,-1.5286365509033204 m50.65164489746094,14.272360229492188 l0.10813306570053101,-0.41364264488220215 0.23047308921813964,0.19282556772232057 l-1.3720464706420898,0.015954272449016572 -2.162176513671875,1.1606493949890138 l-2.85067195892334,1.6876689910888671 -2.5523799896240233,2.28973388671875 l-2.2102386474609377,2.55477352142334 0.1369204044342041,1.3980640411376952 l1.2232040405273437,0.3616466045379639 1.8015167236328125,-0.7106180191040039 l2.929488182067871,-1.4372452735900878 2.6348922729492186,-2.2196575164794923 l1.7524148941040039,-2.210076904296875 1.4289870262145996,-2.057888221740723 l0.6377983570098877,-2.07265567779541 -0.1790281653404236,-0.8453763961791992 l-0.26585164070129397,0.1575859308242798 -0.2854895830154419,-0.006576213985681534 l-0.23347394466400145,-0.1669231176376343 -0.21662185192108155,0.714357852935791 l0.049056562781333926,0.6973137378692627 0.3406618595123291,2.2450302124023436 l-0.1195868730545044,1.7421499252319337 0.8530861854553222,2.098069953918457 l0.5896335124969483,1.1586155891418457 1.2214014053344726,1.2053727149963378 l0.861635971069336,0.09411203265190124 1.4237932205200194,0.43071627616882324 l0.923423957824707,-0.42355594635009763 m7.06434326171875,-6.3003997802734375 l-0.07230793833732604,-0.41592941284179685 0.07939910888671875,-0.009088017791509629 l-0.27577810287475585,0.058271557092666626 -0.35022356510162356,1.074595832824707 l-0.8066412925720214,1.9161857604980468 -0.8633838653564453,1.9627126693725585 l-0.1227840781211853,1.6997087478637696 0.05205798745155334,0.18419764041900635 m-4.115329742431641,-15.209733581542968 l-0.2706396818161011,-0.5531094551086426 -0.10527943372726441,-0.16906607151031494 l0.7586771965026855,0.5670267105102539 1.8121225357055664,0.9588052749633789 m17.080325317382812,18.51496276855469 l0.46213459968566895,0.5825078964233399 -0.09900161027908325,0.8351307868957519 l0.6070147037506104,3.7152873992919924 0.42365446090698244,4.409173583984375 l0.6232908248901368,5.063188552856445 -0.08827075362205505,4.126807785034179 l0.14511604309082032,2.865656089782715 0.29780306816101076,1.7462230682373048 m45.308956909179685,-32.894772338867185 l-0.49996204376220704,-1.128283977508545 0.17279059886932374,-0.06673511266708373 l-0.4636852264404297,-0.3253043174743652 -0.9592839241027832,-0.32891554832458497 l-1.1759466171264648,0.8369120597839356 -2.064405059814453,0.9691055297851563 l-1.2820797920227052,1.6909210205078125 -0.969645881652832,1.5415075302124024 l-0.5123565673828125,1.2016228675842284 0.529804277420044,0.9471985816955566 l1.2398170471191405,0.8194686889648437 2.2237970352172853,0.7604930400848389 l2.486058235168457,0.3177328109741211 2.1120004653930664,-0.18701715469360353 l1.6725242614746094,-0.3233778953552246 1.7096397399902343,-0.2565458297729492 l0.7323974609375,-0.6832829475402832 0.45790348052978513,-0.9940442085266114 l0.11358253955841065,-1.2067456245422363 -0.9063457489013672,-1.4622391700744628 l-1.0749345779418946,-0.9599615097045898 -1.7724029541015625,-1.157211685180664 l-1.8819673538208008,-1.131519889831543 -1.7078603744506835,-0.7275171279907227 m12.8238037109375,-0.8996015548706054 l-0.14512430429458617,-0.036196887493133545 0.08728629350662231,0.5002695083618164 l-0.2558555841445923,0.8657148361206055 0.842060661315918,2.517861175537109 l1.1353425979614258,2.825811576843262 1.1216302871704102,2.4792812347412108 l2.118471145629883,3.0368511199951174 1.5513786315917968,1.7116191864013672 l1.0769148826599122,0.6451784133911133 0.6033737182617187,-0.07659722566604614 l0.21893210411071778,-0.60806245803833 0.15414164066314698,-1.8552867889404296 l-0.059633731842041016,-2.58345890045166 -0.2924772262573242,-2.87310676574707 l0.03922528624534607,-2.249191665649414 -0.8408632278442383,-2.364254379272461 l-0.6406696319580079,-1.7653949737548829 0.06426280736923218,-0.6618738651275635 l0.14420222043991088,-0.41795825958251953 0.7751871109008789,-0.1882595896720886 m12.826931762695313,5.006859207153321 l-0.21411676406860353,-0.24081456661224365 -0.9085704803466796,-0.8532316207885742 l-0.6031665325164794,-0.20362777709960939 -1.8647880554199219,-0.6990595817565918 l-0.6330820083618164,0.5957076549530029 -1.0207629203796387,0.16071207523345948 l0.1130592942237854,1.6088481903076173 0.5436702728271484,1.882998275756836 l0.8823075294494629,1.5598692893981934 1.3528447151184082,1.205427360534668 l1.3077779769897462,0.7300835609436035 0.8196237564086915,-0.11839059591293336 l0.7931837558746337,-0.8460021018981934 0.5862743377685546,-1.541374969482422 l0.039507484436035155,-1.9004581451416016 -0.7297300338745117,-1.57489070892334 l-1.9856584548950196,-1.544013786315918 -1.458793544769287,-0.34802989959716796 l-1.0467697143554688,0.16180025339126586 -0.44576539993286135,0.6778076171875 l0.4607856750488281,1.5805917739868165 1.136566734313965,1.9461685180664063 l1.8656230926513673,2.6090858459472654 2.4348781585693358,3.4699535369873047 l2.0339250564575195,3.9232410430908202 1.5247621536254883,4.315216445922852 l0.5613558769226075,3.958212661743164 0.2451314687728882,4.065651321411133 l-0.6536188125610352,3.0234092712402343 -0.7609770774841309,2.181480598449707 l-1.1213101387023925,1.107503890991211 -1.7902116775512695,0.19465434551239014 l-2.121220588684082,-0.35692219734191893 -2.1422845840454103,-1.2404593467712401 l-2.0914852142333986,-1.8457162857055665 -2.2363250732421873,-2.738431930541992 m22.423606872558594,-17.95978546142578 l0.9858692169189454,-0.5531320571899414 0.5401687145233154,-0.4695272922515869 l0.438198184967041,-0.20940704345703126 -0.16883665323257446,-0.46265430450439454 l-0.2201780319213867,-0.3681051254272461 -1.002872848510742,-0.8357399940490723 l-1.4896297454833984,-0.6393752098083496 -1.4574094772338868,-0.17195353507995606 l-1.2261863708496095,0.6450062751770019 -0.8999061584472656,1.0420838356018067 l-0.5095619201660156,1.235409927368164 0.4822258472442627,1.8012680053710937 l1.692985725402832,1.8588939666748048 1.956704330444336,0.7655958652496337 l2.162277412414551,0.11036950349807739 2.289714813232422,-0.785754919052124 l1.853093147277832,-0.9286594390869141 1.3908758163452148,-0.7836040496826172 l-0.010279751569032668,-1.6177461624145508 -0.9561985969543457,-1.496574306488037 m-1.8272388458251954,-2.9032211303710938 l-0.009729981422424316,0.2221683979034424 -0.19244983196258544,0.045755743980407715 l0.29945850372314453,0.668507194519043 0.7293767929077148,1.5691051483154297 l1.153085708618164,1.6623781204223633 1.2533082962036133,1.5650779724121093 l1.1754189491271974,1.800251579284668 1.1055760383605957,1.2929481506347655 l0.8277631759643554,1.2021257400512695 0.4902975559234619,0.6226956367492675 l0.20758204460144042,0.16684805154800414 m8.177506256103516,-9.194267272949219 l0.5652189254760742,-0.205297589302063 0.06139153838157654,-0.3364116907119751 l-0.08152978420257569,-0.471647834777832 -0.5442728519439697,-0.564949893951416 l-1.2871843338012696,-0.6233670234680175 -0.5423451423645019,0.2893880605697632 l-1.8151737213134767,0.3191621541976929 -1.5752244949340821,0.6595064163208008 l-1.3845972061157226,1.3767278671264649 -1.5341259002685548,1.131177043914795 l-0.22113392353057862,1.8432897567749023 0.05295517444610596,1.4482183456420898 l0.8834525108337402,1.1685087203979492 0.7063512802124023,0.4962046146392822 l1.9980524063110352,0.260632061958313 1.514573097229004,-0.43733601570129393 l1.6783966064453124,-1.0558623313903808 0.991982364654541,-1.4843979835510255 l1.7403085708618165,-1.4027619361877441 1.2447601318359376,-1.463263988494873 l0.8357412338256835,-1.2506184577941895 0.604679536819458,-0.7635982036590576 l-0.289038872718811,-0.7177865982055665 -0.09073277711868286,-0.23170723915100097 l-0.3068147897720337,-0.09155119657516479 -0.0775752067565918,0.46619977951049807 l0.11365683078765869,1.2124046325683593 0.3476248741149902,1.9137117385864257 l0.6726785659790039,2.212935447692871 1.2332343101501464,1.4990262031555175 l1.5767889976501466,0.5698843002319336 0.7541455745697021,-0.43303484916687013 m23.899948120117188,-15.074067687988281 l-0.045100444555282594,-0.03327211141586304 -0.5645859241485596,-0.30263328552246094 l0.2180248022079468,0.15215864181518554 -0.23607947826385497,-0.06338684558868408 l0.06480566263198853,0.1401025176048279 -0.03909979462623596,0.1252405047416687 l0.594297456741333,1.0510979652404786 0.19309015274047853,1.5549574851989747 l0.6124608039855957,1.9590696334838866 0.6297349452972412,2.4506750106811523 l1.1177528381347657,2.8077526092529297 0.9217127799987793,2.317073440551758 l1.032394027709961,1.7755428314208985 0.8695252418518067,0.8802348136901855 l0.3703057527542114,-0.09387418627738953 0.8517135620117188,-0.8145520210266113 l0.9106188774108886,-2.2659427642822267 1.1724065780639648,-2.374039077758789 l1.102640151977539,-2.1596994400024414 1.3607158660888672,-1.053783893585205 l0.41941027641296386,-0.5069177150726318 0.20614323616027833,-0.003727656975388527 l0.9206940650939941,1.136369800567627 0.3987677335739136,1.5504026412963867 l0.8996402740478515,2.05047492980957 1.0652514457702638,2.0593341827392577 l0.6327057838439941,1.5514904022216798 1.0927658081054688,0.7778534889221191 m4.486859893798828,-7.621760559082031 l-0.1222111701965332,-0.0021247465163469316 0.002735638990998268,0.12963101863861085 l-0.19868216514587403,0.4882638931274414 -0.668275785446167,1.5980419158935546 l0.21753664016723634,2.0251461029052735 -0.07490077018737792,2.011069107055664 l0.3661646366119385,1.3256046295166015 1.8036226272583007,0.780489158630371 l1.6135337829589844,-0.4372725963592529 1.728070068359375,-1.4521437644958497 l1.3446260452270509,-2.269483757019043 0.7650279521942138,-2.244002342224121 l0.13435595035552977,-2.2456262588500975 -0.6188401699066162,-1.6610223770141601 l-1.9015647888183593,-1.5154446601867675 -1.8679571151733398,-0.8146500587463379 l-1.4056516647338868,-0.2397451877593994 -1.1512280464172364,0.13917146921157836 l-0.5988798141479492,0.3834088802337646 0.07518125772476196,0.9047672271728515 m30.01893310546875,-20.330865478515626 l-0.05437573790550232,-0.08812986612319947 -0.4459677219390869,-0.12485755681991577 l0.5105190277099609,0.7989096641540527 0.18915718793869019,1.6380125045776368 l1.081926155090332,2.7155181884765627 1.0476168632507323,3.0187198638916017 l1.3074810028076171,3.1882455825805662 0.9006780624389649,3.359806442260742 l0.8256968498229981,3.254313659667969 0.5826013088226318,2.9537256240844725 l0.2783074140548706,2.3097068786621096 1.087501621246338,1.8944816589355469 l0.8950330734252929,1.1075898170471192 1.3687816619873048,0.47501749992370607 l1.9860225677490235,-0.33175458908081057 2.393398475646973,-0.9627350807189942 l2.468585205078125,-1.6598039627075196 2.673296356201172,-1.6209377288818358 l2.010034942626953,-1.4055648803710938 1.4277964591979981,-0.9824887275695801 m10.086375427246093,-8.551216888427735 l-0.596157169342041,0.049041128158569335 -1.596309757232666,0.012854073941707612 l-0.9717399597167968,0.8732830047607422 -1.406908893585205,0.8333368301391602 l-1.6526660919189453,1.4009715080261231 -1.2655862808227538,2.1195819854736326 l-1.000532627105713,2.161033821105957 -0.0034330740571022035,2.236964797973633 l1.0694561004638672,2.198677825927734 0.8827848434448242,1.1849249839782714 l2.055173873901367,0.6638271331787109 2.1748432159423827,-0.511237382888794 l2.0526405334472657,-1.3946107864379882 1.5023159980773926,-1.4707159996032715 l-0.019465653598308562,-1.8880060195922852 0.06333584189414979,-1.1525307655334474 l-0.1084254503250122,-0.8294678688049316 0.2231220245361328,0.02745327651500702 l0.18595267534255983,0.3814448356628418 0.9004488945007324,1.0046905517578124 l1.338878059387207,1.3877419471740722 2.113211822509766,1.4273736953735352 l1.9068635940551757,0.8433610916137695 2.746548652648926,0.6304698467254639 l2.529721260070801,-0.18609570264816283 2.618035316467285,-0.8610726356506347 l2.3266790390014647,-1.7488685607910157 1.7588207244873046,-1.7152027130126952 l1.1509031295776366,-1.478834056854248 -0.06642327308654786,-0.44059386253356936 l-0.018006962537765504,0.28421759605407715 -1.1846388816833495,1.0109514236450194 l-0.6672629356384278,1.367063331604004 0.7784605026245117,2.193710136413574 l0.964239501953125,1.0973169326782226 1.8156997680664062,1.1273446083068848 l3.0324285507202147,0.2747635364532471 2.5433652877807615,-0.6877655029296875 l2.5745929718017577,-2.003293037414551 1.1794330596923828,-3.034465026855469 l0.8881272315979004,-3.580652618408203 -0.7216504096984864,-3.1379318237304688 l-2.3406999588012694,-2.4365692138671875 -3.4077075958251952,-2.005076217651367 l-4.220985794067383,-0.9982913970947266 -4.988024139404297,-0.32293579578399656 l-4.1709129333496096,0.509850263595581 -2.5477521896362303,0.8196591377258301 l-0.9127008438110351,0.32915143966674804 0.40878658294677733,0.23821208477020264 l1.7076515197753905,0.33626561164855956 2.80944709777832,0.22323305606842042 l3.4450260162353517,-0.054942977428436277 3.4641719818115235,-0.3274970054626465 l2.8737346649169924,-0.13472758531570433 2.241805648803711,0.05751062035560608 l1.030978298187256,0.36927270889282227 0.4409435749053955,0.6560211658477784 l0.4207332134246826,1.3060250282287598 0.18599109649658202,2.312682342529297 l-0.17984187602996826,1.9919208526611327 0.8545412063598633,2.3585533142089843 l1.1252907752990722,1.665846061706543 1.7427440643310548,1.224574089050293 l1.8722955703735351,0.29301252365112307 1.7624160766601562,-0.7222238063812256 l2.0043439865112305,-1.6448265075683595 1.3699189186096192,-2.2657470703125 l1.8472702026367187,-2.277289390563965 1.162919044494629,-1.6583555221557618 l0.33733377456665037,-0.4716052532196045 0.08298934102058411,-0.050860047340393066 l0.04636537730693817,0.2527132034301758 0.34736905097961424,0.8636818885803222 l0.5867129325866699,1.9111761093139648 1.147061538696289,2.7383211135864256 l1.611274528503418,2.614889907836914 1.6946184158325195,1.7253238677978515 l1.997279739379883,0.65355544090271 3.155953216552734,-0.6866705894470215 m7.902291870117187,-27.807040405273437 l-0.36141009330749513,-0.477543306350708 0.1293733835220337,0.20189616680145264 l0.2561944961547852,1.8426546096801757 0.5988239288330078,3.296369171142578 l0.5441889762878418,3.896958923339844 0.6662350654602051,4.0765033721923825 l0.43338351249694823,3.969152069091797 1.1346567153930665,3.1288692474365236 l1.0720282554626466,2.12844181060791 0.8964992523193359,1.1095449447631835 l0.39960947036743166,0.3247101068496704 -0.7565195083618164,-0.5375208377838134 m-8.613658142089843,-5.442142486572266 l0.0026713905856013296,-0.16478147506713867 0.6272686958312989,0.08401760458946228 l3.033177947998047,-0.5817472457885742 5.1091960906982425,-0.38474254608154296 l5.554806137084961,-1.101109504699707 m11.141949462890626,2.2710554122924806 l-0.046418297290802005,1.686874008178711 -0.4504416465759277,2.142117500305176 l0.11580798625946045,2.9005441665649414 -0.06800234317779541,2.6828994750976562 l1.0685104370117187,2.5119531631469725 2.1260520935058596,2.1908206939697266 l3.433180236816406,1.7145078659057618 3.696900177001953,0.15376914739608766 m44.67974853515625,-23.618026733398438 l0.47841620445251465,-0.5888294219970703 -0.33709285259246824,-0.7134385108947754 l-0.2747480392456055,-0.7086915969848633 -0.8238561630249024,-0.8096447944641113 l-0.9782734870910644,-0.32822389602661134 -1.6018476486206055,0.060979831218719485 l-1.3184013366699219,1.1236385345458983 -1.424380397796631,2.4266639709472657 l-1.9136474609375,3.095145034790039 -0.7067885398864746,3.9654613494873048 l0.1405857801437378,4.493628692626953 -0.038699361681938174,4.200217819213867 l0.05758330225944519,3.6240154266357423 0.9829217910766601,2.6671680450439452 l0.7810898303985596,1.3004642486572267 1.6497552871704102,0.614132022857666 l1.019803237915039,-0.5802972793579102 2.084802436828613,-1.205660343170166 l0.9770570755004883,-2.132337188720703 1.6417112350463867,-1.9077980041503906 l1.3552985191345215,-1.2037668228149414 0.9046135902404785,-0.9388602256774903 l0.7772904396057129,-0.34048140048980713 0.9940361022949219,0.059534883499145506 l1.1471612930297852,0.649020004272461 1.0382975578308105,0.9037202835083008 l2.3014183044433594,1.5179794311523438 2.013545608520508,1.3930720329284667 m12.821890258789063,3.5605609893798826 l2.9243562698364256,-0.8701249122619629 4.301780700683594,-2.110247039794922 l3.8154701232910155,-2.8004770278930664 1.8213756561279297,-2.81038818359375 l0.4757844924926758,-2.685427665710449 0.5973174095153808,-2.2234403610229494 l-1.3643949508666993,-1.6200807571411133 -1.7243310928344726,-0.665583610534668 l-3.4016952514648438,0.08908814191818237 -2.546364974975586,1.0859522819519043 l-1.5289301872253418,2.3348037719726564 -1.6604263305664062,2.994580841064453 l-0.41419415473937987,3.1064640045166017 1.336148738861084,2.9957181930541994 l2.415693473815918,2.023137855529785 3.564359664916992,0.8627616882324218 l3.907551956176758,-0.29609203338623047 4.021136474609375,-1.246811294555664 l3.9842811584472657,-1.8584815979003906 3.0947397232055662,-2.609347915649414 l2.133195686340332,-2.9568784713745115 1.5283042907714843,-3.0644012451171876 l0.9640686988830567,-2.5780391693115234 -0.2048546314239502,-1.9267940521240234 l-0.29249277114868166,-1.3670719146728516 -0.776834774017334,-0.9834124565124511 l-0.44718151092529296,-0.3308681011199951 -0.8029463768005372,0.018193261325359346 m3.526751708984375,17.516439819335936 l1.3265907287597656,0.016608983278274536 1.1241214752197266,-0.3428360462188721 l2.3866270065307615,-0.9583980560302734 2.2445581436157225,-1.1982124328613282 l2.002578926086426,-1.5225214958190918 0.8173542976379394,-1.7392875671386718 l0.016215133666992187,-1.450870895385742 -1.7908645629882813,-1.4653674125671388 l-2.4665607452392577,-0.6539005756378173 -3.215467834472656,0.15460277795791627 l-2.8709266662597654,0.8306137084960937 -2.4966915130615233,1.6574857711791993 l-1.3033660888671874,2.3271743774414064 0.6265437126159668,2.3201906204223635 l1.6798336029052734,2.0090810775756838 4.155406188964844,1.2592645645141602 l4.198953628540039,0.3681180477142334 3.3986366271972654,-0.47925095558166503 l3.5770355224609376,-0.7830723762512207 2.6701026916503907,-1.0138569831848145 l1.9159791946411133,-0.43904743194580076 0.9657792091369629,-0.20610105991363525 l0.2495204448699951,0.19681305885314943 0.6454100608825684,0.9102343559265137 l0.2967981338500977,0.9769886016845704 0.4754798889160156,1.2064741134643555 l1.360262680053711,0.6782530784606934 1.2411423683166505,0.2531910419464111 l1.059827709197998,-0.14699679613113403 -0.11388852596282958,-0.14934449195861815 l0.036709058284759524,0.024160562455654143 -0.8520220756530762,-1.1499563217163087 l-0.959540843963623,-2.488880920410156 -0.816795539855957,-3.0222496032714843 l-0.04613669514656067,-3.050162124633789 0.490328311920166,-3.070570182800293 l1.6764255523681642,-2.7284412384033203 1.7977912902832032,-2.2111976623535154 l2.8669185638427734,-1.6098955154418946 2.7631513595581056,-0.8224518775939942 m13.376448059082032,13.915528869628906 l-0.023041346669197084,-0.1918786883354187 0.3473714590072632,0.1705804944038391 l-0.22279510498046876,-0.2801307439804077 0.30143282413482664,-0.06379347443580627 l-0.33958725929260253,-0.27462694644927976 0.44249753952026366,0.08110319375991822 l0.24522113800048828,0.28780064582824705 -0.5631396293640136,-0.15527057647705078 l0.7076003551483154,-0.03909242451190949 1.0800445556640625,-0.6853535652160645 l0.27737748622894287,-0.7481589794158936 0.06495662927627563,-0.3155244827270508 l0.021237105131149292,0.017044392228126527 0.1485632061958313,0.9781050682067871 l0.5079229354858399,2.178775596618652 -0.01715753823518753,1.7566278457641602 l1.534592628479004,1.71545352935791 2.0605560302734376,0.7865638256072998 l2.8263099670410154,0.31268935203552245 2.647892189025879,-0.19262635707855225 m6.723381042480469,16.0274658203125 l-0.5772943496704102,-0.1908561110496521 -0.3907425880432129,-0.3424941062927246 l-1.3641666412353515,-1.0121240615844727 -1.5206029891967774,-0.8713771820068359 l-1.769742202758789,-1.0460987091064453 -0.536137580871582,-0.9720987319946289 l-1.2119155883789063,-1.9667102813720703 0.669333553314209,-1.805308723449707 m17.861138916015626,-7.25866470336914 l-0.23380753993988038,0.039916235208511355 0.31366872787475586,0.013328452408313752 l0.2503305673599243,-0.18371235132217406 -0.2985091209411621,-0.4844536781311035 l-1.081844425201416,-0.5806118965148925 -1.0313401222229004,-0.06852077841758727 l-1.1638554573059081,0.4604146957397461 -1.1136371612548828,1.3592448234558105 l-1.4463924407958983,1.5359615325927733 -0.10262010097503663,1.7060062408447265 l0.14716399908065797,1.303494644165039 0.7692184448242188,1.1160136222839356 l1.054374885559082,0.5910099983215332 1.6558475494384766,0.005377296358346939 l2.180970001220703,-0.3858741521835327 1.8668558120727539,-1.2312326431274414 l2.7650938034057617,-0.9763684272766113 1.153811550140381,-0.6427015781402587 l0.1507145047187805,-0.3165566444396973 -0.2105846643447876,-0.13182077407836915 l-0.2828446626663208,-0.012186543643474579 0.13844074010849,0.2929243803024292 l-0.4297173500061035,0.8726414680480957 -0.023989944159984587,1.6427289962768554 l0.4740335941314697,1.6582021713256836 0.664229440689087,1.3410455703735351 l1.297342872619629,0.7798429012298584 1.2811537742614747,0.26331899166107176 m10.878140258789063,-3.730738067626953 l0.09073645472526551,-0.0798439621925354 0.49985275268554685,0.10898318290710449 l-0.7476902484893799,-0.4299904823303223 -0.5194002151489258,0.3256338834762573 l-1.4755321502685548,0.5744843006134033 -1.4993114471435547,1.264951515197754 l-1.182967758178711,1.367469596862793 -0.6446014404296875,0.8666312217712402 l-0.17209757566452027,0.6315713405609131 0.6631605148315429,0.22071340084075927 l0.24110586643218995,0.09453263878822327 0.22774007320404052,-0.6705284595489502 l0.5933088302612305,-1.0157861709594727 1.025834846496582,-1.9008146286010743 l1.0029803276062013,-2.6498392105102537 1.4278003692626953,-2.716075134277344 l1.3475918769836426,-2.3589111328125 0.659222412109375,-2.262583541870117 l0.6626662731170654,-1.7274959564208985 0.6320156574249267,-1.0137264251708984 l-0.5793177604675293,-0.3250398874282837 0.17518783807754518,0.0698712944984436 l0.15852986574172973,0.5156128406524658 -0.04498797059059143,1.1801051139831542 l-0.7279882431030273,2.465439224243164 -0.4500983238220215,3.1063793182373045 l-0.17538254261016845,2.745823860168457 0.07634106278419495,1.9583396911621094 l0.4323237895965576,1.143353271484375 0.06356745958328247,0.28181962966918944 l0.5488436222076416,0.015790991485118866 0.22166044712066652,-1.0211106300354005 m24.350340270996092,-19.944749450683595 l0.015859681367874145,1.2051192283630372 -0.3211504459381104,2.020701217651367 l0.8346172332763672,2.628402328491211 0.6757578372955322,3.0204547882080077 l0.27920377254486084,3.4098751068115236 0.6440457820892334,3.701579284667969 l-0.12885891199111937,3.4065547943115235 0.10729552507400512,2.599448013305664 l-0.07167024612426758,1.1946399688720704 0.10717355012893677,0.2939227819442749 l0.16761441230773927,-0.6322738647460937 -0.14108741283416748,-2.355300712585449 m-4.6447185516357425,-5.965074920654297 l-0.2561760187149048,-0.01153445616364479 0.5542849540710449,0.018924197554588316 l0.496169900894165,0.03402290344238281 1.6975223541259765,0.2953146457672119 l1.9388317108154296,0.16061275005340575 1.4876543045043946,0.24924321174621583 l1.477617073059082,0.00010085995309054852 m0.9901006698608399,-2.8283435821533205 l-0.8277776718139649,0.5720932483673096 0.2385420799255371,1.5365299224853515 l0.03837344646453857,1.6082630157470703 0.8161508560180664,1.7815196990966797 l0.7999849796295166,1.5240668296813964 0.901858901977539,0.7376770496368408 l1.348101806640625,0.13591073751449584 1.5090713500976562,-1.003013515472412 l1.337185764312744,-1.5875195503234862 0.7561250686645508,-1.500791645050049 l0.7796937942504882,-1.5383867263793944 -0.29726812839508054,-1.1160799026489259 l0.25092544555664065,-0.14244698286056517 -0.08053866028785706,0.05596132874488831 l-0.011703849583864213,0.9143621444702148 " fill="none" stroke="black" stroke-width="1" /></svg>