<?xml version="1.0" encoding="utf-8" ?>
<svg baseProfile="full" height="120.52590151876214" version="1.1" width="679.2942206647251" xmlns="http://www.w3.org/2000/svg" xmlns:ev="http://www.w3.org/2001/xml-events" xmlns:xlink="http://www.w3.org/1999/xlink"><defs /><rect fill="white" height="120.52590151876214" width="679.2942206647251" x="0" y="0" /><path d="M25,78.8421702489257 m35.4533447265625,-21.68598175048828 l-0.5257401466369629,4.184059524536133 -0.6609692096710205,5.5283149719238285 l-0.560087013244629,5.564608764648438 -0.9082621574401856,5.776291275024414 l-1.4710426330566406,5.247226333618164 -1.2813610076904296,4.497409057617188 l-0.7884867668151856,3.7140899658203126 -0.4200793743133545,2.8874113082885744 l0.03817430436611176,0.9703018188476562 0.162237548828125,-0.09888173341751098 m3.2858734130859375,-23.825453186035155 l0.01085699424147606,0.2218116283416748 0.8759537696838379,1.0850799560546875 l0.7832455158233642,1.6422420501708985 1.162924575805664,1.0931781768798827 l1.9142826080322266,0.9512331008911132 1.9061111450195312,0.08922564387321472 l2.29031982421875,-0.31705760955810547 m12.974514770507813,-12.038039398193359 l0.6137855052947998,-0.25284276008605955 0.8787306785583496,-1.2238011360168457 l1.4843715667724608,-1.2996291160583495 1.7950183868408203,-2.172428321838379 l2.25704402923584,-2.1197376251220703 2.181875228881836,-2.8821916580200195 l2.5174352645874025,-2.673819351196289 2.0997125625610353,-2.650667190551758 l2.2216493606567385,-2.061905097961426 1.7872570037841797,-1.910188865661621 l1.268347930908203,-0.9983960151672363 1.0816614151000976,0.12428945302963257 l0.07124506235122681,0.2031571388244629 0.05628432035446167,1.1433130264282227 l-0.05529942512512207,2.865875244140625 -0.5196134567260742,3.4198814392089845 l-0.1981492280960083,4.293348693847657 -0.45751218795776366,4.014186859130859 l-0.4141942024230957,3.766780471801758 -0.5562009811401367,3.103300857543945 l-0.4839057445526123,2.406563568115234 -0.19947887659072877,1.4830196380615235 l-0.19759705066680908,0.07888502478599549 m0.6132912635803223,-8.886929321289063 l0.776768159866333,-0.38745138645172117 1.1081369400024415,-0.4341139793395996 l1.244287109375,-1.25377197265625 1.8171764373779298,-0.749586534500122 l2.2534780502319336,-0.9840885162353515 2.7981510162353516,-0.5983462333679199 l2.3381464004516603,-1.2124022483825683 2.765934371948242,-1.168583869934082 l2.6091567993164064,-1.5299073219299317 2.370987129211426,-1.2869009017944335 l1.5347467422485352,-1.5468826293945312 0.8632235527038574,-0.7992034435272217 l0.06364386081695557,-0.5551979541778564 -0.5900907039642334,0.018564023077487946 l-1.8211210250854493,0.22569057941436768 -2.928316116333008,1.3880940437316895 l-2.538559341430664,2.6369956970214843 -2.387223815917969,3.1949567794799805 l-1.2416829109191894,3.0543119430541994 -0.3880246639251709,2.686786651611328 l0.260402250289917,1.5977058410644531 0.7668206691741943,0.7700788974761963 l1.2053930282592773,0.5337996006011962 1.2732025146484376,-0.5706967830657959 l1.9212800979614257,-0.8536872863769531 2.1265439987182617,-1.9909269332885742 l2.668624687194824,-2.573348617553711 2.1108421325683593,-3.8227420806884767 l2.4445457458496094,-2.5331470489501955 2.0323116302490236,-1.9271368026733398 l1.1025561332702636,-1.2925253868103028 0.6668774604797363,-0.04836608767509461 l0.4194422721862793,0.445367431640625 -0.07911311388015747,0.4656352519989014 l0.09500789046287536,1.8018102645874023 -0.7440438270568848,2.0278451919555662 l-0.9713214874267578,2.439322662353516 -0.8994802474975586,2.40841007232666 l-0.5590206146240234,1.6657882690429688 -0.2457812547683716,1.086382007598877 l-0.06480077505111695,0.4022212982177734 0.2029338836669922,-0.062343287467956546 l0.19251914024353028,-0.07221329808235169 0.2548259496688843,-1.3355928421020509 l1.0811576843261719,-1.4590948104858399 1.3358121871948243,-1.7116884231567382 l1.5443812370300294,-1.7489736557006836 1.8286273956298829,-1.3759071350097656 l1.4700777053833007,-1.4684897422790528 1.5099848747253417,-1.2503214836120606 l1.333725929260254,-0.9804936408996582 1.1695995330810547,-0.44693760871887206 l0.663903284072876,-0.7913922309875489 0.5387849807739258,0.015118543803691865 l0.3058327198028564,-0.0409142404794693 -0.18969714641571045,-0.10783929824829101 l-0.05210002064704895,0.0621053159236908 -0.3488922119140625,0.24933717250823975 l-0.33078315258026125,0.5303226470947265 -0.8151430130004883,0.7645525455474853 l-0.6381071090698243,1.1191741943359375 -0.5140318393707275,1.468887710571289 l-0.4989119052886963,1.3610886573791503 -0.003867630660533905,1.936281967163086 l0.2852510452270508,1.5901948928833007 0.5239354133605957,1.346139144897461 l0.6860206604003907,0.5717637538909912 1.210665512084961,0.3270681142807007 l1.2739306449890138,-0.16837285757064818 1.3349470138549804,-0.5224180698394776 l0.19970529079437255,-1.151526641845703 -0.06156278848648071,-1.2640090942382813 l-0.6184335708618164,-1.0692404747009276 -0.6957043647766114,-0.7328179359436036 l-1.0180160522460937,-1.1189055442810059 -1.2651384353637696,-0.8485293388366699 l-0.7604162216186523,-0.8436514854431152 -0.2539315700531006,-0.5183075904846192 l-0.11549273729324341,-0.533439826965332 0.443879222869873,-0.3791606903076172 m14.451295471191406,2.758125114440918 l0.8382261276245118,-0.1980898857116699 1.4307540893554687,0.4189927101135254 l0.9308944702148437,0.5692371845245361 0.4592117786407471,1.1646295547485352 l0.05111116766929626,1.7033708572387696 -0.5806421279907227,2.1437862396240233 l-1.3249250411987306,1.9233510971069336 -0.899350357055664,2.0414085388183594 l-1.1888513565063477,0.850196361541748 -0.8347596168518067,0.41651763916015627 l-0.010836035013198853,0.25481128692626953 -0.45202155113220216,-1.0946303367614747 l0.7874980449676514,-0.9732158660888672 0.9330829620361328,-1.625396728515625 l1.3401309967041015,-1.8443981170654298 2.1440145492553713,-1.600249671936035 l1.6906112670898437,-1.5426344871520996 1.7994548797607421,-1.155904769897461 l1.942115592956543,-0.6767296314239502 1.913850975036621,-0.6006674766540527 l1.7464458465576171,-0.26210627555847166 1.319272232055664,0.04439820051193237 l1.1743354797363281,0.5788765907287597 0.6128474235534668,0.4819732666015625 l0.36184401512145997,0.3523931741714478 0.3631442546844482,0.6453364372253418 l0.08292735815048217,-0.10322303771972656 -0.07664062976837158,-0.011625388264656067 l0.24111833572387695,-0.08400386571884155 0.1021858811378479,-0.1702797532081604 l0.15685584545135497,-0.4215057373046875 0.0400888592004776,-0.45900492668151854 l-0.010249891132116318,0.04475622177124024 -0.220784330368042,0.03354262113571167 l0.16960097551345826,0.3002742290496826 0.13445307016372682,0.6696028709411621 l-0.19110450744628907,1.1140989303588866 -0.20152432918548585,1.2757295608520507 l0.20683481693267822,1.822251319885254 0.4340954303741455,1.8902427673339843 l0.29108395576477053,1.3885259628295898 0.9600850105285644,1.0172704696655273 l1.400895881652832,0.9697254180908204 1.4315460205078125,0.4382039546966553 l1.4582292556762695,-0.4746848106384277 1.7313692092895507,-0.5718482971191406 l2.116819381713867,-1.3517169952392578 1.8156810760498048,-1.5489707946777345 l1.9094757080078124,-1.3152722358703612 1.854904556274414,-1.3439155578613282 l1.1783928871154785,-1.2654458999633789 0.791512393951416,-0.8267635345458985 l0.19718580245971679,-0.07032514810562134 0.31257238388061526,0.2836917877197266 l-0.23517258167266847,0.7837118148803711 -0.4452959060668945,1.3333430290222168 l-0.8618227005004883,1.8818748474121094 -0.9250432968139648,2.043880844116211 l-1.1617376327514648,1.4665159225463866 -0.5132568359375,1.9414579391479492 l-0.4768861770629883,0.9356891632080078 -0.0619316577911377,0.40577263832092286 l0.3389118671417236,0.16413115262985228 0.33223648071289064,-0.365441107749939 l0.46439085006713865,-1.173079490661621 1.0393891334533691,-1.1239705085754395 l0.7937912940979004,-1.5848659515380858 1.4271326065063477,-1.1855082511901855 l0.6930203914642334,-1.6730606079101562 1.0512680053710937,-1.390854835510254 l1.169397735595703,-1.2741236686706543 0.96590576171875,-0.8994790077209472 l0.8039472579956055,-0.4793954372406006 0.554663610458374,-0.05747199058532715 l0.08436885476112366,0.003645969182252884 0.38798749446868896,0.5645818710327148 l0.15649838447570802,0.22831952571868896 0.38387279510498046,1.2177749633789063 l0.28213133811950686,1.0444814682006835 0.3171424627304077,0.8554242134094239 l0.3673830986022949,0.6445457458496093 0.27366230487823484,0.17728446722030639 l0.5470026969909668,0.38850111961364747 0.7092554569244385,-0.14702219963073732 l0.8884791374206543,-0.558987808227539 0.9661604881286621,-0.720335865020752 l1.0835843086242676,-0.8141595840454101 1.042741870880127,-0.9553422927856445 l0.7021072387695313,-1.211909866333008 0.6228669166564942,-0.7012910842895508 l0.4678248405456543,-0.6014869213104248 0.2564698696136475,-0.07351648211479186 l-0.14862440824508666,-0.38798067569732664 0.017046597599983216,0.015449786186218261 l-0.2078094005584717,0.04957149028778076 -0.09311029314994812,0.18530669212341308 l0.0798353910446167,0.08581058979034424 0.14719401597976683,0.3190973997116089 l0.08985593318939208,0.644717788696289 -0.09512535333633423,0.16400803327560426 l0.19748438596725465,0.9316831588745117 0.12985236644744874,0.7219843387603759 l0.1478074908256531,0.8258202552795411 0.37994956970214844,1.0129641532897948 l-0.19031367301940919,0.5049526214599609 0.2280648946762085,0.934534740447998 l0.2502081871032715,0.6849862098693847 0.48489947319030763,0.501976203918457 l0.7692782402038574,0.4790365219116211 0.7034368991851807,-0.14483635425567626 l1.5222697257995605,0.417753791809082 1.2690621376037599,-0.5007206916809082 l1.7178911209106444,-0.24942393302917482 1.3066619873046874,-0.6717422008514404 l1.580651092529297,-0.2512232303619385 1.301583480834961,-0.4556107044219971 l0.4709641456604004,-0.49462337493896485 0.16874958276748658,-0.2737508058547974 l0.15033912658691406,0.23324134349822997 -0.5847116470336914,-0.25577621459960936 l-0.7547659873962402,-0.11939218044281005 -1.0651237487792968,0.38624205589294436 l-1.0085634231567382,0.1661370038986206 -1.0815080642700194,0.5208186149597168 l-0.72314453125,0.3781153917312622 -0.5484097003936768,0.47556362152099607 l-0.361356782913208,0.33249316215515134 0.08787511587142945,0.6528174400329589 l0.14570658206939696,0.4674683094024658 0.49908981323242185,0.6754946708679199 l0.8920023918151856,0.300172233581543 1.2244606971740724,0.017999856173992156 l1.4395054817199706,-0.12341873645782471 1.6258146286010742,-0.6034631252288818 l1.445988655090332,-0.9331244468688965 1.418799591064453,-0.962212085723877 l1.3450607299804687,-0.9330990791320801 0.6803745746612548,-1.3565004348754883 l0.24122254848480223,-1.3509965896606446 -0.09242873787879943,-1.0611909866333007 l-0.4920142650604248,-0.4971463203430176 -0.6593871593475342,-0.30687756538391114 l-1.444569206237793,-0.7092626094818115 -1.0885682106018066,0.06807180643081664 l-0.8778485298156739,0.05340370535850525 -0.9079227447509766,0.003922031074762344 l-0.503567123413086,-0.044611725211143496 -0.38994460105895995,-0.13628369569778442 l0.24882957935333253,0.6743289947509765 -0.07336056232452393,0.2905921936035156 l0.32136240005493166,0.1193124532699585 0.3200012445449829,0.1330779790878296 l1.016669750213623,0.5202324390411377 1.2358555793762207,0.3745446681976318 l2.63021240234375,0.6531932353973389 2.1798917770385744,-0.22860116958618165 l2.3634527206420897,-0.18078852891921998 2.792577934265137,-0.12027503252029419 l2.2433494567871093,-0.9219766616821289 2.637068748474121,-0.5683738708496093 l2.0299633026123045,-0.6290337562561035 1.2625822067260741,-0.6802373886108398 l0.26636064052581787,-0.7160442352294922 0.1730947494506836,0.34696686267852783 l-0.46831436157226564,-0.839968490600586 -0.4206255912780762,-0.26114559173583984 l-1.155814266204834,-0.2538172960281372 -1.2611994743347168,0.5472237586975097 l-1.7787952423095703,0.8751307487487793 -1.2848766326904297,1.115325355529785 l-0.9779742240905762,0.940463924407959 -0.6019804000854492,1.4282990455627442 l-0.39686787128448486,1.0506771087646485 0.16332029104232787,1.3487763404846191 l0.4363588333129883,1.239671230316162 1.2841384887695313,1.4937570571899415 l1.5886487007141112,0.6206717014312744 2.071891021728516,-0.004145223647356033 l2.4353168487548826,-0.10468610525131225 3.253081512451172,-0.5555239677429199 l2.96365966796875,-0.8739036560058594 m32.78406982421875,-10.660482788085938 l-0.4884190082550049,-0.8233540534973145 -0.029535967111587524,0.31554303169250486 l-0.31920289993286133,-0.060435497760772706 -0.16647610664367676,0.7268941402435303 l-0.4571400165557861,1.4008743286132812 -0.4159554481506348,1.7348764419555665 l-0.13789342641830443,2.5069847106933594 -0.7638718605041503,2.1549299240112303 l-0.4002367496490479,2.6087615966796873 -0.514306116104126,2.3647483825683593 l-0.47092881202697756,2.370618438720703 -0.87076416015625,2.3164405822753906 l-1.128780460357666,1.5764751434326172 -0.7065613269805908,1.6541507720947266 l-0.3483588457107544,1.4404336929321289 -0.5579033851623535,0.6131818294525146 l-0.4649492263793945,0.05176793932914734 0.216119384765625,0.17071433067321778 l-0.14440901279449464,-0.40296010971069335 0.5493745803833008,-0.10693145990371704 l-0.05697776079177856,-1.2896313667297363 0.6978355407714844,-1.0688514709472656 l0.8267790794372558,-0.967275333404541 0.38568859100341796,-1.4962843894958495 l0.7775992393493653,-1.3423786163330078 0.8537620544433594,-1.0992636680603027 l0.7883974075317383,-0.9740048408508301 1.2132352828979491,-0.4342092514038086 l1.5035796165466309,-0.8433032035827637 1.7925098419189454,-0.5761665821075439 l2.4814586639404297,-0.13991329669952393 2.741815376281738,-0.4903430461883545 l3.53671875,0.06441043615341187 3.095774841308594,-0.682307767868042 l3.4369762420654295,-0.7681267261505127 2.5624826431274412,-1.5187073707580567 l3.0382640838623045,-0.03634019494056702 1.746978187561035,-0.9981383323669434 l1.233553981781006,-1.471175765991211 0.6720327854156494,-1.48956298828125 l-0.44535298347473146,-1.647332763671875 -0.9688632011413574,-1.0756637573242187 l-0.967954444885254,-0.7464285850524902 -1.3231487274169922,-0.09864661693572999 l-0.9837225914001465,0.9607776641845703 -0.8923920631408692,1.3124655723571776 l-0.8072517395019532,1.7894075393676758 -0.5117013454437256,2.0877941131591795 l0.13927147388458253,2.285715866088867 0.3368126392364502,1.8482620239257812 l0.5489825248718262,1.614862060546875 1.0920682907104493,0.7258946895599365 l1.4443416595458984,0.49022541046142576 1.7661706924438476,-0.26022317409515383 l2.2477787017822264,-1.0037311553955077 2.292327880859375,-1.8731098175048828 l2.5244007110595703,-2.218233108520508 2.2690725326538086,-2.4066471099853515 l1.9207683563232423,-2.588667297363281 1.6446937561035155,-1.8324008941650392 l1.5089550018310547,-0.9003044128417969 0.4250436782836914,-0.8488456726074218 l0.2099327564239502,0.1338819146156311 -0.18366402387619019,0.237241792678833 l-0.0018087062984704972,0.3432797431945801 -0.2905903339385986,1.5706148147583008 l-0.25994167327880857,2.2481786727905275 -0.29246089458465574,2.304334831237793 l0.6559904098510743,2.1917560577392576 0.7972687721252442,1.4671148300170898 l0.9124222755432129,0.24902799129486083 1.5623514175415039,-0.2259298801422119 l2.0798221588134767,-0.9698293685913086 1.6803085327148437,-1.5781822204589844 l1.5851696014404297,-1.6191360473632812 1.6950922012329102,-1.3571048736572267 l1.5678853034973144,-0.766313123703003 1.0547670364379882,0.03621454238891601 l0.32678544521331787,0.15977240800857545 0.39779067039489746,0.8030524253845215 l0.056695055961608884,0.974307632446289 -0.4288996696472168,1.626258087158203 l0.7184900760650634,1.7851364135742187 0.9955979347229004,1.4322479248046875 l1.3705105781555176,0.29971888065338137 2.1279077529907227,-0.6349349021911621 l2.3356931686401365,-1.2866358757019043 2.650004196166992,-1.8108026504516601 l2.483472442626953,-2.360736846923828 2.457952690124512,-1.9520357131958008 l2.4058446884155273,-0.9674283981323242 1.3544708251953126,-0.7077345371246337 l0.6517906665802002,0.12023851871490479 0.6948974132537842,1.4208353996276855 l-0.2598941564559937,1.549321174621582 -0.456671142578125,2.5449592590332033 l-0.6579914093017578,2.247720718383789 -0.9834636688232422,1.844999122619629 l-0.03369294404983521,1.343498992919922 0.3277672529220581,0.6869881629943848 l0.33250305652618406,-0.34989449977874754 1.6251764297485352,-0.9714291572570801 l1.6195499420166015,-2.070602226257324 2.5130775451660154,-1.7144163131713868 l2.8122772216796874,-1.633772087097168 2.089352607727051,-1.3294972419738769 l2.266632080078125,-0.9287200927734375 1.4345518112182618,-0.46085305213928224 l1.2356420516967774,-0.12146358489990235 0.34790830612182616,0.06676409244537354 l0.40660800933837893,0.8513029098510743 0.17638807296752929,0.9782812118530273 l-0.30469508171081544,1.519382381439209 -0.23155453205108642,1.6065313339233398 l-0.18420593738555907,1.3642941474914552 -0.15088098049163817,0.9257681846618653 l0.3877969980239868,0.550133752822876 0.9161537170410157,0.2694922685623169 l1.2436114311218263,-0.4246654987335205 1.7654937744140624,-0.5821006298065186 l1.7114107131958007,-1.4767478942871093 2.0400367736816407,-1.8577236175537108 l2.275247573852539,-1.673436737060547 1.847782516479492,-1.0040453910827636 l1.3249231338500977,-0.7907014846801758 0.684087085723877,-0.09583978652954102 l0.21996865272521973,-0.00670238807797432 0.15490978956222534,0.6909151077270508 l-0.1407917857170105,1.1651873588562012 -0.15929340124130248,2.048089599609375 l-1.1177051544189454,1.4843043327331542 -0.9313712120056152,-0.20380899906158448 l-0.28748250007629395,-0.27330474853515624 0.24164083003997802,0.10532940626144409 l0.22570464611053467,-0.6958466053009034 1.0739622116088867,-0.44870643615722655 l1.5936474800109863,-0.2661153316497803 2.1140958786010744,-0.41045141220092773 l2.5222888946533204,-0.16741082668304444 2.2741302490234374,0.23409750461578369 m40.98240966796875,-12.535803985595702 l0.6549536705017089,-0.024012529850006105 0.2222074031829834,-0.03677116334438324 l-0.37203896045684814,-0.5610804080963134 -0.12795084714889526,0.26430578231811525 l-0.3450129985809326,0.17502449750900267 -0.8711050033569336,-0.1486659049987793 l-1.5606089591979981,0.11969795227050781 -1.7216814041137696,1.4755755424499513 l-1.1787310600280763,2.8154468536376953 -0.7545352935791015,3.9689697265625 l-0.3657323122024536,4.349981307983398 -0.10556703805923462,3.8069644927978517 l-0.1271457076072693,2.6886211395263673 0.10399614572525025,2.183559608459473 l-0.30446338653564453,0.7876046180725098 -0.12774262428283692,0.023932510614395143 l-0.6050368309020996,-0.7437849044799805 -0.13041460514068604,-1.0489951133728028 l-0.28980507850646975,-2.3098686218261717 -0.019984132051467894,-2.7867822647094727 m7.369376373291016,-39.18018798828125 l1.0895520210266114,1.7596090316772461 -0.3396284580230713,1.7146093368530273 l-0.4166377067565918,1.7922683715820313 0.10570049285888672,2.0801315307617188 l0.36752364635467527,2.159514617919922 -0.0035560291260480882,1.5019692420959472 l0.11316021680831909,1.5438488960266112 -0.03563268780708313,1.199106216430664 m36.19649963378906,4.094716644287109 l-0.12252920866012573,1.2546359062194825 -0.8648067474365234,1.063535213470459 l-0.48015408515930175,2.219376564025879 -0.7477250099182129,2.2652494430541994 l-0.8006244659423828,2.017778015136719 -0.47150096893310545,2.30751895904541 l-0.5579582214355469,2.284416389465332 -0.9779361724853516,1.8069562911987305 l-0.5544312477111817,2.3410717010498048 -0.6084405899047851,1.9966960906982423 l-0.7906546592712402,0.7099143028259277 -0.4789285659790039,0.2570110559463501 l-0.12235674858093262,0.3055115222930908 -0.05892302989959717,-0.30193638801574707 l0.13141803741455077,0.06255703568458557 -0.23070149421691893,-0.4513406753540039 l0.16468567848205568,-0.2572465419769287 0.9243660926818847,0.3523775577545166 l0.7589126110076905,0.1350366950035095 0.2268455743789673,0.013699699938297272 l0.43225460052490233,-0.03659970760345459 0.10166568756103515,-0.1385243058204651 l0.2275331735610962,-0.30713348388671874 0.6797792911529541,-0.4425335884094238 l0.4600230693817139,-1.2010003089904786 0.5373849868774414,-1.7893117904663085 l1.1822938919067383,-1.7441871643066407 1.8213455200195312,-1.3461705207824708 l2.3777606964111326,-1.0055298805236816 2.3126384735107424,-1.857278823852539 l2.6282421112060548,-2.091775894165039 2.6890945434570312,-2.4408397674560547 l1.795037841796875,-2.5512821197509767 1.1496024131774902,-2.3652217864990233 l1.0491727828979491,-2.3317384719848633 0.42789411544799805,-1.5177407264709473 l-0.3809171199798584,-0.5282688140869141 -0.653100061416626,0.17598611116409302 l-1.3962581634521485,1.1604186058044434 -2.45285701751709,1.7428157806396485 l-2.0352773666381836,3.265864944458008 -1.9706443786621093,4.261466217041016 l-1.6376914978027344,5.030488586425781 -1.4597585678100586,5.022667694091797 l-0.3515683650970459,3.5439456939697265 -0.003682207316160202,2.078516387939453 l0.5293565273284913,0.6565983772277832 1.5171663284301757,-0.18199986219406128 l2.647772026062012,-1.2018832206726073 3.1988731384277345,-2.6507408142089846 l3.2842899322509767,-3.472392272949219 2.4585662841796876,-3.8090606689453126 l1.3372143745422362,-2.944793701171875 0.4733818531036377,-2.5932003021240235 l0.15271461009979248,-1.497432327270508 -0.28018128871917725,-0.4351543426513672 l-0.07055065035820007,0.3244692087173462 -0.3779797315597534,1.4099169731140138 l-0.8039535522460938,2.8592998504638674 -0.3113610506057739,3.330760955810547 l-0.1038488507270813,3.7133155822753907 0.23762199878692628,2.978990936279297 l0.5062537670135498,2.1416343688964843 1.210109329223633,1.344715690612793 l1.5396756172180175,0.38188924789428713 2.1334674835205076,-0.6596453189849854 l2.3503887176513674,-1.6257457733154297 2.070012092590332,-2.1372852325439453 l1.6278295516967773,-2.0918060302734376 0.3434645891189575,-2.356854248046875 l-0.2757489442825317,-1.847607421875 -0.8232489585876465,-0.8462830543518066 l-1.2486736297607421,-0.21310091018676758 -1.574267578125,0.9112269401550293 l-2.110367202758789,1.2378168106079102 -1.140091896057129,1.8337961196899415 l-0.9306100845336914,1.5233708381652833 -0.03361895084381104,1.1925161361694336 l0.4865713119506836,0.8689721107482911 1.5104413986206056,0.24096875190734862 l1.8505313873291016,-0.625225830078125 2.6678749084472657,-1.7862993240356446 l3.020136070251465,-2.614801597595215 2.1410430908203124,-2.635274887084961 l2.5177316665649414,-0.7459812641143799 1.475307559967041,0.24930596351623535 l0.9031200408935547,1.3249155044555665 0.009625007212162019,2.420529365539551 l-0.9497860908508301,3.2965473175048827 -1.384726333618164,3.056026840209961 l-0.15080946683883667,2.825258255004883 -0.30362305641174314,1.3383668899536132 l0.6174083709716797,0.3693899869918823 0.8840277671813965,-0.9497928619384766 l2.2269115447998047,-2.3617645263671876 2.9852502822875975,-2.8663562774658202 l2.9512027740478515,-2.089402961730957 2.4599361419677734,-1.31205472946167 l2.2185667037963865,0.26245737075805664 1.0953592300415038,0.937401008605957 l0.6088860511779786,2.0959678649902345 -0.5013790130615234,2.074789810180664 l-0.44979376792907716,1.7840511322021484 -0.4346469879150391,1.4586864471435548 l0.24642462730407716,0.7984063625335693 0.12664313316345216,-0.06153632402420044 l0.820377254486084,-0.6462048530578614 0.8280972480773926,-0.9606763839721679 l1.170218276977539,-0.3810676097869873 0.9467501640319824,0.05827628970146179 l0.42246074676513673,-0.2293466806411743 0.5946356773376464,0.053665953874588015 l-0.37806870937347414,-0.12012631893157959 0.5075802803039551,0.7246670722961426 l-0.19160109758377075,0.07015720009803772 0.09344147443771363,0.23875207901000978 l-0.5653436183929443,-0.5578935623168946 -0.18481229543685912,0.07678593397140503 l-0.08845323324203491,-0.21459970474243165 0.029836601018905638,0.3379292249679565 l0.16728663444519043,-0.1361650347709656 -0.09117236733436584,-0.18946481943130494 l-0.0435258686542511,0.06812803745269776 0.23253164291381836,-0.10959850549697876 l0.008762934803962707,0.05382207632064819 0.18049544095993042,0.13793253898620605 l-0.003352596610784531,-0.2676998138427734 0.07006000876426696,0.060420495271682736 l-0.11556859016418457,-0.021006253361701966 0.17408199310302735,-0.17399108409881592 l-0.04235888123512268,0.06646904945373536 -0.3139819145202637,-0.22456662654876708 l0.10224339962005616,0.17242846488952637 -0.11167902946472168,-0.1208109974861145 l-0.3924021482467651,-0.04120307564735413 -0.21239783763885497,-0.3121955394744873 l0.21920814514160156,0.06065071821212768 0.1008378505706787,0.13773645162582399 l-0.032623541355133054,-0.21256558895111083 0.15566812753677367,0.13109562397003174 l-0.229233455657959,-0.38098347187042236 0.37030415534973143,0.36595189571380615 l0.32784698009490965,-0.12272253036499023 0.597171401977539,0.27455389499664307 l0.8977812767028809,0.30849394798278806 0.6507421493530273,-0.03358207941055298 l0.42882204055786133,-0.5465238571166993 1.0684147834777833,0.09794650077819825 l0.29343905448913576,-0.29764366149902344 0.27748923301696776,-0.3931528091430664 l0.10454081296920777,0.022089502215385436 -0.12046616077423096,-0.15199230909347533 l-0.7464748382568359,0.008185340464115143 -0.2875829219818115,0.3161795616149902 l-1.4149531364440917,0.2147291660308838 -1.414177417755127,0.6479715824127197 l-1.1539172172546386,0.3807555675506592 -0.2973977327346802,0.5119242191314697 l-0.48012652397155764,-0.041051626205444336 0.10254193544387817,-0.16406211853027344 l0.4981898307800293,0.031211397051811217 2.015721321105957,-0.2216156005859375 l1.7525367736816406,-0.5150102615356446 2.6875049591064455,-0.35745797157287595 l3.0788829803466795,-0.9235441207885742 2.9550617218017576,-1.577193832397461 l3.0550987243652346,-1.7056886672973632 3.0420284271240234,-2.262668418884277 l2.7784330368041994,-3.0448436737060547 3.379721832275391,-3.90494384765625 l2.9984914779663088,-4.104331970214844 2.3775524139404296,-3.4144420623779297 l1.5692814826965331,-3.528089141845703 0.9572212219238281,-2.457441711425781 l0.5403263092041015,-1.5264787673950195 0.2883477210998535,0.010826288908720016 l-0.29411163330078127,0.7217611312866211 -0.771360969543457,2.274551200866699 l-1.4850074768066406,3.690137481689453 -1.2026219367980957,5.3582500457763675 l-1.03938627243042,6.1386466979980465 -1.9116378784179688,6.083156967163086 l-1.5445555686950683,5.493075942993164 -0.6934780597686767,5.035522842407227 l-1.0559678077697754,3.417129135131836 -0.7777974605560303,1.8555776596069335 l-0.29282045364379883,0.5682616233825684 m-2.2417346954345705,-11.367839050292968 l0.5015378952026367,-2.026943016052246 1.50891056060791,-1.8743556976318358 l2.3842601776123047,-1.458743190765381 3.159371185302734,-1.2814970016479492 l4.867578125,-0.3281008243560791 4.2282264709472654,-0.38964147567749025 m25.989443969726562,11.855943298339843 l-0.639446496963501,-0.7872695922851562 -0.37244315147399903,-1.0734098434448243 l-1.0556520462036132,-1.1982197761535645 -1.4137960433959962,-0.782240629196167 l-1.4723271369934081,0.5190560340881347 -1.9143117904663085,1.285788345336914 l-1.9191688537597655,1.7836437225341797 -0.8691402435302734,2.310832214355469 l-0.8002290725708008,1.590802001953125 0.6215562343597412,1.512224006652832 l0.9426166534423828,0.8042429924011231 1.4247310638427735,-0.12048878669738769 l2.055648422241211,-0.5854591369628906 1.626595687866211,-1.6051273345947266 l1.694478988647461,-2.018218994140625 1.574631118774414,-2.325922393798828 l0.8569924354553222,-1.9893264770507812 0.1467594623565674,-0.6734241485595703 l0.003793783485889435,-0.24153425693511962 -0.09767724275588989,0.23074278831481934 l0.12512224912643433,0.35616919994354246 0.09619385004043579,0.7187560081481934 l0.5527897834777832,1.0943842887878419 1.2471445083618165,0.344671630859375 l1.5390127182006836,-0.9337198257446289 1.9325958251953126,-1.1144748687744142 l2.552089881896973,-0.7730846881866456 1.3904967308044434,0.35405697822570803 l0.7934464454650879,1.445687198638916 0.0065741166472435,2.5941152572631836 l-1.2687492370605469,3.076202392578125 -0.43935770988464357,3.2794845581054686 l0.09512631893157959,2.0270174026489256 0.1319997191429138,0.6120786666870117 l1.0543018341064454,-0.185512912273407 1.0324369430541993,-2.2464792251586916 l1.5691219329833985,-3.3960922241210936 1.786667251586914,-3.2994014739990236 l1.1027496337890625,-2.1490428924560545 0.5570555686950683,-0.7635241031646729 l0.12411583662033081,0.4389819622039795 -0.35103094577789307,2.2166967391967773 l-0.6680631160736084,3.420664978027344 -0.4621021270751953,2.801205062866211 l0.23961291313171387,1.987906265258789 0.8948732376098633,0.4337646961212158 l1.2666656494140625,-0.0037042800337076186 1.740032958984375,-1.3049426078796387 l1.9448396682739257,-2.33560791015625 1.9646875381469726,-2.9948402404785157 l1.4454607009887694,-2.6895538330078126 1.6437414169311524,-1.6509349822998047 l0.1826370358467102,-0.5767728805541992 0.0024945672601461412,0.7127235412597657 l-0.8787440299987793,0.7687628746032715 -1.1310099601745605,1.88891544342041 l-0.7074875831604004,2.8859127044677733 -0.6507153511047363,2.7077735900878905 l0.2784413814544678,1.644171142578125 0.8903375625610351,-0.16186051368713378 l1.8011642456054688,-1.2296058654785156 2.132468414306641,-2.7057512283325194 l1.7881982803344727,-1.9946792602539063 0.8560454368591308,-0.8863685607910157 l-0.27968249320983884,-0.08701642751693725 0.07557451725006104,0.9513876914978028 l-0.9340032577514649,1.0101818084716796 -0.37217676639556885,1.7610160827636718 l-0.19386708736419678,0.817874526977539 0.25794038772583006,0.38007173538208006 l0.9081534385681153,0.1301937222480774 1.100296974182129,-1.0678903579711914 l1.6243898391723632,-1.9712528228759765 1.82435302734375,-2.6393310546875 l2.30936222076416,-2.938640594482422 2.466792106628418,-3.547486114501953 l2.0116758346557617,-4.093196105957031 1.5977333068847657,-3.5274513244628904 l0.6718306541442871,-1.39440975189209 -0.11511338949203491,0.14414118528366088 l-0.5627524852752686,1.006297492980957 -1.4168581008911132,2.749275970458984 l-1.4538951873779298,4.531086730957031 -1.8616498947143554,5.469972610473633 l-1.0767225265502929,6.29647216796875 -0.28922252655029296,3.9235885620117186 l1.596945858001709,2.4829147338867186 2.0276092529296874,0.6235236644744873 l2.393929672241211,-0.7410373210906982 m13.543414306640624,4.914527130126953 l-0.02879807651042938,0.3365360498428345 0.21252865791320802,0.18171631097793578 l0.12637531757354736,0.21704065799713135 0.12906053066253662,-0.1749932885169983 l0.3065459966659546,0.09450435638427734 0.33863708972930906,0.05788708925247192 l0.006966143846511841,0.08697602152824402 0.23822126388549805,0.08173526525497436 l0.2729228734970093,0.2936450481414795 -0.07762284278869629,-0.1615590810775757 l-0.07145535349845886,-0.14749969244003297 0.16085169315338135,-0.017548657953739166 m24.83296356201172,-17.53645477294922 l-0.9462653160095215,-0.6653498649597168 -1.0398150444030763,-0.2515416145324707 l-1.3559279441833496,-0.2364107608795166 -1.8556787490844726,-0.055518043041229245 l-1.5128935813903808,0.20071523189544677 -0.9238632202148438,0.8670413970947266 l-1.0238794326782226,0.9739683151245118 -0.4898491859436035,1.982475471496582 l-0.302455472946167,2.102796173095703 0.6780566215515137,2.8052825927734375 l1.1236385345458983,1.5434418678283692 0.9728263854980469,1.2765869140625 l1.4605026245117188,0.3493253231048584 1.8560686111450195,-0.3425734519958496 l1.55811767578125,-1.6613983154296874 1.559382438659668,-2.2654159545898436 l0.8403985977172852,-2.852339744567871 0.8984344482421875,-2.3912685394287108 l0.1746082305908203,-1.5061540603637695 0.10380960702896118,-0.21392302513122557 l-0.0668067216873169,0.6306790828704834 -0.2102586269378662,1.5720697402954102 l-0.366023325920105,2.7748451232910156 -0.32980382442474365,3.3544803619384767 " fill="none" stroke="black" stroke-width="1" /></svg>