<?xml version="1.0" encoding="utf-8" ?>
<svg baseProfile="full" height="115.20693919006737" version="1.1" width="569.7259212765842" xmlns="http://www.w3.org/2000/svg" xmlns:ev="http://www.w3.org/2001/xml-events" xmlns:xlink="http://www.w3.org/1999/xlink"><defs /><rect fill="white" height="115.20693919006737" width="569.7259212765842" x="0" y="0" /><path d="M25,61.640677630342566 m29.306402587890624,-12.630242156982423 l-0.06584942936897278,-0.03891670405864715 0.24848039150238038,0.17979860305786133 l0.2619932651519775,0.41704301834106444 0.4360703945159912,0.8851710319519043 l0.6381946563720703,2.0728780746459963 0.7913698673248291,2.420689010620117 l1.114194965362549,3.2092987060546876 0.3488633394241333,3.1758630752563475 l0.1936464786529541,2.8376014709472654 0.03851425647735596,2.786041259765625 l-0.5741190910339355,2.131706428527832 -0.9626075744628906,1.642527961730957 l-1.262043571472168,1.2164932250976563 -0.4458284854888916,0.46003308296203616 l0.08249691724777222,0.14712610244750976 0.2012758731842041,-0.4299017429351807 l1.2855353355407715,-0.9015606880187989 1.5144590377807616,-1.890549087524414 l2.086076354980469,-2.237347412109375 2.189621925354004,-2.5760452270507814 m3.3138191223144533,-8.623524475097657 l0.6455989837646484,-0.9399188995361328 0.503540325164795,0.12403608560562134 l-0.008957524597644807,-0.035451865196228026 -0.09056910276412963,-0.061080646514892575 l0.17892861366271973,1.0129192352294922 -0.23702504634857177,2.066953659057617 l0.01352938860654831,2.8537424087524412 0.3995675802230835,2.884891128540039 l0.6250156402587891,2.650446891784668 1.4364608764648437,2.262562561035156 l1.026383876800537,1.0814199447631836 1.0528566360473632,0.3599721431732178 l0.9565942764282227,-0.7266945838928223 1.3614116668701173,-1.2601154327392579 l0.8081046104431152,-2.1716754913330076 0.37399318218231203,-2.479837417602539 l0.28369574546813964,-2.326198196411133 -0.2636600732803345,-2.092556381225586 l-0.7756318092346192,-1.387232208251953 -0.6825961589813232,-0.7211101531982422 l-0.792595624923706,-0.11781998872756957 -0.2558845281600952,0.22883157730102538 m16.14124755859375,1.942791748046875 l-0.2772658824920654,-0.731977891921997 -0.5760298252105713,-1.241265106201172 l-1.099662685394287,-0.945134449005127 -1.3363070487976074,-0.8388123512268066 l-2.017327308654785,-0.49857592582702637 -1.5091866493225097,0.22133996486663818 l-2.2425519943237306,0.284564208984375 -1.5372087478637695,1.4874912261962892 l-1.4719680786132812,1.6978097915649415 -0.7442165374755859,2.7790142059326173 l-0.33078975677490235,2.469925117492676 0.7115178108215332,2.376481628417969 l1.329459285736084,2.1052120208740233 1.7941152572631835,1.3424869537353517 l1.6819324493408203,0.1952890634536743 1.8480030059814454,-0.31087005138397217 l1.6212909698486329,-1.1857272148132325 1.9719427108764649,-1.9526838302612304 l1.6177066802978515,-2.5780828475952147 0.6955212593078614,-2.9127376556396483 m1.195631217956543,-5.9843605041503904 l-0.27421417236328127,-0.8494291305541992 -0.24887261390686036,-0.34696986675262453 l-0.20117850303649903,0.15774867534637452 0.323996901512146,1.1849169731140137 l0.11405782699584961,1.9361007690429688 0.36365067958831787,2.416762351989746 l0.48958768844604494,2.3899002075195312 1.1842634201049804,2.564641571044922 l1.1611002922058105,1.7999837875366211 1.5897554397583007,1.174106502532959 l0.9859508514404297,0.1438855528831482 1.2036699295043944,-0.5049567699432373 l1.2134598731994628,-0.8388649940490722 1.0073634147644044,-2.190318298339844 l1.3554367065429687,-2.4088212966918947 1.5921222686767578,-2.1591978073120117 l0.16577963829040526,-1.8888607025146484 0.46369543075561526,-0.33185789585113523 l-0.11914012432098389,-0.08356922268867492 -0.30533709526062014,-0.04523896872997284 l-0.07190237045288086,0.9772159576416015 -0.36043999195098875,1.833546257019043 l-0.08069008588790894,2.9276981353759766 0.07135316729545593,2.1487144470214843 l0.6112557411193847,2.151749610900879 0.6215955734252929,1.583361530303955 l1.4686752319335938,1.315312957763672 m10.219802093505859,-14.230897521972656 l-0.32631242275238037,-0.8489851951599121 -0.3723526239395142,-0.8364234924316406 l-0.14288876056671143,-0.35104238986968994 -0.8742019653320312,-0.397228741645813 l-1.3195191383361817,-0.210288667678833 -1.217231559753418,0.4218177318572998 l-1.1499552726745605,0.6964990615844726 -0.837117862701416,1.2010502815246582 l-0.5831394672393799,1.5194623947143555 -0.08854683637619018,1.8246889114379883 l0.8562740325927735,1.690201759338379 0.786963939666748,1.3381429672241212 l1.3395805358886719,1.0054595947265625 1.7469293594360351,0.8316682815551758 l1.9094427108764649,0.0784068763256073 2.682743453979492,0.17030777931213378 l2.262232208251953,-0.1763272166252136 1.2821311950683594,-0.48204703330993653 l1.0256590843200684,-0.16090363264083862 0.32457261085510253,0.04990421533584595 l-0.24743013381958007,-0.17732280492782593 -0.5798267841339111,0.6953944206237793 l-1.014088249206543,1.2731378555297852 -1.6724550247192382,2.2939521789550783 l-1.9958126068115234,2.706513214111328 -2.280223083496094,3.420254135131836 l-2.234072685241699,3.55521240234375 -1.89276065826416,3.3118892669677735 l-1.3816718101501464,3.724249267578125 -1.8972562789916991,2.9840576171875 l-1.5399763107299804,2.0973724365234374 -1.7475189208984374,1.3080792427062988 m38.712591552734374,-47.93318481445313 l-0.538951826095581,-0.23336734771728515 -0.13554925918579103,-0.0007796980440616608 l-0.23145360946655275,-0.02338581085205078 0.3207577705383301,0.2222386360168457 l-0.1029504418373108,0.3032813310623169 0.14409980773925782,1.2085223197937012 l-0.006001225858926773,2.1598072052001953 -0.30222196578979493,3.139105796813965 l-0.2178961992263794,4.337689971923828 -0.12881877422332763,5.086459350585938 l-0.3413646697998047,4.8220703125 0.3468927383422852,4.090281677246094 l0.8615457534790039,2.6469297409057617 0.8156664848327637,1.0468135833740235 l1.0541990280151368,0.40783238410949707 0.8360043525695801,-0.5595996379852295 l1.3568361282348633,-1.1184815406799316 1.5062416076660157,-1.4055290222167969 l0.7893683433532714,-1.6933788299560546 0.7495327472686768,-1.2105069160461426 l0.5404651641845704,-0.4361575126647949 0.07878683805465699,0.08245473504066467 l-0.1148499846458435,0.4268165588378906 -0.0005876759998500348,1.666218376159668 l0.37930848598480227,2.955389213562012 1.1534428596496582,2.5462875366210938 l1.2979393005371094,0.9429167747497559 2.499248504638672,0.23849735260009766 l2.359439468383789,-0.9067192077636719 2.611766815185547,-1.6215396881103517 l2.7443538665771485,-2.1557262420654295 2.491763687133789,-2.361574172973633 l1.5221091270446778,-2.734833526611328 0.8266230583190918,-2.579804611206055 l-0.4838436126708984,-1.7953495025634765 -1.0517860412597657,-1.1734000205993653 l-1.9155439376831054,-0.7450984001159668 -1.8498035430908204,0.26928737163543703 l-1.8884622573852539,0.8484602928161621 -1.7062034606933594,1.5208822250366212 l-0.30779812335968015,2.179950714111328 0.7977516651153564,2.232183647155762 l1.5277594566345214,1.7264850616455079 2.482550048828125,0.5686726093292236 m5.286651992797852,-7.0400550842285154 l-0.13730673789978026,0.21240105628967285 -0.7096236228942872,-0.7017345428466797 l0.1714739680290222,-0.703436803817749 0.3782739400863647,-1.4595074653625488 l0.5142042160034179,-1.05028076171875 -0.36846730709075926,-0.5906149864196777 l-0.20574598312377929,-0.5502767086029052 -0.1446528196334839,-0.6379973888397217 m1.4389778137207032,1.7794443130493165 l-0.08653199672698975,0.136957585811615 0.7623104572296142,0.645138931274414 l0.07777137160301209,1.4080916404724122 0.16632853746414183,2.572124481201172 l0.16336121559143066,2.4823856353759766 -0.05735282301902771,2.1320516586303713 l-0.48765854835510253,1.5975830078125 -0.45385355949401857,0.5872228622436524 l0.06577947735786438,0.025113505125045777 0.1384152889251709,-0.6592789173126221 l0.5568256855010987,-1.4439273834228517 0.5875117301940918,-2.2360824584960937 l1.4101675987243651,-2.129052734375 1.5925594329833985,-1.3528476715087892 l0.9781129837036133,-0.6185274124145508 m10.21728515625,2.7815296173095705 l0.3049753665924072,-0.8061279296875 0.12196682691574097,-0.676762580871582 l-0.22114298343658448,-0.9630604743957519 -0.49793334007263185,-0.6651835918426514 l-0.6903881549835205,-0.8375681877136231 -0.6049843311309815,-0.6114181995391845 l-0.3572015523910522,-0.3646849155426025 6.838911437988282,-19.93993377685547 l-0.3291925430297852,2.0448959350585936 m-10.454930114746094,14.018695068359374 l-1.0634449005126954,3.509452056884766 -0.03855379819869995,2.9489166259765627 l0.9614456176757813,1.7790262222290039 2.0922853469848635,0.36910367012023926 l2.82971076965332,-1.7827150344848632 2.7357179641723635,-3.297068405151367 l2.7060773849487303,-3.276009750366211 1.4647464752197266,-2.642932891845703 l1.7492734909057617,-1.0429664611816407 0.03362968266010284,-0.262842059135437 l0.04197166860103607,-0.3304781675338745 0.18168948888778685,0.10483222007751465 l0.021422497928142548,0.14674388170242308 0.2361368179321289,0.1409437656402588 l-0.19622738361358644,-0.08360763788223266 0.37876429557800295,0.017178742587566374 l-0.38288044929504395,-0.2600680351257324 m-30.525106811523436,-4.977644348144532 l-0.2832846164703369,-0.08882597088813782 0.36120967864990233,0.2608694553375244 l1.09447021484375,1.0161012649536132 0.6609668254852294,0.9644795417785644 l0.5769479274749756,2.525173377990723 0.8882768630981446,2.118338394165039 l0.3814720153808594,1.786726951599121 0.9893653869628907,1.6235006332397461 l1.0578855514526366,1.0383661270141602 0.36902551651000975,0.6360133171081543 l0.9201501846313477,0.2531177520751953 0.8655675888061524,0.09784067869186401 l1.376639461517334,-0.44712538719177247 1.30601167678833,-0.8425762176513671 m5.216611862182617,-3.972650909423828 l-0.1778554677963257,0.01863451153039932 0.028014892339706422,-0.8809576988220215 l-0.15873585939407348,-0.916510009765625 -0.17359790802001954,-1.6086122512817382 l-0.4790152072906494,-1.1836431503295899 -0.5480631828308106,-0.4571676254272461 l-0.7864394187927246,-0.30670692920684817 -0.9327315330505371,-0.23218326568603515 l-1.1048681259155273,0.8248228073120117 -1.1792286872863769,1.1207852363586426 l-1.003633975982666,1.2170524597167969 -0.5776605129241943,2.0965747833251953 l-0.005634924769401551,1.632329559326172 0.7105254173278809,1.6273258209228516 l1.4655986785888673,1.1998973846435548 2.0993959426879885,0.509029769897461 l2.1164165496826173,-0.26993732452392577 1.329280471801758,-0.5333934307098389 l1.332990837097168,-0.15879662036895753 0.913635540008545,-1.0803304672241212 m7.891326141357422,-8.016600036621094 l-0.1385032892227173,0.25390598773956297 -0.24260358810424804,-0.3946103096008301 l-0.8719560623168945,-0.9595231056213379 -1.1491026878356934,-0.7271036148071289 l-1.276003360748291,-0.5433854103088379 -1.4763365745544434,0.650168514251709 l-1.3040608406066894,0.8027379989624024 -1.0855063438415526,1.2172394752502442 l-0.15635502338409424,1.0849435806274415 0.6966128826141358,1.132494068145752 l1.6206758499145508,1.4086909294128418 1.9086191177368164,0.278838062286377 l1.8496028900146484,0.26738319396972654 1.4816245079040526,-0.7987075328826905 l1.261812400817871,-0.4463531494140625 0.358713960647583,-1.3635865211486817 l0.05120410919189453,-1.6688941955566405 -0.40834574699401854,-1.2039772033691407 l-0.7474219799041748,-0.9438300132751465 -1.6987794876098632,-1.1997605323791505 l-1.4047489166259766,-0.6864566326141357 -1.3206168174743653,-0.13317739963531494 l-0.6204516887664795,0.20781502723693848 -0.028520825505256652,0.033516764640808105 m10.294335174560548,-0.7862718582153321 l-0.11733726263046265,0.19266185760498047 0.0578365683555603,0.31706011295318604 l0.18077728748321534,1.8450767517089843 -0.02326708137989044,0.7272220134735108 l0.11833112239837647,1.4344844818115234 -0.12586690187454225,1.4993551254272461 l0.12331693172454834,0.6485270977020263 -0.09392642378807067,0.5344674587249756 l0.26254978179931643,-0.03901481926441193 -0.03415742814540863,0.017561571300029756 l0.19937872886657715,-0.9557865142822266 0.275738000869751,-1.9708269119262696 l0.13125946521759033,-2.047060966491699 0.4326523780822754,-1.367922878265381 l0.7212707996368408,-1.220121479034424 1.0421564102172851,-0.8362079620361328 l0.9687467575073242,-0.21632215976715088 0.7076893806457519,-0.22310214042663573 l0.6049805641174316,0.34530048370361327 0.9057341575622558,1.3464588165283202 l0.4448277950286865,1.2699480056762695 0.35101678371429446,1.2080702781677246 l0.4766653060913086,1.8359233856201171 0.4149768829345703,1.5805902481079102 l0.5343022346496582,0.8624159812927246 1.0757919311523438,0.9251940727233887 l1.7048137664794922,0.6078598976135254 2.43323974609375,-0.2717604160308838 m36.905706787109374,-8.753446960449219 l0.38540685176849365,-0.2722569704055786 -0.27254815101623536,-0.4464432716369629 l0.1732875347137451,-0.3562778949737549 -0.07625322937965393,-0.13174211978912354 l-0.3184371471405029,-0.5999133110046386 -0.8694129943847656,0.8469108581542969 l-1.4432381629943847,0.8818549156188965 -1.4821310997009278,0.7841706275939941 l-1.5257638931274413,1.468705177307129 -0.4470656394958496,1.6040441513061523 l0.1557468056678772,1.6072860717773438 1.0026128768920899,1.4464282035827636 l1.3191041946411133,0.3938605546951294 1.4449471473693847,0.015290890634059907 l1.343020248413086,-0.5324960708618164 0.8848350524902344,-1.4697650909423827 l0.6617578983306884,-0.1685715913772583 0.06235181093215943,-0.5554528713226319 l-0.1656109094619751,-0.9049240112304687 -0.018386900424957275,-0.38547754287719727 l-0.1788296580314636,-0.469387149810791 -0.10246613025665283,-0.21284327507019044 l-0.062336331605911253,0.21475598812103272 -0.1513840913772583,-0.13749295473098755 l0.2074725866317749,0.3862576484680176 -0.2106224536895752,-0.20664582252502442 l0.0786607325077057,0.20073227882385253 -0.05411284565925598,-0.0758460819721222 m24.496466064453124,-9.992184448242188 l-0.09410974979400635,0.08445786833763122 0.07463343143463134,0.24444410800933838 l-0.09127464890480042,0.4180183410644531 0.4111441135406494,1.2354948043823242 l0.025871047377586366,1.617660903930664 0.2516664505004883,1.991579818725586 l-0.2181715488433838,2.26314697265625 0.0864153265953064,2.5773994445800783 l0.10331542491912842,2.457300567626953 -0.2653836965560913,1.666837501525879 l0.4284996509552002,2.0233509063720705 0.3971899747848511,0.937105369567871 l0.2589775323867798,0.672429370880127 -0.2759085655212402,-0.19882534742355346 l0.06668637990951538,-0.020456574857234955 -0.24363288879394532,-0.5026030540466309 m-4.053626632690429,-8.350564575195312 l0.11863912343978882,0.09712729454040528 0.8604048728942871,-0.047140464186668396 l1.1593978881835938,0.08894469738006591 1.4133993148803712,-0.3006234645843506 m5.230625915527344,-6.938287353515625 l-0.2476425886154175,-0.07514386773109435 0.12143919467926026,0.8822793960571289 l-0.1284760355949402,0.9576882362365723 0.3950817108154297,1.4956396102905274 l0.22172009944915771,1.6656415939331055 -0.12131356000900269,2.135488510131836 l-0.10936858654022216,2.6471250534057615 -0.035945740342140195,2.2083621978759767 l-0.12159606218338012,1.6172317504882812 0.09412612915039062,0.9128263473510743 l0.05725987553596497,0.5723931312561035 0.17073819637298585,0.31200566291809084 l0.013588115572929382,-0.042001423239707944 0.24540741443634034,-0.7237913608551025 l0.21354081630706787,-1.5283496856689454 1.5848588943481445,-5.353881072998047 l0.812825870513916,-1.5703197479248048 2.3106668472290037,-2.370819091796875 l1.2538723945617676,-1.050446128845215 1.1511709213256835,-0.04823007583618164 l0.8422294616699219,0.22760329246520997 0.7740461349487304,1.3354516983032227 l0.6692689895629883,1.316654109954834 0.4348731994628906,1.92332763671875 l0.3248588085174561,1.613920021057129 0.4377302169799805,1.6840385437011718 l0.45336198806762695,1.5820698738098145 0.4273284912109375,0.9413949012756347 l0.36893320083618164,0.6508208274841308 0.5089522361755371,0.412383508682251 m-0.5295026779174805,-3.2280750274658203 l-0.17827186584472657,-0.26883578300476074 -0.16279730796813965,-0.5629062652587891 l-0.1705629348754883,-1.1485092163085937 -0.04813337922096252,-0.5788473129272461 l-0.034767165780067444,-1.3316145896911622 0.1664503812789917,-0.7338944435119629 l0.38341221809387205,-0.6936486244201661 0.7914939403533936,-0.2888946533203125 l0.922885799407959,-0.44226970672607424 1.3327802658081054,-0.4295933246612549 l2.0395517349243164,0.0020389540120959284 2.417574882507324,-0.09789966940879821 m9.462699890136719,8.580223083496094 l0.23899493217468262,0.3496249198913574 0.0009446813724935055,-0.006508617848157883 l-0.3580363988876343,0.13611501455307007 0.21224188804626465,0.7513043880462646 l0.2852534055709839,1.5875290870666503 0.19589353799819947,1.2690487861633302 l0.28388798236846924,1.6094171524047851 -0.011152591556310654,1.3821343421936034 l0.5379737854003906,1.8003019332885741 0.31349613666534426,1.2016288757324218 l0.7044405460357666,0.9243900299072265 0.9073094367980957,0.4815199851989746 m13.696820068359376,-22.86201171875 l-0.006103899702429772,-0.0452314555644989 -0.12154107093811035,-0.1918933629989624 l-0.1963229298591614,0.0765458345413208 0.16491353511810303,0.48819694519042967 l-0.7117300510406495,0.01872771084308624 -0.22854297161102294,1.292380142211914 l-0.29679605960845945,1.5974616050720214 0.4124119758605957,2.3051143646240235 l0.11769794225692749,1.9979175567626952 0.4498437404632568,2.40205078125 l0.18300857543945312,1.8165536880493165 0.8212669372558594,2.151516914367676 l0.3638162612915039,1.1956775665283204 0.7647503852844239,1.2073117256164552 l0.19353971481323243,0.2626352787017822 0.26630804538726804,0.22508528232574462 l-0.2826032876968384,-0.21693735122680663 0.39821245670318606,0.20099968910217286 l-0.24105916023254395,-0.8890586853027344 -0.023083063960075378,-1.564032745361328 l-0.2943546772003174,-1.6512111663818358 -0.27140226364135744,-1.7908519744873046 l-0.6737918376922607,-1.7115509033203125 -0.8880783081054687,-1.5174949645996094 l-0.12189375162124634,-0.37848658561706544 -0.07917991280555725,-0.3792535066604614 l0.054797029495239256,0.03460957407951355 0.052382278442382815,0.09066620469093323 l0.8745975494384766,0.4143287181854248 1.3522740364074708,0.40058097839355467 l1.7222162246704102,0.008039526641368866 2.4101261138916015,0.26699516773223875 l2.342154312133789,-0.26376070976257326 2.613812255859375,-0.015692654252052306 l1.8588354110717773,-0.7492781639099121 1.699740219116211,-0.2274529218673706 l1.3456348419189452,0.04945413470268249 -0.08115596175193787,-0.6265565872192382 l0.0986032247543335,-0.06269749999046326 0.10663106441497802,0.017521357536315917 l-0.3689426898956299,-0.22743873596191405 -0.11884479522705078,-0.12141515016555786 l-0.2398771047592163,-0.08746194839477539 0.0319362998008728,0.293827748298645 l-0.2500431776046753,-0.025132697820663453 0.1729217529296875,0.39094390869140627 l-0.36361634731292725,0.2903064489364624 -0.23078064918518065,0.6734817504882813 l0.2583623886108398,1.5134262084960937 -0.22330455780029296,1.260704803466797 l-0.3580352306365967,1.3477880477905273 -0.026844358444213866,1.7981489181518555 l0.33199009895324705,1.767491912841797 -0.1099470853805542,0.9254538536071777 l0.21830179691314697,1.1644438743591308 0.457584285736084,0.9689798355102539 l0.28666088581085203,0.6409852981567383 0.2769524574279785,0.6706507205963135 l0.41187567710876466,0.3447195291519165 -0.1316887378692627,0.10330262184143066 l0.3283157587051392,-0.023025950789451598 -0.0395325094461441,-0.14178225994110108 l0.048235177993774414,-0.09555540084838868 -0.15722638368606567,-0.3676872730255127 m-5.35845718383789,-18.269287109375 l-0.23207554817199708,-0.2766809701919556 0.17779860496520997,-0.09603043794631957 l-0.0984616756439209,-0.010838531702756882 0.6270054817199707,0.4170337677001953 m12.555957794189453,7.361512756347656 l0.566600227355957,-0.19221335649490356 -0.15206000804901124,-0.7404694557189941 l-0.06734868884086609,-0.856937313079834 0.02002803385257721,-0.09697790145874023 l0.04807889461517334,-0.14869461059570313 -0.5585638046264648,-0.5275014877319336 l-0.542552375793457,-0.14432158470153808 -0.9101235389709472,-0.19199620485305785 l-0.7984728336334228,0.2453861951828003 -1.104973316192627,0.34147281646728517 l-0.6892955780029297,0.8523866653442382 -0.6674480438232422,0.7851128578186035 l-0.36490540504455565,1.0281957626342773 0.4369073390960693,1.6702014923095703 l0.25223565101623535,0.8817142486572266 1.0924248695373535,1.4565905570983886 l1.2047040939331055,1.4388494491577148 0.534305191040039,0.66458158493042 l0.9660390853881836,1.203437042236328 0.38616127967834474,0.6265466213226318 l0.22010202407836915,0.6184200286865235 0.3624323844909668,0.8236027717590332 l-0.33790154457092286,0.5167527675628663 -1.0373878479003906,0.031094345450401305 l-1.399673080444336,0.06951355934143066 -1.5438159942626952,-0.015856775641441345 l-2.1851613998413084,0.013375920057296754 -2.47475643157959,-0.1177173376083374 l-2.2086973190307617,-0.19983108043670655 -1.594480323791504,-0.9300580978393554 l-1.246674156188965,-1.307638168334961 -0.01604134738445282,-1.1346511840820312 m18.861952209472655,-5.419723129272461 l0.1527179718017578,0.1554093360900879 -0.1483760118484497,0.0699908435344696 l0.3606871128082275,0.6638996601104736 0.4859004497528076,0.8719818115234375 l0.7451052665710449,1.3890551567077636 0.4615326881408691,1.3620010375976563 l0.42223320007324217,1.3793451309204101 0.30347089767456054,1.3888988494873047 l0.4089611053466797,1.1907699584960938 0.39805989265441893,0.914908504486084 l0.4604035377502441,0.6145801067352294 0.022066223621368408,-0.1512414813041687 l0.015435811877250672,-0.11896338462829589 -0.2442549705505371,-0.6850190162658691 l0.3779695987701416,-0.6316595077514648 -0.06660273671150208,-1.2547179222106934 l-0.39713411331176757,-1.7545719146728516 0.6865537643432618,-0.5474999427795411 l0.4144136905670166,-1.3456291198730468 1.0925601959228515,-0.9599634170532226 l1.7194332122802733,-1.1212903022766114 1.8404104232788085,-1.078755760192871 l2.0617034912109373,-0.46483449935913085 2.624465560913086,0.3926870822906494 l1.696201705932617,0.5725106716156005 1.7231447219848632,0.9168582916259765 l1.0134880065917968,1.4876792907714844 0.5210056781768799,1.3633623123168945 l0.7326001167297364,1.7339746475219726 0.3735943794250488,1.4878340721130372 l0.3517672777175903,1.247988796234131 0.49309000968933103,1.0595440864562988 m11.621382904052734,-7.616727447509765 l-0.06784439086914062,-0.18644970655441284 -0.1463175892829895,-0.3660759449005127 l-0.5395284175872803,-0.3265266418457031 -1.1133975028991698,-0.17450188398361205 l-1.189146137237549,-0.014639024436473847 -1.2440519332885742,0.20865540504455565 l-1.2169710159301759,0.5622314453125 -1.072713279724121,0.9191308975219726 l-0.08691413402557373,2.0840049743652345 -0.4218130588531494,1.2650742530822754 l0.5236231803894043,1.4413517951965331 0.7160952091217041,0.824254322052002 l0.9705040931701661,0.26226780414581297 1.2040925979614259,-0.14108045101165773 l0.9969715118408203,-0.7505603790283203 0.8498647689819336,-1.4295330047607422 l0.9986441612243653,-1.3948772430419922 0.6558547019958496,-1.527109718322754 l0.3380950927734375,-1.6732187271118164 0.33215930461883547,-1.0902995109558105 l0.08507710695266724,-0.5437846183776855 -0.10288710594177246,-0.3295528650283813 l-0.10290274620056153,0.2420128345489502 -0.28363924026489257,0.09325919151306153 l0.08496623039245606,0.517874002456665 -0.11500694751739501,1.2909785270690919 l0.7986256599426269,2.335118293762207 0.24421355724334717,1.9783376693725585 l0.2491152763366699,1.8354597091674805 1.178663158416748,1.6842247009277345 l0.9183101654052734,1.1421313285827637 0.8545588493347168,0.5343080520629883 m4.219013214111328,-14.184561157226563 l-0.1358291983604431,-0.11237049102783203 -0.1529222011566162,0.13500887155532837 l0.06585736274719238,-0.0344865083694458 -0.3374244928359985,-0.09357559680938721 l0.17753947973251344,0.31394431591033933 0.5040486335754395,0.9501092910766602 l0.12557377815246581,1.0775022506713867 0.23460237979888915,1.2874223709106445 l0.5406336784362793,1.592603874206543 0.509683895111084,1.6638248443603516 l0.11963013410568238,1.4477692604064942 0.37953007221221924,1.228797149658203 l0.1732320547103882,1.1286966323852539 0.554377555847168,1.0434170722961427 l0.3275082349777222,0.721761417388916 -0.04976871311664581,-0.21654715538024902 l0.14103872776031495,0.09961524009704589 -0.4250957012176514,-0.6966779232025146 l0.19691647291183473,-0.255954647064209 -0.2605878829956055,-1.5945968627929688 m-3.0043624877929687,-18.339108276367188 l-0.6025650501251221,-0.601020622253418 0.16700465679168702,-0.028505557775497438 l0.005443466827273369,-0.04046368300914764 -0.1786960244178772,-0.4038398265838623 l0.6689877033233642,0.7313830375671386 0.36335632801055906,0.7143895626068115 l0.10708835124969482,0.9363595962524414 0.8014777183532715,1.0627297401428222 m10.204814910888672,-2.8466609954833983 l-0.31542680263519285,-0.332655143737793 -0.1077845573425293,-0.03744487464427948 l0.05951141715049744,0.28923859596252444 -0.1726442575454712,0.5023576736450195 l-0.1601826071739197,0.7847914695739746 0.16361727714538574,1.8667989730834962 l0.32224383354187014,2.2068368911743166 0.3464618682861328,2.2586240768432617 l0.6241103172302246,2.5216514587402346 0.010328880697488784,2.08066349029541 l0.11685788631439209,2.0378875732421875 -0.05736399888992309,1.6138402938842773 l0.0076421968638896946,1.3784303665161133 0.06078423857688904,1.0409602165222167 l-0.4506829738616943,0.22246932983398438 -0.5575785160064697,-0.35878145694732666 l0.2224499225616455,0.11368112564086914 0.4032445430755615,-0.48551597595214846 l0.5003199100494384,-1.3860485076904296 0.9430049896240235,-1.9751155853271485 l1.4546947479248047,-1.643051528930664 1.5831878662109375,-1.5024171829223634 l1.9079269409179687,-0.8927096366882324 1.3906219482421875,-0.35665435791015626 l1.3012365341186523,0.5165957450866699 0.43600101470947267,0.6446483612060547 l0.7319183826446534,1.2356389999389648 0.25082399845123293,1.8159088134765624 l0.05753476619720459,1.8177446365356444 0.05182691216468811,2.0161579132080076 l0.16168254613876343,2.4335153579711912 -0.0934440553188324,1.7844797134399415 l0.5070132732391357,1.9618827819824218 0.7535719871520996,1.6796344757080077 l0.4864027500152588,0.9275099754333496 0.9011228561401368,0.5188331127166748 m7.06015625,-6.53099365234375 l0.2688829660415649,0.201936936378479 0.1050118088722229,-0.058756512403488156 l0.1964635968208313,0.04404480457305908 0.6505839347839355,-0.14301711320877075 l0.7071557521820069,-0.5841944694519043 1.3455018997192383,-0.28056488037109373 l0.9625885009765625,-1.1350913047790527 1.2921649932861328,-0.5640547275543213 l1.1245660781860352,-0.4634429931640625 0.7436884880065918,-0.7907878875732421 l0.5338809013366699,-0.5241001129150391 0.18237154483795165,-0.37192692756652834 l-0.4190674781799316,-0.5562973499298096 -1.2054533958435059,-0.8659176826477051 l-1.0475122451782226,-0.2569878339767456 -1.7354494094848634,-0.10526206493377685 l-2.5733173370361326,-0.057544666528701785 -1.8642238616943358,0.38194994926452636 l-2.245641326904297,0.3629448890686035 -1.4715070724487305,0.8333575248718261 l-1.1724267959594727,0.8383354187011719 -0.7872104167938232,0.9482890129089355 l-0.3624134540557861,1.222514533996582 -0.049406501650810244,1.0351385116577148 l0.5800678730010986,1.4981688499450683 0.6360352516174317,1.033198928833008 l1.7501691818237304,1.4375659942626953 1.7655145645141601,0.7665783882141113 l2.063974380493164,0.1004220962524414 2.3351066589355467,0.18941640853881836 l2.5989917755126952,-0.13004004955291748 1.754249382019043,-0.6264985084533692 m9.733844757080078,-9.757076263427734 l0.28240580558776857,0.07202255725860596 -0.1779353141784668,-0.16522306203842163 l0.41776046752929685,0.017990490794181822 -0.4652449607849121,-0.2490363597869873 l0.30995056629180906,0.4184715270996094 -0.23577966690063476,-0.015919892489910124 l0.2272127866744995,0.638441514968872 -0.10739237070083618,0.6920923709869384 l0.22503118515014647,1.0314196586608886 0.17360113859176635,1.1689125061035157 l-0.1008304238319397,1.2725811004638672 0.23475089073181152,1.2253355026245116 l0.489625072479248,1.7115524291992188 0.15340776443481446,1.0412225723266602 l0.13518035411834717,0.8057637214660645 0.7367270469665528,0.6811811447143554 l-0.16159226894378662,0.39739692211151123 0.34472906589508057,0.11762385368347168 l-0.24535393714904785,-0.3453660488128662 0.11141494512557984,-0.2536382436752319 l-0.2490715503692627,-0.9021474838256835 -0.05901983380317688,-1.4838855743408204 l0.02188408076763153,-1.1618253707885742 0.29845328330993653,-1.4352291107177735 l-0.015960100293159484,-1.4017755508422851 0.6030917167663574,-1.2207745552062987 l0.548052978515625,-1.6455507278442383 1.0258049964904785,-1.2783992767333985 l1.1061259269714356,-1.020923137664795 1.2464366912841798,-0.817738151550293 l1.0928460121154786,-0.737002944946289 1.5410253524780273,-0.10995216369628906 l1.1032636642456055,-0.16179254055023193 0.6787699699401856,-0.05949288010597229 l0.6474545478820801,0.7030110836029053 -0.054603797197341916,0.4142299175262451 l0.2203054189682007,1.263948631286621 0.36411726474761963,1.5988484382629395 l0.21029515266418458,1.8843793869018555 0.23232433795928956,2.1334535598754885 l0.3963937759399414,2.7283939361572265 0.796610164642334,2.0499059677124025 l0.4121697902679443,1.4812694549560548 0.42821617126464845,0.9897307395935059 l0.13303996324539186,0.4056992053985596 0.13858301639556886,0.08078655004501342 l0.3070725917816162,-0.34504189491271975 -0.14029039144515992,-0.4314583778381348 m51.05042724609375,-15.50244598388672 l0.2753727912902832,-0.09453361630439758 -0.422150182723999,-0.3559568881988525 l-0.6062734127044678,-0.6661144256591797 -1.4849020004272462,-0.7760665893554688 l-0.8050984382629395,-0.5678267478942871 -2.19156436920166,-1.006660556793213 l-1.6685907363891601,-0.26068792343139646 -2.026361846923828,-0.36323354244232176 l-2.251871109008789,0.2649211406707764 -1.660687255859375,0.27875609397888185 l-1.8504978179931642,0.37529940605163575 -1.1623143196105956,0.8445002555847168 l-1.292828369140625,1.0732786178588867 -0.4650878429412842,1.4994436264038087 l-0.572364616394043,1.3645520210266113 -0.4457220554351807,1.4951623916625976 l0.026196163892745972,1.703527069091797 0.41907505989074706,1.8805461883544923 l0.528831672668457,1.9461326599121094 1.0569668769836427,1.7916099548339843 l0.9906396865844727,1.3325305938720704 1.3795710563659669,0.9566512107849121 l1.8495670318603517,0.7695503234863281 1.9799243927001953,0.24335389137268065 l2.565524673461914,0.013101406395435333 2.611952018737793,-0.733757495880127 l3.5235767364501953,-0.7917152404785156 2.9996177673339846,-1.4878105163574218 m-0.08757254481315613,-21.5167236328125 l0.0847362756729126,-0.2534693479537964 -0.1111782431602478,-0.125325345993042 l0.2079697847366333,0.2720057010650635 0.3658674001693726,-0.4086498737335205 l0.5754258155822753,-0.5094144344329834 0.758971881866455,-0.5208739757537841 l1.2007742881774903,-0.7036553382873535 2.0696508407592775,-0.5824363708496094 l1.9777145385742188,-1.1924501419067384 2.5602222442626954,-0.9793390274047852 l2.5766963958740234,-1.3537734985351562 2.888839912414551,-0.6742612838745117 l2.5209938049316407,-1.3438730239868164 2.821258544921875,-0.7055000782012939 l2.8025894165039062,-0.6009113788604736 1.9741876602172852,-1.0382861137390136 l2.2535810470581055,0.4144155025482178 0.9072015762329102,-0.05343090891838074 l0.8485404014587402,0.6584195613861084 -0.1065112829208374,0.14706158638000488 l-0.25566868782043456,0.0004965756554156542 -0.09257489442825317,0.3139397859573364 l-0.2571516990661621,0.03313739597797394 0.6688430309295654,0.8205939292907715 l0.6822679042816162,0.37630810737609866 1.060430908203125,0.8372775077819824 l1.0379905700683594,0.5503872871398926 1.1927492141723632,0.5530583381652832 l1.7334564208984375,0.9756779670715332 1.6700218200683594,1.0244108200073243 " fill="none" stroke="black" stroke-width="1" /></svg>