<?xml version="1.0" encoding="utf-8" ?>
<svg baseProfile="full" height="99.44766501132399" version="1.1" width="692.3486941553645" xmlns="http://www.w3.org/2000/svg" xmlns:ev="http://www.w3.org/2001/xml-events" xmlns:xlink="http://www.w3.org/1999/xlink"><defs /><rect fill="white" height="99.44766501132399" width="692.3486941553645" x="0" y="0" /><path d="M27.577842104434968,46.07084960225039 m-0.47420530319213866,-3.7287269592285157 l0.1426008462905884,0.1016960859298706 -0.16451339721679686,-0.22162554264068604 l0.42707242965698244,-0.4304051876068115 1.053719425201416,-0.013771022856235503 l1.0969707489013671,-0.9486527442932129 1.4204891204833985,-0.8473766326904297 l1.2599915504455566,-1.0557122230529785 1.0550808906555176,-0.5660580635070801 l0.349867582321167,-0.4161844253540039 -0.2331915855407715,-0.6839538097381592 l-0.6220194816589355,-0.3150228977203369 -1.0112543106079102,0.11823004484176636 l-1.6896080017089843,0.28975815773010255 -2.0789682388305666,0.70731520652771 l-1.785581398010254,1.5623883247375487 -1.2482917785644532,0.7881521701812744 l-0.07600120306015015,1.8152029037475585 0.3843945264816284,1.1004520416259767 l1.301124668121338,1.026771640777588 2.186825180053711,0.3112175703048706 l2.4092594146728517,-0.2992765665054321 2.3609312057495115,-0.39019041061401366 l2.1507869720458985,0.16188478469848633 1.1612367630004883,-1.1349195480346679 m8.493026733398438,-4.899998474121094 l0.2720404863357544,0.43031902313232423 0.08685657382011414,0.8542062759399414 l0.25577287673950194,1.791623878479004 0.04375200867652893,1.6645236968994142 l0.11202061176300049,2.028152656555176 0.018596723675727844,1.3848182678222656 l0.0828716516494751,1.1971487045288085 0.2150106430053711,0.8764949798583984 l0.1330122470855713,0.3551728963851929 0.053513407707214355,-0.40525174140930176 l0.04070115387439728,-0.24331703186035156 0.02464131861925125,-1.4480831146240234 l0.6889404773712158,-1.3901857376098632 1.0608413696289063,-1.60115966796875 l1.5059995651245117,-1.52479829788208 2.44045352935791,-0.9300426483154297 l2.538129997253418,-0.6568589210510254 2.5941274642944334,0.2642606258392334 l2.5999536514282227,0.7262725830078125 2.1621091842651365,1.1760412216186524 l1.5885404586791991,1.374955654144287 1.206589698791504,1.817303466796875 l0.5318715095520019,1.1648223876953125 0.5003065586090087,1.4457612037658691 l0.01839355379343033,0.3689491987228394 0.31241135597229003,0.20988063812255858 l0.31214401721954343,-0.13522619009017944 0.705073070526123,-0.4649199962615967 m9.458280944824219,-8.541279602050782 l-0.2159947395324707,0.24216480255126954 -1.1180419921875,-0.5322527408599853 l-1.0471543312072753,0.8894607543945312 -1.5616888999938965,0.9261415481567383 l-1.434316062927246,1.6447751998901368 -1.441929244995117,1.090909194946289 l-0.5468464374542237,1.2416139602661134 -0.14681154489517212,0.2926826000213623 l0.5829154014587402,0.24150445461273193 1.2921103477478026,0.1302581787109375 l1.9088874816894532,-0.32841155529022215 1.2575788497924805,-1.4214469909667968 l1.4152191162109375,-1.0364770889282227 0.6847668170928956,-1.4527318954467774 l0.14150800704956054,-1.184121322631836 0.22886219024658203,-0.39977173805236815 l-0.5388895034790039,-1.0910167694091797 0.07727946043014526,0.3032946825027466 l-0.38399410247802734,-0.16591774225234984 0.4212952136993408,1.213414764404297 l0.7007665634155273,1.662804412841797 1.0260485649108886,1.646255111694336 l1.4384809494018556,2.042005920410156 1.0225528717041015,1.612867546081543 l0.7064043045043945,0.8502808570861816 0.19064784049987793,0.2483978748321533 l0.3423294544219971,0.5654444217681884 0.21077368259429932,0.3003131866455078 m4.792263031005859,-16.397279357910158 l-0.09790014624595642,0.4357027530670166 0.6916393280029297,1.8699129104614258 l1.0032118797302245,2.4429046630859377 0.34037933349609373,1.9671680450439453 l1.0700202941894532,2.9265300750732424 0.8749292373657227,1.8225540161132812 l0.3898184061050415,0.8259305000305176 1.0705648422241212,1.328478717803955 l0.5443756580352783,0.7022802829742432 0.009697888046503067,-0.34880497455596926 l0.3864686727523804,0.3713066577911377 -0.42979907989501953,-0.8022941589355469 m-10.590699768066406,-3.773182678222656 l-0.15646121501922608,0.06810784339904785 0.566939401626587,-0.032233399152755735 l0.9921324729919434,-0.14804922342300414 1.64014892578125,-0.44221010208129885 l1.8483392715454101,-0.4146690368652344 1.691170883178711,-0.6273152351379394 l1.6125186920166015,-0.7466123580932618 m4.537498855590821,-11.040251922607421 l0.16366934776306152,0.20641870498657228 0.26880106925964353,0.7264970779418946 l0.6240440368652344,1.4946008682250977 1.1205901145935058,2.3062328338623046 l1.160560703277588,2.405939483642578 0.7408149719238282,2.4655738830566407 l0.9817731857299805,2.576709747314453 0.7877740383148193,1.8910310745239258 l0.41406731605529784,0.9083929061889648 0.3816847324371338,0.628896427154541 l0.7732349395751953,0.9346240997314453 0.12947510480880736,0.0005710861179977656 l0.3366923570632935,-0.0491999089717865 0.7581160545349122,-0.22541050910949706 l0.6850546836853028,-1.125622844696045 0.9289084434509277,-1.1796751022338867 l0.8835779190063476,-0.7881805419921875 0.9019107818603516,-0.6755359649658204 l0.7043990612030029,0.040931341052055356 0.4559450626373291,0.28807792663574217 l0.10885390043258666,0.11057600975036622 0.6602401733398438,0.9908609390258789 l0.6121445655822754,1.0649892807006835 0.6145848274230957,0.9540000915527344 l0.33597288131713865,0.47676572799682615 0.6146073341369629,0.8720367431640625 l0.8128742218017578,0.7179577827453614 0.5574755668640137,-0.0977233350276947 l1.7214473724365233,0.6681423664093018 0.9768801689147949,-0.7956279754638672 l1.7478309631347657,0.02520861029624939 m5.358694076538086,-2.684092712402344 l0.31179180145263674,-0.5266380786895752 1.3093758583068849,-0.5769974708557128 l0.8586244583129883,-0.8170244216918945 0.4954219818115234,-0.880474853515625 l-0.366243577003479,-1.1015153884887696 -0.1319662809371948,-0.4355154991149902 l-0.9850180625915528,-0.3666207790374756 -1.5936583518981933,-0.09223074316978455 l-1.5841331481933594,0.5568070888519288 -1.085260772705078,0.9989791870117187 l-0.7257701873779296,1.3351615905761718 -0.14810683727264404,1.16864070892334 l0.5041254997253418,1.27650146484375 1.3619697570800782,1.1990316390991211 l2.0210268020629885,0.7960878372192383 2.717620086669922,1.1198445320129395 m23.442807006835938,-13.681143188476563 l-0.12180461883544921,-0.30740833282470703 0.15688912868499755,-0.039179626107215884 l-0.05634642243385315,0.09505102038383484 0.057106012105941774,0.030577141046524047 l-0.07991809844970703,0.17480411529541015 0.08322309255599976,1.1780196189880372 l0.561823844909668,2.2735416412353517 0.2774847984313965,2.460667037963867 l0.345108699798584,1.9011442184448242 0.5649302005767822,1.6371295928955079 l0.7156143188476562,1.2146553993225098 0.899333381652832,1.2067404747009278 l0.21077251434326172,0.3794696569442749 -0.012987436354160308,0.2976836204528809 l0.1771802306175232,0.07362627983093262 -0.10944463014602661,-0.40639362335205076 l-0.14610741138458253,-0.6731276035308837 0.10121861696243287,-1.2220019340515136 l0.012655913829803467,-1.307447910308838 0.22427663803100586,-0.6465156078338623 l0.24744780063629152,-0.7575098991394043 1.5840102195739747,-0.40334124565124513 l1.5719934463500977,-0.7890896797180176 1.841643714904785,-0.39316740036010744 l1.0197247505187987,-0.1485841989517212 1.0332852363586427,0.3859385013580322 l0.1044930100440979,0.10371832847595215 0.39200758934020996,0.7580890655517578 l-0.005840273946523667,0.9423942565917969 0.2208082914352417,1.388473892211914 l0.09494760036468505,1.3896802902221679 0.3457301139831543,1.4138805389404296 l0.3149346113204956,1.0063830375671388 0.7618666172027588,0.5708149909973145 l1.0901432037353516,0.16904293298721312 1.6114391326904296,0.2505288362503052 m5.652828598022461,-3.2626312255859373 l-0.15470094680786134,-0.260258150100708 0.039890405535697934,-0.47751946449279786 l-0.16041178703308107,-0.7209290981292724 -0.19580023288726806,-0.6026062488555908 l-0.40819945335388186,-0.7197751045227051 -0.2283324956893921,-0.35667588710784914 l-7.883935546875,-4.110585784912109 0.2004549026489258,1.0751996040344238 l-0.08966214656829834,0.6752013683319091 0.5551658630371094,1.4538168907165527 l1.2509480476379395,2.096171188354492 0.9237138748168945,1.2070088386535645 l1.3155200958251954,0.8624430656433105 1.7736196517944336,1.0966377258300781 l1.1702183723449706,0.2826482057571411 m-1.1077600479125977,-16.283428955078126 l0.05085945725440979,0.1093623161315918 -0.22317259311676024,0.25428688526153564 l0.5645785331726074,1.4434722900390624 1.2353056907653808,1.7877033233642579 l2.000235748291016,2.4718648910522463 1.8641107559204102,2.417580795288086 l1.5150449752807618,2.0220733642578126 1.801995086669922,2.142703819274902 l1.3149657249450684,1.90987548828125 0.8686826705932618,1.177924633026123 l0.5780059814453125,0.7705687999725341 0.4795961380004883,0.7128687381744385 m4.047665405273437,-3.994449996948242 l0.10973165035247803,0.609645414352417 0.4213582992553711,0.6789358139038086 l0.499078369140625,0.47502689361572265 0.8132802009582519,0.5806289196014405 l1.2436731338500977,0.3457767486572266 1.6695541381835937,0.20903370380401612 l1.9632581710815429,0.04089399576187134 2.1990909576416016,-0.1617148995399475 l2.255304527282715,-0.22578043937683107 1.4720582962036133,-0.5863841056823731 l0.692219352722168,-0.43391947746276854 0.8397401809692383,0.09525465369224548 l-0.25708422660827634,-0.36464457511901854 0.18846333026885986,0.26517400741577146 l-0.20155637264251708,0.44912075996398926 -0.341581130027771,1.4895873069763184 l-0.09792432188987732,1.6111949920654296 -0.4520883560180664,1.801797103881836 l-0.6977545738220214,2.043859100341797 -0.7367111206054687,2.6199628829956056 l-0.5510209083557129,2.8649492263793945 -0.6981715202331543,3.0880050659179688 l-0.3694473743438721,3.2019073486328127 0.21422817707061767,3.16837100982666 l0.05847721099853516,2.2751638412475588 0.22366616725921631,2.0325338363647463 l0.09217591285705566,1.3096922874450683 0.2560319423675537,1.0558500289916992 m35.773013305664065,-35.349185180664065 l0.1553627371788025,1.6545019149780273 0.6271839618682862,2.0633949279785155 l0.5018031597137451,1.3014902114868163 0.5225718021392822,1.195231819152832 l0.8652171134948731,1.1726790428161622 0.358686637878418,0.5989392280578614 l0.18535364866256715,0.3444880485534668 0.41993145942687987,0.40514168739318845 l-0.4995440483093262,-0.3656419515609741 -1.3379549980163574,-0.6593581199645996 l-0.7511010646820069,-0.6951599597930909 -1.0064361572265625,-1.0621818542480468 l-0.10028488636016845,-0.4521009922027588 -0.07401584386825562,-0.4887866497039795 l0.8170772552490234,-0.10790106058120727 1.8013774871826171,-0.8027726173400879 l2.302730751037598,-0.5518701553344727 2.3799110412597657,-0.24981324672698973 l2.617916297912598,0.32399811744689944 1.7592025756835938,0.20676496028900146 m8.011445617675781,-4.788911437988281 l-0.32682600021362307,0.3096319198608398 0.6689254760742187,1.479977798461914 l0.5154287815093994,1.7981206893920898 0.8682773590087891,1.6768917083740233 l0.784515380859375,1.0921359062194824 1.1298183441162108,1.0725610733032227 l1.2912178993225099,0.887154483795166 0.9511100769042968,0.5822534561157227 m-9.438729095458985,-14.908012390136719 l-1.5025875091552734,-0.6450118064880371 -0.5094467163085937,-0.11140569448471069 l0.2979229688644409,-0.078109872341156 0.46573443412780763,0.16556758880615235 l0.4150076866149902,-0.05688844919204712 0.9645076751708984,0.06181698441505432 l1.1392715454101563,0.17672405242919922 1.898910903930664,0.2433075189590454 m8.989537048339844,4.785406112670898 l-0.18737266063690186,-0.11110829114913941 0.2389671564102173,0.23005220890045167 l0.5986964702606201,1.0807251930236816 0.7635866165161133,1.8247190475463868 l0.8308326721191406,1.8929574966430665 0.5267652988433837,1.720801544189453 l0.7038244247436524,1.599277400970459 0.7447416305541992,1.027316188812256 l0.31562042236328125,0.6241311073303223 0.44606680870056153,0.4809676170349121 l0.28045878410339353,0.07258360385894776 0.24211475849151612,0.10236150026321411 l-0.835777473449707,-1.0826970100402833 -0.033669471740722656,-1.377028465270996 l-0.01857736110687256,-1.993050765991211 -0.13799864053726196,-1.284585189819336 l4.824513244628906,-2.5551584243774412 1.1968690872192382,-0.27582905292510984 l1.2139713287353515,0.7059405326843262 1.7303863525390626,1.5725006103515624 l2.0775272369384767,2.0902454376220705 1.8283426284790039,1.9793092727661132 l1.1005525588989258,1.6204572677612306 1.4350014686584474,1.8986738204956055 l0.8929872512817383,1.542362117767334 0.8306432723999023,1.4741138458251952 m14.503486633300781,-3.4222343444824217 l0.8153534889221191,-1.1308287620544433 0.4781851291656494,-1.3433549880981446 l-0.14345003366470338,-1.5019002914428712 -0.2530845642089844,-1.1997929573059083 l-1.5246296882629395,-0.9178309440612793 -2.0779008865356445,-0.07029691934585572 l-2.5734994888305662,0.7502121925354004 -2.4278228759765623,1.375716781616211 l-1.935661506652832,1.2592390060424805 -0.4493716716766357,1.2841683387756349 l0.3426815032958984,0.8249160766601562 1.3289183616638183,0.7451637268066407 l2.0416751861572267,0.03163371980190277 3.0761554718017576,-0.01802169382572174 l2.8866603851318358,-0.4150655746459961 2.3576740264892577,-0.588026762008667 l1.182013988494873,-0.44884724617004396 0.22711782455444335,-0.13789646625518798 l-0.677689504623413,-0.36688432693481443 -0.2524611473083496,-0.20125296115875244 l-0.12660589218139648,-0.18724491596221923 -0.07342391610145568,0.31531577110290526 l-0.40145072937011717,0.198068368434906 0.8105411529541016,1.1698461532592774 l1.0046918869018555,1.2145794868469237 0.8845082283020019,1.4130098342895507 l0.658962631225586,1.6356374740600585 1.2025945663452149,1.5091599464416503 l1.277280044555664,1.8444229125976563 1.05650053024292,1.9436004638671875 l0.7006070137023925,1.553577995300293 1.453712558746338,2.1013736724853516 l0.6967328071594239,1.5910634994506836 0.32517070770263673,1.1778382301330566 l0.08033549189567565,1.0563626289367676 0.15987398624420165,1.2504209518432616 l-0.4318670749664307,0.8567054748535157 -1.2779770851135255,0.7600721836090087 l-1.5698413848876953,0.7116168022155762 -1.897319221496582,0.16701663732528688 l-1.5338932037353517,-0.17471598386764525 -1.9493925094604492,-0.9891070365905762 l-1.03847017288208,-1.2460471153259278 -1.7552829742431642,-1.7351076126098632 l-1.0434734344482421,-1.2749194145202636 -1.446355438232422,-1.2270503044128418 l-0.7028934955596924,-1.2492862701416017 -0.39504523277282716,-1.6247285842895507 l-0.0502113401889801,-1.819373321533203 1.2209486961364746,-1.5304909706115724 l1.7971948623657226,-1.0541701316833496 2.2164430618286133,-0.7820351123809814 l3.0341957092285154,-0.45243401527404786 2.0628204345703125,-0.49700050354003905 l3.5603565216064452,0.48613266944885253 2.2171382904052734,0.22318453788757325 l1.0517992973327637,0.08079740405082703 0.40709571838378905,0.034223124384880066 l0.3592893123626709,0.22174336910247802 -0.09617552757263184,-0.10358160734176636 m7.535800170898438,-3.680073928833008 l-0.01030576303601265,-0.05841404795646667 0.38572442531585693,0.03249677419662476 l0.03338639140129089,0.11814100742340088 0.032682383060455324,0.00421183630824089 l0.4017475128173828,0.2138216972351074 1.6470199584960938,0.955544376373291 l1.577535629272461,0.21838209629058838 2.9958017349243162,0.43348331451416017 m12.946041870117188,-8.009619903564452 l-0.14563649892807007,-0.2172630786895752 0.10228619575500489,0.008650808781385421 l0.3046731472015381,0.43198308944702146 -0.13082523345947267,0.8701377868652344 l0.2910425901412964,1.5103099822998047 0.09896644353866577,2.2288440704345702 l0.6443711280822754,2.527750778198242 1.1924542427062987,2.467870330810547 l1.649451446533203,2.5488265991210937 3.3102432250976563,2.4898021697998045 l3.4951240539550783,2.159090995788574 3.7357994079589845,2.1304347991943358 l2.004078674316406,1.7080812454223633 1.8359207153320312,1.7504045486450195 l1.3410175323486329,1.6554109573364257 -0.32323741912841797,0.5939534187316895 l-0.6295717239379883,0.3170728921890259 -2.416046905517578,-0.12066651582717895 l-2.9972255706787108,-0.5583800792694091 -3.3086692810058596,-0.9748224258422852 l-3.7911972045898437,-1.134368324279785 -4.0330463409423825,-1.2835958480834961 l-3.4541694641113283,-1.714088249206543 -2.538844108581543,-1.3331310272216796 l-1.8796409606933593,-1.1282590866088866 -0.8714254379272461,-0.8826848030090332 l0.5247731685638428,-0.6942862510681153 2.11881046295166,-0.7449918746948242 l2.842778968811035,-0.9169289588928222 2.7244050979614256,-0.7106803894042969 l3.4020320892333986,-0.14498498439788818 m16.641241455078124,-7.318431091308594 l1.3277631759643556,-1.3851174354553222 0.03370088636875153,-1.3856419563293456 l-0.11639307737350464,-0.5569205284118652 -0.47884578704833985,-0.8048554420471191 l-0.17760907411575316,0.0989308476448059 0.004921656474471093,0.3758143186569214 l0.2983105182647705,1.9286399841308595 0.12671936750411988,1.9577781677246093 l1.2237223625183105,2.6861557006835937 1.8194231033325194,2.4117691040039064 l2.411062240600586,2.1886499404907225 2.4382537841796874,1.429142379760742 l1.7450876235961914,1.0908697128295899 2.1189361572265626,0.2807666301727295 l1.5553462982177735,0.16606106758117675 1.5107513427734376,-0.6060025215148925 l1.7622684478759765,-1.2863815307617188 1.7712945938110352,-1.8686296463012695 l1.2469566345214844,-2.5109878540039063 1.6409095764160155,-2.6553722381591798 m-1.9095911026000976,-10.190415954589843 l0.5083653926849365,-0.20541980266571044 0.21334755420684814,0.3397378444671631 l0.06667915582656861,0.6577506065368652 -0.12935031652450563,1.8260950088500976 l0.38649978637695315,2.4990255355834963 0.24887261390686036,2.589794158935547 l0.9172552108764649,2.9254581451416017 0.886443042755127,2.423794746398926 l1.0251956939697267,2.3104436874389647 1.3802958488464356,2.157937240600586 l2.02597713470459,1.8599845886230468 1.5985983848571776,1.2891064643859864 l1.8884012222290039,0.8315817832946777 0.9144820213317871,0.23961255550384522 l1.1592278480529785,-0.2747795820236206 0.978424072265625,-0.3169595003128052 l0.26250672340393066,-1.2602063179016114 0.2639763593673706,-1.666558837890625 l-0.5622490882873535,-1.731918716430664 0.0013059992343187332,-1.103842830657959 l-0.4998608589172363,-1.1265353202819823 -0.3714995622634888,-0.387187123298645 l-0.9660040855407714,-0.44394969940185547 -1.1540197372436523,0.2318859338760376 l-0.9241609573364258,0.5482755661010742 0.2453601598739624,1.1176513671875 l0.6884338855743408,1.0469063758850097 1.0226794242858888,1.236178207397461 l1.0728255271911622,0.5370345115661621 1.2926115036010741,0.334000301361084 l0.885091495513916,-0.1408931255340576 1.7722036361694335,-0.3179025173187256 l1.2210323333740234,-0.6216605186462403 0.27238950729370115,-1.0369630813598634 l0.35309109687805174,-0.9444466590881347 -0.364177942276001,-0.8331541061401367 l-0.12772562503814697,-0.6393938064575195 -0.10636348724365234,0.0016293136402964592 l-0.14182724952697753,-0.06420723199844361 0.3597232818603516,0.6357948780059814 l0.8228573799133301,1.1112520217895507 0.7157797813415527,0.9047031402587891 l0.6829111576080322,0.7560016632080078 0.7093069076538085,0.41428227424621583 l0.7547482967376709,0.07470256090164185 -0.012522557377815246,0.02595672309398651 l0.868015193939209,-0.34317407608032224 1.1039055824279784,-0.380552864074707 l0.917209529876709,-0.44134159088134767 1.3834213256835937,-0.9374168395996094 l1.1057281494140625,-1.285806655883789 0.8923362731933594,-0.292396092414856 l0.3116607666015625,-0.025950077176094054 -0.45129714012145994,-0.14799146652221679 l0.47789673805236815,0.8579980850219726 0.8189116477966308,1.8552585601806642 l1.0936460494995117,1.4700212478637695 1.457241916656494,1.3264399528503419 l1.466487979888916,0.7748539924621582 2.132490348815918,0.8536773681640625 l2.058242988586426,-0.06529387831687927 2.1914676666259765,-0.14511300325393678 l1.7272361755371093,-0.9977978706359864 1.3099567413330078,-1.3006397247314454 l0.8194851875305176,-1.4396408081054688 -0.893130874633789,-2.2940250396728517 l-1.7158525466918946,-1.568544292449951 -2.0044803619384766,-0.4346663475036621 l-3.2748878479003904,0.44814186096191405 -3.6459346771240235,1.0282537460327148 l-1.931809425354004,1.2591258049011231 0.15564384460449218,0.862035083770752 l-0.09052867889404297,0.04133013188838959 1.3216779708862305,0.2047647476196289 l2.006816864013672,-0.606904125213623 1.5356016159057617,-1.7336301803588867 l1.3046173095703124,-1.7840236663818358 0.9134075164794921,-2.461958312988281 l-0.24035463333129883,-2.6087600708007814 -0.7677642822265625,-2.916387939453125 l-0.9553322792053223,-2.3250301361083983 -0.25644445419311523,-1.6568637847900392 l-0.008410036563873291,-0.9562726974487304 -0.015864220261573792,-0.002742357552051544 l0.44953098297119143,1.3939712524414063 0.20673534870147706,2.073103904724121 l0.1242185354232788,1.7195856094360351 0.8228894233703613,1.5351390838623047 l1.0489954948425293,1.968743896484375 1.864042091369629,2.2182231903076173 l2.713651657104492,2.2747230529785156 2.2857860565185546,0.9494342803955078 m13.946380615234375,-5.469307708740234 l1.0372249603271484,0.10578386783599854 0.8585124969482422,-0.07164960503578185 l-0.7664161682128906,-0.5673320770263672 -1.060533332824707,0.03890543580055237 l-3.5305450439453123,-0.13341982364654542 -3.5483013153076173,0.2500743865966797 l-3.0881332397460937,0.40342464447021487 -1.8241024017333984,0.3818958759307861 l0.21558666229248047,0.7385828495025635 1.5862368583679198,1.192403793334961 l3.5393959045410157,1.5024385452270508 4.864993286132813,1.6606027603149414 l4.176239776611328,1.1153602600097656 2.8044132232666015,0.6182618141174316 l1.9782997131347657,0.7770098686218262 0.47327699661254885,0.24547319412231444 l0.23383655548095703,0.8391897201538085 -1.1336483001708983,1.138552188873291 l-2.9136260986328124,1.0124189376831054 -3.872584915161133,0.9829607009887695 l-4.477011108398438,0.6283729553222657 -2.5051910400390627,0.696920108795166 l-2.1450078964233397,0.10464061498641967 -1.7328323364257812,-0.2111541748046875 l0.31821298599243164,0.0034122470766305923 m26.210919189453126,-11.444312286376952 l0.21194448471069335,-0.342700457572937 0.14334595203399658,-0.41099867820739744 l-0.14088040590286255,-0.4657846450805664 0.0650183081626892,-0.0017402226105332375 l0.06638708114624023,0.7899346828460694 0.7388238906860352,2.6147129058837892 l-0.3878343105316162,2.9148311614990234 0.54769926071167,2.478554916381836 l0.9033993721008301,1.169215774536133 1.217646026611328,0.41351141929626467 l1.69262638092041,-0.20631673336029052 1.5591745376586914,-1.026498794555664 l1.7111543655395507,-1.5583253860473634 1.7073318481445312,-1.8461879730224608 l1.2311768531799316,-1.246935749053955 -0.6914015769958496,-0.31470980644226076 l0.9063529968261719,0.42289128303527834 0.5665210723876953,1.3650516510009765 l1.6575468063354493,1.971539306640625 1.3785106658935546,1.3689775466918945 l1.7394546508789062,0.9185734748840332 1.3660778999328613,0.5990356922149658 l1.6614709854125977,-0.3113279104232788 1.0697983741760253,-1.1857608795166015 l1.378509521484375,-1.4332704544067383 0.6592482566833496,-2.065588188171387 l0.0787357211112976,-3.004115867614746 -0.905711555480957,-2.780093765258789 l-0.5482995510101318,-1.6300674438476563 -0.7119341850280761,-0.24362215995788575 l0.13326544761657716,0.3475459814071655 -1.2529922485351563,0.33986976146698 l1.0409900665283203,1.4950994491577148 0.9300364494323731,1.6156276702880858 l1.3210363388061523,0.8284238815307617 1.47438325881958,0.6917511940002441 m8.035681915283202,-0.04429405927658081 l0.013483376801013946,-0.10792821645736694 -0.20557432174682616,-0.1561835527420044 l-0.7485625743865967,-0.35234997272491453 -1.3581156730651855,-0.36174464225769043 l-1.5157412528991698,0.0023598967120051382 -0.8108854293823242,0.36088201999664304 l-1.887153434753418,0.4432992935180664 -0.7890120029449463,0.8421028137207032 l-1.3259714126586915,1.4665890693664552 -0.570565128326416,1.8150707244873048 l0.11766157150268555,1.9486188888549805 0.9035137176513672,1.3478519439697265 l2.05087890625,0.661655330657959 1.8839208602905273,-0.10811822414398194 l1.9488378524780274,-1.5053043365478516 2.8499975204467773,-1.846746826171875 l2.542283821105957,-2.301662635803223 1.5108841896057128,-1.8226493835449218 l0.6066803932189941,-1.416586971282959 0.3351189136505127,-0.265012788772583 l-0.054839158058166505,0.15245176553726197 -0.2632075309753418,0.1841672658920288 l0.168631911277771,1.576046085357666 -0.32069969177246094,2.976788330078125 l0.540012264251709,3.325577163696289 0.7751381397247314,2.3986820220947265 l1.1342117309570312,0.5145444869995117 0.9154325485229492,-1.1254217147827148 m10.339877319335937,-21.626141357421876 l-0.403899621963501,-0.03199122548103332 0.3569102048873901,-0.19885653257369995 l0.15656473636627197,0.2409374475479126 0.9977971076965332,0.6090689182281495 l0.9907491683959961,1.660198974609375 0.24586243629455568,2.5246255874633787 l0.4892249584197998,3.8300872802734376 -1.2863112449645997,4.00133171081543 l-0.7102815628051757,4.317411041259765 -0.4724936008453369,2.936440658569336 l1.084068202972412,2.398032379150391 0.7484070777893066,0.9396561622619629 l0.8778294563293457,0.17415939569473265 1.1836929321289062,-0.8518102645874024 l2.206894302368164,-1.9943241119384765 2.3997425079345702,-2.2546031951904295 l1.9303041458129884,-2.1910619735717773 1.8424240112304688,-1.7836311340332032 l1.554665756225586,-1.7123456954956056 m-1.1654577255249023,-3.231521224975586 l-1.0992809295654298,-0.18745483160018922 -0.859134292602539,-0.07694240808486938 l-0.18127567768096925,0.8235448837280274 0.2943055868148804,1.6307476043701172 l0.2903659105300903,2.578776550292969 0.4615930557250977,2.8647762298583985 l0.5140040397644043,2.632949638366699 1.5140945434570312,2.6828441619873047 l0.12380211353302002,0.24869797229766846 -0.22421109676361084,-1.090712547302246 l0.8336435317993164,-1.5495861053466797 1.212974452972412,-2.0304433822631838 l2.4371036529541015,-1.2711807250976563 3.1567806243896483,-1.7871726989746093 l3.3835044860839845,-1.628026008605957 3.943039321899414,-0.7377771377563477 l3.9840587615966796,-1.0337865829467774 3.446440887451172,-1.2545262336730958 l2.730889320373535,-0.48579015731811526 m7.282530975341797,1.9316314697265624 l-0.052962446212768556,-0.13745040893554689 -0.3503279447555542,-0.5295937538146973 l-1.4842735290527345,-0.5788584232330323 -1.9586956024169921,-0.08398249745368958 l-2.113086700439453,1.3853207588195802 -2.365980529785156,2.2675477981567385 l-1.5427302360534667,2.5263158798217775 -0.6329472064971924,2.621255111694336 l0.8615324020385742,1.7069337844848633 1.7775285720825196,0.9560703277587891 l2.967603302001953,0.30243639945983886 3.705802154541016,-0.8083013534545899 l3.9646610260009765,-0.973849868774414 3.0372989654541014,-2.486761283874512 l2.2238624572753904,-1.7493179321289063 0.5269941329956055,-1.6304967880249024 l-0.6286070346832275,-0.862184715270996 -2.158642578125,-1.035364532470703 l-2.6304386138916014,-0.7844614505767822 -1.8930131912231445,-0.0921450138092041 m17.582337951660158,-13.515072631835938 l-0.13285266160964965,0.13697199821472167 -0.12369576692581177,0.45868597030639646 l0.6715065956115722,1.3300620079040528 0.4095269203186035,2.0777523040771486 l-0.23482093811035157,2.624490737915039 -0.7294099807739258,3.6570964813232423 l-0.8717179298400879,3.4769012451171877 -0.0925457239151001,3.690536880493164 l-0.14417099952697754,3.1105804443359375 0.12634029388427734,1.9216228485107423 l0.6457284927368164,1.0687512397766112 1.6431207656860352,0.5880490303039551 m4.850151824951172,-11.96973876953125 l-0.21844758987426757,0.7314954280853272 -0.6625141143798828,-0.3716144323348999 l-0.8269420623779297,0.8281120300292969 -1.200406265258789,1.7984159469604493 l-1.3128080368041992,1.7228622436523438 -1.6210721969604491,1.397524070739746 l-0.7505860328674316,1.5201125144958496 -0.05790734887123108,0.8817619323730469 l0.80245943069458,0.319028377532959 2.101832389831543,0.06606528759002686 l3.297603225708008,-0.41994533538818357 3.3919185638427733,-0.9814431190490722 m18.137921142578126,-0.9846205711364746 l-0.15844581127166749,-1.4548044204711914 -0.6878663063049316,-1.4461830139160157 l-1.5298477172851563,-1.234236717224121 -2.111556625366211,-1.0132213592529298 l-2.592274475097656,0.4555985450744629 -2.7450485229492188,1.3779447555541993 l-2.022710418701172,1.3570756912231445 -0.6724279403686524,1.6891347885131835 l-0.06353665590286255,1.0080894470214843 1.1213202476501465,0.8434884071350097 l1.6420854568481444,0.1049041509628296 2.6384513854980467,-0.4011025905609131 l2.5755090713500977,-1.9993209838867188 2.8988550186157225,-2.502679634094238 l2.2853696823120115,-2.2142847061157225 0.9336162567138672,-1.9450069427490235 l-0.4878335475921631,-1.9034479141235352 -0.6763344287872315,-0.707209587097168 l-0.3661240577697754,0.15885258913040162 -0.4021626949310303,-0.2176666021347046 l0.029259973764419557,0.3118224382400513 0.2762845516204834,1.5754653930664062 l0.41878418922424315,2.6800642013549805 0.3226855993270874,2.7181930541992188 l0.7945425033569335,3.294840621948242 0.33090767860412595,2.774916076660156 l0.388330340385437,2.202996826171875 0.6651000499725341,1.3214756011962892 m18.101800537109376,-10.322266387939454 l-0.08896578550338745,-0.04787968099117279 -0.332960844039917,-0.020415358245372772 l-0.7558521747589111,-0.027147528529167176 -2.186482620239258,-0.35714671611785886 l-2.866904067993164,0.18738937377929688 -2.3961408615112303,0.40387115478515623 l-1.3373577117919921,0.4371522903442383 -0.08371835947036743,0.43975343704223635 l0.6812119483947754,0.9846559524536133 2.5196765899658202,1.3003567695617675 l3.384475326538086,0.8079413414001465 3.1495487213134767,0.8198324203491211 m-10.75250701904297,-12.027034759521484 l-0.029921677708625794,-0.028526750206947327 0.2129547119140625,0.19907643795013427 l0.3669257402420044,-0.19810836315155028 1.409675121307373,-0.5285730838775635 l1.3372220993041992,-0.8486240386962891 0.9979170799255371,-1.3515665054321289 l1.1649126052856444,-1.6090221405029297 1.1392412185668945,-1.3701478958129882 l0.5659564018249512,-1.7154243469238282 0.43179888725280763,-1.5991496086120605 l0.17564375400543214,-1.217562484741211 0.22099366188049316,-0.26542327404022215 l-0.07555776238441467,0.013927297294139862 -0.11466728448867798,-0.06286389827728271 l0.06939771175384521,0.3036345958709717 -0.26550941467285155,1.0901345252990722 l0.20075421333312987,2.0207733154296874 0.6504679203033448,1.9830825805664063 l0.8336348533630371,1.475649929046631 1.306328010559082,1.521223545074463 l1.7899381637573242,1.1379242897033692 2.2969436645507812,0.790866470336914 l2.610751724243164,0.5533967971801758 2.6354349136352537,-0.20198867321014405 m19.24085388183594,-20.342420959472655 l-0.15849151611328124,-0.646833848953247 -0.0010375812649726867,-0.23213157653808594 l0.4141650676727295,-0.1681308627128601 0.6452031135559082,0.08822716474533081 l0.974062156677246,-0.10276241302490234 0.7665231227874756,-0.008366498351097106 l0.6032314300537109,-0.19798495769500732 1.4098478317260743,0.34487528800964357 m11.444934844970703,8.873675537109374 l-0.22049424648284913,0.056939685344696046 -0.2845963478088379,-0.16109673976898192 l-0.3639162540435791,0.5420861721038819 -0.7650535583496094,1.0019644737243651 l-0.8522223472595215,2.0045995712280273 0.018319115042686462,3.352080535888672 l0.16380927562713624,3.303819274902344 0.42125163078308103,2.263494300842285 l1.018129539489746,2.050920104980469 0.7558489799499511,0.6107725143432617 l0.9313491821289063,0.0486939400434494 1.1465014457702636,-0.6738388538360596 l1.7158906936645508,-0.8654619216918945 1.548482322692871,-1.5475783348083496 " fill="none" stroke="black" stroke-width="1" /></svg>