<?xml version="1.0" encoding="utf-8" ?>
<svg baseProfile="full" height="123.9695845004171" version="1.1" width="775.660211087041" xmlns="http://www.w3.org/2000/svg" xmlns:ev="http://www.w3.org/2001/xml-events" xmlns:xlink="http://www.w3.org/1999/xlink"><defs /><rect fill="white" height="123.9695845004171" width="775.660211087041" x="0" y="0" /><path d="M25,78.33525268398223 m39.7656494140625,-14.801861572265626 l0.24676072597503662,0.14352303743362427 -0.07799382209777832,0.09691318869590759 l0.26347172260284424,0.8252815246582031 -0.12393072843551636,1.5195199012756349 l-0.2715285062789917,2.3782089233398436 0.11220036745071411,3.0738946914672853 l-0.02999894618988037,3.3782058715820313 -0.3384263038635254,3.140299606323242 l-0.25033547878265383,2.540561866760254 0.08549934029579162,1.7129438400268555 l0.39223644733428953,0.7150304794311524 0.22168869972229005,0.02232859134674072 l0.8102230072021485,-0.6363357543945313 1.9336042404174805,-1.0055594444274902 l1.9502164840698242,-1.8567512512207032 2.775337028503418,-1.3350397109985352 l2.485943603515625,-0.31315951347351073 2.398215484619141,0.47542171478271483 l2.433936882019043,1.5652816772460938 1.800522232055664,1.4369668006896972 l1.2394233703613282,1.6361671447753907 0.987334156036377,1.3657344818115233 l0.6154238700866699,1.126385498046875 0.7887664794921875,0.47528848648071287 l0.34092488288879397,0.25858590602874754 0.4633950710296631,-0.36499409675598143 l0.4382542610168457,-1.0733586311340333 0.26579909324645995,-1.6910480499267577 l0.5555615425109863,-1.4421642303466797 0.19439961910247802,-1.3406478881835937 l0.19410943984985352,-0.5807287693023682 0.025096678733825685,-0.01947125494480133 l0.36276209354400635,0.2545377254486084 0.995655632019043,0.8932751655578614 l1.0211523056030274,1.3365839958190917 1.425772476196289,1.4525460243225097 l1.7806720733642578,1.6779170989990235 1.56573543548584,0.8782499313354493 l2.109682083129883,1.0124662399291993 1.7824132919311524,-0.030196642875671385 l2.224504280090332,-0.35844409465789795 1.7207954406738282,-0.9439812660217285 l1.7004838943481446,-1.2086170196533204 1.3403457641601562,-1.4246081352233886 m-5.057371520996094,-16.826129150390624 l0.017645823955535888,-0.02093740999698639 -0.24854187965393065,-0.10023345947265624 l-0.10888444185256958,0.07246947288513184 -0.1239138126373291,0.16935291290283203 m5.970571517944336,25.762637329101562 l0.6571706771850586,0.2581529140472412 1.015413761138916,-0.4127353191375732 l1.4603254318237304,-0.9216605186462402 1.9453598022460938,-1.4340977668762207 l1.002011775970459,-1.5959085464477538 0.44713492393493653,-1.7170297622680664 l0.301761269569397,-1.4236574172973633 -0.5023200035095214,-1.4987447738647461 m21.82615509033203,-16.3512451171875 l-0.694670295715332,-0.2962428331375122 -0.5257096290588379,-0.18436503410339355 l-0.008813130855560302,0.14054442644119264 -0.4633270263671875,0.6017876625061035 l0.21226015090942382,1.7349193572998047 -0.15059347152709962,2.134036636352539 l0.0769253432750702,2.375240516662598 0.4359293937683105,2.439578628540039 l0.611633586883545,1.891379165649414 0.4567409992218018,1.3448379516601563 l0.970025634765625,0.7656149864196777 0.46535205841064453,-0.20378260612487792 m1.1261505126953124,-4.553888320922852 l0.00798400491476059,-0.07437359690666198 0.09455831050872802,0.05899754762649536 l-0.10035213232040405,-0.1346312642097473 -0.008038152009248734,0.8106936454772949 l0.03853696286678314,1.3328344345092773 0.340484094619751,2.5149913787841798 l-0.6554224967956543,3.7964126586914064 0.6298013210296631,4.654166412353516 l0.9663119316101074,4.215085983276367 1.351513385772705,2.967232894897461 l1.1127510070800781,2.0526247024536133 1.4594614028930664,1.325251007080078 l0.3877382278442383,-0.1201863169670105 0.7788045406341553,-0.6329425811767578 l0.0884137749671936,-2.0974254608154297 -0.20939064025878906,-3.3755615234375 l-0.46769180297851565,-4.190374374389648 -0.8542018890380859,-4.086265563964844 l-1.240480899810791,-3.3060073852539062 0.32490441799163816,-2.186060905456543 l-1.0706647872924804,-2.114872360229492 -0.7668402194976807,-2.666204643249512 l-9.356492664664983e-05,-1.6761571884155273 m4.761688995361328,2.189580535888672 l0.02515327334403992,0.005247561261057854 0.7888507843017578,0.9537036895751954 l0.8647329330444335,1.193962001800537 0.573780107498169,1.6313709259033202 l0.8183219909667969,2.347869110107422 0.5049206733703613,2.295529365539551 l0.8301334381103516,1.653515625 1.1513101577758789,1.1967363357543945 l1.0919261932373048,0.35205326080322263 1.113151454925537,-0.028135386109352113 l0.8335417747497559,-0.6278157711029053 1.2742009162902832,-1.1334402084350585 l0.6360406875610352,-2.7708959579467773 0.9466512680053711,-2.210427093505859 l0.43080506324768064,-2.445902633666992 0.02209015190601349,-1.8837594985961914 l-0.0014059223234653474,-1.0079662322998046 0.07385513782501221,0.10604548454284668 l-0.16980412006378173,0.0468075305223465 -0.02028321921825409,0.2234347343444824 l-0.6050819873809814,1.6098440170288086 -0.07225538492202759,3.046318244934082 l-0.03949343860149383,2.6862873077392577 -0.051657485961914065,1.9407974243164063 l0.5919153213500976,1.1364068031311034 1.3587799072265625,0.6865335464477539 l1.6712766647338868,0.0859753966331482 2.0549583435058594,-0.6380673408508301 l1.8295303344726563,-1.4029561042785645 1.2190870285034179,-1.748267364501953 l1.6368537902832032,-1.3829120635986327 0.6396712779998779,-1.7745452880859376 l0.25341997146606443,-0.6566171646118164 0.21459200382232665,-0.12333096265792846 l-0.3586718559265137,0.5138845920562745 -0.15469400882720946,1.3083773612976075 l0.21758267879486085,2.101411819458008 0.6742023944854736,1.7515371322631836 l1.2421275138854981,1.5273550033569336 1.2328546524047852,0.5936561584472656 l2.0628124237060548,0.5072428703308105 2.143607330322266,0.050830614566802976 l1.574727439880371,-0.7609334468841553 1.1548033714294434,-1.3352517127990722 l1.1398640632629395,-1.2768896102905274 -0.32346057891845703,-1.8160717010498046 l-0.04303379654884339,-1.6864713668823241 -1.485343074798584,-1.3815383911132812 l-1.2730993270874023,-0.7991338253021241 -2.1414363861083983,-0.5361680507659912 l-1.228249740600586,-0.04981711506843567 -0.9401799201965332,0.21133880615234374 l-0.4137880802154541,0.5540338039398194 -0.18232250213623047,0.9579638481140137 l-0.11995809078216553,-0.3625649452209473 0.23936266899108888,-1.1315931320190429 m3.4578765869140624,-20.551841735839844 l0.045381438732147214,-0.8713393211364746 -0.047417253255844116,-0.292600679397583 l-0.37953188419342043,-0.014037305116653442 0.14794526100158692,0.10979752540588379 l-0.08727938532829285,0.46268520355224607 0.2193350076675415,1.3457576751708984 l0.23332018852233888,2.31455135345459 0.3327596664428711,3.3276939392089844 l-0.14761555194854736,4.036837768554688 -1.3210205078125,7.105512237548828 l1.1250749588012696,6.306887817382813 1.3476000785827638,0.3461512565612793 l1.8508209228515624,-3.0055892944335936 2.4806049346923826,-3.5388420104980467 l1.8856077194213867,-4.458777999877929 1.4073291778564454,-3.728695297241211 l0.9714058876037598,-1.7773735046386718 -0.1567044734954834,-0.17770688533782958 l-0.23141188621520997,-0.029161077737808228 0.8608588218688965,1.8596494674682618 l0.5297322273254395,2.4496341705322267 1.6996978759765624,2.855848503112793 l1.5234224319458007,1.9327442169189453 1.3567562103271484,1.4125268936157227 l1.7332977294921874,0.39609394073486326 m25.25567626953125,-25.546995544433592 l-0.7345261096954345,1.5207146644592284 -0.743468189239502,3.7052383422851562 l-1.4606895446777344,5.338362121582032 -0.8116724014282226,5.573078536987305 l-0.4696367263793945,4.551734542846679 -0.023874881863594054,3.332560729980469 l-0.037714147567749025,1.9847528457641601 0.48870420455932617,0.28728814125061036 l1.2898831367492676,0.07664925456047059 1.5750850677490233,-1.311563491821289 l2.4622230529785156,-1.9642711639404298 3.965719223022461,-1.6798030853271484 l3.658370590209961,-0.8607308387756347 3.326176071166992,0.16892443895339965 l2.7978647232055662,1.212589168548584 1.4359444618225097,1.4856196403503419 l0.9879717826843262,1.4515352249145508 0.36851086616516116,1.7412715911865235 l-0.676433515548706,1.5949026107788087 -2.279743194580078,1.6697481155395508 l-3.2743412017822267,1.6170904159545898 -5.224666595458984,1.3413434028625488 l-4.982329559326172,1.3222683906555175 -4.210946655273437,0.27191150188446045 l-3.1222908020019533,-1.3670743942260741 -1.5887056350708009,-2.156070327758789 l0.3550058364868164,-2.6169565200805662 1.7245786666870118,-2.328770637512207 m19.560897827148438,-7.7334648132324215 l-0.36516461372375486,-0.2397484540939331 -0.34015109539031985,1.3144660949707032 l-0.73917555809021,2.194708251953125 -1.3228761672973632,3.418716049194336 l0.08682155013084411,3.031246376037598 1.1197041511535644,2.4454336166381836 l2.3117752075195312,1.579121971130371 3.063706970214844,0.47013077735900877 l2.985060691833496,-0.4133481979370117 2.9177303314208984,-1.2576332092285156 l1.6612260818481446,-2.3666927337646486 0.5122649669647217,-2.6377744674682617 l-0.5328460216522217,-1.645536231994629 -1.4560023307800294,-1.2849464416503906 l-1.9880666732788086,-1.1585271835327149 -1.456744384765625,-0.34787521362304685 l-0.6944098472595215,-0.24183382987976074 -0.0010000182315707206,-0.017378076910972595 l2.225132179260254,-0.435639762878418 2.762624740600586,-1.1313508987426757 m26.406060791015626,-14.024664306640625 l0.23079853057861327,1.646276092529297 -0.35665230751037597,3.500172805786133 l0.23546984195709228,4.621061706542969 -0.1666362166404724,4.6855613708496096 l0.3848627805709839,4.151393127441406 0.65475435256958,2.799266052246094 l0.550040340423584,1.4916872024536132 0.613506269454956,0.80157470703125 m-6.324209213256836,-12.917230224609375 l-0.521824836730957,1.1941362380981446 1.139717197418213,1.6633773803710938 l2.2041114807128905,0.9095712661743164 2.9565059661865236,-0.011084726452827454 l3.231558609008789,-1.2055629730224608 3.1679786682128905,-1.3813215255737306 l2.7757984161376954,-2.148282051086426 2.290549087524414,-2.6873088836669923 m1.3753082275390625,-14.253958129882813 l-0.27149152755737305,-1.026300048828125 0.264117956161499,0.31548457145690917 l0.32082157135009765,1.6953180313110352 0.17092807292938234,3.2935665130615233 l0.22912220954895018,5.052268981933594 0.4520930290222168,5.004770660400391 l0.6789705276489257,4.1500896453857425 0.8927430152893067,2.6381195068359373 l0.5677201271057128,1.198623275756836 0.19734479188919068,-0.029306527972221375 l0.46836061477661134,-0.4375777721405029 1.1038559913635253,-2.085376739501953 l1.0171236038208007,-2.5333023071289062 0.7081274509429931,-1.1607985496520996 l-0.08561500310897827,0.01063559204339981 -0.005058612301945686,0.5358486175537109 l0.500330638885498,1.721227264404297 0.6457850933074951,2.1125911712646483 l0.3097923040390015,1.7499557495117188 0.7987132549285889,1.343070888519287 l1.1408677101135254,0.695462703704834 0.9812127113342285,0.05879247784614563 l1.450126552581787,-0.7230767250061035 m9.034371185302735,-5.031328201293945 l0.08548470735549926,-0.8209863662719726 0.11877636909484864,-0.5222142219543457 l-0.43587355613708495,-0.3910381555557251 -1.0819578170776367,-0.22997503280639647 l-1.8379560470581056,0.7397064685821533 -1.8529020309448243,1.6072174072265626 l-1.0963720321655273,2.005489730834961 -0.10906596183776855,1.920456314086914 l1.7812416076660156,1.633882713317871 2.1236688613891603,1.0113182067871094 l2.3518659591674806,0.12989033460617067 2.2910980224609374,-0.8807507514953613 l1.181223487854004,-1.568405532836914 0.7927493095397949,-2.080572509765625 l0.3406580924987793,-1.9191974639892577 -0.23140571117401124,-0.831978702545166 l-0.11248952150344849,-0.029899176955223084 -0.25733652114868166,0.08804435133934022 l0.04397369623184204,1.7508867263793946 1.0078985214233398,2.0566051483154295 l0.4922461032867432,1.7980865478515624 0.22786755561828614,1.4430971145629883 l0.08980523347854615,0.8871444702148438 0.1200863003730774,0.24810478687286378 l0.10537114143371581,-0.21298906803131104 0.6048223495483398,-0.5150372982025146 m27.6384033203125,-12.883848571777344 l0.1251428723335266,-0.2812694549560547 -0.05779787302017212,-0.7514061450958252 l-0.1883096218109131,-0.8053187370300293 -1.167956829071045,-1.4164968490600587 l-0.9092608451843261,-1.2527610778808593 -1.8702442169189453,-1.2474231719970703 l-1.128947639465332,-0.8205265998840332 -1.625638198852539,-0.19774188995361328 l-0.831505298614502,1.0922487258911133 -0.504550552368164,1.7589767456054688 l-0.5308588981628418,2.3357486724853516 -0.304013729095459,3.020174980163574 l-0.11691205501556397,3.840248870849609 -0.8025572776794434,4.074345397949219 l0.06471196413040162,4.2555900573730465 0.6805785179138184,4.059653854370117 l1.0366626739501954,3.943595123291016 0.24683685302734376,3.1755661010742187 l0.42799153327941897,2.6440074920654295 0.14387800693511962,1.4924915313720704 m-5.261174011230469,-15.2822509765625 l-0.24100773334503173,-0.145275342464447 0.1599357008934021,0.14236369132995605 l1.3750370979309081,0.4216508388519287 2.385662841796875,0.07485753297805786 l3.362348937988281,-0.004450813308358193 2.8316553115844725,-0.4306128978729248 l2.9100210189819338,-0.3052671432495117 2.1372127532958984,-0.5031219005584717 m22.591584777832033,-22.159872436523436 l-0.0016834789887070656,0.9940339088439941 0.3496431350708008,2.8150230407714845 l0.11550087928771972,3.654752731323242 -0.3997882604598999,4.383636093139648 l-0.0020977407693862915,4.651205444335938 0.9234099388122559,4.171422958374023 l0.7093576431274414,3.1041065216064454 0.45937480926513674,1.897071075439453 l-0.25046255588531496,0.9396251678466797 0.3210265874862671,0.14317758083343507 l-0.30628023147583006,-0.3850668668746948 0.1055361270904541,-1.0087212562561034 m-2.640358734130859,-15.097801208496094 l0.12141754627227783,-0.6757083415985108 0.22181620597839355,-0.9924022674560546 l2.0370906829833983,-1.187649631500244 1.3610494613647461,-0.7439201354980469 l2.1873546600341798,-0.2653022766113281 1.991536521911621,-0.07454853057861328 l1.4188968658447265,0.07951828837394714 1.7565128326416015,0.4751611232757568 l1.119855785369873,0.5743024349212646 0.8449714660644532,0.9139580726623535 l0.5813316822052002,0.7121033668518066 -0.5332485198974609,0.8054915428161621 l-2.0352752685546873,-0.23044025897979736 -1.140322208404541,-0.44533820152282716 l-0.7963848114013672,-1.4256803512573242 0.3311197757720947,-1.5794686317443847 m15.78270263671875,5.677157974243164 l1.291073989868164,1.2631526947021485 0.7765926837921142,1.9368122100830079 l0.3549432992935181,2.3396064758300783 0.4878233909606934,2.13409538269043 l-0.07860389947891236,1.7110618591308593 0.13318452835083008,2.2458608627319334 l0.017909643054008485,0.714916181564331 -0.13092472553253173,-0.029613804817199708 l0.14961963891983032,-1.3893020629882813 0.0876181423664093,-2.9319061279296874 l0.015427234768867492,-3.346898651123047 0.149213445186615,-2.641002655029297 l-0.0006542335264384747,-2.6046001434326174 0.5068111419677734,-2.061850738525391 l0.9160719871520996,-1.7036651611328124 0.8632035255432129,-0.9700138092041015 m13.389642333984375,-1.6786190032958985 l-0.1791015863418579,0.2464838981628418 -0.4372586250305176,0.6687865734100342 l-0.9554144859313964,0.20907251834869384 -1.3481501579284667,0.5646472930908203 l-1.261098289489746,1.2585351943969727 -1.0665220260620116,1.513679027557373 l-0.8262558937072754,2.2260528564453126 -0.2670438766479492,2.0085254669189454 l0.4872419357299805,1.5005815505981446 0.9907643318176269,0.8386404037475585 l1.3726149559020997,0.008132968842983247 1.4133478164672852,-0.9867258071899414 l1.5307767868041993,-0.789073371887207 1.3096584320068358,-1.7202165603637696 l0.9097980499267578,-2.1901546478271485 0.817070198059082,-1.0082868576049804 l0.20430140495300292,-0.1459154963493347 0.26835122108459475,0.735774040222168 l0.06902540922164917,1.0804510116577148 0.3959058284759521,1.6739456176757812 l0.5280213832855225,1.8769098281860352 0.9579390525817871,2.409532165527344 l1.2405860900878907,1.1854838371276855 1.7767179489135743,0.5677827835083008 m13.631797790527344,-7.812672424316406 l-0.016662636399269105,-0.38658177852630615 0.38028204441070557,0.10153473615646362 l-0.4491730213165283,-0.3099899053573608 -0.883456802368164,-0.12797853946685792 l-1.135658073425293,0.406268310546875 -1.366805076599121,1.0620736122131347 l-1.1013843536376953,1.98699893951416 -0.7521183490753174,2.252982330322266 l0.3676841497421265,2.564209747314453 0.3572110891342163,0.23894743919372557 l1.527531051635742,-0.15661907196044922 1.9307247161865235,-1.3487652778625487 l1.736944580078125,-1.8166284561157227 1.2904175758361816,-1.8827959060668946 l0.8126514434814454,-1.7540699005126954 0.17574594020843506,-1.0472600936889649 l-0.026952210068702697,0.1943731427192688 -0.16064561605453492,-0.2481861114501953 l0.19280816316604615,0.8090385437011719 0.48633809089660646,1.5788917541503906 l1.178408718109131,2.8021337509155275 1.261415958404541,4.082870864868164 l1.2459553718566894,5.2881427764892575 0.5900934219360352,4.731380462646484 l0.17625844478607178,4.616363143920898 -0.42823381423950196,3.5509803771972654 l-1.3780210494995118,2.1329246520996095 -1.7591890335083007,1.6746442794799805 l-2.059981346130371,0.614957618713379 -1.8285463333129883,-0.03527073562145233 l-1.537652587890625,-1.2505563735961913 -1.2605789184570313,-2.0769268035888673 m30.081011962890624,-32.85899658203125 l0.002743428386747837,-0.5649795055389404 -0.17221238613128662,0.05349655151367187 l-1.0843965530395507,-0.48352460861206054 -1.69415340423584,-0.6768313407897949 l-1.4018115043640136,0.3382475137710571 -1.5596439361572265,0.002617109939455986 l-0.9693597793579102,0.7141972541809082 -1.1022453308105469,0.6838654518127442 l-0.022478145360946656,2.1614253997802733 0.48632354736328126,2.2539600372314452 l0.7297892093658447,1.9679143905639649 1.1647289276123047,1.1677099227905274 l1.2360763549804688,0.5997986316680908 1.2197513580322266,-0.8010980606079101 l1.7200300216674804,-1.0840869903564454 1.5633342742919922,-2.319935989379883 l1.0894453048706054,-2.697125244140625 0.4532886028289795,-2.0891223907470704 l0.1870100498199463,-0.08753949999809266 -0.22249960899353027,-0.2789215087890625 l0.23057150840759277,0.43549160957336425 0.5562751293182373,1.1526904106140137 l0.9099692344665528,1.8314544677734375 0.806723690032959,2.1770465850830076 l0.6181166648864747,2.4296796798706053 0.5397306442260742,2.1153242111206056 l0.38988308906555175,0.5190007209777832 0.9257710456848145,-1.0225685119628907 m1.4327345848083497,-14.361514282226562 l-0.061761850118637086,-0.18378617763519287 0.0634957194328308,0.5367848396301269 l0.09472581148147582,1.3504705429077148 0.554100751876831,3.022966194152832 l0.46677026748657224,2.767612075805664 0.4160818576812744,2.5224817276000975 l0.888602352142334,2.452141761779785 0.6998666763305664,1.3926794052124023 l0.4829884052276611,-0.06340842843055725 0.6666015625,-0.45571117401123046 l0.407305908203125,-1.1110017776489258 0.7400033473968506,-1.7605449676513671 l1.0413990020751953,-1.5294896125793458 0.652376365661621,-1.893931770324707 l0.6664749145507812,-1.0343194007873535 0.24373109340667726,-0.4906583309173584 l0.6437838077545166,0.380914306640625 0.2694579601287842,0.1304835557937622 l0.40708246231079104,0.6838504791259765 0.5232621192932129,1.4286259651184081 l0.6181741237640381,0.6725289344787597 0.8061285972595215,0.6635435104370118 l1.1946673393249512,-0.6481835842132568 1.6594764709472656,0.39551420211791993 l1.9236078262329102,-0.9949161529541015 1.9866336822509765,-0.7198480606079102 l1.6814924240112306,-0.757029914855957 1.2723549842834472,-0.3847207069396973 l0.5013712882995606,-0.03752489387989044 -0.14553879499435424,-0.037095391750335695 l-0.41351943016052245,0.31027894020080565 -0.8814002990722656,0.9425315856933594 l-0.758327865600586,2.293182373046875 -0.7577577590942383,1.8002239227294923 l0.23610801696777345,1.2861978530883789 1.1492453575134278,0.3325527191162109 l0.8902042388916016,-0.5963222980499268 1.4577227592468263,-1.0038606643676757 l1.3939966201782226,-1.5299039840698243 1.3108901023864745,-1.117946243286133 l0.5402298450469971,-1.205091667175293 0.5814481735229492,-1.5016812324523925 l0.1466835618019104,-0.03915554881095886 -0.005116629973053932,0.46871318817138674 l-0.15430328845977784,0.2771539449691772 -0.20736539363861084,1.7342952728271483 l0.06425435543060302,2.6666166305541994 0.803252124786377,1.533493423461914 l1.4910863876342773,1.6847185134887694 1.9813655853271483,0.49013195037841795 l2.6805667877197266,-0.05226312875747681 2.1277849197387697,-1.250539207458496 m17.06739501953125,-8.205706787109374 l1.924781608581543,-0.6169389724731446 1.1251319885253905,-1.0244890213012696 l1.109976577758789,-0.866181468963623 0.9036600112915039,-0.4736607074737549 l0.08879175186157226,-0.305148720741272 -0.22319159507751465,-0.17621912956237792 l-0.8438998222351074,-0.7581770420074463 -0.8538304328918457,0.0152635857462883 l-1.497926616668701,0.35049846172332766 -1.363680362701416,1.0602904319763184 l-1.219033432006836,1.631861686706543 -0.8347871780395508,2.349705123901367 l-0.20060360431671143,2.5084861755371093 0.8464171409606933,2.1389995574951173 l2.1968210220336912,0.48392043113708494 3.072464179992676,-1.729873275756836 l4.524114608764648,-3.369559478759766 4.772236633300781,-5.2401481628417965 l4.799548721313476,-4.740765380859375 3.446651840209961,-6.308739089965821 l3.5208175659179686,-5.708282852172852 2.7856292724609375,-5.397194671630859 l1.257870578765869,-4.47187385559082 0.9445980072021485,-1.168182945251465 l-0.291846489906311,-0.44282355308532717 -0.1627362847328186,0.35678436756134035 l-0.31382312774658205,2.1305742263793945 -0.5241514205932617,3.047418403625488 l-0.22680380344390869,4.6136211395263675 -0.42537312507629393,5.313665771484375 l-0.038572061061859134,6.208351516723633 0.4972202301025391,4.975518035888672 l1.2867431640625,3.0276296615600584 1.9355058670043945,1.098219394683838 l2.8096235275268553,0.217702054977417 2.8000682830810546,-1.359525775909424 m32.25565795898437,5.746159362792969 l-0.8753886222839355,0.2921894073486328 -1.2584628105163573,0.30103626251220705 l-1.4927703857421875,0.18000407218933107 -1.6267738342285156,-0.4962028503417969 l-1.366168212890625,-1.418259620666504 -0.9821910858154297,-2.1616188049316407 l-0.337509298324585,-3.2587043762207033 0.5039783477783203,-3.079129219055176 l1.1847244262695313,-2.6378002166748047 1.6071102142333984,-2.65988712310791 l1.7352088928222655,-1.4059052467346191 2.2826425552368166,0.16336610317230224 l1.9620893478393555,0.7099331855773926 1.1790367126464845,1.1342176437377929 l0.960421085357666,1.8657453536987305 -0.09632468819618226,1.5082679748535157 l-0.9797144889831543,1.3204216957092285 -1.7920391082763671,1.8766822814941406 l-2.736910820007324,1.547755813598633 -3.4535831451416015,0.369942307472229 l-2.0561073303222654,-0.3142696380615234 -1.3374216079711914,-1.0925073623657227 l-0.019929520785808563,-2.184825897216797 1.6380212783813477,-2.7588428497314452 m24.014768981933592,-3.0718505859375 l-0.015763990581035614,1.4199701309204102 0.16644394397735596,0.9777602195739746 l-0.2826436758041382,0.646112060546875 -0.660484790802002,0.15255863666534425 l-0.6157867431640625,0.8463157653808594 -1.4680700302124023,-0.2613415479660034 l-1.6479000091552733,0.30659964084625246 -1.9380373001098632,0.13704537153244017 l-1.41007719039917,1.2928915977478028 -1.0995312690734864,1.1522007942199708 l-0.8629854202270508,1.7872001647949218 0.001653347536921501,1.7661638259887695 l0.16207716464996338,1.3857850074768066 0.9638491630554199,0.8571483612060546 l1.5899163246154786,0.6061377048492431 1.4195660591125487,-0.3331200838088989 l1.5234312057495116,-0.8824592590332031 1.4913909912109375,-2.198236274719238 l1.313033676147461,-2.132274627685547 1.4806724548339845,-1.7189958572387696 l0.659130048751831,-1.6084100723266601 0.586672306060791,-1.0231468200683593 l0.19756784439086914,-0.8567781448364258 -0.2936559677124023,-0.25776169300079343 l0.00734190121293068,0.9759117126464844 -0.5855534076690674,0.6218208789825439 l-0.05405409932136536,1.832937240600586 0.28252463340759276,2.3917213439941407 l0.7421300411224365,2.079936218261719 1.4325245857238769,1.8617498397827148 l1.808812713623047,0.6666324615478516 1.7913719177246095,-0.6681472778320312 m24.354644775390625,-9.928246307373048 l0.23722999095916747,0.14198150634765624 0.0003907929174602032,-0.047043722867965695 l-0.6418560981750489,0.05687899589538574 -0.6766033172607422,0.05802064538002014 l-0.7095913410186767,0.9765661239624024 -1.359095001220703,1.765376663208008 l-1.0495858192443848,2.8905002593994142 -0.6669814586639404,3.315997314453125 l-0.332661771774292,2.8860300064086912 0.5068473815917969,1.4022561073303224 l0.91954345703125,-0.32733922004699706 2.047481155395508,-0.31022052764892577 l1.989522933959961,-2.0973884582519533 1.9980255126953126,-2.741061782836914 l1.9707916259765625,-2.1858499526977537 1.0780580520629883,-2.5720272064208984 l0.41398181915283205,-1.433168601989746 -0.1701279640197754,-0.2916220426559448 l-0.6744632244110107,-0.2737426280975342 -1.416165542602539,-0.2684762001037598 m17.164089965820313,-0.35327677726745604 l0.17802680730819703,0.21724858283996581 -0.5840203285217285,-0.6462649822235107 l-0.6392783164978028,-0.10310033559799195 -0.8173513412475586,0.13197836875915528 l-1.0783811569213868,-0.17636682987213134 -0.9626283645629883,0.2348483085632324 l-0.5888693332672119,0.4895477771759033 -0.4451144218444824,0.25628037452697755 l-0.030302810668945312,0.6985043525695801 0.6127520561218261,1.2141075134277344 l0.23684053421020507,0.7196118831634521 1.3624187469482423,1.2653858184814453 l0.7902077674865723,0.37632341384887696 1.1564330101013183,0.5097446441650391 l0.9754119873046875,0.5472877025604248 0.8881588935852051,0.6933146476745605 l0.48194317817687987,0.509438943862915 0.36838722229003906,0.5586876392364502 l-0.338581919670105,-0.6217948913574218 -0.22222115993499755,-0.34589622020721433 l-1.3829349517822265,-0.787197494506836 -0.75205397605896,-0.601557731628418 l-1.1463080406188966,-1.0265456199645997 -0.10876128673553467,0.14495540857315065 l-0.16051687002182008,-0.23573784828186034 -0.034349048137664796,-0.16121102571487428 l0.022968301177024843,-0.006635202467441559 0.2812904119491577,0.04273517727851868 l0.2122343063354492,0.0972846806049347 0.04949508905410767,-0.05872093439102173 l0.5453196048736573,0.3209947347640991 0.8448531150817871,-0.08006417751312256 m6.136145782470703,-4.275987243652343 l1.0662042617797851,-0.7047050476074219 1.0119070053100585,-0.4069324493408203 l0.9849136352539063,-0.2198779344558716 1.0558161735534668,0.17302024364471436 l1.2506848335266114,0.624392032623291 1.3742637634277344,0.890320873260498 l0.9131839752197266,0.967831039428711 0.8996444702148437,1.1215761184692383 l0.402156400680542,0.47089014053344724 0.15196245908737183,0.608069896697998 l-0.08650950193405152,0.5451458930969239 -0.18377816677093506,0.1876896381378174 l-0.6507013320922852,-0.29475107192993166 -0.5671333312988281,-0.18127440214157103 l-0.9746834754943847,-0.35667004585266116 -1.6573837280273438,-0.1773756742477417 l-1.5272784233093262,0.6870365142822266 -1.7991121292114258,1.2952146530151367 l-1.7875448226928712,1.7940866470336914 -0.9197441101074219,1.509187602996826 l0.04053234457969666,1.127692985534668 0.924283790588379,0.5285721778869629 l1.3969316482543945,-0.1249914288520813 1.8849369049072267,-0.8008579254150391 l2.5272085189819338,-1.2316730499267579 2.039199447631836,-1.954861831665039 l1.8400680541992187,-2.043126678466797 1.4558335304260255,-2.061650276184082 l0.878172779083252,-1.3790523529052734 0.11660453081130981,-0.0628613829612732 l-0.1289507269859314,-0.024837644398212434 -0.11700893640518188,0.3202253580093384 l-0.5117110252380371,0.0915597140789032 -0.3784809112548828,0.37000246047973634 l0.4899131774902344,1.1637701034545898 0.6691111564636231,1.1461240768432617 l1.2202823638916016,1.386635971069336 1.6569446563720702,0.8298958778381348 l2.493468475341797,0.7702452659606933 2.7956096649169924,0.2715120315551758 l2.587722969055176,-0.7256342887878418 2.910966491699219,-1.0609170913696289 l1.9268959045410157,-2.1422618865966796 1.6478521347045898,-1.7952762603759767 l0.6724153518676758,-0.9621028900146484 -0.31006340980529784,-0.4674527168273926 l-1.7325323104858399,-0.5042588710784912 -2.0498266220092773,0.978054428100586 l-2.691625785827637,2.2493732452392576 -1.8501773834228517,2.5033979415893555 l-0.40582828521728515,2.675160217285156 0.39478726387023927,1.8251522064208985 l1.3387138366699218,1.2879391670227052 2.365212631225586,0.7563300132751465 m37.51820678710938,-10.879574584960938 l0.6517059326171875,-0.7618821144104004 -0.029862615466117858,-0.6109723567962646 l-0.814816665649414,-0.4339778900146484 -1.886115837097168,-0.28849756717681885 l-2.6053314208984375,0.8569685935974121 -2.560806465148926,2.2407596588134764 l-2.487886428833008,2.6376760482788084 -2.158183288574219,2.6821165084838867 l-0.799070405960083,1.9946683883666991 0.5142781257629394,0.24021399021148682 l0.7715836048126221,-0.7520451545715332 2.001618194580078,-1.4065494537353516 l2.6835880279541016,-2.435196113586426 2.5902826309204103,-2.785311698913574 l1.5748174667358399,-1.788888168334961 0.8234345436096191,-0.3716787815093994 l-0.08115153312683106,0.020103676617145537 -0.12813323736190796,1.2091543197631835 l-1.0124970436096192,1.8936695098876952 -1.0892208099365235,2.9612674713134766 l-1.024262046813965,4.021169662475586 -0.8275901794433593,4.631801605224609 l-0.8333275794982911,4.758140182495117 0.042611968517303464,4.772919082641602 l-0.27258074283599854,3.7464576721191407 -0.41403975486755373,3.192147445678711 l-0.7913571357727051,2.508967399597168 -1.049781322479248,1.3554248809814453 l-1.1903385162353515,0.7352081298828125 -0.9246391296386719,0.3931175470352173 l-1.1421133041381837,-0.9575056076049805 -1.1633146286010743,-1.8411890029907227 l-1.1807706832885743,-3.1163604736328123 0.14239488840103148,-3.878541946411133 l0.6497607707977295,-3.4047645568847655 1.7438203811645507,-3.757651519775391 m17.21920166015625,-12.55248565673828 l2.6663625717163084,-0.7550092220306397 2.637112045288086,-0.9430854797363282 l1.9622158050537108,-1.1300186157226562 1.1888162612915039,-1.3299304962158203 l0.9406909942626953,-1.1269655227661133 0.26299333572387695,-0.9947890281677246 l-0.8201955795288086,-1.2257194519042969 -0.9762590408325196,-0.5857572555541992 l-1.6799036026000977,0.23129470348358155 -1.8471378326416015,1.3599266052246093 l-2.316219711303711,2.307266044616699 -0.9851216316223145,2.8877285003662108 l0.2496413469314575,3.1159761428833006 0.21352596282958985,2.0349405288696287 l2.1279090881347655,1.647495651245117 2.6482667922973633,0.13604749441146852 l3.383615493774414,-0.5897940635681153 2.755237579345703,-1.3303051948547364 l2.102053642272949,-1.145958423614502 0.7385814666748047,-0.7961694717407226 m3.8348918914794923,-6.151918411254883 l-0.061344307661056516,-0.8946407318115235 -0.5238432884216309,0.0743088960647583 l-0.36122381687164307,0.23278884887695311 -1.3423397064208984,0.9563352584838867 l-0.43238277435302735,2.530107116699219 -0.7237868309020996,1.8641277313232423 l-0.0402380108833313,1.540949249267578 1.092204475402832,0.7633509159088134 l0.8615535736083985,-0.7282135486602783 1.5547536849975585,-1.2872161865234375 l1.5018662452697753,-1.831556510925293 1.111890983581543,-2.095427703857422 l0.4948135852813721,-1.926029586791992 0.3526796817779541,-1.0199217796325684 l-0.09914689660072326,-0.29158668518066405 -0.051559412479400636,0.11648744344711304 l0.1602507710456848,0.35566580295562744 -0.29833502769470216,0.5911806106567383 l0.5247981548309326,2.405330276489258 0.2521496057510376,2.311512756347656 l0.03257112205028534,0.8377984046936036 0.8268881797790527,0.5354816913604736 " fill="none" stroke="black" stroke-width="1" /></svg>