<?xml version="1.0" encoding="utf-8" ?>
<svg baseProfile="full" height="94.3440873381682" version="1.1" width="626.5545292813098" xmlns="http://www.w3.org/2000/svg" xmlns:ev="http://www.w3.org/2001/xml-events" xmlns:xlink="http://www.w3.org/1999/xlink"><defs /><rect fill="white" height="94.3440873381682" width="626.5545292813098" x="0" y="0" /><path d="M25,42.6906371286139 m32.69088134765625,-6.856787109375 l-0.19383039474487304,0.13774185180664061 -0.2448873996734619,0.2741201162338257 l-0.5347158432006835,0.8667754173278809 -1.8075832366943358,2.0284969329833986 l-1.3303431510925292,3.4940673828125 -1.0099401473999023,2.927381706237793 l-0.2541692018508911,1.7573017120361327 1.1198480606079102,1.6598222732543946 l1.6356403350830078,1.252260398864746 1.9296583175659179,-0.2479180097579956 l2.0590435028076173,-0.42667407989501954 1.8077278137207031,-0.3708075284957886 m0.1314021587371826,-10.391460418701172 l0.3982023000717163,-0.3154457092285156 0.16440428495407106,-0.39667792320251466 l1.1143558502197266,-0.12368688583374024 1.9338371276855468,0.34195139408111574 l2.0368345260620115,0.10538796186447144 2.5260602951049806,0.7323836326599121 l3.0090150833129883,0.3654103517532349 2.9277008056640623,0.11529502868652344 l2.6869781494140623,-0.08559090495109559 2.578545570373535,0.4998794078826904 l2.3714454650878904,0.5669403076171875 1.3041781425476073,0.45241074562072753 m-3.3312957763671873,-5.67020263671875 l-0.9386360168457031,-0.24483566284179686 -0.6396134376525879,0.5224639892578125 l-0.8147912979125976,1.3928561210632324 -1.2949581146240234,1.4672327995300294 l-1.29168701171875,2.194921112060547 -0.8801295280456543,2.3428531646728517 l-0.5676214218139648,1.7777896881103517 0.23676905632019044,1.3745455741882324 m24.688009643554686,-5.783334350585937 l-0.2634014844894409,-0.09402910470962525 -0.7793069362640381,-0.3462439775466919 l-1.6781614303588868,-0.3153254747390747 -1.5832521438598632,0.8600677490234375 l-1.6906362533569337,1.7753273010253907 -1.706606101989746,1.5193753242492676 l-0.9827259063720704,1.9683355331420898 -0.04344885349273682,1.1274967193603516 l0.7750391006469727,0.601408576965332 1.0999509811401367,-0.16643948554992677 l1.9165571212768555,-0.6106636047363281 2.2547712326049805,-1.045321273803711 l1.6996362686157227,-1.8073715209960937 1.9570663452148438,-1.2754974365234375 l0.7301584243774414,-1.555950927734375 0.5948020935058593,-0.6073570728302002 l-0.32186384201049806,-0.07818493843078614 -0.570817232131958,-0.0165660560131073 l-0.28964977264404296,1.1691076278686523 -1.1021142959594727,0.9812339782714844 l-0.6901732444763183,1.232517623901367 -0.10153701305389404,1.022313690185547 l1.076992130279541,1.153294563293457 1.3636321067810058,-0.13909995555877686 l2.4395538330078126,-0.1160081148147583 2.8307876586914062,-0.7678368091583252 l2.8582162857055664,-1.856133270263672 3.3048786163330077,-1.7419139862060546 l2.968551445007324,-1.9075355529785156 2.8796688079833985,-1.3675585746765138 l2.0630796432495115,-0.7021022319793702 0.7861825942993164,-0.4822911262512207 l0.3875767707824707,0.4112292766571045 -0.2125298261642456,0.6654996871948242 l-1.018019676208496,1.3625377655029296 -1.25205659866333,2.0978302001953124 l-1.9444913864135742,2.06575927734375 -1.559858798980713,2.759592819213867 l-1.4978708267211913,2.4811126708984377 -1.587437057495117,1.898656463623047 l-1.1230058670043945,1.8193002700805665 -0.5231724739074707,1.701561737060547 l-0.8605965614318848,0.9435903549194335 -0.43540778160095217,0.5149534225463868 m1.5419496536254882,-11.981819915771485 l-0.5000245571136475,0.7809677124023438 -0.5897908210754395,1.6112112045288085 l-0.7752145767211914,1.705202865600586 -0.3737940788269043,2.0087373733520506 l0.16668181419372557,2.3942588806152343 0.7765074729919433,1.9077640533447267 l1.6607120513916016,2.10303955078125 2.057925224304199,0.9168303489685059 l2.75647087097168,1.0210891723632813 2.5534008026123045,0.314882755279541 l1.967322540283203,-0.7026479721069336 2.321840286254883,-0.42409753799438477 l1.9846641540527343,-0.8481914520263671 1.7030204772949218,-1.0593791961669923 l0.8509737014770508,-1.6722867965698243 0.19850871562957764,-2.271968650817871 m-8.763970184326173,-20.38463134765625 l0.45536317825317385,0.13840776681900024 0.27454092502593996,0.15905361175537108 l0.5655488014221192,0.39617371559143066 1.0425336837768555,1.2125030517578126 m12.391358947753906,1.1889171600341797 l-0.1275805115699768,1.1011809349060058 0.08203447461128235,2.921988677978516 l0.04896776676177979,2.972059631347656 0.3767180681228638,3.612134552001953 l0.5075339794158935,4.009600830078125 0.6336647033691406,3.9056251525878904 l0.4093459129333496,3.066768455505371 0.806582260131836,2.73873233795166 l0.9626875877380371,1.6625696182250977 1.4595979690551757,1.1886420249938965 l1.2911321640014648,0.6688758850097656 0.8033551216125489,-0.3805579900741577 m0.6627306461334228,-6.560514831542969 l-0.14633911848068237,-0.2719279289245605 0.4955793857574463,-0.44529924392700193 l0.7736359596252441,-0.9355765342712402 0.5574821949005127,-1.7387733459472656 l1.0652804374694824,-1.4046899795532226 1.1359854698181153,-1.1931798934936524 l0.9613414764404297,-1.6301410675048829 0.767552375793457,-1.566723918914795 l0.6224427223205566,-1.7407854080200196 0.2689028739929199,-0.9912227630615235 l0.08422344326972961,-0.13170013427734376 -0.10146868228912354,-0.11468361616134644 l-0.4719223499298096,0.4692195415496826 -1.0622349739074708,1.1433525085449219 l-0.9608991622924805,1.738050651550293 -0.6950482845306396,2.0701148986816404 l-0.25519964694976804,2.3860214233398436 -0.14627182483673096,2.128860664367676 l0.4811872959136963,2.0547256469726562 0.7275008678436279,1.4430838584899903 l0.8667256355285644,1.0495288848876954 1.6775665283203125,0.9491945266723633 l1.9811641693115234,0.32588834762573243 2.2306396484375,-0.18945854902267456 m16.29228057861328,-15.161660766601562 l-0.8977110862731934,-0.43772058486938475 -0.8609560012817383,0.14841804504394532 l-1.2425058364868165,-0.0573881983757019 -1.0125225067138672,1.2126710891723633 l-1.4317217826843263,0.8820648193359375 -1.3611326217651367,1.1550342559814453 l-0.9253182411193848,1.117671585083008 -0.5110755443572998,0.6435861587524414 l0.565912914276123,1.4058732986450195 1.4220477104187013,0.9457239151000977 l1.8323156356811523,0.6388490200042725 2.603664779663086,0.9841277122497558 l2.366061782836914,1.222886848449707 1.896224021911621,1.0039153099060059 l1.5826468467712402,1.1024565696716309 0.9910789489746094,1.056134033203125 l-0.11508606672286988,0.6351255893707275 -0.6009903907775879,0.9534505844116211 l-0.9063672065734864,1.349564552307129 -1.839775276184082,0.3163459777832031 l-2.023399543762207,-0.0012528383173048495 -2.030353546142578,-0.10831218957901001 l-2.599106216430664,-0.7791486263275147 -1.8486391067504884,-0.5353002548217773 l-1.2360353469848633,-0.7375040054321289 -0.7613513469696045,-1.2829185485839845 l0.040783625841140744,-1.198736572265625 0.3184973239898682,-1.6254657745361327 m16.2887451171875,-18.902330017089845 m-0.877571964263916,0.808673095703125 l-0.2980057716369629,1.3821582794189453 -0.35921666622161863,1.8813457489013672 l-0.09667407274246216,2.840579605102539 -0.4325850486755371,2.7064390182495117 l-0.0220841184258461,3.4580608367919923 0.7832448482513428,3.925539016723633 l0.46500821113586427,3.4414161682128905 0.15037288665771484,2.6933589935302735 l0.3819152355194092,2.6135379791259767 0.31986093521118164,1.943566131591797 l0.30486652851104734,1.0360982894897461 m-7.410672760009765,-13.409147644042969 l0.04287685453891754,0.0643733263015747 0.6935120105743409,-0.07374745607376099 l1.6243341445922852,0.10259045362472534 2.8796001434326173,0.2124866008758545 m9.062911987304688,1.794331169128418 l0.4490362167358398,2.361285400390625 -0.0894295632839203,0.9014047622680664 l0.11052540540695191,1.0987417221069335 0.04689736962318421,1.0642955780029297 l0.29668288230895995,1.2365484237670898 -0.07558461427688598,0.5780280113220215 l-0.05183570384979248,1.0808948516845702 -0.1844999074935913,0.26422944068908694 l-0.21766314506530762,-0.3426386833190918 -0.3504880666732788,-0.6948649406433105 l-0.28196063041687014,-1.495134162902832 0.08540642857551575,-1.3956333160400392 l-0.10081262588500976,-2.2555912017822264 0.40929646492004396,-1.3212726593017579 l0.2691896200180054,-1.8836004257202148 0.5740297317504883,-1.6085241317749024 l1.2110556602478026,-1.1556936264038087 1.455954360961914,-0.6498395919799804 l1.3033092498779297,-0.7916291236877442 1.9792699813842773,0.3498430013656616 l1.4558304786682128,-0.07500386834144593 1.6013614654541015,0.37458200454711915 l1.400688648223877,0.4305415630340576 1.9073806762695313,0.5341797351837159 m10.835112762451171,3.1754405975341795 l-0.17047085762023925,0.00810697078704834 -0.018070296943187715,-0.26673054695129395 l-0.05332325696945191,-0.15080316066741944 -0.9365094184875489,-0.8656320571899414 l-1.365404987335205,-0.8852353096008301 -1.4981212615966797,-0.796006441116333 l-1.7726139068603515,-0.3922109127044678 -1.391467571258545,0.18211650848388672 l-1.4693203926086427,0.5461124897003173 -1.296480369567871,0.9645915985107422 l-0.8938466072082519,1.7439958572387695 -0.738600492477417,1.7583498001098632 l0.16302573680877686,1.923919677734375 0.9809836387634278,2.0243648529052733 l1.0624035835266112,0.2648221254348755 2.2216148376464844,0.8021450996398926 l2.1115325927734374,-0.1917658805847168 2.037318229675293,-0.5150005340576171 l1.5617977142333985,-0.9409834861755371 1.2113033294677735,-1.058138656616211 l0.9207167625427246,-0.2099395990371704 0.037992841005325316,-0.13432722091674804 l0.07568252682685853,0.30488488674163816 0.28688249588012693,0.5245161056518555 l-0.4199575424194336,0.5834943771362304 0.0891202986240387,1.9271127700805664 l0.7916120529174805,1.9023513793945312 0.9624004364013672,1.7354652404785156 l1.2434500694274901,1.427072525024414 1.5681476593017578,1.24727783203125 l1.4396535873413085,0.6476250171661377 2.020774078369141,0.11950955390930176 l1.9359663009643555,-0.36734704971313475 1.6968795776367187,-1.1019639015197753 l1.5147957801818848,-1.3124375343322754 1.3495377540588378,-1.636390495300293 m1.5757513046264648,-5.595777893066407 l-0.755494213104248,-0.07022956609725953 -0.5467376708984375,0.1448871374130249 l-0.2862065076828003,0.5241274833679199 -0.26923260688781736,0.9784839630126954 l-0.14070532321929932,1.178819179534912 0.13569726943969726,1.370920753479004 l0.5309048652648926,1.1350022315979005 1.1155848503112793,1.0412325859069824 l1.6578147888183594,1.4315729141235352 1.9187578201293944,0.5834035873413086 l2.1098730087280275,-0.21085743904113768 2.2022377014160157,-0.6713986873626709 l2.7506839752197267,-0.774785327911377 1.7004915237426759,-1.7038097381591797 l1.729545783996582,-1.715428352355957 0.9398460388183594,-2.1401483535766603 l0.22540905475616455,-1.2510623931884766 -0.15802031755447388,-1.652410125732422 l-0.2093116044998169,-0.8157791137695313 -0.5113775253295898,-0.5941372394561768 l-0.17078726291656493,0.08187680244445801 -0.3189681053161621,-0.20282795429229736 l-0.31748194694519044,0.6385962963104248 0.38968183994293215,1.5035296440124513 l0.7031149387359619,2.2677471160888674 0.6496328830718994,1.87860107421875 l0.49382758140563965,1.4556398391723633 0.9504049301147461,2.0211793899536135 l0.4364458560943604,1.0978450775146484 0.4563902854919434,1.0950094223022462 l0.4996366024017334,0.3267406225204468 0.5286108016967773,0.16739118099212646 m13.301600646972656,-11.714968872070312 l-8.140236604958773e-05,-0.10829024314880371 0.04195835590362549,0.1565814733505249 l-0.32964458465576174,-0.018756026029586793 -0.08255895972251892,0.6844230651855469 l-0.46081953048706054,1.283596897125244 -1.1322083473205566,0.8943188667297364 l-1.323806381225586,1.3155341148376465 -0.9942844390869141,1.750948715209961 l-1.1206878662109374,1.4827289581298828 -0.6733079433441163,1.4563474655151367 l0.11155364513397217,1.6644332885742188 0.582329797744751,0.14270304441452025 l1.2244263648986817,-0.09599051475524903 1.7753541946411133,-0.1729310631752014 l1.734520721435547,-1.3855159759521485 1.5927643775939941,-1.643314743041992 l1.5947742462158203,-1.8935733795166017 1.2323474884033203,-1.4917306900024414 l0.6588164329528808,-0.8584613800048828 -0.03355375230312348,-1.1314580917358399 l0.026127126812934876,-0.6451239109039306 0.16466362476348878,0.23062410354614257 l0.05478810667991638,0.08183271884918213 -0.3486947774887085,-0.2889578342437744 l0.04784880578517914,0.5496363639831543 0.45880303382873533,1.4803556442260741 l0.6903245925903321,1.6213924407958984 0.5118401050567627,1.3517646789550781 l0.8084005355834961,1.8741609573364257 0.5426843166351318,1.3891095161437987 l0.8749431610107422,1.760296630859375 0.7398106575012207,0.9480039596557617 l0.6012330055236816,0.5980101585388183 0.505890941619873,0.6721654415130616 l0.26005845069885253,-0.29248795509338377 0.2332996606826782,-0.14759345054626466 l0.05176811218261719,-1.0245591163635255 0.8657303810119629,-0.9470952033996582 l0.6157403945922851,-1.5060565948486329 1.0155683517456056,-1.612677001953125 l1.2765584945678712,-1.5595657348632812 1.5956965446472169,-1.5806832313537598 l1.8764118194580077,-1.5917817115783692 1.9429481506347657,-1.3678756713867188 l1.7193567276000976,-0.742497444152832 1.0242292404174804,-0.6811708927154541 l0.5849098682403564,-0.27474136352539064 0.11843185424804688,0.04450003802776337 l-0.04909416437149048,-0.06335328817367554 -0.39788663387298584,0.00923008769750595 l-0.23907310962677003,0.6854499816894531 -1.4565416336059571,0.11721447706222535 l-0.6927907943725586,0.8276134490966797 -1.2201099395751953,0.9910037994384766 l-0.8112628936767579,1.5613970756530762 -0.5654182434082031,1.724202537536621 l-0.48021512031555175,1.309812355041504 0.09644167423248291,1.773452377319336 l0.524761152267456,1.4267024040222167 0.42059893608093263,0.6139854907989502 l0.8344725608825684,0.7050132274627685 1.1978246688842773,0.20435950756072999 l1.0427539825439454,-0.14267396926879883 1.5064844131469726,-0.4402782440185547 l1.3813658714294434,-0.706955862045288 0.833008861541748,-1.3969455718994142 l1.0342180252075195,-0.9535262107849121 0.4108473777770996,-1.9432596206665038 l0.6973219394683838,-1.127833938598633 0.26881358623504636,-0.6596845626831055 l-0.12861937284469604,-0.8451697349548339 0.1519461989402771,0.027498739957809448 l0.04960532486438751,0.14268648624420166 -0.05165278911590576,0.10670031309127807 l-0.001333619374781847,0.1212776780128479 -0.07660866379737855,0.29439582824707033 l0.31366724967956544,1.4804027557373047 -0.4241346836090088,0.9693564414978028 l0.21983654499053956,1.4294994354248047 0.13293498754501343,1.0196931838989258 l0.5660748958587647,1.1456310272216796 0.8687713623046875,1.0257472038269042 l0.8971898078918457,0.9182680130004883 0.2830041885375977,0.11440427303314209 m6.766039276123047,-8.28563232421875 l0.27521090507507323,-0.2920207500457764 0.10253612995147705,-0.4586460113525391 l0.16562845706939697,0.18840689659118653 0.04640591740608215,-0.015562257170677185 l-0.39106459617614747,-0.5125796318054199 -0.6117771148681641,-0.5410374641418457 l-1.119300079345703,-0.008566512167453766 -1.5395689964294434,0.7279842376708985 l-1.7445413589477539,0.8672994613647461 -1.663764762878418,1.2655816078186035 l-1.7519126892089845,1.2928594589233398 -1.049769973754883,2.011691856384277 l-0.298868465423584,2.048359680175781 0.32947349548339844,1.8865676879882813 l0.9832822799682617,1.5391538619995118 1.5987900733947753,1.0725934982299805 l2.1393129348754885,0.5662431716918945 2.6218215942382814,-0.5440003871917725 l2.3109989166259766,-1.0246482849121095 2.4255912780761717,-1.3288846969604493 l1.5685099601745605,-1.7618274688720703 0.5248712539672852,-2.3795089721679688 l0.6327497482299804,-1.76380615234375 -0.6486809730529786,-1.6463851928710938 l-0.8707426071166993,-0.8727489471435547 -1.284335994720459,-0.23654334545135497 l-1.3932552337646484,-0.23848934173583985 -1.1621759414672852,-0.02889513373374939 m6.280644226074219,-2.108352470397949 l0.11015172004699707,1.3737058639526367 -0.23937134742736815,1.6014793395996094 l-0.18440210819244385,2.08365535736084 -0.06463510394096375,1.7117677688598634 l0.5264910697937012,1.7658815383911133 0.8346981048583985,1.1536253929138183 l1.391512107849121,0.7703615188598633 1.5498963356018067,0.7818450450897216 l1.5053825378417969,-0.2729970932006836 1.5499402046203614,-0.7746247291564942 l1.5798210144042968,-1.2862147331237792 1.0418063163757325,-2.6352407455444338 l1.3386066436767579,-2.3059162139892577 0.22379212379455565,-3.0639644622802735 l0.30695648193359376,-2.375761795043945 -0.44037089347839353,-1.9323118209838868 l-0.445952844619751,-1.3838794708251954 -0.6123817443847657,-0.799714469909668 l-0.549152135848999,-0.06940362453460694 -0.5623652458190918,0.05956525206565857 l0.13433867692947388,1.5192017555236816 0.023531770706176756,2.2094207763671876 l0.1388380527496338,2.0930580139160155 0.299814510345459,2.440740776062012 l0.9414701461791992,2.5407981872558594 1.0955920219421387,2.0721935272216796 l0.8442925453186035,1.4415721893310547 1.0876388549804688,0.9119713783264161 l1.7338279724121093,1.347446823120117 1.1021437644958496,-0.775636863708496 l1.4725722312927245,-1.5447854042053222 1.9458187103271485,-2.0699346542358397 m9.949005889892579,-4.606169128417969 l0.7612582206726074,0.316780686378479 0.2841139078140259,-0.1986856460571289 l0.30597221851348877,-0.5114061832427979 0.6131391525268555,0.0018232230097055436 l-0.33711609840393064,-1.1333358764648438 -0.4838853359222412,-0.9587532043457031 l-0.697976541519165,-0.5924933433532715 -1.8236507415771483,-0.9173406600952149 l-1.5062469482421874,-0.2858730316162109 -1.862282943725586,-0.10746265649795532 l-1.6118289947509765,0.4683420658111572 -1.2936948776245116,1.4967026710510254 l-1.3679431915283202,1.8578683853149414 -0.7557015419006348,2.0435279846191405 l-0.4581192970275879,1.3856857299804688 0.5150905132293702,1.7042108535766602 l1.1699620246887208,1.0573283195495606 1.4130098342895507,0.699781847000122 l1.311415195465088,-0.6458735942840577 1.9032350540161134,-0.6342847347259521 l2.3266725540161133,-0.9675770759582519 1.4433595657348632,-1.2506922721862792 l1.118967056274414,-1.0581356048583985 0.1530928373336792,-0.8601658821105957 l0.05788570046424866,0.18145602941513062 0.06450622081756592,0.11395463943481446 l0.12346367835998535,0.5725015640258789 -0.35722448825836184,1.9430431365966796 m15.819866943359376,-32.31306762695313 l0.39511957168579104,0.31261253356933594 0.023307642340660094,0.274348783493042 l0.29580667018890383,1.6321901321411132 -0.20580015182495118,1.8924896240234375 l0.41987433433532717,2.720748710632324 -0.21919937133789064,3.068850517272949 l0.5564913272857666,3.8580482482910154 0.4190375804901123,4.128260803222656 l-0.16481497287750244,10.682528686523437 0.01063240021467209,1.880103874206543 l0.606264591217041,1.694169807434082 -0.06111915111541748,0.7576356410980225 l-0.016405922174453736,0.6271971702575684 -0.07014400959014892,0.11355127096176147 l-0.7553904056549072,-0.01850586533546448 m-5.652975463867188,-8.108933258056641 l0.38954949378967285,-0.008218777179718018 0.7610927581787109,-0.1278943419456482 l1.3139360427856446,-0.5302245140075683 1.3937963485717773,-0.6674819946289062 l2.120796012878418,-0.4601700782775879 2.0203411102294924,-0.6170607566833496 l1.6613113403320312,-0.7541680335998535 1.5855559349060058,-0.8694246292114258 l1.3284405708312987,-0.08350628614425659 0.6635334491729736,-0.02530807852745056 l0.38873245716094973,0.24924216270446778 0.35791668891906736,1.059135913848877 l0.22970919609069823,1.9623458862304688 0.03997109830379486,2.2478952407836914 l0.027886223793029786,1.7885108947753907 0.7450976371765137,1.6400997161865234 m7.974436187744141,-4.472908401489258 l0.6291194915771484,-0.3380255937576294 0.3992143154144287,-1.0355705261230468 l-0.1537860155105591,-1.4741978645324707 -0.06996779441833496,-0.9324048042297364 l-0.5414687156677246,-0.5609511852264404 -1.1046905517578125,-0.4229714393615723 l-1.329481315612793,0.025097638368606567 -1.046721839904785,0.9815773010253906 l-0.8713627815246582,2.4238780975341796 -0.32828421592712403,2.6610708236694336 l0.24889328479766845,3.930843734741211 0.3612414598464966,2.9550712585449217 l0.9464632034301758,1.704056739807129 1.724541473388672,1.0263298988342284 l2.100053596496582,-0.08197978138923645 2.83205623626709,-0.19679372310638427 l2.1154775619506836,-1.0182207107543946 2.031452941894531,-0.6958470344543457 l1.805636215209961,-0.3160226821899414 -0.37180051803588865,-1.4043850898742676 l0.6771843910217286,0.14048062562942504 -0.41908888816833495,-0.4349557876586914 l-0.08399720191955566,0.029653751850128175 m17.824607849121094,-10.8179931640625 l0.07818586826324463,0.27716822624206544 0.36610779762268064,1.3631900787353515 l0.1130253791809082,2.205631065368652 -0.01878010630607605,2.1743114471435545 l0.041319546103477475,1.7393024444580079 0.8987056732177734,1.6679351806640625 l1.1330796241760255,1.6973953247070312 0.6979918956756592,0.8493364334106446 l0.8477815628051758,0.5542690277099609 0.492936897277832,-0.07814564704895019 l0.2941063404083252,-0.9377893447875977 0.247660493850708,-2.056565856933594 l-0.29672536849975584,-2.5273197174072264 -0.07591894865036011,-2.5000410079956055 l-0.2852672338485718,-2.2163482666015626 0.02984178066253662,-1.1425146102905273 l0.14144983291625976,-0.3894844055175781 0.1272888660430908,0.14107288122177125 l-0.009483137726783752,0.24376139640808106 0.23906474113464354,1.869775390625 l0.844509506225586,2.665266418457031 0.8935688018798829,2.196812629699707 l1.395771598815918,1.911573600769043 1.3658181190490724,1.4191527366638184 l1.1239418029785155,0.6912877559661865 0.5322375297546387,-0.2969031572341919 l0.2654592514038086,-0.48528165817260743 0.33308684825897217,-2.2677011489868164 l-0.23749892711639403,-2.89852294921875 -0.1801612138748169,-2.5203105926513674 l0.1753227710723877,-2.292164611816406 m5.527991485595703,-6.771700286865235 l1.1968088150024414,0.6028907775878907 0.5665960788726807,1.171469783782959 l0.9253666877746582,2.1409908294677735 1.1602511405944824,3.5200294494628905 l0.6265075206756592,3.0756044387817383 0.40792050361633303,3.195459175109863 l-0.1254416823387146,1.6779024124145507 0.23284707069396973,1.2265338897705078 l0.09370881915092469,0.006570462137460709 -0.06168212890625,-0.3691566467285156 l-0.2496945381164551,-1.4735185623168945 -0.04649139940738678,-1.335329818725586 l-0.10027124881744384,-1.7936580657958985 -0.18928728103637696,-1.2339197158813477 l-0.04245375394821167,-0.5710196018218994 0.33209526538848877,-0.28066325187683105 l0.3705765247344971,-0.038589578866958615 0.8526379585266113,0.12319275140762329 l1.3889511108398438,0.4823763370513916 1.3092687606811524,0.17733354568481446 l1.4045624732971191,0.08802757263183594 1.1179198265075683,-0.267897629737854 l0.4919705867767334,-0.6765552520751953 0.6716518878936768,-0.06883341073989868 l-0.5452778339385986,-1.0433493614196778 0.030639275908470154,-0.08356300592422486 l-0.04786462783813476,0.3121345043182373 -0.043416273593902585,0.14206902980804442 l0.0033978890627622605,1.3103686332702638 0.1408797025680542,1.4773884773254395 l0.6596294403076172,1.8655553817749024 0.7746875762939454,1.7337963104248046 m-0.04469397366046905,-10.818970489501954 l0.4649772644042969,0.2671530723571777 -0.1311625838279724,-0.12103036642074586 l0.16674466133117677,-0.15689268112182617 0.6716986656188965,-0.21924228668212892 m8.150694274902344,0.7070278644561767 l0.021923504769802094,0.7554228782653809 -0.008255998790264129,0.9443370819091796 l0.44778976440429685,1.3556647300720215 0.5640380859375,1.4877158164978028 l0.39963274002075194,1.7156948089599608 -0.010811293125152588,0.8407879829406738 l0.09827611446380616,0.5568056106567383 0.20787763595581055,0.17315660715103148 l0.1300593614578247,0.11119642257690429 -0.3253695011138916,-0.6755313873291016 l-0.18965853452682496,-0.9479307174682617 -0.12456324100494384,-1.5965142250061035 l0.12560898065567017,-1.5375880241394042 0.5445821285247803,-1.480122184753418 l0.8037815093994141,-1.2368791580200196 0.9678468704223633,-0.9610265731811524 l0.8800162315368653,-0.6514119625091552 0.9673009872436523,-0.10436080694198609 l0.6117374897003174,0.22486319541931152 0.49953885078430177,1.4351916313171387 l0.45522522926330566,1.6797012329101562 0.2822216033935547,1.734952163696289 l0.48511452674865724,1.5651376724243165 0.9086626052856446,1.4929529190063477 l0.3355431079864502,0.4023739814758301 0.3329096794128418,-0.09183802604675292 l0.8829062461853028,-0.0012818583287298678 0.42821316719055175,-1.3247610092163087 l1.2095955848693847,-1.1041803359985352 0.4047979831695557,-1.8996196746826173 l1.1228748321533204,-0.930181884765625 0.6544215202331543,-0.6786849975585938 l0.5676523208618164,-0.03006777763366699 0.37657310962677004,0.31178989410400393 l0.16121853590011598,0.3961448669433594 0.39751324653625486,0.9600825309753418 l0.19434536695480348,1.2653388023376464 0.12611109018325806,1.7131855010986328 l0.6494333744049072,1.636274528503418 0.8773447036743164,1.0674284934997558 m13.512059020996094,-8.500077819824218 l0.07299728393554687,-0.9629186630249024 -0.4378624439239502,-0.3481891632080078 l-0.6102705478668213,-0.39793643951416013 -1.1258834838867187,0.6328399181365967 l-1.013027286529541,1.146474266052246 -1.0484933853149414,1.544715118408203 l-0.7481930255889893,2.244529914855957 -0.0377365380525589,2.414350700378418 l0.4939777374267578,1.384018898010254 0.9805270195007324,0.4557047843933105 l1.9871761322021484,-0.27254648208618165 1.5580484390258789,-1.179057502746582 l1.720001220703125,-1.5954718589782715 0.8077833175659179,-1.8465763092041017 l0.16643967628479003,-1.1939781188964844 0.4181023120880127,0.1313222050666809 l-0.14111595153808593,0.19426776170730592 0.5507614135742187,1.7802850723266601 l0.6438697814941406,1.6966768264770509 0.341614818572998,1.163078498840332 l1.0179047584533691,1.1131982803344727 1.1427902221679687,0.5733596801757812 l1.085451889038086,0.19071593284606933 -0.0826785683631897,-0.941309642791748 m-1.4916881561279296,-17.313279724121095 l-0.19906603097915648,0.5013201236724854 0.07432444095611572,0.9356030464172364 l0.658902359008789,1.9234209060668945 0.43204221725463865,2.2374685287475584 l1.2747097969055177,2.594394874572754 1.0219524383544922,1.9755863189697265 l0.7794492244720459,2.3297714233398437 0.2863870620727539,1.1518442153930664 l0.061374104022979735,0.4932807445526123 0.3052425146102905,-0.12237492799758912 l0.6798103332519532,-0.033608025312423705 1.1663915634155273,-0.936336612701416 m-1.728127670288086,-4.602333450317383 l0.10376501083374023,0.15010383129119872 -0.0009392134845256806,0.6190310001373291 l-0.7588518142700196,1.1122020721435546 0.27273945808410643,1.583907699584961 l0.21117911338806153,1.0528461456298828 1.955498504638672,0.8859339714050293 l1.36539888381958,0.4007897853851318 2.5947057723999025,0.4424694538116455 l2.1942207336425783,-0.2870601415634155 2.2245384216308595,-0.5416074275970459 l1.5451726913452148,-1.1272068977355958 1.2823933601379394,-1.1801753997802735 m0.44504365921020506,-10.493119812011718 l-0.07585735321044922,0.182123064994812 0.5842120170593261,1.112361526489258 l0.12342745065689087,1.6871402740478516 0.2642666816711426,2.411208915710449 l0.43706841468811036,2.686871337890625 0.6508726119995117,2.4331235885620117 l1.2545536041259766,2.086729049682617 0.5235555171966553,1.0203341484069823 l0.826224422454834,0.6439760208129883 0.5528252124786377,0.10954766273498535 l0.851598072052002,-0.0738992989063263 0.18771753311157227,-1.2122314453125 m-6.456864929199218,-13.016644287109376 l-0.02771834135055542,-0.09567799568176269 0.10217806100845336,0.03426888287067413 l0.3658981084823608,0.20965051651000977 0.29795398712158205,0.41344265937805175 l0.8921044349670411,0.6050269126892089 0.9432085990905762,0.453551721572876 l2.297563171386719,0.7723761081695557 1.3796577453613281,0.13848649263381957 l2.3484182357788086,0.22012057304382324 2.030775451660156,-0.2832260370254517 l2.4439065933227537,-0.450573205947876 2.3394765853881836,-0.8444860458374024 m39.62295227050781,-16.783209228515624 l-0.1868844985961914,-0.7477981567382812 -1.3726709365844727,-0.29878690242767336 l-2.096967887878418,0.01812741756439209 -2.3694860458374025,0.9994677543640137 l-2.3934185028076174,1.9050481796264649 -1.4610635757446289,2.748149108886719 l-0.7380838394165039,3.7295318603515626 -0.5281229019165039,4.935753631591797 l0.33462598323822024,5.601905822753906 1.1605995178222657,5.684738540649414 l1.509350299835205,4.480334854125976 1.4241552352905273,3.7203845977783203 l1.5215138435363769,2.5108221054077147 0.36226305961608884,1.0060844421386719 l0.1542154312133789,0.11057136058807374 -0.10810437202453613,-0.20076375007629393 l-0.2548030376434326,-0.9901382446289062 -1.1980440139770507,-2.4486099243164063 l-1.1832403182983398,-2.76183967590332 -2.187353515625,-2.972226142883301 m-7.938780975341797,-6.674140167236328 l-1.1544437408447266,-0.4478499412536621 0.24509994983673095,-0.19406222105026244 l1.2502744674682618,0.02269950807094574 2.6900739669799805,-0.1684575319290161 l2.9633811950683593,0.2662403345108032 3.0115976333618164,0.41009793281555174 l2.9182512283325197,0.5669477462768555 2.6726566314697267,0.5580948829650879 l2.3169977188110353,0.40521583557128904 2.0035409927368164,0.19746775627136232 m28.21644287109375,-2.796176528930664 l-1.2029923439025878,-0.6063785552978516 -1.8878076553344727,-0.08731720447540284 l-1.6856201171875,0.45249600410461427 -1.1784196853637696,0.9917997360229492 l-1.2248966217041015,2.0272043228149412 0.36724057197570803,2.6385250091552734 l1.224307155609131,2.191203308105469 2.170894241333008,1.4312848091125487 l2.6954957962036135,0.5909875869750977 3.2499114990234377,0.01626552492380142 l2.6741161346435547,-1.0958008766174316 2.5812379837036135,-1.685845947265625 l1.3803528785705566,-2.8077136993408205 1.876319122314453,-2.617831802368164 l0.7367241859436036,-2.7257221221923826 -0.17804967164993285,-2.067437744140625 l-0.7437875270843506,-1.9473281860351563 -0.46319918632507323,-1.277952003479004 l-1.167183017730713,-0.6483542919158936 -0.6792813301086426,0.27454166412353515 l0.0831419587135315,1.3966976165771485 1.0523324966430665,1.7592334747314453 l0.7091803550720215,1.8439044952392578 1.535022258758545,2.1142208099365236 l2.1116312026977537,1.5652798652648925 1.1553619384765625,0.8666718482971192 l1.4204290390014649,0.7758167266845704 0.8738557815551757,0.08652191758155822 l-0.13846898078918457,-0.12241194248199463 -0.12166497707366944,-0.22148416042327881 l-0.3969695806503296,-0.6961723327636719 -0.8022109985351562,-1.2280367851257323 l-0.4125057220458984,-1.134965991973877 -0.6347968101501464,-1.3415336608886719 l-0.2043219566345215,-0.8746060371398926 0.635501766204834,-0.7687119960784912 l0.35046660900115967,-1.1320640563964843 0.4225566864013672,-1.1127128601074219 l1.456415557861328,-0.7532811164855957 1.39375,-0.8950874328613281 l1.122035026550293,-0.7312848567962646 0.6523995399475098,-0.19905285835266112 l0.6114879131317139,0.03124983310699463 -0.15593831539154052,0.22237131595611573 l-0.12201935052871704,0.2117154836654663 -0.09304514527320862,0.3432225942611694 l0.36650238037109373,0.832759952545166 -0.17132644653320311,1.4013203620910644 l0.35292911529541016,1.9181020736694336 0.583864688873291,2.500851058959961 l0.13724178075790405,2.2118305206298827 0.07660099267959594,1.386430263519287 l0.28521065711975097,0.4743694305419922 0.40851397514343263,-0.10098533630371094 l0.499729061126709,-0.8218077659606934 0.866641616821289,-1.1249722480773925 m-3.139881896972656,-16.431967163085936 l-1.9359285354614257,-1.2160259246826173 -1.2802695274353026,-1.1313472747802735 l-0.31682894229888914,-0.43108539581298827 m11.963075256347656,9.471843719482422 l-0.32353506088256834,0.7696284294128418 -0.9299859046936035,0.8639676094055175 l0.27307901382446287,1.3397470474243165 " fill="none" stroke="black" stroke-width="1" /></svg>