<?xml version="1.0" encoding="utf-8" ?>
<svg baseProfile="full" height="139.86636734306813" version="1.1" width="851.7584128510207" xmlns="http://www.w3.org/2000/svg" xmlns:ev="http://www.w3.org/2001/xml-events" xmlns:xlink="http://www.w3.org/1999/xlink"><defs /><rect fill="white" height="139.86636734306813" width="851.7584128510207" x="0" y="0" /><path d="M25,94.69330212259668 m24.293060302734375,3.550883483886719 l0.1666494607925415,0.07087307572364807 0.2563460826873779,-0.0942457377910614 l-0.9494532585144043,-1.2542545318603515 -0.7231780052185058,-1.8781951904296874 l-0.4407947540283203,-2.485274887084961 -0.3484972953796387,-2.7231353759765624 l0.480635929107666,-2.5283737182617188 1.111537551879883,-2.3040952682495117 l2.1545337677001952,-2.0323171615600586 2.558890533447266,-1.491286277770996 l2.8100242614746094,-1.0378788948059081 2.7532880783081053,-0.045078223943710326 l2.673687744140625,0.8733562469482422 0.8387189865112304,0.9038155555725098 l0.2011326789855957,2.0637685775756838 -1.636025619506836,2.571344184875488 l-2.703975296020508,2.3866594314575194 -3.787291717529297,2.062212371826172 l-3.865102767944336,1.8866695404052733 -2.0579524993896485,1.0967053413391112 m9.958800506591796,-19.4806640625 l0.3548763275146484,-0.27478537559509275 0.7889540195465088,0.1547095537185669 l0.9574522972106934,0.15096454620361327 1.604387092590332,0.6250440597534179 l2.039021301269531,0.7078996181488038 1.9587791442871094,0.9629159927368164 l1.8397808074951172,0.6877703189849853 1.6700382232666016,0.7269092082977295 m38.979071044921874,5.688585662841797 l0.3962853908538818,-0.7529834747314453 -0.031546217203140256,-0.6781316757202148 l-1.3284138679504394,-0.890654468536377 -1.903053092956543,-0.43312573432922363 l-2.7066043853759765,-0.534465742111206 -2.7483842849731444,0.8177577972412109 l-2.6972532272338867,1.6164236068725586 -3.059943199157715,1.592724895477295 l-1.8829938888549804,2.18790283203125 -1.0888014793395997,2.1017829895019533 l0.08417658805847168,1.5393465042114258 0.8149200439453125,1.3309999465942384 l2.568325233459473,1.1338128089904784 2.8503419876098635,0.21580591201782226 l2.512139320373535,-0.7211817741394043 1.954979133605957,-1.2615994453430175 l2.5733062744140627,-1.5478425979614259 1.536182975769043,-2.448270797729492 l1.2590537071228027,-2.6895347595214845 1.197217082977295,-0.6391874313354492 l-0.01623774766921997,-0.2478022336959839 -0.3910811901092529,0.2613601922988892 l-0.4804419994354248,1.9556560516357422 -0.8884571075439454,2.906032752990723 l-0.3687381982803345,3.601836395263672 -0.14202009439468383,4.1273033142089846 l-0.2307952642440796,3.654067611694336 -0.022838038206100465,3.635590744018555 l-0.5700479030609131,2.8529720306396484 -0.6609055519104003,2.6200767517089845 l-1.2069664001464844,1.5643627166748046 -0.7387290000915527,1.2878709793090821 l-1.3517045021057128,-0.1619192361831665 -1.593278980255127,-0.6004328727722168 l-1.336545181274414,-0.851840591430664 -0.8727749824523926,-0.44150609970092775 l-0.8155295372009277,-2.5398977279663084 1.0606584548950195,-2.9894105911254885 l1.1440452575683593,-3.3394695281982423 2.0218582153320312,-2.8653263092041015 m15.091508483886718,-15.325593566894531 l0.4759404182434082,1.371868896484375 0.9876862525939941,0.6675834655761719 l1.7946432113647461,0.19554151296615602 1.4736923217773437,-1.39796142578125 l1.4028985977172852,-1.756373405456543 1.7604948043823243,-1.2961326599121095 l1.1177063941955567,-1.2471546173095702 0.42777309417724607,-0.9999218940734863 l-0.19782061576843263,-0.033289992809295656 -0.7437826156616211,-0.03810369372367859 l-1.8441932678222657,0.36572158336639404 -2.3081865310668945,1.7296154022216796 l-7.067813110351563,8.833840942382812 -0.8800934791564942,2.2387035369873045 l-1.1201421737670898,1.4452503204345704 0.2015836000442505,1.4845869064331054 l0.9135340690612793,0.9324909210205078 m37.66105651855469,-37.76436767578125 l-0.971433448791504,1.8928493499755858 -1.3389314651489257,2.280076026916504 l-0.6211519241333008,3.627560043334961 -1.2690263748168946,3.8802494049072265 l-0.26861181259155276,4.214984130859375 -0.8336018562316895,3.339340591430664 l0.37444162368774414,3.531245803833008 -0.07277247309684753,3.1164541244506836 l0.09584700465202331,2.363911437988281 0.2088914394378662,1.8334131240844727 l0.6148634433746338,1.1133073806762694 0.2156371831893921,-0.5376429080963134 l-0.10490823984146118,-1.4827974319458008 -0.7181136131286621,-2.862315368652344 l-0.8098133087158204,-3.418960952758789 -0.30662903785705564,-3.418331527709961 l-0.9166027069091797,-4.135622024536133 -0.7302418231964112,-3.854045104980469 l-0.8610918045043945,-3.7144233703613283 -1.5649876594543457,-3.277873229980469 l-2.2012565612792967,-2.617171859741211 -2.9366641998291017,-2.2160614013671873 l-3.7354591369628904,-1.4891334533691407 -3.318930816650391,-0.8485594749450683 l-2.926100158691406,-0.6013193130493164 -1.5110783576965332,-0.4251690864562988 l-0.43947739601135255,0.00968576893210411 0.3263976573944092,0.02122328579425812 l1.8764507293701171,-0.38847663402557375 m45.48250122070313,4.101461791992188 l1.1185927391052246,-0.22373852729797364 0.9373647689819335,0.05184410810470581 l0.07091007232666016,0.18325796127319335 -0.24014756679534913,-0.12499629259109497 l-1.1175786972045898,-0.44800605773925783 -2.026992416381836,-0.4089803695678711 l-1.8759799957275392,0.050834906101226804 -2.35921573638916,0.5700857162475585 l-1.939326858520508,1.1872416496276856 -1.3153100967407227,2.3150022506713865 l-0.6956741333007812,2.9498756408691404 0.5673377990722657,3.7446704864501954 l1.1223095893859862,3.28259162902832 1.6460306167602539,2.9835788726806642 l1.8889434814453125,1.6698707580566405 2.95233154296875,0.9320097923278808 l2.2285953521728517,-0.4259035587310791 2.833208465576172,-0.7440155982971192 l2.9226160049438477,-1.4054013252258302 1.7382400512695313,-2.3505680084228517 m11.673690032958984,-15.646563720703124 l-0.04916885793209076,0.14636449813842772 -0.6220442771911621,-0.3119999170303345 l-1.5170740127563476,-0.4245316982269287 -2.292510223388672,-0.4201395511627197 l-1.7264760971069335,-0.29720230102539064 -1.7474252700805664,0.5235519409179688 l-1.5441293716430664,1.51733341217041 -1.0741662979125977,2.0890762329101564 l-0.215362024307251,2.1901626586914062 0.8734640121459961,3.0748355865478514 l1.6686452865600585,2.813515472412109 2.165091705322266,2.183709716796875 l2.781263542175293,1.2926844596862792 2.8021753311157225,-0.08370793461799622 l2.303360176086426,-1.629513931274414 1.6826702117919923,-2.4062623977661133 l1.0476873397827149,-2.5661857604980467 -0.42549595832824705,-2.7570371627807617 l-0.9075531959533691,-2.3099239349365233 -0.7248251438140869,-1.4758820533752441 m10.64185028076172,4.82750244140625 l0.6710546016693115,-0.6711595058441162 0.23903822898864746,-0.8411042213439941 l-0.22038493156433106,-1.496181583404541 -0.5167315483093262,-0.9642898559570312 l-0.5122334480285644,-0.6897477626800537 -1.525888442993164,-0.2089552402496338 l-0.7295017719268799,1.1346517562866212 -1.541661834716797,1.6518062591552733 l-0.343274450302124,2.652808952331543 0.8818471908569336,2.859786033630371 l1.7330604553222657,1.8760398864746093 1.9906726837158204,0.7240325927734375 l2.8474142074584963,-0.4428523063659668 2.9737922668457033,-1.3839779853820802 l1.0675071716308593,-2.6902145385742187 0.6494908809661866,-3.2373355865478515 l-0.36251881122589114,-3.1623287200927734 -1.264146327972412,-3.165593719482422 l-2.0784090042114256,-2.4078609466552736 -1.9845661163330077,-0.9385138511657715 l-2.2506818771362305,-0.4535854339599609 -1.0780550003051759,0.5520315647125245 l-0.07344914078712464,0.6579456329345703 0.9822742462158203,1.713240623474121 m21.098373413085938,1.898658561706543 l-0.2544936895370483,-0.39561545848846436 -0.8005958557128906,-0.9184467315673828 l-1.674880599975586,-0.2529980897903442 -2.0146045684814453,0.16835534572601318 l-3.0864389419555662,0.3167810678482056 -2.7592241287231447,1.236463451385498 l-1.9916500091552733,2.204688835144043 -1.5866068840026855,2.652218818664551 l-0.349222469329834,2.2349939346313477 0.778257942199707,1.63560791015625 l2.2440044403076174,1.6041070938110351 2.136353302001953,1.2498733520507812 l2.1232883453369142,0.5663790702819824 1.5453203201293946,-0.1655505418777466 l1.9171306610107421,-0.7787999629974365 1.7986568450927733,-1.306282138824463 l1.8282724380493165,-1.697043228149414 2.398590850830078,-1.3102479934692384 l2.0298030853271483,-2.079532241821289 m22.3154541015625,-14.208631896972657 l-0.45357260704040525,0.09181686639785766 0.4076329231262207,0.16402560472488403 l-0.10627026557922363,-0.21548211574554443 0.1988905191421509,0.1680267333984375 l0.15275834798812865,0.12402892112731934 -0.3067627429962158,0.051045668125152585 l0.29353899955749513,0.3848681926727295 -0.09969990253448487,1.0632320404052735 l0.5450146675109864,2.109602165222168 0.12174835205078124,2.319596862792969 l0.5648022651672363,2.737147331237793 1.0232078552246093,2.9476341247558593 l0.8901702880859375,2.8462574005126955 0.8688935279846192,2.5944137573242188 l0.7918893814086914,1.862006378173828 0.36911439895629883,0.5765473365783691 l-0.2356731414794922,-0.31428823471069334 -0.14311800003051758,-1.9213146209716796 l-0.9803029060363769,-3.586471176147461 -2.280198860168457,-3.927973175048828 m-14.153317260742188,-14.732579040527344 l0.14424943923950195,-0.3931401014328003 0.19877469539642334,-0.5985983848571778 l1.478855514526367,-0.2645454406738281 2.038955497741699,-0.48511648178100586 l3.179682159423828,-0.23320887088775635 4.3169715881347654,0.0010089612565934657 l4.205077362060547,-0.17049766778945924 3.7616241455078123,-0.6732226371765136 l3.8414817810058595,-0.3203181266784668 2.3298419952392577,-0.19948172569274902 l1.573516845703125,0.27363755702972414 0.7217260360717773,0.20577213764190674 m-3.0893115997314453,1.40195894241333 l-0.7125065803527832,-0.09853845834732056 -0.1791798949241638,1.2299495697021485 l0.2743218183517456,2.145358848571777 0.9210536003112793,2.9422958374023436 l1.7200635910034179,3.766841506958008 1.5080157279968263,4.151002883911133 l1.2676383018493653,4.097563934326172 0.7982399940490723,3.151642990112305 l0.9716279983520508,2.4215585708618166 0.31028971672058103,1.1328147888183593 l-0.3293726921081543,-0.015753217041492462 0.07034391760826111,-0.2117640733718872 l-0.18178970813751222,-1.705202293395996 0.7570480823516845,-2.8487503051757814 l0.5907361507415771,-3.5921604156494142 1.3179359436035156,-2.6674430847167967 l1.755376434326172,-1.5389585494995117 0.7745168209075928,-0.23767781257629395 l1.068525505065918,0.598661231994629 1.962135124206543,1.9638593673706055 l2.1732200622558593,3.2834712982177736 1.8312931060791016,3.5617847442626953 l1.9399145126342774,3.1724737167358397 2.2610107421875,1.9435569763183593 l2.7249242782592775,0.599180793762207 3.091728401184082,-1.1723690986633302 l2.6966684341430662,-2.5290422439575195 2.6810300827026365,-3.4933822631835936 l1.6853635787963868,-3.969805908203125 0.3229220867156982,-3.746844482421875 l-0.2080254077911377,-2.5803945541381834 -1.4341882705688476,-1.3767314910888673 l-2.0560102462768555,-0.337350869178772 -2.278898239135742,1.1940942764282227 l-2.270478439331055,3.0045455932617187 -1.7894563674926758,4.35601806640625 l-0.04954579174518585,5.094916915893554 1.363721752166748,4.336962890625 l2.352640151977539,2.7714305877685548 3.3170547485351562,1.184746551513672 l3.789921188354492,-0.39804744720458984 4.432453536987305,-1.5399650573730468 l3.7955863952636717,-1.656601905822754 m24.309678649902345,-25.819561767578126 l-0.06486281752586365,-0.050957250595092776 -0.7437534332275391,3.0687210083007814 l-1.3315333366394042,5.313312149047851 -1.4775480270385741,6.924815368652344 l-1.0431303977966309,7.15662841796875 -0.9131908416748047,6.143826293945312 l0.20770277976989746,4.36396369934082 1.2183276176452638,1.9342140197753905 l1.9714542388916017,0.17247933149337769 2.439849090576172,-1.942011260986328 l3.4559181213378904,-3.6204967498779297 2.8222671508789063,-4.505084991455078 l2.070964813232422,-4.321799468994141 0.6850030899047852,-3.158613395690918 l-0.13056718111038207,-0.5011358261108398 -0.12575043439865113,0.6675085067749024 l-1.0456694602966308,2.323518753051758 0.47205548286437987,4.591590881347656 l0.40894370079040526,5.475010681152344 1.76470947265625,5.564603424072265 l1.5458407402038574,3.9719947814941405 2.1389385223388673,1.4397296905517578 l1.7318302154541017,-0.4219520092010498 1.6915523529052734,-2.8746410369873048 l2.066582679748535,-3.9804115295410156 1.3159390449523927,-4.796140670776367 l0.5302762508392334,-4.044726943969726 -1.4854277610778808,-3.4861095428466795 l-0.43103370666503904,-2.056820106506348 -0.06182482242584229,-0.9567460060119629 m9.84484405517578,-4.139402770996094 l0.5708647251129151,0.576470422744751 -0.7991317749023438,0.9149713516235352 l0.036150607466697696,2.403974914550781 0.14486640691757202,3.558371734619141 l0.9068507194519043,4.487665176391602 0.9297389984130859,4.394903182983398 l1.6926780700683595,2.767752838134766 1.2909021377563477,0.15712375640869142 l0.6546354770660401,-2.0090160369873047 1.1621667861938476,-3.803923797607422 l0.661911916732788,-4.571666717529297 0.08086272478103637,-4.052864837646484 m7.5709678649902346,-5.898035049438477 l0.5444012641906738,-0.032685375213623045 -0.05386167168617249,0.13252196311950684 l0.3256337642669678,1.7108282089233398 -0.021606646478176117,2.790477752685547 l-0.3401326179504395,4.179065704345703 0.02631322741508484,4.1204978942871096 l0.43892722129821776,2.9590456008911135 1.4355241775512695,1.307505989074707 l1.0555782318115234,0.03479659259319305 0.5484822273254395,-1.0853679656982422 l0.6298979759216309,-1.6143619537353515 m-4.049583435058594,-12.053659057617187 l0.14924967288970947,0.7589807033538818 -0.026970866322517394,1.3920445442199707 l0.29347445964813235,1.9652660369873047 0.4609684467315674,2.134708023071289 l0.7082455158233643,2.0146724700927736 0.792207908630371,0.6384979248046875 l1.5700846672058106,-0.24506959915161133 1.7166458129882813,-1.5837284088134767 l2.062658500671387,-2.537143325805664 1.278794765472412,-2.837199020385742 l0.1959666609764099,-2.0377328872680662 0.3723324775695801,-0.45380373001098634 l0.0009897511452436447,0.2424611806869507 0.34650249481201173,1.3044648170471191 l0.30337765216827395,2.7348175048828125 0.6953206062316895,3.5630992889404296 l1.065051555633545,4.016276931762695 0.9270776748657227,3.946420669555664 l1.3795692443847656,1.5930041313171386 m8.011575317382812,-16.59380340576172 l0.8687351226806641,-0.2264333486557007 -0.5369669914245605,0.14136121273040772 l-0.11147158145904541,1.1353166580200196 -1.0201363563537598,1.8519336700439453 l-0.03627734184265137,2.372361755371094 0.43429131507873536,2.8577205657958986 l1.883888053894043,2.824403762817383 1.6502460479736327,1.0633125305175781 l2.1755067825317385,0.20347697734832765 1.7714244842529296,-1.454453945159912 l1.6638175964355468,-2.7867631912231445 0.4421110153198242,-3.825652313232422 l-1.0787294387817383,-3.016106605529785 -1.3552528381347657,-2.13287467956543 l-1.3749118804931642,-1.2617999076843263 -0.6332569599151612,-0.3277746200561523 l-0.04373818933963776,0.21172795295715333 -0.1029657244682312,0.6659586429595947 l0.5151119709014893,1.3019591331481934 1.5887084007263184,2.014484405517578 m3.851314163208008,-0.8900929450988769 l1.8870620727539062,-1.390383529663086 0.0900968074798584,-1.4750657081604004 l-0.08473522663116455,-0.8901816368103027 -0.6378774166107177,-0.40585861206054685 l-1.4580118179321289,0.023337465524673463 -1.3217212677001953,1.4540470123291016 l-1.2843638420104981,3.060382080078125 -0.8101634025573731,3.5172096252441407 l0.8641507148742675,3.326005554199219 1.4216693878173827,2.7743621826171876 l2.611298370361328,1.9393177032470703 2.995339202880859,0.34804203510284426 l4.03790283203125,-0.456622838973999 5.413792419433594,-1.7315752029418945 l4.84441032409668,-2.6390827178955076 2.6673656463623048,-2.5392974853515624 l-0.4774344444274902,-1.7512872695922852 -3.7322647094726564,-1.2657036781311035 m26.320205688476562,7.041696166992187 l1.394258689880371,-0.5135969161987305 0.9242344856262207,-0.008001991361379624 l0.3417717933654785,0.19355509281158448 0.05261660814285278,0.3873692750930786 l0.34004809856414797,1.2060739517211914 0.311758017539978,2.4141777038574217 l0.4781379222869873,3.2524494171142577 0.755648422241211,4.020086669921875 l0.45282893180847167,4.083234786987305 -0.1393955707550049,2.9987152099609373 l-0.14575555324554443,0.7157256126403808 -1.1572883605957032,-1.4238847732543944 l-0.5417485237121582,-3.8251609802246094 -0.8435550689697265,-4.550528717041016 l-1.083308219909668,-5.090919494628906 -0.6511849403381348,-5.163121032714844 l0.22426221370697022,-3.7184947967529296 1.503404712677002,-2.4194618225097657 l1.6605010986328126,-1.2176568984985352 2.609151077270508,-0.29289200305938723 l2.83572940826416,0.6515548229217529 1.9293190002441407,1.8948904037475587 l1.2300901412963867,2.633818817138672 0.641049575805664,3.0042793273925783 l0.017958192527294158,2.7437232971191405 -0.07372338771820068,2.494231033325195 l-0.8691795349121094,1.4588735580444336 -1.6682247161865233,0.5953340530395508 l-1.649321937561035,-0.24404511451721192 -1.5575314521789552,-1.2314969062805177 l-1.3510839462280273,-2.5037254333496093 -0.9570787429809571,-2.2577388763427733 m14.817704772949218,0.47894625663757323 l2.432297134399414,0.4296156883239746 1.6973398208618165,0.5410203456878662 l1.7161121368408203,0.12414782047271729 1.7002174377441406,-1.0310962677001954 l1.3950019836425782,-0.7953016281127929 0.7013726234436035,-0.7756555080413818 l0.27141752243041994,-0.9609148025512695 -0.6838285446166992,-1.3048234939575196 l-1.6412166595458983,-1.0441967010498048 -2.8320333480834963,-0.2496474027633667 l-1.790816307067871,0.6487514495849609 -1.272528076171875,1.6940391540527344 l-0.6881727695465087,2.961033821105957 0.41632704734802245,2.6493719100952147 l0.7135982513427734,1.8699481964111329 2.2043689727783202,0.7401995182037353 l2.609513854980469,-0.16142265796661376 3.326145553588867,-0.9438946723937989 l5.0580486297607425,-1.538681983947754 5.034848022460937,-2.518170928955078 l4.183559799194336,-2.545420455932617 3.8756072998046873,-1.9755111694335938 l2.3997039794921875,-1.7736192703247071 1.0093124389648438,-1.4825712203979493 l0.3039288282394409,-1.474143123626709 -0.10023833513259887,-1.710555648803711 l-2.0084758758544923,-0.9755288124084472 -2.848943328857422,0.2957547664642334 l-3.447140121459961,2.1030860900878907 -1.748614501953125,4.118457412719726 l-0.4944143772125244,4.3857879638671875 0.5187250137329101,2.6244630813598633 l1.5654917716979981,0.49840717315673827 1.7559993743896485,-2.300466537475586 l3.135593795776367,-4.399814224243164 3.0794572830200195,-6.332938766479492 l2.1835670471191406,-9.231771850585938 1.4358204841613769,-8.647975158691406 l-0.977741813659668,-7.621939086914063 -1.4803150177001954,-4.3615478515625 l-0.331740140914917,-0.945197868347168 0.6390082359313964,0.6978312492370605 l0.6425849914550781,3.065851020812988 1.5290254592895507,5.603658676147461 l2.1243263244628907,5.836249542236328 2.6685674667358397,6.272671508789062 l2.81897087097168,4.638607025146484 3.1161783218383787,1.4857315063476562 l1.2365559577941894,0.18409466743469238 1.4089838027954102,-0.22180631160736083 l2.2433753967285157,-0.6204774856567383 1.8794544219970704,-1.4158040046691895 l1.944272804260254,-1.7322402954101563 1.812179946899414,-1.7829069137573241 l0.5861769199371338,-1.0200629234313965 m14.860952758789063,-15.761361694335937 l-0.508608627319336,-0.27779152393341067 0.11905181407928467,0.22567360401153563 l-0.2119356155395508,0.2869053840637207 -0.528733491897583,0.13329663276672363 l0.4772958755493164,1.0961203575134277 -0.1216214656829834,1.8340028762817382 l0.4518289566040039,3.1150636672973633 0.34892165660858154,4.455589675903321 l-0.5675448417663574,5.288511657714844 -0.052622509002685544,5.746180725097656 l0.14439613819122316,6.71392822265625 -0.6517896175384521,7.046638488769531 l-1.2472352027893066,7.416922760009766 -0.6421734809875488,7.2134147644042965 l-0.2630045413970947,4.273552703857422 0.35149374008178713,1.0145207405090333 l0.813808536529541,-0.5400054931640625 1.5807811737060546,-2.7561834335327147 l3.3398212432861327,-4.438794708251953 4.0167686462402346,-5.3938945770263675 l2.7071847915649414,0.9110060691833496 1.982090950012207,0.868868637084961 l2.5337425231933595,-0.6989320755004883 3.3664630889892577,-1.8563596725463867 l3.156297302246094,-2.7743385314941404 2.302071380615234,-3.1771820068359373 l1.564128303527832,-1.9830440521240233 -0.13306119441986083,-0.6602892875671387 l-2.4888689041137697,0.612794303894043 -3.1759822845458983,1.4233717918395996 l-3.1324535369873048,1.2820201873779298 -1.7416309356689452,2.2563175201416015 l0.03313425481319428,2.0890098571777345 1.2688212394714355,1.6315704345703126 l2.070330047607422,0.3028476476669312 2.390467643737793,-1.9356082916259765 l2.2629119873046877,-2.638937759399414 1.5723812103271484,-3.1738250732421873 l1.1720930099487306,-4.676704025268554 -1.853458786010742,-2.24306583404541 l-2.6740243911743162,-1.0357674598693847 -4.113552474975586,0.19154881238937377 l-4.666278076171875,1.2792405128479003 -3.8154312133789063,1.472769832611084 l-2.785201835632324,1.2066521644592285 -0.8963930130004882,0.797761869430542 l0.9775218009948731,0.45010957717895506 m21.05447998046875,-0.34130539894104006 l0.08047647476196289,3.346919631958008 0.2871857166290283,2.075844573974609 l1.1921640396118165,1.9962198257446289 2.287606430053711,0.7885358810424805 l2.858230972290039,-1.654652976989746 3.361693572998047,-2.581964874267578 l3.1100549697875977,-3.182325553894043 3.0678503036499025,-4.3847198486328125 l2.468140411376953,-4.0687919616699215 1.717129898071289,-2.783502197265625 l0.31027796268463137,-0.8915835380554199 -0.8496097564697266,-0.22220046520233155 l-2.2771480560302733,1.5729515075683593 -3.677139663696289,2.9704477310180666 l-2.792584991455078,3.1954229354858397 -1.5300236701965333,2.238459587097168 l-0.1757346510887146,1.9791845321655273 0.9858972549438476,0.8915624618530273 l2.0166133880615233,-0.16622353792190553 2.825545883178711,-0.7393117427825928 l3.476575469970703,-1.6922643661499024 m10.877404022216798,-3.4657283782958985 l-0.6048366546630859,-0.6765844345092773 -0.42848773002624513,0.15164616107940673 l-1.3456939697265624,0.40746173858642576 -2.214298629760742,1.0668396949768066 l-1.5211095809936523,2.2078784942626952 -1.4574644088745117,1.3318132400512694 l-0.5953246116638183,1.653738784790039 0.17470742464065553,1.4209785461425781 l1.3095041275024415,1.1534879684448243 1.9943653106689454,-0.39016702175140383 l3.496816635131836,-0.40525341033935547 3.1892936706542967,-1.8032371520996093 l2.5527423858642577,-2.2680437088012697 1.5936500549316406,-2.396782112121582 l0.6240806102752685,-2.1439403533935546 -0.17419085502624512,-1.3309874534606934 l-1.1398430824279786,-0.5134325981140136 -1.9994894027709962,-0.3560299873352051 l-1.8285594940185548,0.7422365665435791 m49.743865966796875,-12.090316772460938 l-1.7238191604614257,-0.5142851829528808 -1.6802473068237305,0.8711159706115723 l-2.694197082519531,1.3982735633850099 -2.770594596862793,3.005810546875 l-2.8625274658203126,4.10478401184082 -2.10841064453125,4.169454574584961 l-1.3037967681884766,3.597886657714844 -0.0739745855331421,2.761480522155762 l0.7975483417510987,2.253982734680176 1.792928695678711,0.6487089157104492 l2.8912853240966796,-0.4906489372253418 3.2847129821777346,-1.8276094436645507 l3.185355377197266,-2.648598480224609 2.589691162109375,-3.045464515686035 l2.2153528213500975,-2.664291000366211 0.9579856872558594,-2.00313663482666 l-0.25590560436248777,-0.9410414695739746 -1.6414081573486328,-0.8231428146362305 l-1.5108320236206054,0.21812927722930908 -1.3717026710510254,0.5600869178771972 l-0.6568789005279541,0.5986884117126465 -0.14403058290481568,0.2025991916656494 l1.5647876739501954,0.9165088653564453 1.927150344848633,-0.23927080631256104 m14.210226440429688,-7.78460464477539 l-0.14155874252319336,0.4987372875213623 -0.6271042823791504,1.4068832397460938 l-1.7559968948364257,2.4153667449951173 -1.9684110641479493,3.49688720703125 l-2.145522689819336,3.438136672973633 -1.7161899566650392,3.4282146453857423 l-0.7517910957336426,2.04738712310791 0.19990683794021608,-0.5321357727050782 l1.6382396697998047,-1.1404367446899415 2.370630645751953,-2.2942895889282227 l2.644307327270508,-3.6011558532714845 3.2199447631835936,-2.404026412963867 m14.289340209960937,-5.718505859375 l-0.6992173194885254,-0.3427340745925903 -1.392626667022705,-0.1706492781639099 l-1.7224348068237305,1.7745658874511718 -3.033324432373047,3.0321638107299806 l-2.822445297241211,4.331926727294922 -2.1664934158325195,2.558669853210449 l0.298597526550293,2.3758159637451173 1.0818543434143066,0.7204717636108399 l2.4325870513916015,-0.8012138366699219 3.1080141067504883,-2.0583431243896486 l2.886371612548828,-3.086442756652832 2.9612804412841798,-2.672907829284668 l2.489862251281738,-2.8181903839111326 0.9601441383361816,-2.784965705871582 l0.5003434181213379,-0.0168637216091156 -0.5996552467346191,0.0931910216808319 l-1.0782453536987304,1.7763774871826172 -2.2418012619018555,3.4626575469970704 l-2.3486568450927736,3.2513668060302736 -1.153306007385254,3.139300537109375 l-0.02926158010959625,2.0272666931152346 m17.274188232421874,-15.278303527832032 l-1.6380508422851563,1.3270163536071777 -0.9134695053100585,3.5234039306640623 l-1.7089199066162108,3.2319530487060546 -0.6450145721435547,4.269741058349609 l0.33678469657897947,2.7872276306152344 1.663733673095703,0.5253193378448486 l2.076684761047363,-1.7313835144042968 2.5309425354003907,-3.0655807495117187 l2.9830955505371093,-3.0393056869506836 2.3557506561279298,-2.1051967620849608 l2.008102035522461,0.41997013092041013 0.6895968437194824,1.088463306427002 l0.2798879384994507,3.15469913482666 -0.9968496322631836,3.9598636627197266 l-0.8425074577331543,3.6962818145751952 0.36745901107788087,1.911861038208008 m36.94136962890625,-37.286370849609376 l-0.33549454212188723,-0.8345830917358399 -0.1903451442718506,-0.4395293235778809 l-0.19446959495544433,0.2059450626373291 -0.21933305263519287,1.9515235900878907 m-5.3081401824951175,15.490965270996094 l0.44713134765625,0.8204549789428711 -0.1494465470314026,-0.1274608254432678 l0.17728731632232667,0.25560224056243896 0.27901453971862794,0.36022300720214845 l-0.2503143310546875,-0.5048474311828614 0.2466974973678589,-1.1875333786010742 l0.8947027206420899,-1.5978516578674316 1.6034847259521485,-1.8617015838623048 m24.76609649658203,10.083426666259765 l0.21986911296844483,-0.17358152866363524 -0.2030099868774414,-0.4198616981506348 l-0.9946508407592773,-0.9566484451293945 -1.5728260040283204,-0.22703199386596679 l-2.97629451751709,-0.6416344165802002 -3.3761669158935548,1.005826759338379 l-4.690706634521485,1.9996313095092773 -3.7390625,3.3738121032714843 l-2.0094930648803713,4.247638320922851 -0.5289826393127441,2.7143766403198244 l0.9742015838623047,1.2292242050170898 1.583054542541504,-0.7987282752990723 m25.368170166015624,-32.790521240234376 l-0.12272477149963379,0.43082466125488283 -0.3234384059906006,0.5481626987457275 l-0.7166317939758301,2.8734859466552733 m-4.380674743652344,42.56650085449219 l0.26402342319488525,-0.5485105991363526 1.6431571960449218,-0.8372907638549805 l2.8431169509887697,-2.272565460205078 3.5309864044189454,-3.4943138122558595 l3.899892044067383,-4.075081634521484 3.2881610870361326,-4.312676239013672 l2.971422576904297,-3.6817901611328123 1.780240821838379,-3.0735050201416017 m5.772549438476562,3.8543067932128907 l0.02948656976222992,1.05167875289917 -0.29050745964050295,0.4373933792114258 l-0.6074180603027344,2.107920455932617 -1.5236130714416505,2.4404365539550783 l-2.2048526763916017,3.9068809509277345 -3.095879554748535,5.2796478271484375 l-4.0558349609375,6.668840026855468 -4.035845947265625,7.24322738647461 l-2.979275703430176,7.651850891113281 -2.5572689056396483,7.166086578369141 l-2.342563438415527,6.291311645507813 -0.6725704669952393,5.313124084472657 l-0.15882415771484376,2.338649940490723 0.43354086875915526,0.019231417775154115 l1.204519271850586,-1.4512899398803711 1.7117305755615235,-4.393499374389648 m9.925289916992188,-29.687191772460938 l0.43773536682128905,-1.3986973762512207 1.3923599243164062,-1.8850576400756835 l1.64354248046875,-2.1785999298095704 2.0858341217041017,-2.179246711730957 l2.1827802658081055,-1.2162684440612792 1.6415681838989258,-1.0370177268981933 l1.8018596649169922,-0.09077969193458557 1.016392707824707,1.4450783729553223 l0.7093596935272217,2.343667221069336 -0.7366714000701904,2.809189033508301 l-1.9099439620971679,2.548465919494629 -2.3552913665771484,2.359674263000488 l-2.756360626220703,1.5599849700927735 -2.918834686279297,0.4343597412109375 l-1.7833253860473632,-0.8664285659790039 m23.41139373779297,-1.6873088836669923 l-0.160638165473938,0.1826488733291626 0.6190662860870362,0.39965219497680665 l0.042102661728858945,-0.14168212413787842 -0.16882014274597168,-0.1412832498550415 l-0.42533421516418457,-0.3755409955978394 -0.8064038276672363,-0.9990962028503418 l-0.8447517395019531,-1.6359390258789062 -0.4874281406402588,-1.5059537887573242 l-0.4980916023254395,-1.6547645568847655 -0.45470561981201174,-2.1112470626831055 l-0.10464038848876953,-1.8417545318603517 -0.6507217884063721,-2.2788570404052733 l-0.9948297500610351,-2.8068563461303713 -1.1336742401123048,-2.1107814788818358 l-0.5510912895202636,-0.7733075618743896 -0.5055932998657227,-0.20289926528930663 m12.395283508300782,5.39100227355957 l-0.19596338272094727,-0.06457130908966065 -0.14230220317840575,-0.42546653747558594 l0.03579561114311218,-0.6581656455993652 -0.638331413269043,-1.0778221130371093 l-0.4631192207336426,-0.40558805465698244 -0.8381746292114258,-0.7500223636627197 l-1.073880100250244,-0.5368298530578614 -0.8851131439208985,-0.38680686950683596 l-0.9757085800170898,-0.570341682434082 -0.5648859024047852,-0.19426934719085692 l-0.07859819531440734,-0.13612608909606932 0.24267678260803222,0.24806294441223145 l0.125995409488678,0.23856933116912843 0.668245506286621,-0.07414979934692383 l0.753357219696045,-0.25251338481903074 0.6460321426391602,-0.7933712482452393 l1.9819629669189454,-0.28931119441986086 1.7316949844360352,-0.4875953197479248 l1.8972923278808593,-0.750827407836914 2.291659927368164,-0.41472773551940917 l2.4175186157226562,-0.029681676626205446 1.6471416473388671,-0.18364982604980468 l0.12330473661422729,-0.1347883939743042 0.22067346572875976,0.8014731407165527 l-0.9642503738403321,1.2819196701049804 -2.1448333740234373,1.9862977981567382 l-2.691533660888672,2.4404077529907227 -2.1557825088500975,2.268478775024414 l-0.6586889743804931,0.30539965629577637 0.43143181800842284,0.9909680366516114 l0.3754237174987793,1.1444019317626952 0.31175665855407714,1.4733005523681642 l0.1189507246017456,1.885566520690918 -0.49921116828918455,1.0737255096435547 l-0.5147286415100097,0.5860076904296875 -0.5900597095489502,0.11691213846206665 l-0.25638203620910643,-1.1064018249511718 0.3189367771148682,-1.1780942916870116 l0.8258479118347168,-1.2036598205566407 1.3717335700988769,-1.2651105880737306 l2.3183727264404297,-1.0639716148376466 2.782219123840332,-0.8582216262817383 l2.46872501373291,-0.8163003921508789 2.101017379760742,0.007246944308280945 l1.4474201202392578,0.4871182918548584 1.4817983627319335,1.5890117645263673 l0.35136981010437013,1.3608470916748048 -0.30961992740631106,1.2509986877441406 l-0.2943455219268799,1.2012901306152344 -0.8404936790466309,1.1022651672363282 l-0.47766742706298826,1.683434295654297 -0.211814022064209,1.7367067337036133 l-0.36691367626190186,0.5440688133239746 " fill="none" stroke="black" stroke-width="1" /></svg>