<?xml version="1.0" encoding="utf-8" ?>
<svg baseProfile="full" height="146.5650616474449" version="1.1" width="805.5544491124805" xmlns="http://www.w3.org/2000/svg" xmlns:ev="http://www.w3.org/2001/xml-events" xmlns:xlink="http://www.w3.org/1999/xlink"><defs /><rect fill="white" height="146.5650616474449" width="805.5544491124805" x="0" y="0" /><path d="M25,97.04667962789532 m27.971237182617188,-15.714498901367188 l-0.20236315727233886,1.6373889923095704 0.783000898361206,2.731435775756836 l-0.014370089769363404,3.2679466247558593 0.2805187225341797,3.8484512329101563 l0.37593305110931396,3.543803405761719 0.14394659996032716,3.109490394592285 l0.13941173553466796,2.5104915618896486 -0.15451561212539672,1.7666145324707032 l0.2243809461593628,1.070085334777832 -0.2905936002731323,0.6175896644592285 l0.19412615299224853,0.1877298355102539 -0.012808786332607269,0.053750771284103396 m-6.324012374877929,-6.692601013183594 l-0.15450336933135986,0.008257494121789933 0.0938075065612793,-0.02500918209552765 l0.3627081155776978,-0.17433269023895265 1.064581298828125,0.052050048112869264 l2.0095823287963865,-0.5862722396850586 3.089101791381836,-0.43190979957580566 l3.084821319580078,-0.9532567977905273 2.095791053771973,-0.5083280563354492 l2.0171436309814452,-0.24403734207153321 0.10909624099731445,-0.33594479560852053 l0.024344447255134582,-0.1080015778541565 -0.005654096603393555,-0.6125746250152588 l-0.0016374072059988976,-1.1538987159729004 0.14089430570602418,-1.983126449584961 l0.16570668220520018,-1.8078487396240235 0.684037160873413,-1.4840403556823731 l0.13328402042388915,-0.9535674095153809 0.17517585754394532,-0.1862804889678955 l0.16558454036712647,0.19566256999969484 0.16814401149749755,0.4937419414520264 m43.15144348144531,7.200310516357422 l-0.130730938911438,0.6508193492889405 0.5335343360900879,1.936671829223633 l0.994549560546875,2.33432559967041 0.5117483615875245,2.877314567565918 l0.018234021961688995,3.3383739471435545 0.2452707052230835,3.333443450927734 l-0.25653491020202634,3.085203170776367 -0.1216046690940857,2.862657928466797 l-0.21958730220794678,2.3767505645751954 -0.2890861988067627,1.965538787841797 l-0.4952652931213379,1.1884027481079102 -0.7131375312805176,0.22960855960845947 l-0.34257168769836427,-0.11808279752731324 -0.20560967922210693,-0.6008708953857422 l-0.14699500799179077,-1.4618032455444336 -0.7166774272918701,-2.9346025466918944 l0.49491066932678224,-3.718216323852539 -0.15789220333099366,-3.9883773803710936 l0.8586294174194335,-3.2877033233642576 1.1442132949829102,-3.188980484008789 l1.5896770477294921,-2.900193214416504 0.883140754699707,-2.5775333404541017 l1.3839719772338868,-1.6577829360961913 1.021249008178711,-0.6835326671600341 l1.2276263236999512,0.6497023105621338 0.9762669563293457,1.863286590576172 l0.9633713722229004,2.202345275878906 0.8752219200134277,2.3322994232177736 l1.555351161956787,2.7235321044921874 1.2338638305664062,3.0894420623779295 l0.5185343742370605,3.2317646026611326 -0.08983903527259826,2.8385812759399416 l0.17201740741729737,2.5118141174316406 -0.40563373565673827,1.7790718078613281 l-0.639098072052002,0.7267361640930176 -1.790081787109375,0.07550844550132751 l-1.2781497955322265,-0.29927968978881836 -1.6776388168334961,-0.5091088294982911 l-1.373696517944336,-1.250289535522461 -1.305741310119629,-1.297119140625 m9.24759750366211,-23.194490051269533 l1.1569395065307617,-0.47955799102783203 0.21175222396850585,-0.09064697623252868 l0.6121612071990967,0.7503175735473633 0.32578368186950685,1.5139484405517578 l0.38711233139038087,2.6382946014404296 0.09746687412261963,4.181489562988281 l-0.018310782313346863,4.279159164428711 0.11661953926086426,3.4017402648925783 l-0.5781030178070068,1.8947731018066407 0.3922375440597534,1.1780915260314941 l-0.3615753650665283,0.136049222946167 0.2635245084762573,-0.4500070095062256 l-0.23766064643859863,-1.6379152297973634 0.2477428674697876,-2.705290603637695 l0.4722276210784912,-2.8468067169189455 0.5690479278564453,-2.5686569213867188 l0.5984231948852539,-1.862263298034668 0.8457392692565918,-1.2257842063903808 l1.322905921936035,-0.8301342964172364 1.2769755363464355,-0.47933712005615237 l0.5968584537506103,0.309995698928833 0.6733336448669434,1.0487817764282226 l0.18748629093170166,2.0255699157714844 0.07961677312850952,2.5212352752685545 l0.6078023910522461,2.552998352050781 0.2689064025878906,2.0061208724975588 l0.08040720224380493,1.4778884887695312 0.371198034286499,1.0041959762573243 l-0.1147843360900879,-0.09961200952529907 0.0874552845954895,-0.14437566995620726 l-0.0522534191608429,-0.7906675338745117 0.8751180648803711,-1.5150918006896972 m4.962242126464844,-22.27269287109375 l0.7852073192596436,1.04738187789917 -0.47822418212890627,1.8264911651611329 l0.11289259195327758,2.5900333404541014 -0.4544926643371582,3.092676544189453 l-0.17006440162658693,3.9617828369140624 0.7945657253265381,3.4949672698974608 l0.08023511171340943,2.906116485595703 0.3694451332092285,2.916144371032715 l0.766996431350708,2.281524658203125 0.36991760730743406,1.8741954803466796 l0.3648564577102661,1.414589786529541 1.0370738983154297,0.6111693859100342 m9.245948791503906,-17.595404052734374 l-0.4907546520233154,-0.8061792373657226 -0.3240154266357422,-1.4165849685668945 l-1.1223069190979005,-1.2921808242797852 -1.174239730834961,-0.6795736312866211 l-1.0993328094482422,-0.03434628844261169 -1.1814153671264649,0.6604530811309814 l-0.6809422492980957,0.9293068885803223 -0.3872136116027832,2.0659812927246093 l-1.0034283638000487,2.430587387084961 0.2587552070617676,3.1664791107177734 l0.8803548812866211,2.736982727050781 1.2874649047851563,1.7322505950927733 l2.164167022705078,0.8919021606445312 1.620431137084961,-0.3304433345794678 l1.1851086616516113,-0.4144128799438477 0.8949047088623047,-0.5789539337158203 l1.072461986541748,-0.471251916885376 1.6272195816040038,-1.4166753768920899 l1.596906852722168,-1.0334057807922363 2.3145978927612303,-0.39380578994750975 m1.940836524963379,-4.974987411499024 l0.004483138024806976,0.0877386450767517 -0.32134418487548827,1.5942445755004884 l0.089206463098526,2.5069583892822265 0.6225554466247558,2.8568937301635744 l0.9621970176696777,2.6004520416259767 1.1415302276611328,1.8809024810791015 l1.4136442184448241,1.7130727767944336 1.2123666763305665,1.204923152923584 l0.48902125358581544,0.1359581470489502 0.23392059803009033,0.3778268337249756 l-0.0660893440246582,-0.407422399520874 -0.10922633409500122,-0.9202631950378418 l-0.2656897306442261,-1.5578590393066407 -0.20884523391723633,-1.8277227401733398 l-0.4382051944732666,-2.4614948272705077 0.29329829216003417,-1.8844684600830077 l0.35601034164428713,-2.5725404739379885 0.7645890235900878,-0.8119009971618653 l0.7765508174896241,-1.3208426475524901 1.5368193626403808,-0.3027732610702515 l1.6643306732177734,-0.12816462516784669 1.5095857620239257,-0.25737290382385253 l1.6191108703613282,1.2018560409545898 0.8749457359313965,0.8900552749633789 l1.1825586318969727,2.090340423583984 0.17649251222610474,2.0398542404174806 l0.542098093032837,2.5608121871948244 0.4005542755126953,1.4132436752319335 l0.14765992164611816,0.38934979438781736 0.7248287200927734,1.1557950973510742 l0.2696448802947998,-0.5251864433288574 0.8388753890991211,-0.4904212474822998 m-1.329708194732666,-18.663694763183592 l0.0953671932220459,0.42268991470336914 -0.11579747200012207,-0.06905823945999146 l0.20927259922027588,0.6847199440002442 0.25810885429382324,0.6460978984832764 m13.82596435546875,2.3908384323120115 l-1.1471023559570312,0.14818310737609863 -1.5031250953674316,-0.12229996919631958 l-0.8034751892089844,1.3678975105285645 -1.23336181640625,0.46960744857788084 l-0.6625719547271729,0.9025108337402343 -0.2248943567276001,0.7161118984222412 l0.363763689994812,0.36986608505249025 1.4003921508789063,0.823647403717041 l1.2780356407165527,-0.1198541522026062 2.1914979934692385,0.5027806282043457 l2.3750423431396483,0.7721641063690186 1.924047088623047,0.140138840675354 l1.3898876190185547,0.0872037649154663 1.2517313003540038,1.233254337310791 l0.4058217525482178,0.9419647216796875 -0.21366405487060547,0.44954829216003417 l-0.4168649673461914,1.0798049926757813 -0.890990161895752,0.5330749034881592 l-1.4260510444641112,0.4563161849975586 -2.0931747436523436,-0.012491230666637421 l-2.3406402587890627,0.2737485408782959 -2.559426498413086,-0.3695791006088257 l-2.129346466064453,0.02752578556537628 -1.0640708923339843,-0.04809536039829254 l-0.5645852565765381,-0.203537654876709 0.05774902701377869,-0.3028682470321655 l0.15112708806991576,-0.14531110525131224 1.0184502601623535,0.0669298768043518 m47.14422607421875,-25.262176513671875 l-0.0891114592552185,-0.13992373943328856 -0.09287670254707336,0.15215324163436889 l0.23751180171966552,1.992089080810547 0.09117660522460938,2.544126510620117 l0.7229087352752686,3.36561279296875 1.2590025901794433,4.2151447296142575 l1.5197713851928711,4.194722747802734 0.9768752098083496,3.380024719238281 l1.2152615547180177,3.651150131225586 0.5412392616271973,2.7684146881103517 l0.42615742683410646,2.119676208496094 0.09711008667945861,0.979308032989502 m-6.622842407226562,-15.93780517578125 l-0.17126388549804689,0.20352017879486084 -0.06955731511116028,0.060387760400772095 l0.29672133922576904,0.21630868911743165 0.5539801597595215,0.12388325929641723 l1.246330451965332,-0.1695593476295471 2.2092586517333985,0.22013041973114014 l2.469570350646973,-0.4843329429626465 2.9660049438476563,-0.1748146891593933 m4.771712875366211,-5.744072723388672 l0.33332371711730957,1.5532551765441895 0.3792903900146484,2.655416488647461 l0.6509615898132324,2.9477941513061525 0.921320629119873,3.1977500915527344 l0.580244779586792,2.6750869750976562 0.7664535045623779,2.619976806640625 l0.7080960273742676,1.6496315002441406 0.9826606750488281,1.219120979309082 l0.7963522911071778,0.24428172111511232 1.1178999900817872,-0.24919507503509522 l0.7582638740539551,-1.1381866455078125 1.1062756538391114,-1.3288549423217773 l1.1261582374572754,-2.1749290466308593 0.26231286525726316,-3.0884098052978515 l0.899925708770752,-1.542920207977295 m0.4220878601074219,-2.2695905685424806 l0.5046965599060058,1.709916877746582 -0.21929268836975097,2.027867889404297 l0.2886622190475464,3.2636363983154295 0.8490503311157227,3.192334747314453 l0.9520998954772949,1.9046436309814454 1.2107248306274414,0.6240783214569092 l1.0963024139404296,0.32989380359649656 1.1555038452148438,-0.22002739906311036 l0.8725285530090332,-0.8983144760131836 1.4422056198120117,-0.660515022277832 l1.1930521965026855,-1.0684042930603028 m-0.9338275909423828,-9.073927307128907 l-0.556876277923584,1.1820709228515625 -0.40372300148010254,2.2331516265869142 l-0.142014741897583,2.555313491821289 0.6885812282562256,2.4055070877075195 l0.6595704078674316,1.2868492126464843 1.4552077293395995,1.254730224609375 l1.6438077926635741,0.8509694099426269 1.2941997528076172,-0.1779972195625305 l1.2492445945739745,-0.8096061706542969 1.438503360748291,-0.7475060939788818 l0.6193953037261963,-2.140614318847656 0.5865321636199952,-2.3325241088867186 l-0.39789762496948244,-2.9091087341308595 -0.679923152923584,-2.061118316650391 l-1.3917905807495117,-2.176059913635254 -0.6800045967102051,-0.8016504287719727 l-0.8294755935668945,-0.5649607181549072 0.16026251316070556,0.30383787155151365 l-0.25836544036865233,-0.5319004058837891 m6.443385314941406,-16.673841857910155 l0.6807163238525391,1.743819808959961 0.5316481590270996,2.50498046875 l0.6426060199737549,3.3947284698486326 0.6535394191741943,3.460230255126953 l0.7721445560455322,3.407850646972656 0.5009543418884277,3.250962829589844 l0.4586621284484863,2.687928009033203 0.4181471347808838,2.2741390228271485 l0.6606833457946777,2.160042572021484 0.1942145824432373,1.0356789588928224 l0.4273386001586914,1.1184394836425782 0.032318529486656186,0.24880411624908447 m-1.1400546073913573,-5.602190017700195 l-0.3326439380645752,-0.3282637119293213 0.3009021282196045,0.06378905773162842 l0.776645278930664,0.2951438188552856 1.0150911331176757,-0.08759225010871888 l1.8189319610595702,0.01794312596321106 1.9812261581420898,-0.19005097150802613 l1.5175474166870118,-0.5563057899475098 1.2737285614013671,-0.8286832809448242 l1.3725244522094726,-0.8610069274902343 0.19698936939239503,-1.2213003158569335 l-0.015674577653408052,-0.5294094562530518 -0.4514260768890381,-0.4662016868591309 l-1.3155060768127442,-0.49280290603637694 -1.2107288360595703,0.11490041017532349 l-1.387578582763672,0.8128527641296387 -0.7602217674255372,1.701394271850586 l-0.14595085382461548,2.315712738037109 -0.023034489154815672,2.0326915740966798 l0.8696352958679199,1.8705972671508788 1.802149772644043,1.7921010971069335 l2.650273895263672,1.0033326148986816 3.512697219848633,0.8099891662597656 l3.2370010375976563,0.28077402114868166 m5.454318618774414,-32.59816284179688 l0.21002693176269532,0.06484756469726563 0.7573592185974121,0.560560655593872 l0.47551541328430175,1.0047582626342773 0.8490306854248046,1.3449301719665527 l0.25017571449279785,1.409931755065918 -0.15753302574157715,1.5789793014526368 l-0.3436425685882568,1.5145004272460938 -0.06828922033309937,1.831890869140625 l-0.0565394401550293,1.052606964111328 0.2947709560394287,0.2233098030090332 l1.2427849769592285,0.2683102607727051 1.029172420501709,-0.8250962257385254 l1.6127033233642578,-1.1093778610229492 1.3609983444213867,-0.632819128036499 l0.5116822242736816,-0.4495514392852783 0.19135682582855223,0.02859371304512024 l0.21139912605285643,0.3050243616104126 0.18751238584518432,0.919987678527832 l-0.270281982421875,1.5643706321716309 -0.21289258003234862,1.9263956069946289 l0.10890820026397705,1.878134536743164 0.42641558647155764,1.4772534370422363 l0.8297981262207031,1.156599998474121 0.9955348014831543,-0.08650904893875122 l1.1755334854125976,-0.7426935195922851 m6.144542694091797,-13.8874267578125 l-0.29526591300964355,0.8175946235656738 -0.006093976646661758,1.8925935745239257 l0.1699763774871826,2.116507720947266 0.7169990539550781,2.370296669006348 l0.7314671516418457,1.7017030715942383 0.64688081741333,0.829080867767334 l1.0085371017456055,0.5493810653686524 1.2171663284301757,0.07554274797439575 l1.4201764106750487,-0.6413657188415527 1.5733152389526368,-0.864200210571289 l1.6702993392944336,-1.2651309013366698 1.0842950820922852,-1.7071851730346679 l0.9800239562988281,-1.4319581985473633 0.5540651798248291,-0.8924409866333007 l0.025358888506889343,-0.8264383316040039 0.194793963432312,0.03808277249336243 l-0.15268558263778687,0.19036364555358887 0.08068711757659912,-0.07055335640907287 l0.671695613861084,0.7772097587585449 0.9087309837341309,1.5123420715332032 l0.9137624740600586,1.5564564704895019 1.1120176315307617,1.8242002487182618 l0.8062768936157226,1.1188743591308594 0.7868322372436524,0.45328516960144044 l0.7193675518035889,0.5465970516204834 0.48120932579040526,0.22402267456054686 l0.0003274019341915846,-0.25106468200683596 -0.6842451572418213,-1.2582081794738769 l-0.01860652267932892,-0.5793866634368896 -0.32752716541290283,-1.5943988800048827 l-0.21258022785186767,-1.6276906967163085 0.2297147274017334,-1.1888903617858886 l0.33143589496612547,-1.0608296394348145 0.869975471496582,-1.4313972473144532 l1.3832345008850098,-1.1109333038330078 1.4804988861083985,-0.9488800048828125 l1.0514963150024415,-0.6286348819732666 0.980564022064209,-0.3783937692642212 l0.7377303123474122,-0.1841283082962036 0.2596628665924072,-0.5324664115905762 m-2.7191793441772463,-9.407478332519531 l0.03262108564376831,-0.32966198921203616 0.9261139869689942,0.6375367641448975 l0.9286300659179687,0.09815406799316406 1.8692510604858399,1.080481719970703 l2.115108108520508,1.0458564758300781 2.0348464965820314,1.3160106658935546 l2.347336769104004,1.8267129898071288 1.5397299766540526,1.3088704109191895 l1.2370870590209961,1.5568710327148438 0.5461890697479248,1.4293498039245605 l-0.39556136131286623,0.9966775894165039 -0.762583065032959,1.1716510772705078 l-1.5171789169311523,0.19663721323013306 -1.3069690704345702,0.26399731636047363 l-1.2861632347106933,-0.11766747236251832 -0.46280832290649415,-0.45270724296569825 l0.2434082269668579,0.12519283294677735 0.6521124362945556,0.06373227834701538 l1.452315330505371,0.39867162704467773 1.5558653831481934,0.7426526069641113 l1.5179098129272461,0.3932926654815674 1.4043844223022461,0.9834389686584473 l1.1200819969177247,1.390420150756836 1.6813419342041016,1.8982919692993163 l1.5876724243164062,1.3024667739868163 2.174946975708008,1.1060656547546386 l2.6766353607177735,0.26690647602081297 2.607803535461426,-0.13279627561569213 m30.28919677734375,-19.278317260742188 m0.1261802315711975,1.2411676406860352 l0.2511623382568359,1.2658624649047852 0.6732614517211915,2.1173309326171874 l0.6234708309173584,1.656578254699707 0.8059004783630371,1.9055906295776368 l0.47910337448120116,1.0119242668151855 0.39069404602050783,0.8298833847045899 l0.3444809436798096,0.3405097723007202 m-9.979708862304687,-20.093890380859374 l-0.6075785636901856,-0.6682901859283448 -0.17269123792648317,-0.5536230087280274 l0.3649304389953613,-0.6687307357788086 0.8608266830444335,-0.6910965442657471 m12.301586151123047,9.392823791503906 l0.8396783828735351,1.3005773544311523 1.2210395812988282,1.990281105041504 l1.0129941940307616,2.0656978607177736 0.9670096397399902,2.020990562438965 l0.4622176647186279,1.6495105743408203 0.4099759101867676,1.452308464050293 l0.15208302736282348,0.9473551750183106 -0.06133050322532654,0.113602614402771 l0.5015793800354004,0.26728665828704834 0.24709687232971192,-0.45186605453491213 l0.41630706787109373,-1.5167197227478026 1.2961970329284669,-1.4225120544433594 l0.9622231483459472,-2.208466720581055 1.3865161895751954,-1.8624879837036132 l1.2178610801696776,-1.388862419128418 1.5449456214904784,-0.3885607957839966 l1.1558485984802247,-0.4580674648284912 1.2997035026550292,0.6453721046447753 l1.4657200813293456,1.143730926513672 1.143429946899414,1.4687543869018556 l1.3587118148803712,2.43334846496582 1.080073928833008,2.3077842712402346 l0.8589357376098633,1.8494527816772461 0.7747762203216553,1.3909147262573243 l0.6228228569030761,0.27830848693847654 1.1439918518066405,0.18326232433319092 l1.1483283042907715,-0.703469181060791 m15.777944946289063,-11.438212585449218 l-1.2933734893798827,-0.33320376873016355 -1.8388225555419921,0.01059715375304222 l-1.6126277923583985,0.9130138397216797 -1.4529923439025878,1.7446598052978515 l-1.74747314453125,1.420356273651123 -0.0592143177986145,2.239860725402832 l-0.22145938873291016,1.3116902351379394 0.1223034143447876,0.5769673347473144 l1.065676212310791,0.44534010887145997 1.2685510635375976,-0.22990741729736328 l1.547942543029785,-1.0763054847717286 1.5097248077392578,-1.4898863792419434 l1.1727656364440917,-1.8389495849609374 1.255144214630127,-1.2284594535827638 l0.625236701965332,-0.9773224830627442 0.4552737236022949,-0.02085636705160141 l-0.352127742767334,-0.2865078210830688 0.41458702087402344,0.6860084056854248 l0.06914793252944947,1.526120376586914 0.3145895957946777,1.833885383605957 l0.5021112442016602,2.0503538131713865 0.92603759765625,1.4812185287475585 l1.239168643951416,0.9635873794555664 1.9865020751953124,0.504027271270752 m12.080845642089844,-12.063772583007813 l-0.3832350015640259,-0.4515953540802002 -0.4971731185913086,0.3286294937133789 l-1.4329823493957519,0.2382380723953247 -1.5929850578308105,0.579499626159668 l-0.8981381416320801,1.2870302200317383 -1.082485294342041,1.1780044555664062 l-0.4393929004669189,1.8018516540527343 -0.6804693222045899,1.3315190315246581 l-0.09319105744361877,1.3774763107299806 0.6485135078430175,0.8981760025024415 l1.0034581184387208,0.46099286079406737 1.4845685958862305,0.15376205444335939 l1.9201978683471679,-0.13563077449798583 3.0435718536376952,0.39763336181640624 l2.894021224975586,-0.11754487752914429 3.3075695037841797,0.0709936261177063 m-40.32736511230469,-0.47855286598205565 l-0.693724536895752,-0.47942519187927246 -0.14377903938293457,-0.18229730129241944 l-0.42152156829833987,-0.47980461120605467 -0.05438041687011719,-0.38095238208770754 l0.3285377979278564,-0.30915591716766355 0.8585488319396972,-0.20792016983032227 l1.3776519775390625,-0.6677165031433105 1.4419410705566407,-0.9438715934753418 m39.697271728515624,-7.594474029541016 l-0.007887056469917298,1.1302700996398927 -0.005361132323741913,1.4410452842712402 l1.1211708068847657,2.305379104614258 1.0801780700683594,2.054596710205078 l1.491204071044922,1.9892118453979493 1.6276069641113282,1.3653310775756835 l2.0086490631103517,0.9402216911315918 1.7631818771362304,0.056854015588760375 l1.7889331817626952,-0.3732802391052246 1.8554893493652345,-0.5030749320983887 l1.2120099067687988,-1.152907371520996 0.8045575141906738,-1.3147441864013671 l0.36590216159820554,-1.0375608444213866 -0.2453767776489258,-0.6674920082092285 l-0.12989301681518556,-0.01703277826309204 0.17565948963165284,0.21767058372497558 l0.33460345268249514,0.2821933746337891 0.7809576988220215,0.489639949798584 l1.586110496520996,0.6101260185241699 2.849517822265625,0.6903477191925049 l3.051979827880859,-0.265787410736084 4.117255401611328,-0.14555659294128417 l3.6367347717285154,-1.020777702331543 2.7921770095825194,-1.3339256286621093 l2.526190757751465,-1.5860639572143556 0.9026631355285645,-1.4691957473754882 l0.3166117429733276,-1.4414359092712403 -0.5859096050262451,-1.0477229118347169 l-2.454065704345703,-1.3650800704956054 -2.806960678100586,-0.806529426574707 l-3.2602924346923827,-0.1901853561401367 -3.41137809753418,-0.09832539558410644 l-2.6933364868164062,0.5795042514801025 -1.9111814498901367,0.4409910202026367 l-1.0858484268188477,0.6820342063903808 -0.39725499153137206,0.4606447696685791 m29.34840087890625,-0.6929376125335693 l-0.12433820962905884,0.4777658939361572 -0.7241286277770996,0.25566754341125486 l-0.5789793014526368,1.2547374725341798 -1.077829360961914,1.271359920501709 l-0.8446349143981934,1.6633060455322266 0.35626931190490724,1.4523401260375977 l1.0298763275146485,1.0969395637512207 1.832780647277832,0.5015268325805664 l2.69351863861084,0.24263467788696289 2.8650434494018553,-0.5032895088195801 l2.7411418914794923,-1.4142206192016602 2.471202087402344,-1.4779804229736329 l1.296320343017578,-1.5820955276489257 0.7121256828308106,-1.3936031341552735 l-0.3394340515136719,-1.6268287658691407 -1.137771224975586,-1.2624631881713868 l-1.6000207901000976,-0.8791267395019531 -1.4491060256958008,-0.4538214683532715 l-0.7424553871154785,-0.11792497634887696 -0.12593411207199096,-0.12764126062393188 m14.697526550292968,2.8189563751220703 l-0.35337100028991697,0.18627601861953735 -0.01910855770111084,0.16983542442321778 l-0.7106065273284912,0.1872456669807434 -0.3466784954071045,0.4676962852478027 l-0.36196467876434324,1.0070648193359375 -0.2676316499710083,1.0586328506469727 l0.17815771102905273,1.3291407585144044 0.8332275390625,1.2547993659973145 l1.1526081085205078,0.6347681045532226 1.2716263771057128,-0.21892890930175782 l2.2209033966064453,-0.31890149116516114 1.5573057174682616,-1.2699102401733398 l2.835309600830078,-4.284943008422852 0.6435984611511231,-2.7550682067871093 l-0.040623193979263304,-3.412730026245117 -0.019495952129364013,-2.576663589477539 l-0.45978994369506837,-2.1481630325317385 -0.4232473373413086,-0.45206551551818847 l-0.21356585025787353,-0.015280145406723022 0.05789086818695068,1.0983895301818847 l0.556959581375122,2.4818132400512694 0.8130552291870117,2.318156051635742 l1.1698192596435546,1.7865144729614257 1.577659511566162,1.2749387741088867 l1.6186389923095703,-0.4887102127075195 1.7215869903564454,-1.2331371307373047 l1.933232307434082,-1.1251734733581542 2.0894975662231445,-1.4752037048339843 l1.3364002227783203,-1.5994718551635743 1.0584291458129882,-0.7558684349060059 l0.9009191513061523,0.5169967651367188 0.8054718017578125,1.2998433113098145 l0.6205577850341797,2.7283443450927733 0.15198354721069335,2.948577117919922 l-0.308309531211853,3.1759578704833986 -0.1109297513961792,3.9403934478759766 l-0.18737865686416627,4.039825439453125 -0.06398248672485352,4.036626815795898 l-0.7467985153198242,3.23013916015625 -1.046583080291748,2.612347412109375 l-1.718764877319336,1.943999671936035 -1.9309404373168946,1.1506147384643555 l-2.2955549240112303,0.8878166198730468 -2.5348800659179687,-0.5754066467285156 l-2.225843811035156,-0.9806480407714844 -2.24627799987793,-1.9079471588134767 l-1.4533103942871093,-2.553653526306152 -0.5008984565734863,-3.214237594604492 l0.8249881744384766,-2.7313152313232423 m46.903326416015624,-29.3466064453125 l0.3125982046127319,0.29468321800231934 -0.13732963800430298,0.1080095648765564 l0.45858073234558105,2.053524398803711 0.5015092849731445,2.8886409759521485 l0.33057568073272703,3.0525129318237303 0.24238250255584717,3.3815147399902346 l0.32304337024688723,3.2195892333984375 0.5911250591278077,2.8899953842163084 l0.05582518577575683,1.6722146987915039 0.6376285076141357,1.46700439453125 l0.34063310623168946,-0.3026330232620239 0.5415921688079834,-0.4359633445739746 l1.3291144371032715,-1.7468452453613281 1.9349618911743165,-2.197659492492676 l2.039824676513672,-2.801124382019043 1.858877944946289,-1.4893864631652831 l1.6825937271118163,-0.8223119735717773 1.4036654472351073,-0.19312940835952758 l1.7234222412109375,1.1562633514404297 0.9539472579956054,0.36332950592041013 l1.6158985137939452,1.5376031875610352 1.5885186195373535,1.7271795272827148 l0.9817513465881348,1.3195958137512207 1.4356021881103516,1.1570681571960448 l1.3685351371765138,0.6510426998138428 1.3923494338989257,0.2643445491790771 l1.6809843063354493,-0.05361183881759644 1.5926527976989746,-1.0705022811889648 l1.8869550704956055,-0.909908390045166 1.1436810493469238,-2.3900867462158204 l1.0611828804016112,-1.4702073097229005 0.6146478176116943,-2.1012104034423826 l-0.610020637512207,-2.3467123031616213 -0.5334396362304688,-1.2126718521118165 l-0.5143701553344726,0.2286524295806885 -1.225363826751709,0.1535109519958496 l-1.0322839736938476,1.2981911659240724 -0.3458819627761841,2.249665069580078 l0.13817542791366577,2.5183305740356445 0.6007867813110351,2.438652992248535 l1.604031753540039,2.781955337524414 1.380873203277588,1.7661397933959961 l1.7741739273071289,1.5852535247802735 0.4670806884765625,-0.04242681860923767 l0.0982936978340149,0.28946518898010254 -0.5396737098693848,-0.6538440704345703 m37.57444458007812,-19.720558166503906 l-0.6578633785247803,0.11348800659179688 -0.8241838455200196,1.2820006370544434 l-1.3259162902832031,1.3445139884948731 -1.160694694519043,2.1058723449707033 l-0.17617053985595704,3.1683162689208983 0.40703349113464354,4.473188781738282 l1.2236682891845703,3.5344913482666014 1.720737838745117,2.339881706237793 l1.8590568542480468,0.9342615127563476 2.445357894897461,0.8594803810119629 l2.238685417175293,-0.23230621814727784 2.6543073654174805,-0.1249225378036499 l2.1625320434570314,-2.211990737915039 1.7635581970214844,-2.8014410018920897 l1.1644920349121093,-3.0264299392700194 0.23854310512542726,-3.6478954315185548 l-0.8970853805541992,-3.7659942626953127 -1.8512454986572267,-2.6086299896240233 l-2.7146644592285156,-1.007914924621582 -2.59653377532959,0.24713561534881592 l-1.5620879173278808,0.6225887298583984 -0.38631439208984375,0.17897937297821045 l0.7900152683258057,2.0049190521240234 2.0392200469970705,2.5355453491210938 l3.1164779663085938,1.0974786758422852 3.229514312744141,-0.20041289329528808 l3.314999008178711,-1.7636751174926757 3.2930534362792967,-3.496966552734375 l3.393540954589844,-3.616415786743164 2.8314085006713867,-4.051131820678711 l2.316496658325195,-3.5558799743652343 1.4416763305664062,-2.504276084899902 l0.7497304916381836,-0.93626708984375 -0.16023607254028321,-0.3561099529266357 l0.017059674859046935,0.5051932334899902 -0.3986785411834717,1.293650245666504 l-1.0798288345336915,2.970922660827637 -1.1527921676635742,4.409420394897461 l-1.7314085006713866,5.114441680908203 -1.3656757354736329,4.745392608642578 l-1.0625554084777833,3.397536849975586 -0.4719597816467285,2.592335510253906 l0.18076573610305785,1.1645824432373046 0.23032598495483397,-0.11275019645690917 l1.019933319091797,-1.1567431449890138 1.839012336730957,-2.355803680419922 l1.6575790405273438,-2.248722457885742 1.7432592391967774,-0.808309268951416 l1.0191097259521484,0.28724989891052244 0.8176177024841309,1.1591487884521485 l0.977605152130127,2.060996246337891 1.0210760116577149,2.3795875549316405 l0.9592534065246582,2.1872196197509766 1.1163741111755372,1.123384952545166 l1.7934823989868165,1.0510028839111327 1.455883502960205,-0.37115213871002195 l1.598939800262451,-0.6481599330902099 1.5893556594848632,-1.6770004272460937 l1.6113502502441406,-2.703131103515625 1.533047580718994,-3.1997602462768553 l1.0060234069824219,-3.5312774658203123 0.18499574661254883,-3.385791778564453 l-0.39578866958618164,-1.783238983154297 -1.500964641571045,-0.5004035949707031 l-1.209987735748291,1.5879348754882812 -1.0438663482666015,3.2840721130371096 l0.3311952590942383,4.284806823730468 0.7675456047058106,3.6968318939208986 l1.77840576171875,3.2052581787109373 2.776909065246582,2.0756940841674805 l2.9845691680908204,1.4343666076660155 2.085051345825195,-1.291111946105957 l2.6946205139160155,-2.3330509185791017 1.9253299713134766,-4.327792739868164 l1.2249632835388184,-4.852201080322265 m17.888258361816405,-15.366299438476563 l0.7255440711975097,-3.2616352081298827 -0.3856562614440918,-2.76122932434082 l-0.6514122962951661,-0.39786386489868164 -1.12626953125,2.427310752868652 l-1.981005859375,4.508644866943359 -1.9294200897216798,6.681575775146484 l-1.025218391418457,6.029725646972656 0.05538026690483093,4.495167541503906 l0.8145077705383301,2.427404022216797 1.9527809143066406,1.7589487075805663 l1.5024194717407227,0.30306899547576904 1.7868547439575195,-0.04123358130455017 l1.2119829177856445,-1.8625791549682618 1.4154884338378906,-2.362002372741699 l0.8069209098815918,-2.8977424621582033 m-9.345076751708984,-11.0859375 l0.18166981935501098,0.047472164034843445 1.9994466781616211,0.3918661832809448 l2.7601818084716796,-0.06321620345115661 3.0822357177734374,0.24213664531707763 l2.9115926742553713,0.09683822989463806 1.8794815063476562,-0.036760222911834714 l0.973243522644043,0.9364949226379394 -0.06187138557434082,0.4290276527404785 l0.660273551940918,2.63170166015625 m-1.2041043281555175,3.460702133178711 l0.3088133096694946,2.12237663269043 0.5683538436889648,2.994919204711914 l0.029689130187034608,2.093638610839844 0.5842199325561523,2.0954389572143555 l0.0443402498960495,0.43402953147888185 0.13886934518814087,-0.11153925657272339 l-0.4452793121337891,-1.2807819366455078 -0.4672435760498047,-1.9933937072753907 l-0.37514605522155764,-2.6664648056030273 0.143254816532135,-2.160565185546875 l-0.27111575603485105,-1.7307470321655274 0.7027628898620606,0.22440037727355958 l1.0724370956420899,0.18808938264846803 1.7000364303588866,-0.028252452611923218 l2.413638687133789,-0.4304949760437012 1.898409652709961,-1.4449687957763673 l1.9462224960327148,-1.5979004859924317 1.5758662223815918,-1.9384984970092773 l1.8183147430419921,-0.5167378902435302 1.2565786361694335,0.08655635118484498 l0.6792397975921631,0.33005633354187014 0.9019478797912598,1.0612192153930664 l1.389866256713867,1.6422779083251953 m7.295458984375,2.8284378051757812 l-0.5516852855682373,-0.05660040974617005 -0.7851944446563721,-0.5462347984313964 l-1.2106348037719727,-0.8795305252075195 -0.8413578987121582,0.6788211822509765 l-1.7804033279418945,0.6624577522277832 -1.6559881210327148,1.676620864868164 l-0.7698440074920654,3.1748533248901367 -0.21391642093658447,2.391875076293945 l0.7541463375091553,1.5527650833129882 1.284813117980957,0.6027278423309326 l1.9811080932617187,-0.5368779182434082 2.0851112365722657,-1.40772705078125 l1.3587841033935546,-2.2054656982421874 " fill="none" stroke="black" stroke-width="1" /></svg>