<?xml version="1.0" encoding="utf-8" ?>
<svg baseProfile="full" height="130.4547203440219" version="1.1" width="794.4169065423322" xmlns="http://www.w3.org/2000/svg" xmlns:ev="http://www.w3.org/2001/xml-events" xmlns:xlink="http://www.w3.org/1999/xlink"><defs /><rect fill="white" height="130.4547203440219" width="794.4169065423322" x="0" y="0" /><path d="M25,54.954605565965174 m40.69955749511719,-13.144102478027344 l0.48543553352355956,-0.006671266257762909 -0.06309581398963929,-0.09943590164184571 l0.15901074409484864,0.523719596862793 -0.4701505184173584,0.49086771011352537 l-0.028159970045089723,2.885988235473633 -0.7530206680297852,4.509169006347657 l-0.1825033903121948,5.101650238037109 -0.4113316535949707,5.228763580322266 l-0.0868910551071167,4.444927978515625 -0.08975915908813477,3.3278499603271485 l-0.03615466058254242,2.0896203994750975 -0.04731063842773438,0.999052619934082 m-8.397579193115234,-37.24371337890625 l-0.14004111289978027,0.258447265625 0.05067737698554993,0.1473862648010254 l0.6931071281433105,0.23588168621063232 1.163918685913086,0.7435319900512696 m20.01592102050781,23.389314270019533 l1.8085731506347655,2.4842912673950197 1.9353347778320313,4.057021713256836 l1.0503364562988282,3.911396789550781 0.9808950424194336,3.734849548339844 l0.4021510124206543,2.7720310211181642 0.15971122980117797,1.4697161674499513 l-0.16431926488876342,0.2744333267211914 -0.6361078262329102,-0.18151272535324098 l-1.081258201599121,-1.3175411224365234 -0.4342347145080566,-2.107905387878418 l-0.4940692901611328,-3.5582977294921876 0.20339303016662597,-3.6703937530517576 l0.30582876205444337,-4.320754623413086 0.4048927783966064,-4.47905158996582 l0.6434449672698974,-4.206754302978515 1.2541385650634767,-3.089758110046387 l1.367156410217285,-1.5058737754821778 1.5164899826049805,0.4841712474822998 l1.127698802947998,0.9878652572631836 1.2112462997436524,2.474660873413086 l0.3166797399520874,2.6089134216308594 0.3442898988723755,3.5008865356445313 l-0.24803531169891357,3.2316783905029296 -0.6297064781188965,2.1556108474731444 l-0.8416845321655273,1.1811485290527344 -1.4277840614318849,0.13547581434249878 l-1.8600435256958008,-1.1998636245727539 -0.4708691120147705,-1.5136881828308106 m19.423883056640626,-8.694239807128906 l1.6205804824829102,-0.5438751220703125 0.05880507230758667,-1.1162744522094727 l-0.6031698226928711,-1.787285041809082 -0.989961814880371,-1.6996679306030273 l-0.9530364990234375,-1.2726837158203126 -1.840848731994629,-0.7895314216613769 l-1.7318107604980468,-0.04553961157798767 -1.478919506072998,0.8757205963134765 l-1.1475299835205077,1.658614158630371 -0.07623369097709656,2.4637357711791994 l0.43198227882385254,2.4049613952636717 1.0571847915649415,2.436275672912598 l0.8918300628662109,1.9455772399902345 0.9554765701293946,0.9751895904541016 l0.5584956169128418,-0.24061360359191894 1.371756649017334,-0.6581128120422364 l1.569286823272705,-1.7027435302734375 0.918956184387207,-2.758010482788086 l0.22980210781097413,-2.391448211669922 -0.2219968318939209,-1.568849468231201 m25.94119873046875,7.110185241699218 l0.11074947118759156,-0.2961564302444458 0.44551591873168944,-0.30581939220428467 l-0.4703825950622559,-0.43220109939575196 -0.31365907192230225,-0.11883662939071656 l-0.7189419269561768,0.2733980655670166 -1.24885835647583,1.0663203239440917 l-0.9291876792907715,3.0002653121948244 0.025984352827072142,4.012287521362305 l-0.5144129753112793,3.3506492614746093 0.027074533700942992,3.4499671936035154 l0.16852941513061523,3.1397769927978514 -0.08506487607955933,0.8569821357727051 l-0.1888118267059326,-0.08163654208183288 0.5475459575653077,-0.846717643737793 l1.2765491485595704,-2.9578359603881834 1.6250240325927734,-4.429702377319336 l1.1872756958007813,-5.630824279785156 1.3702425003051757,-4.314196014404297 l0.659092378616333,-2.7950613021850588 0.4277015686035156,-0.9659980773925781 l0.333866548538208,-0.1674791693687439 0.31844635009765626,1.2248924255371094 l0.24823472499847413,2.9391870498657227 0.6634437561035156,4.057287216186523 l0.6191695213317872,3.3280872344970702 0.37145769596099854,1.8534215927124023 l1.0644635200500487,1.2530027389526368 1.0222039222717285,-0.9283729553222656 m8.186503601074218,-41.440240478515626 l-0.2664834260940552,-0.7697069644927979 -0.046109288930892944,-0.07573336958885193 l0.12904765605926513,0.5386829853057862 -0.8195573806762695,1.7654687881469726 l-0.6478442668914794,4.009712600708008 -0.32976765632629396,4.78724365234375 l-0.1209484577178955,5.314119338989258 0.10277090072631836,5.503894424438476 l0.3078558921813965,5.338949584960938 0.0054481133818626406,5.138489532470703 l-0.08740735054016113,4.642063903808594 0.2723399639129639,3.6655853271484373 m4.545218658447266,-11.142662811279298 l-0.15757522583007813,0.7702291011810303 -0.5512449741363525,-0.25578787326812746 l-1.2840927124023438,0.6736959457397461 -2.350226402282715,1.3305503845214843 l-1.880345344543457,1.5324889183044434 -2.1196889877319336,0.9966790199279785 l-1.5298829078674316,0.35393266677856444 -1.3266868591308594,-0.23882908821105958 m23.337074279785156,-8.841546630859375 l-0.7197253704071045,-0.4594578266143799 -1.2024670600891114,-0.4377123832702637 l-2.240970993041992,-0.1488086223602295 -2.8976749420166015,0.2338010549545288 l-2.2340301513671874,1.125730323791504 -1.7161422729492188,1.9152664184570312 l-1.1298072814941407,2.705549430847168 -0.3068824768066406,3.2836605072021485 l0.241241717338562,3.4758159637451174 0.6731847763061524,3.050906753540039 l1.6675189971923827,2.347496223449707 1.875623893737793,1.637791061401367 l1.4396885871887206,-0.035741811990737914 1.8396385192871094,-1.0298776626586914 l1.4985237121582031,-3.1975471496582033 1.4902870178222656,-2.885615921020508 l0.27279388904571533,-3.0796117782592773 -0.4786240577697754,-1.8471519470214843 l-0.5716174125671387,-0.9955766677856446 -0.3788882255554199,-0.03966823816299438 m19.012417602539063,-6.849648284912109 l-1.4320292472839355,0.4039419174194336 -1.9412309646606445,0.8583730697631836 l-1.8634834289550781,0.9613462448120117 -1.5285850524902345,1.2545037269592285 l-0.5070390224456787,2.2851648330688477 0.5233146667480468,2.6144388198852537 l0.888298511505127,3.2242340087890624 1.4481552124023438,2.526281547546387 l1.6927940368652343,2.00821590423584 1.3354750633239747,1.5326616287231445 l0.44534902572631835,0.7000078201293946 -0.49382729530334474,1.3291945457458496 l-0.7898199081420898,1.4044870376586913 -1.355033016204834,0.4426442623138428 l-2.5039363861083985,0.16189610958099365 -2.205251693725586,0.018987514078617096 m36.15846557617188,-21.650070190429688 l1.0953177452087401,-0.48009586334228516 -0.27481708526611326,-0.14100019931793212 l-0.3204216957092285,0.379569411277771 -1.0397727966308594,1.0741397857666015 l-2.0584293365478517,2.2595916748046876 -0.4878864765167236,3.442622756958008 l1.0621733665466309,4.048206329345703 1.0662906646728516,4.570779800415039 l1.4308109283447266,3.524302673339844 1.2356062889099122,1.7435579299926758 l0.3949877738952637,0.9008517265319824 -0.19371514320373534,0.0028695825487375258 l-0.1818094491958618,-0.42752876281738283 -1.3499610900878907,-0.5526763916015625 l-1.692281723022461,-1.3715753555297852 -2.0916889190673826,-2.2833654403686525 l-0.998881721496582,-2.09875602722168 -1.0500060081481934,-1.5471961975097657 m13.127792358398438,-32.734674072265626 l0.35961577892303465,0.2639805793762207 0.14352911710739136,-0.14949322938919068 l0.9132472038269043,1.272172737121582 0.5310335159301758,2.595103073120117 l0.42667646408081056,4.033265686035156 0.1340092897415161,3.706093597412109 l0.3234313726425171,4.373575210571289 0.9645898818969727,4.358177566528321 l0.42293620109558105,5.300822830200195 1.2008012771606444,5.774997711181641 l0.7756933689117431,6.020101547241211 0.3545872926712036,5.105709838867187 l0.2888589859008789,3.587331008911133 0.3585996627807617,1.7628934860229493 l-0.2100455045700073,0.3170188903808594 -0.025580990314483642,-0.16762644052505493 m7.089112091064453,-18.77312469482422 l-0.0028689183294773103,1.002155876159668 -0.3716816663742065,2.458328628540039 l-0.7237527370452881,3.034671974182129 -0.8036733627319336,3.1507246017456056 l-1.0508084297180176,1.9666427612304687 -1.9276687622070312,0.13393837213516235 l-1.6378074645996095,-0.37054123878479006 -1.1896387100219727,-0.49499125480651857 l-0.07674028873443603,-1.2544960021972655 0.36464648246765136,-2.020009994506836 l1.364287757873535,-2.3431983947753907 1.7415966033935546,-2.3898813247680666 l2.251859664916992,-1.516822052001953 2.8133562088012694,-0.6367159843444824 l2.8857585906982424,0.309199595451355 2.4713077545166016,0.24010915756225587 l1.55799560546875,1.1590087890625 0.6009169101715088,1.931287956237793 l-0.22357583045959473,2.9116735458374023 -0.5455767631530761,3.431476593017578 l-0.3643805742263794,4.194454193115234 -0.2749354839324951,2.6571950912475586 l-0.15195875167846679,1.1495611190795898 0.38142993450164797,0.9030317306518555 m14.030793762207031,-25.368389892578126 l0.12190752029418946,0.7925526618957519 -0.03886365294456482,2.068125915527344 l0.1999976396560669,2.515267562866211 0.5917062282562255,3.4498729705810547 l1.1183032035827636,3.956026077270508 1.068709945678711,3.5358577728271485 l1.1061714172363282,3.579713821411133 0.40793623924255373,1.4564085006713867 l0.5807993888854981,0.458329439163208 0.6798861503601075,-0.4453479290008545 l0.5396496772766113,-1.0000704765319823 0.7443548202514648,-2.430022430419922 l0.2100821018218994,-3.0960670471191407 -0.007932095229625702,-3.2495773315429686 l0.35939822196960447,-1.4980124473571776 0.15990370512008667,-0.5137188911437989 l0.004056286066770554,-0.15846241712570192 1.1171453475952149,0.8989547729492188 l1.559967041015625,2.3248199462890624 1.8284551620483398,2.4316165924072264 l1.9033681869506835,2.3731918334960938 1.678640365600586,2.8670719146728514 l1.0092968940734863,1.7758689880371095 0.7786667823791504,1.134378433227539 m5.920611572265625,-23.450959777832033 l1.1403759956359862,0.13360979557037353 0.5570488929748535,1.2060558319091796 l0.034017506241798404,1.607476806640625 -0.012826021015644073,3.51611328125 l-0.44488935470581054,3.462751770019531 0.06372812390327454,4.787865447998047 l0.07026804089546204,4.9587043762207035 0.5263478279113769,3.9792484283447265 l0.4974273681640625,3.503126525878906 0.2907091617584229,1.593466567993164 l0.20113697052001953,-0.10640754699707031 0.7428825378417969,-1.293219757080078 m5.720960235595703,-17.317543029785156 l0.37169475555419923,0.6882510185241699 -1.3569273948669434,0.4521511077880859 l-1.9797187805175782,1.1660982131958009 -2.235993194580078,0.09707322120666503 l-2.031162452697754,0.49499096870422366 -1.716649627685547,0.3189836502075195 l-1.3606196403503419,-0.13789373636245728 -0.5252442836761475,-0.6127898693084717 l-0.3206374406814575,-0.9146135330200196 m9.184654235839844,-34.0394287109375 l0.42955379486083983,0.2803364276885986 0.08058972358703613,0.32438862323760986 l0.10734368562698364,0.35424227714538575 -0.06004480123519897,1.932174301147461 l0.16174148321151732,4.4193683624267575 1.5325879096984862,6.631153106689453 l2.078680992126465,6.376560211181641 2.1332698822021485,7.063836669921875 l1.8508541107177734,6.701837158203125 1.4184463500976563,5.575714111328125 l1.1236443519592285,2.5968032836914063 0.9796840667724609,0.13573505878448486 l1.1560467720031737,-1.4317897796630858 0.5645317077636719,-2.641389846801758 l0.5316663265228272,-3.220692443847656 0.36633350849151614,-2.7824981689453123 l0.4260237693786621,-0.9729620933532714 1.2439547538757325,-0.12964473962783812 l1.5224493980407714,0.7620206832885742 2.037997817993164,1.9656383514404296 l2.1331771850585937,2.5174911499023436 1.4813804626464844,1.6401451110839844 l1.672308349609375,1.2297085762023925 1.0629143714904785,0.7699522972106934 m2.7123954772949217,8.316046142578125 l0.9699913024902344,2.9961315155029298 -0.6159087181091308,3.9570972442626955 l-1.4782429695129395,3.1318761825561525 -1.7041433334350586,2.9283416748046873 l-1.7073720932006835,0.9687002182006836 -1.6468202590942382,-0.09585884213447571 l-0.8495711326599121,-0.09124997854232789 -0.5725818157196045,-1.976823616027832 m28.304150390625,-36.8754150390625 l0.6298091411590576,0.6729892730712891 0.09055013060569764,1.7514936447143554 l-0.28650894165039065,3.654128646850586 -0.4371983051300049,5.690814971923828 m-3.0346042633056642,13.776409912109376 l-0.7612056255340576,4.33009033203125 -0.1666525721549988,1.9580541610717774 l-0.17621805667877197,-0.5044040679931641 0.2688877820968628,-3.4424129486083985 l0.3923530101776123,-4.1470497131347654 0.5258559703826904,-4.680925369262695 l0.9260694503784179,-4.865579605102539 0.8152074813842773,-4.874835968017578 l0.750464391708374,-3.207858657836914 0.7965469360351562,-1.7637027740478515 l1.1471426010131835,-0.2231685161590576 1.9076005935668945,0.6769565582275391 l1.4813512802124023,1.818476676940918 1.2145462036132812,2.1138469696044924 l1.170686912536621,2.4023021697998046 0.7285195350646972,1.042588710784912 l1.1219834327697753,0.19183495044708251 1.4501821517944335,-0.5338852405548096 l1.3045964241027832,-1.6348512649536133 m-2.7879104614257812,-23.925543212890624 l1.361478614807129,0.9351805686950684 1.376223087310791,1.3762063026428222 l0.9364209175109863,1.3881427764892578 m6.699845886230468,20.563482666015624 l0.5589368343353271,0.5271238803863525 0.5104158401489258,0.8992530822753906 l0.2328252077102661,1.7302936553955077 -0.013518548011779786,2.8738285064697267 l0.16525726318359374,4.158446884155273 0.20162501335144042,4.6767631530761715 l0.4547260284423828,5.7347572326660154 0.7099856853485107,5.927750015258789 l0.5794413089752197,5.4961894989013675 0.44181318283081056,5.088159561157227 l0.3862548112869263,3.113545227050781 -0.05201835036277771,0.30146541595458987 l-0.147727108001709,-0.5179878234863281 -0.08364520072937012,-3.2085861206054687 l-0.6238866806030273,-5.107236862182617 -0.9587700843811036,-6.33918571472168 l-0.8451196670532226,-7.059535217285156 -0.5957369327545166,-6.866790008544922 l-0.3704157829284668,-6.092298126220703 0.25674853324890134,-5.098398590087891 l0.6851405620574951,-3.0069055557250977 1.3000992774963378,-0.9147390365600586 l1.5435086250305177,-0.2128213882446289 2.271610069274902,0.6981027126312256 l2.1299949645996095,3.364897918701172 1.764892578125,3.78924674987793 l0.8235199928283692,3.4518096923828123 0.19910473823547364,3.1284597396850584 l-1.2793521881103516,1.415281105041504 -1.8886016845703124,0.9195647239685059 l-2.164902114868164,0.6765573501586915 -1.8194673538208008,0.4198185920715332 l-1.3642827033996583,-0.13433247804641724 0.2934140205383301,0.4002434730529785 l0.7868141651153564,-0.48181924819946287 2.7205026626586912,-1.5269105911254883 m18.665206909179688,-16.128201293945313 l-0.16084407567977904,0.6386110782623291 0.15448402166366576,2.318392753601074 l-0.34033002853393557,2.5448383331298827 -0.16754752397537231,3.1535465240478517 l0.7898735523223877,4.02568359375 0.9714048385620118,3.9130176544189452 l0.7894495010375977,4.247457122802734 1.372336483001709,4.468240356445312 l1.4593167304992676,2.73311824798584 1.0629196166992188,1.848464584350586 l1.6447895050048829,0.47524290084838866 0.8055517196655273,0.3577536344528198 l0.9727180480957032,0.41649227142333983 1.2548255920410156,-0.5947727680206298 l1.4388648986816406,-1.6329687118530274 1.549328327178955,-1.720355224609375 l1.481213092803955,-2.1944427490234375 1.0351030349731445,-1.8128124237060548 l0.6846882820129394,-1.0671247482299804 0.5782754421234131,-0.5754447937011719 l0.46395559310913087,-0.2714836120605469 0.4404913425445557,0.7392213821411133 l0.7182865142822266,0.7327325820922852 0.5596625804901123,2.0382680892944336 l0.6153021335601807,1.5022994995117187 0.6127235412597656,2.2225051879882813 l1.2100729942321777,1.3724763870239258 1.5395799636840821,0.8347324371337891 l2.210037040710449,-0.0886853814125061 2.478804016113281,-0.28333139419555664 l2.3719532012939455,-2.0676246643066407 2.2353822708129885,-2.283796501159668 l1.733462142944336,-1.8780757904052734 0.9644616127014161,-2.2597110748291014 l0.14471720457077025,-2.030778503417969 -0.6437191963195801,-1.6474214553833009 l-1.304521083831787,-0.5691802978515625 -1.3226556777954102,-0.3914391040802002 l-1.6535747528076172,0.5707777976989746 -1.3315032958984374,1.1440876007080079 l-1.1498948097229005,2.53812313079834 -0.2964663505554199,1.7363775253295899 l0.2127582311630249,2.4459142684936523 0.9254701614379883,2.6618650436401365 l1.1721257209777831,1.8008398056030273 1.4264734268188477,1.4984882354736329 l1.7509037017822267,0.6587228775024414 1.894389533996582,0.4074981689453125 m11.497006225585938,-9.749545288085937 l-0.43434953689575195,0.19799042940139772 -0.4840132713317871,0.7866172313690185 l-1.0071438789367675,0.9106334686279297 -1.0429567337036132,1.1719673156738282 l-0.7555135726928711,1.7987550735473632 -0.3338888645172119,1.5790696144104004 l-0.06403589844703675,1.0795531272888184 0.39976139068603517,0.8965676307678223 l0.8780638694763183,0.4416482925415039 0.7154773712158203,-0.814998722076416 l1.0669166564941406,-1.0998724937438964 1.147475814819336,-3.054466438293457 l1.2099980354309081,-3.6410057067871096 1.4713892936706543,-4.387554931640625 l1.1635041236877441,-3.879703903198242 0.743673038482666,-3.383381652832031 l0.09721665978431701,-1.4065000534057617 -0.15209553241729737,-0.7954242706298829 l-0.008402947336435318,0.27629292011260986 0.21412017345428466,0.31027984619140625 l-0.04984326660633087,2.299628257751465 0.3147458553314209,3.093539810180664 l0.6534370422363281,3.4621742248535154 0.875368309020996,4.493204498291016 l1.0976408958435058,3.527845001220703 1.3164417266845703,3.4892791748046874 l1.3451347351074219,2.348969268798828 1.6169097900390625,2.2327625274658205 m49.881866455078125,-13.82701416015625 l0.29492261409759524,-1.4110174179077148 0.25083625316619873,-1.9858295440673828 l0.3430276870727539,-2.2531356811523438 -0.1724226951599121,-2.3715925216674805 l0.20443191528320312,-2.2326261520385744 0.15188992023468018,-2.7331661224365233 l-0.5651585578918457,-2.7888031005859375 -0.44283571243286135,-3.031665802001953 l-1.1803323745727539,-2.1739580154418947 -1.232565689086914,-1.3660956382751466 l-1.7874135971069336,-1.2279640197753907 -1.310953140258789,-0.22989048957824706 l-1.8219196319580078,0.13038182258605957 -1.2788323402404784,1.3296975135803222 l-0.4905238151550293,2.136440658569336 0.33179545402526855,3.9298614501953124 l0.0359092116355896,4.029150009155273 0.7771339893341065,4.452885437011719 l0.3024738788604736,4.334846878051758 1.3451229095458985,5.017426300048828 l1.5476723670959474,4.089017486572265 1.2586957931518554,5.408739471435547 l2.393828582763672,4.944205474853516 1.2523733139038087,3.550277328491211 l0.7669848442077637,2.7132863998413086 1.1055849075317383,1.1544448852539062 l0.32757208347320554,0.03679360151290893 m-1.2536693572998048,-15.657763671875 l1.1776400566101075,1.123198890686035 1.1994226455688477,-0.20637226104736328 l2.0509387969970705,1.4251258850097657 1.4669228553771974,0.9551592826843261 l1.8782867431640624,1.9025257110595704 1.651270294189453,1.769854736328125 l0.9845740318298339,1.3554067611694336 1.0226415634155273,1.7500528335571288 l0.03797770142555237,0.8641825675964355 -0.2807361125946045,1.035797691345215 l-1.9125545501708985,-0.31962177753448484 -2.209433746337891,0.4730803966522217 l-2.508636474609375,-0.18944950103759767 -2.372641372680664,-0.2898496389389038 l-2.7633262634277345,-0.7283590316772461 -1.725385856628418,-0.255250358581543 l-1.126528549194336,-0.5650553703308105 -0.5548546791076661,-0.8825843811035157 l0.12603304386138917,-0.9286990165710449 m27.463006591796876,-7.522410583496094 l-1.1591400146484374,0.2390120267868042 -2.1737918853759766,0.29073047637939453 l-2.3782369613647463,0.6223699569702148 -2.2822704315185547,1.6944717407226562 l-2.0290733337402345,1.6698802947998046 -1.3441015243530274,2.0450437545776365 l-0.057284975051879884,1.9657146453857421 0.5551053047180176,0.7163169860839844 l1.604489517211914,0.6571217060089112 1.9178783416748046,-0.04591380059719086 l2.5877191543579103,-0.34406337738037107 2.545826721191406,-0.8437967300415039 l2.444687271118164,-1.1256304740905763 2.2604652404785157,-1.4685546875 l1.2525352478027343,-1.7720195770263671 0.20091168880462645,-1.7057029724121093 l-0.417679500579834,-1.2747925758361816 -0.49742932319641114,-0.7020291805267334 l-1.4049562454223632,-0.8860407829284668 -0.6635855674743653,-0.2932750940322876 m8.143623352050781,-3.6786754608154295 l-0.7380208015441895,0.03725728392601013 -0.3752974271774292,0.7291945934295654 l-0.3553048610687256,1.3489877700805664 0.74744553565979,2.6867347717285157 l0.5960686206817627,2.5853063583374025 1.199015998840332,2.6622209548950195 l1.2486132621765136,1.6985393524169923 1.6304265975952148,0.9563529968261719 l2.0994056701660155,0.25321552753448484 1.446263885498047,-0.6986332893371582 l1.7967948913574219,-0.9401517868041992 1.192532730102539,-1.749549674987793 l0.46006274223327637,-2.087369918823242 0.36948940753936765,-2.2480148315429687 l-0.09268534779548646,-2.420050621032715 -0.33897013664245607,-1.8579458236694335 l-0.2151634454727173,-0.7370598316192627 0.018699416518211366,0.2786061763763428 l-0.39371485710144044,0.6487350940704346 0.6298403739929199,2.377445030212402 l-0.021203938126564025,2.032628631591797 0.6021173000335693,2.2569854736328123 l1.0172407150268554,2.2981983184814454 0.931297492980957,1.526462459564209 l0.9179837226867675,0.8727499008178711 0.7894875526428222,-0.002295901253819466 l0.9586136817932129,-0.21133222579956054 0.8200843811035157,-1.2188940048217773 m4.926902770996094,-21.531333923339844 l0.22368509769439698,1.682257843017578 0.28840577602386475,3.114249038696289 l0.6378658294677735,3.783522033691406 0.26714680194854734,3.4139705657958985 l0.5455800056457519,3.185600471496582 0.015690751373767853,2.706517219543457 l0.23106553554534912,2.4644603729248047 -0.04930506348609924,0.839692211151123 m-10.0145751953125,-8.826887512207032 l-0.3686105728149414,-0.35290703773498533 0.3758413314819336,0.1401508331298828 l1.5906435012817384,0.10032659769058228 2.8264404296875,-0.22656402587890626 l3.748431396484375,-0.6190104484558105 4.14330825805664,-0.753813362121582 l3.325271987915039,-1.2368129730224608 m4.459027862548828,-14.8865234375 l0.09567360877990723,0.2683908939361572 0.6056272983551025,0.582823371887207 l0.5688507080078125,1.923141860961914 1.2811445236206054,2.8243408203125 l1.152662754058838,3.200457000732422 1.53104829788208,3.670004653930664 l1.150589370727539,3.138088417053223 1.0540715217590333,2.527066230773926 l0.7212764739990234,1.6794906616210938 0.7721070766448974,0.9611063003540039 l0.1940323829650879,-0.07788511514663696 0.828419303894043,-0.040295496582984924 l0.7957324981689453,-1.5051563262939454 2.0319940567016603,-2.280909538269043 l1.592664909362793,-2.7252378463745117 1.3233701705932617,-2.26259822845459 l1.0555337905883788,-1.2487569808959962 1.0561928749084473,-0.034838360548019406 l0.6081958293914795,0.045946833491325376 0.6935489654541016,0.6188051223754882 l0.10951036214828491,1.2155309677124024 -0.09992349743843079,1.5906658172607422 l0.29368641376495364,2.463588333129883 0.05392836332321167,2.425050735473633 m8.529303741455077,-5.325533294677735 l0.4535468578338623,0.004196183383464813 1.2939617156982421,-0.03513900935649872 l1.552077293395996,-0.6069217205047608 2.1093101501464844,-0.49179792404174805 l2.0730207443237303,-0.7094668865203857 1.3897236824035644,-1.3701638221740722 l1.7285762786865235,-0.6484335899353028 0.28469414710998536,-1.3455032348632812 l0.10469348430633545,-1.112862777709961 -0.10728533267974853,-0.7409914970397949 l-0.5857503890991211,-0.7828483581542969 -1.2852703094482423,-0.46898741722106935 l-1.7293960571289062,-0.06522319316864014 -2.2620471954345702,0.5107262134552002 l-2.143126678466797,1.2864570617675781 -1.7856943130493164,2.014832305908203 l-1.8497821807861328,1.826188087463379 -1.3214808464050294,2.147661590576172 l-0.2644519567489624,2.1904924392700194 0.24817590713500975,1.706338119506836 l0.9842588424682617,1.4468208312988282 1.7704240798950195,0.6627073764801026 l2.9980907440185547,0.9925371170043945 2.7400146484375,-0.09314262866973877 l2.9331661224365235,-0.46020798683166503 2.9574874877929687,-0.808740234375 l2.6273418426513673,-0.7125988960266113 2.088645172119141,-0.7481666088104248 m8.076084899902344,-9.058389282226562 l-0.2074141263961792,-0.36663503646850587 -0.15847080945968628,-0.27129831314086916 l-0.34895346164703367,-0.265028190612793 -0.6014438152313233,-0.2822782039642334 l-1.0156888961791992,-0.054007220268249514 -1.5729736328125,0.07142356634140015 l-1.789503288269043,0.39969534873962403 -1.7689970016479493,0.7693748950958252 l-1.012589454650879,1.3525284767150878 -0.7985751152038574,1.190773868560791 l0.10703274011611938,1.3050552368164063 0.5167380332946777,0.7913339138031006 l1.4173044204711913,0.9590598106384277 1.9588218688964845,0.7805743217468262 l1.6919830322265625,0.0975304126739502 1.7490879058837892,-0.4588803291320801 l2.05615234375,-0.4608405113220215 1.4173642158508302,-1.2266369819641114 l0.9844362258911132,-1.6908073425292969 1.1712746620178223,-1.070553684234619 l-0.2635234594345093,-1.2331086158752442 -0.48604717254638674,-0.9417169570922852 l-0.7133149623870849,-0.9810373306274414 -0.7994697570800782,-0.3746302127838135 l-0.780098819732666,-0.0776163399219513 -0.8242417335510254,0.40863747596740724 l-0.5187919616699219,1.2067116737365722 -0.5381445407867431,2.0565013885498047 m15.9042236328125,-4.754424285888672 l-1.5773563385009766,-0.14237301349639891 -1.7513629913330078,0.11689455509185791 l-2.1254688262939454,0.3274897575378418 -1.8246143341064454,0.5629435539245605 l-0.9098298072814941,0.9671135902404785 -0.30337574481964114,0.7248221397399902 l0.2903357744216919,0.9246200561523438 1.4353181838989257,1.2624053001403808 l2.105606460571289,1.0891743659973145 2.6524417877197264,1.0199498176574706 l2.7360912322998048,0.7680976867675782 3.1648303985595705,1.0490832328796387 l2.400714111328125,0.7278675556182861 1.73145751953125,0.7450149536132813 l0.5393003940582275,0.5019283771514893 0.03123828172683716,0.7856630325317383 l-1.7129756927490234,0.5929275035858155 -2.041580009460449,1.2565464973449707 l-3.140829086303711,0.6529269695281983 -3.3487098693847654,0.3220371246337891 l-2.9085487365722655,0.31236088275909424 -1.9830102920532227,0.09145966172218323 l-1.0861076354980468,-0.04460969269275665 -0.34183626174926757,0.011258451640605927 m31.760577392578124,-32.16184692382812 l-0.27483937740325926,-0.13340256214141846 -0.16102290153503418,0.2594447612762451 l0.9484809875488281,2.0881404876708984 0.6889214515686035,2.523918342590332 l0.9277565002441406,3.2729793548583985 0.9278925895690918,3.68151969909668 l0.6912652015686035,3.524417495727539 0.49419002532958983,3.661363220214844 l0.3059160947799683,3.2941890716552735 0.3252777814865112,3.3175739288330077 l0.4855210781097412,2.6503036499023436 0.348357629776001,2.0759124755859375 l0.10578356981277466,1.2671241760253906 -0.142059326171875,0.3989405155181885 l0.2348923921585083,0.2953035354614258 0.16910476684570314,0.018774092197418213 m4.389245986938477,-6.162955856323242 l0.45003108978271483,1.517432689666748 1.0066926956176758,2.0827991485595705 l1.291978359222412,2.081079292297363 1.171286678314209,1.9886638641357421 l0.3743526697158813,1.2612955093383789 1.5320548057556151,1.701304054260254 l0.904084300994873,1.1532649993896484 0.6596122741699219,0.7485941886901856 m2.847428321838379,-18.27985534667969 l-0.09749786853790283,-0.21216878890991211 0.1501847267150879,0.19799953699111938 l-0.16960492134094238,0.8729852676391602 0.36853704452514646,1.5957942962646485 l0.3522441625595093,1.992498016357422 0.38729209899902345,2.119887924194336 l1.370633029937744,2.47915096282959 1.1200071334838868,2.072281074523926 l0.8050286293029785,1.4689370155334474 1.5211238861083984,1.3674506187438964 l1.055513572692871,0.42330002784729004 1.4368525505065919,-0.13392919301986694 l1.275642490386963,-1.2292407989501952 1.0941701889038087,-1.7302305221557617 l1.1734489440917968,-2.3452585220336912 1.1441408157348634,-2.4891521453857424 l0.999846076965332,-2.079229545593262 0.7597149848937989,-1.4212165832519532 l0.7906851768493652,-0.5834611892700196 0.24122228622436523,-0.0866127848625183 l0.20639193058013916,0.2597827911376953 0.8273332595825196,1.297184371948242 l1.2949934959411622,2.4267414093017576 1.183525562286377,2.3160518646240233 l1.039789581298828,2.071707534790039 1.5867341995239257,1.953885841369629 l2.1391298294067385,1.7501426696777345 1.8104671478271483,1.1851514816284179 l2.5365669250488283,0.7536998748779297 1.7770200729370118,0.12274490594863892 l2.0119815826416017,-0.5639489173889161 2.1318380355834963,-1.227298641204834 l1.8777227401733398,-1.9420967102050781 1.2085136413574218,-2.276841926574707 l0.8899992942810059,-2.2537059783935547 0.3126054763793945,-1.9410438537597656 l-0.6222373008728027,-1.8598516464233399 -0.8923604965209961,-1.47689208984375 l-0.8197258949279785,-0.7232604026794434 -1.270815658569336,-0.3365959644317627 l-0.9012231826782227,0.417940092086792 -0.8008658409118652,0.8812643051147461 l-1.1795177459716797,1.6157222747802735 0.3954362630844116,2.7634603500366213 l0.11452175378799438,2.2060068130493162 1.0124143600463866,1.9140670776367188 l1.6295038223266602,1.2752925872802734 2.7846187591552733,1.0998903274536134 m20.37318115234375,-6.420075225830078 l0.3964617490768433,-0.9463979721069335 -0.36311631202697753,-1.1865338325500487 l-0.843293285369873,-1.2911249160766602 -1.4310867309570312,-1.0629459381103517 l-1.9552997589111327,-0.5569169521331787 -2.1330898284912108,0.059372717142105104 l-2.1365583419799803,0.6605494022369385 -2.7786760330200195,0.7395396709442139 l-0.9376391410827637,1.735707664489746 -0.9162989616394043,1.8290159225463867 l-0.24318830966949462,2.0538633346557615 0.2506845951080322,1.6227872848510743 l1.5771955490112304,1.876824951171875 1.6200691223144532,1.2321773529052735 l2.490745735168457,1.1489259719848632 2.3895191192626952,0.1694771647453308 l2.33919620513916,-0.29697632789611816 2.8932397842407225,-0.278606653213501 l1.752344512939453,-1.120430088043213 1.880120849609375,-1.6288793563842774 l1.0396342277526855,-1.9148923873901367 0.7937312602996827,-1.9586612701416015 l-0.22063307762145995,-1.4997581481933593 -0.5381491184234619,-1.1181253433227538 l-0.5667483806610107,-0.43273062705993653 -0.35417752265930175,-0.09377425909042358 l-0.016215473413467407,0.2425535202026367 0.6062002658843995,1.294977569580078 l0.5288019180297852,1.7351072311401368 1.4123501777648926,2.180461883544922 l1.2264127731323242,1.7458341598510743 1.9372684478759765,1.6533935546875 l1.152623176574707,0.301830530166626 2.10103816986084,0.22077112197875975 l1.557752799987793,-0.9886394500732422 1.630026626586914,-1.9413482666015625 l1.781321144104004,-2.443459320068359 1.0188869476318358,-2.5204145431518556 l0.2909907341003418,-2.9855249404907225 0.6417273998260498,-3.322183609008789 l-0.042704761028289795,-3.0339076995849608 0.6421557426452636,-2.827589416503906 l-0.40935626029968264,-2.2596324920654296 -0.19015064239501953,-1.7962682723999024 l-0.19183502197265626,-0.9856064796447754 -0.37045395374298096,-0.24079055786132814 l-0.05744262933731079,0.22676875591278076 -0.5548161506652832,1.205625629425049 l-0.12695879936218263,2.1046833038330077 0.05575818419456482,2.706302261352539 l0.1364156723022461,3.160753631591797 0.8214150428771972,3.499263381958008 l0.28112566471099854,3.2404876708984376 0.6367336273193359,3.1401975631713865 l0.7416562557220459,2.430069160461426 1.0619297981262208,2.0398542404174806 m25.63831481933594,-20.036781311035156 " fill="none" stroke="black" stroke-width="1" /></svg>