<?xml version="1.0" encoding="utf-8" ?>
<svg baseProfile="full" height="132.3901420233771" version="1.1" width="1266.948006582819" xmlns="http://www.w3.org/2000/svg" xmlns:ev="http://www.w3.org/2001/xml-events" xmlns:xlink="http://www.w3.org/1999/xlink"><defs /><rect fill="white" height="132.3901420233771" width="1266.948006582819" x="0" y="0" /><path d="M31.755109548568726,44.381417716853306 m-6.532566833496094,-9.86312255859375 l-0.22254271507263185,-0.2916418075561523 0.23315644264221191,-0.15620737075805663 l0.2290797233581543,0.10140043497085571 0.9545133590698243,0.06949607133865357 l2.1332172393798827,0.6287895202636719 2.3559036254882812,0.8370338439941406 l1.6325122833251953,0.42493538856506347 2.5240163803100586,0.9010019302368164 l2.5512027740478516,1.1550541877746583 m17.019126892089844,3.0840835571289062 l-1.3227019309997559,-0.0524618923664093 -1.2250288009643555,-0.017059746384620666 l-1.4445598602294922,-0.22535886764526367 -1.8526905059814454,0.18507254123687744 l-1.554309368133545,0.6593117237091064 -1.517423725128174,1.113365077972412 l-1.126023769378662,1.8500768661499023 -0.08821677565574645,2.3820091247558595 l-0.54031343460083,1.9722774505615235 0.476256275177002,1.7969730377197266 l1.3466911315917969,1.34246768951416 1.201410675048828,0.36564011573791505 l2.213394355773926,-0.17393815517425537 2.0544418334960937,-1.2643451690673828 l2.491043281555176,-1.765619659423828 2.065943145751953,-2.5261863708496093 l1.3517531394958495,-2.342121124267578 1.386507225036621,-2.149967384338379 l0.03896346390247345,-1.4789636611938477 0.29194025993347167,-0.3532278299331665 l-0.23305037021636962,-0.33312454223632815 0.06019601821899414,0.22748661041259766 l0.2587906360626221,0.9333010673522949 0.015399563312530517,2.0153762817382814 l0.2995362043380737,2.6598699569702147 0.5874445915222168,2.4693204879760744 l1.0404041290283204,2.481510543823242 0.9042044639587402,2.056806945800781 l0.2373746395111084,0.9524455070495605 0.853390121459961,0.4526846408843994 l0.8714282989501954,-0.8394022941589355 1.6473804473876954,-1.6711408615112304 m44.605648803710935,4.737205886840821 l0.037709790468215945,0.008547692000865937 -0.008973157405853272,-0.06528140306472778 l0.06394820809364318,-0.06500469446182251 -0.3160553932189941,-0.9904306411743165 l0.4844001293182373,-1.0973764419555665 0.46895413398742675,-1.527838897705078 l1.2371095657348632,-1.6827936172485352 1.1089242935180663,-2.12827091217041 l1.9545648574829102,-2.2967355728149412 1.6059440612792968,-2.6248682022094725 l1.2619451522827148,-2.7175195693969725 1.673228645324707,-2.520426940917969 m7.085317993164063,-8.040760040283203 l-0.11713087558746338,0.4414498329162598 0.055910521745681764,2.5168237686157227 l0.4492189407348633,3.2504955291748048 0.44095525741577146,4.3752281188964846 l-0.028521233797073366,4.826499557495117 0.26964845657348635,4.67499885559082 l0.5700464248657227,5.074318695068359 0.7639197826385498,4.217315673828125 l1.1791448593139648,3.8052032470703123 1.457960605621338,1.7701404571533204 l1.5812376022338868,0.8499844551086426 1.6225448608398438,-0.2393519639968872 m4.766944122314453,-39.174993896484374 l0.13657699823379515,0.07135909795761108 0.09159862995147705,1.2108182907104492 l0.6014969825744629,3.4043102264404297 0.38679578304290774,3.817210388183594 l0.6326325416564942,5.488755798339843 0.6270183563232422,5.983512115478516 l0.925749683380127,6.353272247314453 0.9468448638916016,6.662743377685547 l1.2248187065124512,5.895232772827148 1.4792710304260255,5.02929916381836 l1.4282491683959961,4.10113296508789 1.652568244934082,2.3525774002075197 m-23.89916076660156,-27.892620849609376 l-0.1250899076461792,-0.2512065410614014 0.43498964309692384,0.7125582218170166 l1.9875614166259765,0.2651665449142456 2.9713359832763673,-0.28801190853118896 m24.52954864501953,-11.14914321899414 l0.8328399658203125,-0.37696332931518556 0.6339158058166504,0.3662680387496948 l0.9008180618286132,1.4955127716064454 0.5990538120269775,2.910030555725098 l0.3452470302581787,3.1815170288085937 0.5320737838745118,4.1706279754638675 l0.19729259014129638,4.359158325195312 0.2636367082595825,4.388347244262695 l0.3638876438140869,3.340567398071289 0.31066622734069826,1.060767364501953 l0.3784431219100952,-0.12285102605819702 0.6657171726226807,-1.3790119171142579 l0.839031982421875,-2.8224971771240233 1.3754276275634765,-3.267507553100586 l1.2742079734802245,-3.4896175384521486 1.4438573837280273,-2.3191776275634766 l1.2782088279724122,-1.2693231582641602 0.6708377838134766,-0.5640376091003418 l0.7614008903503418,0.14309296607971192 0.9255706787109375,1.7322967529296875 l0.8227871894836426,2.285799026489258 0.9109392166137695,2.791554260253906 l0.9694801330566406,2.75637149810791 1.2104135513305665,2.1210960388183593 l1.4460667610168456,1.1828697204589844 1.268679141998291,-0.12178571224212646 l1.4205742835998536,-0.6771597862243652 1.679949951171875,-1.5523107528686524 l1.1176116943359375,-2.5283815383911135 0.5520598411560058,-2.3679561614990234 l0.08349022865295411,-1.6708070755004882 -0.8957968711853027,-1.6355903625488282 l-1.0349260330200196,-0.7816386222839355 -1.6384567260742187,-0.4018119812011719 l-1.6500167846679688,0.564779806137085 -1.29197359085083,1.8073417663574218 l-0.9571994781494141,2.281238555908203 0.09524195194244385,2.962192726135254 l0.5110371112823486,2.5704265594482423 1.4201712608337402,2.3390262603759764 l2.070733642578125,1.4941667556762694 2.5392152786254885,0.6117186546325684 l2.955613899230957,0.10896799564361573 3.1409633636474608,-0.26647746562957764 m22.397079467773438,-20.120399475097656 l0.08395776152610779,-0.28655123710632324 -0.5435118198394775,-0.8626239776611329 l0.2441403865814209,0.2223201274871826 0.07511186003684997,0.3032384872436523 l0.3594385623931885,1.479881191253662 0.4171131134033203,2.976482391357422 l0.23687613010406494,3.0385272979736326 0.12082054615020751,3.5191139221191405 l0.521726131439209,4.060387039184571 0.6354064464569091,3.7032501220703127 l0.3633409976959229,2.5436479568481447 0.6584212303161621,1.6760871887207032 l0.08488209247589111,0.12896782159805298 0.10121923685073853,-0.3000800609588623 l-0.27605352401733396,-1.2544990539550782 -0.43456740379333497,-3.052133560180664 l-1.0263471603393555,-4.150379180908203 -1.0986406326293945,-4.296665191650391 l-0.5816519737243653,-3.7814376831054686 -0.555512809753418,-3.026067924499512 l-0.33112249374389646,-2.150642204284668 -0.1512065052986145,-1.622826385498047 l0.09832536578178405,-0.3636303424835205 0.2052537202835083,0.10143239498138427 l0.8667632102966308,0.8468057632446289 1.9420473098754882,1.9366790771484375 l1.984014129638672,1.7287315368652343 2.351218032836914,1.677527618408203 l2.212608528137207,1.371579933166504 2.109084701538086,1.3518649101257325 l1.8021720886230468,0.3857352495193481 1.9381233215332032,0.1143743634223938 l1.69371337890625,-0.6702337265014648 1.1326704978942872,-1.3655652046203612 l0.9644922256469727,-1.0154769897460938 0.41474213600158694,-1.082665252685547 l-0.4539654731750488,-1.156463623046875 -0.7000337600708008,-0.6222122192382813 l-0.8920680046081543,-0.7140678405761719 -1.4160818099975585,0.10554084777832032 l-1.2712661743164062,0.9540920257568359 -0.7247164249420166,1.9238157272338867 l-1.0530202865600586,2.093204879760742 0.1552157521247864,2.9294689178466795 l1.008797836303711,3.320051574707031 1.4925752639770509,2.7681503295898438 l2.375483512878418,2.536259078979492 2.424663543701172,1.441411590576172 l3.7473968505859374,1.3070022583007812 3.1738067626953126,-0.30191893577575685 l3.048405647277832,-1.031986618041992 2.6869928359985353,-1.6756637573242188 l2.0469034194946287,-2.0267545700073244 1.1184892654418945,-2.394588279724121 l0.40241241455078125,-2.399557113647461 -0.9233774185180664,-2.77075309753418 l-1.0258543014526367,-2.0640220642089844 -1.5866464614868163,-1.9267745971679688 l-1.4941287994384767,-1.26304349899292 -1.0818346977233886,-0.8556612968444824 l-0.3970039367675781,-0.03105635941028595 0.13644716739654542,0.13761569261550904 l0.6273370742797851,-0.17420440912246704 1.767511749267578,-0.08353368043899537 l2.9570003509521485,-0.1484978437423706 3.312679672241211,-0.913248348236084 l3.5067901611328125,-0.35953149795532224 3.847059631347656,-0.08981689810752869 m32.67460632324219,1.566250705718994 l0.055589163303375246,-0.6142065525054932 0.17920980453491211,-0.6623237609863282 l-0.2606912612915039,-1.0845382690429688 -0.7538739204406738,-1.1928998947143554 l-1.1157611846923827,-1.0588798522949219 -1.6837928771972657,-0.5286381244659424 l-2.3335491180419923,-0.05666356086730957 -2.6088560104370115,0.9443861961364746 l-2.1578136444091798,1.9452373504638671 -1.8766820907592774,2.608770751953125 l-1.8177225112915039,2.693221092224121 -0.8095707893371582,3.317743682861328 l0.3730962038040161,2.97897891998291 1.423044776916504,2.217560577392578 l1.8804401397705077,1.008844757080078 1.7739643096923827,-0.5845248699188232 l2.4464515686035155,-1.4000635147094727 2.6293880462646486,-2.2829702377319334 l1.855684471130371,-3.063237190246582 1.1115456581115724,-2.9551422119140627 l0.4242206573486328,-2.487867546081543 -0.513329029083252,-2.3047069549560546 l-0.2892592906951904,-1.1822184562683105 -0.6808771610260009,-0.9736658096313476 l0.15499048233032225,0.2406675100326538 -0.0855220913887024,0.2773154258728027 l0.2155900239944458,2.844577980041504 0.45301055908203125,3.679005813598633 l0.43414793014526365,5.210547637939453 0.4338674068450928,6.052857971191406 l0.32564730644226075,6.768840789794922 -0.4059558391571045,5.747528457641602 l-0.10446560382843018,5.495220947265625 1.2900697708129882,9.705391693115235 l2.261612892150879,8.830995178222656 3.1655303955078127,6.4794670104980465 l3.6907886505126952,3.795473098754883 3.1230867385864256,0.586118221282959 l3.3889366149902345,-0.7950284004211425 2.552892875671387,-2.2936752319335936 l1.549540901184082,-3.4589038848876954 0.7899553298950195,-2.9367660522460937 m-21.70750274658203,-28.03397216796875 l-0.9726092338562011,-0.07392240166664124 -0.18339766263961793,-0.5625990867614746 l-0.20801382064819335,-0.5316019535064698 0.7760828018188477,-1.2199158668518066 l1.2203861236572267,-1.8051507949829102 1.9481376647949218,-1.2564737319946289 l1.2597113609313966,-1.594999122619629 1.4895721435546876,-0.8593259811401367 l1.5112312316894532,-0.6455886363983154 2.1880609512329103,-0.019894593954086305 l2.4635013580322265,0.5623947143554687 2.8689077377319334,1.1491541862487793 l2.246383476257324,1.6642587661743165 2.664666748046875,2.076321029663086 l2.0950927734375,1.9217782974243165 1.7468036651611327,2.00391845703125 l1.2367982864379883,1.7089651107788086 0.888984489440918,1.2319028854370118 l0.12653305530548095,0.7286448001861572 0.3233684539794922,0.42092289924621584 l0.08698505163192749,-0.27422537803649905 -0.31218752861022947,-0.48728508949279786 l0.45704169273376466,-0.45810637474060056 -0.22886135578155517,-1.770594596862793 l0.3066341638565063,-2.5698062896728517 0.44763665199279784,-2.0355953216552733 l-0.12827842235565184,-1.9224441528320313 -0.04589598774909973,-0.9890161514282226 l0.3100593090057373,-0.42141289710998536 -0.10507917404174805,-0.3303935766220093 l0.10108071565628052,-0.436429500579834 0.19079488515853882,0.17034952640533446 l1.3003789901733398,0.6845877647399903 0.19203101396560668,0.7567635536193847 l0.07159337401390076,1.4129545211791992 0.1506299376487732,1.8801071166992187 l-0.2737236976623535,1.0633852005004882 -0.15570399761199952,0.3550433874130249 m15.895039367675782,5.8271018981933596 l-0.20730373859405518,0.20565440654754638 0.07162175178527833,-0.040094798803329466 l0.2670586347579956,-0.6167169570922851 0.7225408554077148,-0.8934011459350586 l1.0301841735839843,-1.4753140449523925 0.9081247329711915,-1.749056053161621 l1.0635132789611816,-1.810082244873047 0.5455861568450928,-1.6163455963134765 l0.4157607078552246,-0.9588983535766602 0.01115202009677887,-0.21306838989257812 l-0.22450902462005615,0.17403818368911744 0.01549830287694931,0.5500280857086182 l-0.4447760105133057,2.153786468505859 -0.5571566581726074,2.885470962524414 l0.4348153114318848,3.0606061935424806 0.9410539627075195,2.295537757873535 l1.5754470825195312,1.1820574760437013 1.9832136154174804,0.5910240173339844 l2.451731872558594,-0.14093177318572997 2.305108070373535,-1.5834257125854492 l2.3830486297607423,-2.016640853881836 2.464394760131836,-1.9680561065673827 l0.7578812122344971,-2.4460422515869142 -0.6688026428222656,-2.3545839309692385 l-1.422288990020752,-1.9990537643432618 -2.4372339248657227,-1.3057395935058593 l-3.604534912109375,-1.1827707290649414 -3.4064868927001952,-0.05269362330436707 l-2.822295379638672,1.010513687133789 -2.2497718811035154,0.8901935577392578 m33.21025390625,-26.14005126953125 l0.5419289588928222,-2.7558265686035157 0.3584467887878418,-2.0342742919921877 l-0.17349486351013182,-2.0531919479370115 0.043710488080978396,-1.6239200592041017 l-0.08581212162971497,-0.603400182723999 0.04015850424766541,0.32776129245758057 l-0.08934397101402283,0.22124273777008058 -0.1674018144607544,1.381434440612793 l0.1954329013824463,3.519518280029297 0.5211568355560303,4.826336669921875 l0.5356346130371094,6.637419891357422 0.9577303886413574,7.511140441894531 l0.4231390476226807,7.635886383056641 0.9695394515991211,6.8797149658203125 l0.46283869743347167,6.600236511230468 0.06591769456863403,5.787319183349609 l-0.0366892546415329,3.745653533935547 0.8854046821594238,1.8801401138305665 l0.9007347106933594,0.7064519882202148 0.6990150928497314,-0.30449161529541013 l-0.03281978070735932,-1.0166444778442383 1.1681180953979493,-1.1980754852294921 l0.33964104652404786,-1.7130134582519532 1.4130521774291993,-2.410052490234375 m-2.950893783569336,-5.066754913330078 l-1.2233230590820312,-1.3611642837524414 -1.8685857772827148,-0.7410835742950439 l-1.403636360168457,-0.33649616241455077 -2.0749393463134767,0.5459204196929932 l-1.6204446792602538,0.4386584758758545 -1.2145017623901366,0.8462796211242676 l-1.2859302520751954,0.37136685848236084 -0.18313992023468018,0.37490229606628417 l0.12630836963653563,-0.03769142627716064 0.6282480239868165,0.08509563207626343 l1.71929988861084,-0.1251268982887268 2.132090759277344,-0.7203185558319092 l2.1235984802246093,-1.3438386917114258 3.3699310302734373,-1.1953744888305664 l3.5372386932373048,-0.9475308418273926 3.099503517150879,-0.5536879539489746 l2.355976104736328,-0.27064559459686277 1.447121524810791,-0.33471152782440183 l0.7577787399291992,-0.13217542171478272 0.18983902931213378,-0.11227097511291503 m20.765229797363283,24.086257934570312 l0.41877155303955077,0.2970787525177002 0.20819661617279053,-0.06363645195960999 l0.5031948566436768,0.10148365497589111 0.028541678190231325,-0.010491424798965454 l-0.0026300359517335893,0.02625025510787964 0.13471275568008423,0.09392518997192383 l-0.09859877228736877,-0.11758419275283813 0.15280224084854127,-0.012542499601840973 l-0.03252325654029846,0.034408819675445554 0.30244879722595214,-0.03196886479854584 l0.3266200065612793,0.10046863555908203 -0.08121052384376526,0.042103859782218936 l-0.4453303337097168,-0.14273725748062133 0.15171672105789186,-0.04346746206283569 l0.06605181694030762,0.28148152828216555 -0.2333782434463501,-0.2354193925857544 l0.19287716150283812,-0.03386650681495666 0.022665321826934814,-0.07904393672943115 l0.24138326644897462,0.019934259355068207 0.45687298774719237,0.24073476791381837 m42.2550048828125,-54.9147705078125 l-0.5371799945831299,-0.9039591789245606 -0.24453482627868653,-0.6331115245819092 l-1.2738839149475099,-0.671924638748169 -2.1384449005126953,-0.7025002479553223 l-2.4079559326171873,-0.06034228205680847 -3.082579803466797,0.4097917079925537 l-3.28723030090332,0.4070481777191162 -2.51531867980957,1.1950608253479005 l-2.031143379211426,1.2418977737426757 -1.5799222946166993,1.1987430572509765 l-0.008742859959602356,1.1776994705200194 0.09450347423553467,1.5033558845520019 l1.4420886993408204,2.0596237182617188 2.7062978744506836,2.100631904602051 l2.63193302154541,2.895420455932617 3.0870283126831053,3.1495800018310547 l2.8561069488525392,3.4985504150390625 3.224333572387695,3.882288360595703 l2.1947498321533203,3.559178924560547 2.042240524291992,3.3166259765625 l0.7378472805023193,2.5545417785644533 -0.08628253936767578,1.7289169311523438 l-1.1110097885131835,1.10966215133667 -1.3060596466064454,0.500613784790039 l-2.4840660095214844,-0.4365964412689209 -2.77313232421875,-0.7206255912780761 l-3.0536897659301756,-1.1618640899658204 -2.9385963439941407,-1.2648126602172851 l-2.458917427062988,-1.4219696044921875 -1.3123866081237794,-1.2091045379638672 l-1.0845008850097657,-1.6729467391967774 -0.3065476894378662,-2.2676267623901367 m24.56572265625,-24.003948974609376 l0.5508316040039063,0.6571865081787109 0.3224838972091675,2.6179073333740233 l0.29064192771911623,4.061920166015625 -0.4873661518096924,4.546368408203125 l0.11692639589309692,4.1553192138671875 -0.4658041000366211,3.998612976074219 l0.10308753252029419,3.4379451751708983 -0.256730318069458,3.005335807800293 l-0.17445242404937744,1.9499336242675782 -0.2513575077056885,1.517552947998047 l0.043831533193588255,0.6978297710418702 0.018232612311840056,-0.26058206558227537 l0.3175034046173096,-0.7657287120819092 0.783358383178711,-2.1617027282714845 l2.089137077331543,-4.63392448425293 0.8933076858520508,-5.012422561645508 l1.5487140655517577,-4.1287384033203125 1.3705732345581054,-3.437211608886719 l0.9824907302856445,-2.4132362365722657 0.6089578628540039,-0.39626541137695315 l0.13944060802459718,0.0021558748558163643 -0.1438436508178711,1.8791954040527343 l0.1399569630622864,3.5655586242675783 -0.46566100120544435,4.182395172119141 l-0.197186279296875,4.672380447387695 0.6068032264709473,4.3934577941894535 l1.089360237121582,2.930484962463379 1.8024251937866211,1.2416826248168946 l2.585036277770996,0.19915053844451905 3.588755798339844,-1.6577743530273437 l2.875288200378418,-3.916239547729492 2.887398529052734,-4.793009185791016 l2.638447952270508,-4.673957824707031 0.6497574329376221,-4.724175262451172 l-1.309941864013672,-3.001261520385742 -1.3027831077575684,-1.1230600357055665 l-3.051974868774414,0.09645399451255798 -2.9491371154785155,2.369173049926758 l-2.218940544128418,4.37147216796875 -1.5382135391235352,5.681759643554687 l0.2732029914855957,5.231689453125 0.7458525657653808,4.752809143066406 l2.724380874633789,4.035086822509766 2.5709823608398437,2.391168785095215 l3.8471141815185548,1.080985164642334 4.723756790161133,-0.9083148956298828 l5.206443786621094,-1.4766987800598144 5.258218765258789,-2.706604766845703 l4.1353309631347654,-2.7364410400390624 3.2376903533935546,-3.4613998413085936 l2.405185890197754,-3.9301227569580077 m13.98719482421875,-35.51614685058594 l-0.18009133338928224,-0.9815103530883789 -0.020332419872283937,-0.07847657799720764 l0.09221841096878051,0.48799853324890136 0.32472920417785645,0.9888740539550781 l-0.2532766819000244,2.379276466369629 0.2155017614364624,3.4402259826660155 l0.22823562622070312,4.804526901245117 -0.05228546857833862,5.48518180847168 l-0.647648286819458,6.6966697692871096 0.26261651515960693,7.293635559082031 l0.6124252796173095,7.4814598083496096 0.2618186712265015,6.376725769042968 l0.7583985805511475,4.738746261596679 1.0954603195190429,2.7722286224365233 l1.1163959503173828,1.1549445152282716 1.0492645263671876,-0.39414808750152586 m-3.9455036163330077,-39.918154907226565 l-0.1186911940574646,-2.067532539367676 0.15813387632369996,-2.0809146881103517 l-0.26604428291320803,-1.9103658676147461 0.3803762912750244,-1.4493122100830078 l0.2245084285736084,-1.1198309898376464 0.22568140029907227,-0.4646082878112793 l0.5951138019561768,-0.36549863815307615 0.0022183237597346306,-0.196817147731781 m8.318849182128906,5.11280403137207 l-0.2687843322753906,1.4427524566650392 0.3334526062011719,3.0965240478515623 l-0.10661873817443848,4.6119544982910154 -0.02416387349367142,5.944124221801758 l0.6349281787872314,6.302027893066406 0.20019178390502929,5.298850631713867 l0.5518400192260742,4.600310897827148 0.5639680862426758,3.9660049438476563 l0.6610512733459473,2.305272102355957 0.9826957702636718,0.9587154388427734 l1.2779484748840333,-0.20586678981781006 1.5575580596923828,-1.7713390350341798 l1.5054401397705077,-2.691940689086914 1.8545564651489257,-3.4901966094970702 l1.9677413940429687,-3.431564712524414 0.8130475997924804,-2.408129119873047 l1.1932534217834472,-1.1212029457092285 0.49585542678833006,0.09951015710830688 l0.4232311725616455,0.3231356620788574 0.7248295783996582,2.343389129638672 l0.533575439453125,3.9833683013916015 0.5072006225585938,4.440548324584961 l0.9588020324707032,3.6652481079101564 1.4661470413208009,2.858583450317383 l1.649887466430664,2.3131526947021483 2.470912551879883,0.6411060333251953 l2.4835813522338865,-0.20637803077697753 2.5928424835205077,-2.0007740020751954 l2.764723777770996,-3.238129425048828 2.8066999435424806,-3.4517589569091798 l1.7233840942382812,-3.66583366394043 1.5599838256835938,-3.2624324798583983 l0.889893913269043,-2.5293819427490236 0.08896137475967407,-2.251688766479492 l-0.4132417678833008,-1.638446044921875 0.15285780429840087,-0.9897504806518554 l-0.6982217311859131,-0.5540346145629883 -0.2708951234817505,0.0666917085647583 l-1.1349476814270019,0.20486631393432617 -1.698077392578125,1.0650976181030274 l-0.977235984802246,2.430710220336914 -1.4135979652404784,3.4457374572753907 l-0.8269015312194824,3.39842529296875 0.7319100379943848,4.011235046386719 l0.9602509498596191,3.597386932373047 2.1475685119628904,3.5371368408203123 l2.105209541320801,2.466993713378906 2.5359518051147463,1.1039181709289552 l2.4738983154296874,0.2831112384796143 1.5836085319519042,-1.1180554389953614 l2.374026870727539,-1.280080223083496 3.0294139862060545,-2.9812084197998048 m35.28835754394531,-11.797051239013673 l0.4095869541168213,-0.6109963417053222 0.4735823631286621,-0.6146380424499511 l-0.7683491706848145,-0.8203498840332031 -1.251906967163086,-0.599604606628418 l-1.7798389434814452,-0.3464061260223389 -2.562963676452637,0.20653648376464845 l-3.369329071044922,0.5486343383789063 -3.4924152374267576,1.8759824752807617 l-2.9170917510986327,2.4868499755859377 -1.7568246841430664,2.9122291564941407 l-0.6507727622985839,3.5711750030517577 0.7333364963531495,2.8118478775024416 l2.4178285598754883,2.681341361999512 2.5724077224731445,1.7060928344726562 m11.678616333007813,-3.150990295410156 l2.8153533935546875,-2.231669235229492 2.3353090286254883,-2.4008695602416994 l1.220818328857422,-3.1784999847412108 1.0904130935668945,-3.3187881469726563 l0.10784565210342408,-2.909139633178711 -0.8841161727905273,-2.1712419509887697 l-0.9891745567321777,-1.6361557006835938 -2.2066486358642576,-0.7298585891723632 l-2.197722625732422,-0.23304154872894287 -1.2395797729492188,0.8536731719970703 l-0.8302835464477539,0.673115348815918 0.09364578127861023,0.5523800373077392 l0.9426418304443359,0.5097963333129882 2.083161163330078,0.3832428216934204 l2.3513280868530275,-0.36120123863220216 2.4594839096069334,-1.017386245727539 l2.5724166870117187,-1.6180242538452148 2.2977521896362303,-1.26241455078125 l1.2505479812622071,-0.9732851982116699 0.14593067169189453,-0.09678846597671509 l0.08714708685874939,-0.07961338758468628 -0.026911389827728272,0.6466173648834228 l0.014635542035102844,1.0483575820922852 0.3765367031097412,2.702569580078125 l0.26197237968444825,3.20272216796875 0.7790220260620118,3.851118469238281 l1.073940372467041,3.469316864013672 0.7498290538787842,2.9610305786132813 l1.4630161285400392,1.617962646484375 1.3948954582214355,0.5133124351501465 l1.5621097564697266,-0.5988777160644532 1.558241844177246,-1.7492336273193358 l1.68380126953125,-3.185552215576172 1.1835660934448242,-3.7244773864746095 l1.3985772132873535,-3.428239440917969 1.191187858581543,-2.412685203552246 l0.7758382797241211,-0.5603840351104736 0.6546881198883057,0.4876523494720459 l1.0385805130004884,1.6034029006958008 0.9692136764526367,3.104757308959961 l0.5111724853515625,4.015020751953125 0.5789577484130859,5.166210174560547 l0.7354947090148926,6.061119842529297 0.6182080268859863,5.059050750732422 l1.2742517471313477,4.446859741210938 0.4362787246704102,3.054869842529297 l0.34067468643188475,2.6071510314941406 0.056225186586380003,0.6672850608825683 l0.03770008087158203,-0.5187697887420655 -0.5576377391815186,-1.645050621032715 l-1.0573987007141112,-2.710719680786133 -1.444141960144043,-3.220121383666992 l-1.6197113037109374,-3.3706451416015626 -1.429741668701172,-3.9702003479003904 l-0.24560816287994386,-4.298072433471679 1.2670333862304688,-4.514300918579101 l2.0522138595581056,-3.566753387451172 2.9464738845825194,-2.135349464416504 l3.1512935638427733,-0.4831820011138916 m62.52425537109375,-6.9127357482910154 l-0.6669159412384034,-1.9218715667724608 -1.6062911987304687,-1.9367355346679687 l-2.147744369506836,-1.1874594688415527 -2.2928199768066406,-0.9351507186889648 l-1.939611053466797,0.6964447975158692 -2.4547073364257814,1.6389772415161132 l-2.611983871459961,2.7925743103027343 -2.1934032440185547,3.885529327392578 l-1.3528672218322755,3.9169776916503904 -0.0974531888961792,2.8537601470947265 l0.8315540313720703,2.3421716690063477 1.7528553009033203,1.1851825714111328 l1.8821889877319335,0.14323925971984863 2.034191131591797,-1.630241584777832 l2.5062788009643553,-2.862557220458984 2.1905115127563475,-5.085191345214843 l2.798716354370117,-5.866357803344727 2.0853166580200195,-7.106103515625 l1.0136412620544433,-6.0231060028076175 0.4489436149597168,-3.7138057708740235 l-0.16069780588150023,-1.868292999267578 -0.24417672157287598,-0.8439617156982422 l-0.07025210857391358,-0.02419830709695816 -0.48813438415527344,0.667794942855835 l-0.6124897956848144,4.984235382080078 -0.557135820388794,6.297871017456055 l-0.6261734962463379,7.135455322265625 0.10882363319396973,7.533915710449219 l0.36018800735473633,6.030451965332031 0.6099155426025391,4.226491546630859 l1.035848045349121,2.51400203704834 2.0030681610107424,0.8561189651489258 l2.526924896240234,-0.9952606201171875 3.500944900512695,-2.7632314682006838 l4.0905204772949215,-3.6577884674072267 3.9385635375976564,-3.503200912475586 l3.517367935180664,-2.1448171615600584 3.514666748046875,-1.800299835205078 l4.496253585815429,-0.8731251716613769 5.129314422607422,-0.5811410427093506 m65.05396728515625,-31.460446166992188 l-0.5412324905395508,-0.5421599388122559 -1.439161491394043,-0.7793156623840332 l-1.404893970489502,-0.7189237594604492 -1.641655731201172,-0.1814638376235962 l-2.7325233459472655,0.20252630710601807 -2.9778499603271484,1.2106088638305663 l-3.407149887084961,2.730282020568848 -3.2798393249511717,3.603232574462891 l-1.981551742553711,3.9825557708740233 -0.893281078338623,5.067766571044922 l-1.1504819869995118,4.9778297424316404 -0.18272970914840697,5.375083160400391 l0.7050241470336914,5.216363525390625 1.3795721054077148,3.7019927978515623 l2.518983840942383,1.557752799987793 3.4938854217529296,0.156302547454834 l4.027874374389649,-1.3886567115783692 3.675798034667969,-1.8945631027221679 l2.7780292510986326,-2.0505865097045897 2.0403560638427733,-1.527939224243164 m0.9087370872497559,3.0739362716674803 l0.2442918300628662,-0.30666613578796387 1.0497645378112792,-1.7726226806640626 l2.127151679992676,-2.5921615600585937 1.9924484252929688,-3.2259117126464845 l1.8541446685791017,-2.8937625885009766 1.4805928230285645,-2.1860633850097657 l0.8084804534912109,-1.0757164001464843 -0.30748672485351564,-0.30674574375152586 l-0.30296323299407957,0.5623757362365722 -1.0099706649780273,2.2587963104248048 l-1.692620086669922,4.301031112670898 -1.85765380859375,5.379219818115234 l-0.990561580657959,4.530542373657227 0.25119767189025877,2.406310272216797 l0.3542747974395752,0.19619847536087037 1.4602546691894531,-0.7741283416748047 l1.5259984970092773,-2.558019828796387 2.2549619674682617,-3.9580711364746093 l1.835169792175293,-4.904440307617188 2.281538200378418,-4.0958702087402346 l1.386355209350586,-1.4741439819335938 0.07565411925315857,-0.0923766016960144 l0.06767788529396057,0.3695124387741089 -0.19599925279617308,2.0035295486450195 l0.12775614261627197,3.027743339538574 0.4950608253479004,1.8190740585327148 l0.8562639236450196,0.3410008430480957 1.9774761199951172,-1.1814227104187012 l2.204525375366211,-3.1361038208007814 m13.103984069824218,-13.102949523925782 l-0.5576596736907959,0.21572480201721192 0.18003398180007935,0.1841164708137512 l-0.7970139503479003,-0.31735835075378416 -1.7715984344482423,-0.08807541131973266 l-1.9104349136352539,0.8385734558105469 -2.5813873291015623,1.9471181869506835 l-1.354780673980713,3.007468414306641 -0.6881067752838135,2.6999332427978517 l0.30322880744934083,2.3933719635009765 0.04546107649803162,1.9257013320922851 l-0.35997819900512695,0.4767881393432617 0.09770025014877319,-0.08278768062591553 l-0.20823466777801514,0.04622076749801636 0.8347642898559571,0.11614005565643311 l0.08093336224555969,-0.8934589385986328 1.623627281188965,-1.3146306037902833 l2.342628288269043,-2.9112855911254885 3.8084648132324217,-4.435172653198242 l3.8693798065185545,-4.627276611328125 2.948588562011719,-4.267349624633789 l2.621130180358887,-4.0552207946777346 2.199422073364258,-3.0207923889160155 l1.7393449783325194,-1.4900152206420898 -0.00459817498922348,-0.07178943753242492 l-0.18476282358169555,0.8943700790405273 -1.5414052963256837,2.9720455169677735 l-1.9930545806884765,4.511698150634766 -3.0681976318359374,5.542366409301758 l-1.5941205978393556,6.514936065673828 -3.271715545654297,5.5382637023925785 l-2.3489048004150392,4.471319198608398 -2.3105094909667967,3.2200862884521486 l-1.5536213874816895,2.277614784240723 -0.9514784812927246,0.9534152030944825 l-0.13361363410949706,-0.2746859550476074 -0.5750253677368165,-1.2816821098327638 l0.09146868586540222,-1.9424589157104493 1.0513229370117188,-2.366699981689453 l1.4815494537353515,-1.947250747680664 2.7544025421142577,-0.8962635040283203 l2.093460273742676,-0.7398867130279541 3.852566146850586,-0.5455520153045654 l3.7217029571533202,-0.1299677610397339 m25.570278930664063,-2.8908454895019533 l0.2580870151519775,3.4821918487548826 -0.053924942016601564,3.7414512634277344 l0.232358717918396,3.921286773681641 -0.4410080432891846,4.406981658935547 l-0.2839805603027344,4.827324676513672 0.2094444990158081,4.58062973022461 l-0.7384639263153077,3.747113037109375 -0.568678903579712,3.0103355407714845 l-0.8508463859558105,2.2718074798583983 -0.8469809532165528,1.567030429840088 l0.04286900758743286,0.3229121208190918 0.20208139419555665,-0.15069105625152587 l-1.6011856079101563,-1.6786275863647462 -1.1386486053466798,-2.5645217895507812 l-1.144920253753662,-3.6986961364746094 0.6232975959777832,-4.082412338256836 l0.6554359436035156,-4.145204162597656 2.1547882080078127,-3.738500213623047 l2.1921066284179687,-3.3657302856445312 2.0140777587890626,-3.126951217651367 l2.5250396728515625,-2.0823905944824217 2.4929189682006836,-1.0458499908447265 l2.2685523986816407,-0.17148805856704713 2.201781463623047,0.8385483741760253 l1.9346033096313477,1.34362735748291 1.2362814903259278,2.287956428527832 l0.7191218376159668,2.820759582519531 -0.18657159805297852,2.9474681854248046 l-1.3391518592834473,2.5206403732299805 -2.7217803955078126,2.1565752029418945 l-2.2435577392578123,1.0363068580627441 -1.3805658340454101,0.82815523147583 l-1.0858407974243165,0.3560400247573853 -1.014734649658203,-0.02466133385896683 l-0.776650333404541,-0.7644878387451172 -0.4450493812561035,-0.6955561161041259 m23.26197509765625,-11.234967041015626 l-1.015363597869873,0.5869109153747558 0.34122815132141116,1.4627260208129882 l0.6791709899902344,2.2793819427490236 1.3228153228759765,3.0245189666748047 l1.2435885429382325,3.218804931640625 1.1110011100769044,3.098516082763672 l1.066861629486084,2.019468307495117 1.4958849906921388,1.0095129013061523 l1.934739875793457,-0.30205345153808594 0.3607778787612915,-1.7647151947021484 l1.5496265411376953,-2.8255123138427733 1.234806442260742,-3.010010528564453 l1.047778034210205,-2.868703079223633 0.29967286586761477,-2.387920379638672 l0.4635324001312256,-1.5731822967529296 0.18477171659469604,-0.7905633449554443 m17.044970703125,-0.8688377380371094 l-0.8764199256896973,-1.2531282424926757 -1.2711373329162599,-0.7484821796417236 l-1.7259088516235352,-0.20949099063873292 -2.199179458618164,0.21780576705932617 l-1.5080476760864259,1.194162940979004 -1.6153514862060547,2.2835289001464845 l-1.3259592056274414,3.1981868743896484 -0.8317501068115234,3.749835205078125 l0.07611489892005921,3.8485774993896484 1.4267074584960937,3.2060436248779296 l1.7901199340820313,1.994846725463867 1.8140056610107422,-0.07066676616668702 l1.7896286010742188,-0.9114245414733887 2.360334014892578,-1.4268549919128417 l1.7268548965454102,-2.0798713684082033 0.6712495803833007,-2.913655090332031 l0.6464688301086425,-2.730718994140625 -0.9146589279174805,-2.5466156005859375 l-1.6064430236816407,-2.1026805877685546 -1.9794496536254882,-1.5931621551513673 m12.314200592041015,-6.171478271484375 l-0.05925467014312744,0.22840194702148436 0.10470376014709473,1.7158823013305664 l0.33850371837615967,3.1118118286132814 0.6554315567016602,3.8271720886230467 l0.740006399154663,3.8792499542236327 0.4544514179229736,3.806549072265625 l0.482711124420166,3.8952590942382814 0.7259371280670166,2.6819252014160155 l0.6605023384094239,1.606264877319336 1.8823869705200196,0.3762950420379639 l1.772190475463867,-0.9441932678222656 1.9122112274169922,-2.3520009994506834 l2.008365249633789,-3.664084243774414 1.9708152770996095,-4.276420211791992 l1.2235452651977539,-3.7622528076171875 1.982498550415039,-2.9818817138671876 m2.619087982177734,-1.8827926635742187 l-0.0021624434739351273,0.5209205150604248 0.47017993927001955,0.9723443984985352 l0.21447958946228027,2.0697820663452147 -0.5419564247131348,2.894755554199219 l0.10904550552368164,3.915432357788086 -0.7201295375823975,4.221537017822266 l0.4426027774810791,3.818471145629883 0.3703486919403076,2.2968271255493162 l1.2861018180847168,0.7346868515014648 2.1971439361572265,-0.8445175170898438 l1.8533617019653321,-2.4551782608032227 m9.474327087402344,-35.73842163085938 l0.10493810176849365,0.19542412757873534 0.49810209274291994,0.13936619758605956 l-0.4865077495574951,1.2957915306091308 0.14698569774627684,3.1855184555053713 l-0.4363419532775879,4.370147705078125 -0.07926571369171143,5.347107696533203 l-0.1238338828086853,6.343685913085937 0.48745269775390626,6.419243621826172 l-0.05858434438705444,4.921589279174805 0.37053837776184084,2.6365144729614256 l0.26935510635375975,0.9544774055480957 0.5359668254852294,0.2692303419113159 m24.798455810546876,-30.942233276367187 l0.15708404779434204,0.11968252658843995 0.03475499153137207,0.990450668334961 l0.10866261720657348,2.4834781646728517 0.39727463722229006,3.485394287109375 l0.46908159255981446,4.309427642822266 -0.07270985841751099,4.669267272949218 l-0.11621789932250977,4.2888641357421875 0.6903205394744873,2.158371353149414 l0.4163377285003662,-0.30295791625976565 0.8103595733642578,-1.4444075584411622 l1.5231465339660644,-1.749027633666992 1.390012264251709,-1.8004091262817383 l1.833568000793457,-0.7065859317779541 2.473284149169922,0.058746159076690674 l2.059514808654785,0.07248077392578126 2.2028392791748046,0.4810288429260254 l1.7380563735961914,0.21912019252777098 0.9146912574768067,-0.059703397750854495 l-0.055909371376037596,-0.02013874053955078 0.18666186332702636,-0.21686167716979982 l-1.09484806060791,-0.6888255596160888 -1.0695409774780273,-0.9291541099548339 l-1.4994102478027345,-1.177980327606201 -1.9343645095825195,-0.48360433578491213 m-0.5630667686462403,1.5877696037292481 l-0.8187403678894043,1.9956331253051758 -0.1700312852859497,1.0963136672973632 l0.9014954566955566,1.0739662170410156 1.226132583618164,0.406710147857666 l1.3539847373962401,-0.17298545837402343 1.0128874778747559,-0.8414934158325196 l-0.019318845868110657,-1.361610507965088 0.3857535123825073,-1.8038448333740233 l0.2464294672012329,-1.4511605262756349 -0.4937394142150879,-1.823676872253418 l-0.8868362426757812,-0.5155716419219971 m7.134909057617188,3.924427032470703 l-0.18015718460083008,0.04460749626159668 0.18045620918273925,0.0664778470993042 l0.8162704467773437,0.48934140205383303 0.592078971862793,-0.16813474893569946 l1.2673084259033203,-0.3293970823287964 0.7251460552215576,-1.2094550132751465 l0.951422119140625,-1.0805182456970215 0.9033293724060059,-0.9530257225036621 l0.34892246723175047,-0.6323791027069092 -0.14354676008224487,-0.580430269241333 l-0.8697429656982422,-0.4123443603515625 -1.0162115097045898,-0.3622826337814331 l-1.8634103775024413,-0.07930821776390076 -1.2743539810180664,0.5642756938934326 l-1.1345263481140138,0.9543821334838867 -1.1576546669006347,1.7118646621704101 l0.9550900459289551,1.9103540420532226 0.8055816650390625,2.0947885513305664 l1.4160028457641602,1.7530961990356446 1.7742177963256835,1.7044559478759767 l2.308909225463867,0.9366695404052734 2.302981948852539,0.03210923671722412 l1.2681221961975098,-1.0265018463134765 2.76451416015625,-0.4703362941741943 l1.8343498229980468,-1.7305330276489257 0.617850399017334,-1.7397438049316407 l-0.18495962619781495,-1.4107330322265625 -1.089606475830078,-0.7545441627502442 l-1.2134586334228517,-0.6803195476531982 -0.5562533378601074,0.29258456230163576 l-0.47212724685668944,0.7282575607299805 -0.927888011932373,1.5102460861206055 l0.30263576507568357,1.3918569564819336 0.4715860366821289,0.7542078018188476 l0.5735966682434082,0.6528021812438964 1.2264442443847656,0.1804819107055664 l0.9406661033630371,-0.39106478691101076 1.4354843139648437,-0.6119242668151855 l1.258288288116455,-1.5265339851379394 1.1482524871826172,-1.9943632125854491 l0.5879409313201904,-0.8066145896911621 0.31565330028533933,-0.2370821475982666 l0.49550352096557615,-0.030198264122009277 0.3000377416610718,0.2667675256729126 l0.5696696758270263,1.2796387672424316 0.6440114974975586,1.9749567031860351 l1.2359281539916993,1.5264802932739259 1.294120979309082,1.4804868698120117 m8.250398254394531,-20.540434265136717 l0.39435811042785646,0.4202777862548828 -0.38410038948059083,1.5089670181274415 l1.0084516525268554,2.121270942687988 -0.09730278253555298,1.5939998626708984 l0.7714531421661377,2.699412536621094 0.3972563505172729,2.617569160461426 l0.28694562911987304,1.6472169876098632 0.5016188621520996,1.3054591178894044 l0.04466679096221924,0.4065229415893555 0.42725315093994143,0.0651822566986084 l-0.05774288773536682,-0.5177095413208008 0.19732238054275514,-0.868041706085205 m-10.005966186523438,-7.915425109863281 l-0.09053471088409423,0.4007530212402344 -0.7018379688262939,-0.22915902137756347 l-0.3236710786819458,-0.183489191532135 0.022257837653160095,-0.3239914417266846 l0.39771156311035155,0.10832186937332153 0.5811629295349121,-0.47959284782409667 l1.1424005508422852,-0.3717392683029175 1.3871114730834961,-0.39719319343566895 l1.6210111618041991,-0.35821831226348877 1.929081344604492,0.3948662281036377 l1.995962905883789,-0.4301915645599365 1.6744701385498046,-0.5676932334899902 l0.7230483055114746,-1.0614742279052733 0.09588604569435119,-1.4997196197509766 l1.5663627624511718,-0.18547337055206298 m23.906698608398436,-12.039562225341797 l0.34304354190826414,-0.15149117708206178 0.2294260025024414,0.3223883152008057 l-0.23813791275024415,-0.30029449462890623 -0.27387402057647703,0.28444199562072753 l0.5917046546936036,1.1157325744628905 0.022005534172058104,2.003712463378906 l1.330720806121826,8.794747161865235 -0.6406893730163574,4.270842742919922 l0.1657273769378662,4.0045112609863285 0.09878393411636352,2.3933425903320313 l0.19183847904205323,1.574784278869629 0.062426012754440305,0.9033342361450195 l-0.34573700428009035,-0.08757368326187134 -0.048989680409431455,-0.36780059337615967 l0.1256565809249878,-0.5989655494689942 0.7938242435455323,-1.2979792594909667 m1.7508243560791015,-26.237973022460938 l-0.5795657634735107,-0.1975644588470459 -0.15275492668151855,0.25879945755004885 l-0.43815078735351565,0.45185508728027346 -0.5320305347442627,0.26986696720123293 l-0.17118568420410157,0.2418386459350586 -0.39902429580688475,-0.21000189781188966 l-0.2864776611328125,0.19966126680374147 -0.1509595036506653,-0.042878267168998715 l0.3570547103881836,-0.04833287298679352 0.8529083251953125,-0.23956530094146727 l1.1541477203369142,-0.20657267570495605 1.428742027282715,0.3097827434539795 m11.77999496459961,22.892730712890625 l0.8252505302429199,0.2130896806716919 0.8866740226745605,-0.15492024421691894 l1.270456314086914,-0.3680963277816772 1.3790800094604492,-0.9853127479553223 l0.7527975559234619,-1.4188088417053222 0.3723416805267334,-1.2758030891418457 l-0.35707740783691405,-1.2247259140014648 -0.35802626609802246,-0.8684464454650879 l-1.469804573059082,-0.685054349899292 -1.0203195571899415,0.049948036670684814 l-1.1811169624328612,0.8148737907409668 -1.3281645774841309,1.488907814025879 l-0.7707890510559082,2.2082204818725586 0.7089644432067871,2.521250915527344 l1.071670150756836,2.802993392944336 1.6327970504760743,2.2070932388305664 l1.896947479248047,1.315836524963379 2.367742729187012,0.42952785491943357 l2.4054948806762697,0.15606385469436646 1.920998764038086,0.14942060708999633 m11.147288513183593,-8.216507720947266 l0.8796602249145508,0.4328744888305664 0.09022080302238464,0.07617442607879639 l-0.4894057273864746,-0.14340002536773683 -1.009050464630127,-0.018192505836486815 l-1.8700523376464844,-0.5006203651428223 -2.016984748840332,-0.4913684368133545 l-1.1735921859741212,0.15226556062698365 -0.6261890411376954,0.9898063659667968 l0.3511238098144531,1.3021686553955079 0.8369571685791015,1.501180076599121 l0.803343391418457,1.7125066757202148 0.9293432235717773,1.4380462646484375 l2.091842269897461,1.5080557823181153 1.6625331878662108,0.5549095153808594 l2.4848554611206053,0.46905059814453126 2.6673458099365233,-0.02204759567975998 m16.780294799804686,-5.932707977294922 l0.41072373390197753,-0.2316819667816162 -0.7128719329833985,-0.48159198760986327 l-1.337376022338867,-0.35118701457977297 -1.8205825805664062,-0.4356972694396973 l-1.998822021484375,-0.13402678966522216 -1.7820236206054687,0.5418776988983154 l-1.6309810638427735,1.2603805541992188 -0.5337719917297363,2.164920997619629 l0.9487313270568848,2.9321525573730467 1.7741403579711914,3.3287094116210936 l2.5254613876342775,1.8329614639282226 1.9345516204833983,0.8444967269897461 l2.415116310119629,-0.09870738983154297 1.934133529663086,-1.5122614860534669 l1.737504768371582,-1.5431032180786133 0.34270195960998534,-1.9600469589233398 m-1.5307022094726563,-27.309796142578126 l0.24030699729919433,0.33974390029907225 -0.12811498641967772,0.031095322966575623 l-0.354033899307251,-0.057366442680358884 0.14657522439956666,1.008744716644287 l-0.09770041108131408,1.4013999938964843 0.09562886357307435,1.4619129180908204 l-0.33653807640075684,1.7173727035522461 0.09301742911338806,3.6796974182128905 l0.3917104721069336,4.509543609619141 0.655734634399414,4.618858337402344 l0.9375738143920899,3.989266204833984 0.4003262996673584,3.160287857055664 l0.7641396045684814,2.397694396972656 0.20116062164306642,0.4251092910766602 l-0.3374568223953247,0.024614280462265013 0.20235013961791992,-0.1790613055229187 l0.25847744941711426,-0.8591143608093261 0.818479347229004,-1.3891393661499023 l0.83017578125,-1.8827949523925782 0.5173630237579345,-1.628237533569336 l1.2005349159240724,-0.9196371078491211 0.7539205551147461,-0.9542985916137695 l0.6478286266326905,-0.24440600872039794 1.0861112594604492,1.1008028984069824 l1.4698891639709473,0.8792121887207032 1.1842117309570312,1.3589893341064454 l1.0262338638305664,1.8532711029052735 0.7525038242340087,2.2508718490600588 l0.591416311264038,2.7287370681762697 0.3591039180755615,1.6863983154296875 l0.3952274560928345,0.8354038238525391 -0.35529327392578125,0.0033229272812604904 l0.6858366966247559,-1.3334275245666505 m20.906678771972658,-13.715045166015624 l0.884650993347168,0.6682288169860839 0.5885822772979736,0.08768543601036072 l0.8386448860168457,0.17630476951599122 0.2822109699249268,0.3126986026763916 l-0.21577920913696289,0.03970690369606018 0.1509119153022766,0.25484471321105956 l0.6566877365112305,1.8618637084960938 0.8835267066955567,3.417966842651367 l1.144813632965088,4.085174942016602 1.0721535682678223,4.251544189453125 l0.22576298713684081,2.644395446777344 -0.22464210987091066,0.579896068572998 l-0.3308384418487549,-0.06889618039131165 -0.8840525627136231,-1.499821090698242 l-0.6173657894134521,-2.555966377258301 -0.7280468940734863,-2.587407875061035 l-0.1625341296195984,-2.829250144958496 0.05853722095489502,-3.017561149597168 l1.1264204025268554,-1.8650047302246093 3.079854965209961,-5.017398452758789 l1.2029216766357422,-1.2207679748535156 1.1635536193847655,-0.007829272001981736 l1.1729531288146973,0.4449986457824707 1.2673685073852539,0.5527323722839356 l0.5197744846343995,0.548067569732666 0.5485098361968994,1.2770842552185058 l0.5030777454376221,1.350278091430664 0.07912853360176086,0.9112630844116211 l0.4884658336639404,1.9614139556884767 -2.2331552505493164,11.757823944091797 l-0.3053333520889282,-0.23385508060455323 0.11327334642410278,-0.6070725440979003 l0.6685715198516846,0.2779630184173584 0.8668978691101075,-1.0437599182128907 m15.775341796875,-5.846843338012695 l0.6862676620483399,-1.469870376586914 0.6077698707580567,-1.9300443649291992 l-0.32192752361297605,-1.6164005279541016 -0.10929838418960572,-2.3707475662231445 l-1.0163440704345703,-0.4463509559631348 -1.6595335006713867,0.007216538488864899 l-0.45346775054931643,0.3906193017959595 -1.25142240524292,0.5140655040740967 l-0.8658893585205079,2.6831836700439453 0.24500517845153807,1.4258512496948241 l-0.18021105527877807,1.8794580459594727 0.11831284761428833,1.307110595703125 l1.5014806747436524,2.5952547073364256 1.2468390464782715,0.31143889427185056 l1.1890931129455566,0.5369821071624756 1.6738420486450196,-0.4686592102050781 l0.9880613327026367,-0.781325387954712 3.8917686462402346,-0.23374388217926026 m0.8170317649841309,-13.38189697265625 l-0.24196920394897461,-0.00020508687011897564 -0.259651780128479,-0.18637806177139282 l0.013864065706729888,0.09855488538742066 0.14217839241027833,0.003995572030544281 l-0.04986366331577301,0.2318173885345459 0.22204258441925048,0.6391559600830078 l0.4283123016357422,0.6924686431884766 0.4087528705596924,1.334230899810791 l0.2902583122253418,1.6374828338623046 0.5507342338562011,1.425804615020752 l0.447231388092041,1.9080776214599608 0.25611534118652346,1.539812183380127 l0.812041187286377,1.5300533294677734 0.21197869777679443,1.0064202308654786 l0.3646292448043823,0.9827451705932617 0.8794430732727051,1.1748435974121094 l0.04275606274604797,-0.2633521318435669 0.0871596872806549,-0.05623784065246582 l2.201677703857422,-4.581007385253907 1.2148149490356446,-1.9007553100585937 l0.16440269947052003,-0.8512786865234375 -0.5095292091369629,-0.5250989913940429 l0.2703338861465454,-0.3915292024612427 -0.7888593196868896,-0.3668717384338379 l-0.4124703884124756,-0.43907732963562013 0.5713767051696778,0.26403787136077883 l-1.3424139022827148,0.7166752815246582 1.8247903823852538,1.199679183959961 l-0.06705446243286133,1.3082378387451172 1.061898136138916,1.4811888694763184 l0.4945627212524414,1.6318853378295899 1.2685731887817382,1.167121696472168 l1.3626886367797852,0.7510127544403076 1.0146896362304687,-0.24076411724090577 l0.8821476936340332,-0.32765626907348633 1.4185150146484375,-0.9800971031188965 l1.1650785446166991,-1.2972345352172852 1.6935565948486329,-1.4715526580810547 " fill="none" stroke="black" stroke-width="1" /></svg>