<?xml version="1.0" encoding="utf-8" ?>
<svg baseProfile="full" height="105.47546260356904" version="1.1" width="915.750400969573" xmlns="http://www.w3.org/2000/svg" xmlns:ev="http://www.w3.org/2001/xml-events" xmlns:xlink="http://www.w3.org/1999/xlink"><defs /><rect fill="white" height="105.47546260356904" width="915.750400969573" x="0" y="0" /><path d="M25,58.638501795008786 m47.30647277832031,-14.337998962402343 l0.07243008017539979,-0.046818438172340396 -0.1664659261703491,-0.19217424392700194 l-0.7877782821655274,-0.3456182718276978 -2.1696990966796874,-0.7202431678771972 l-2.106338882446289,-0.2511557340621948 -2.2090354919433595,-0.40360174179077146 l-1.8270645141601562,0.23620452880859374 -1.3244495391845703,0.5462660312652587 l-0.664475965499878,1.0994114875793457 -0.2843604564666748,1.462996006011963 l0.22489209175109864,2.017625427246094 0.7943718433380127,2.3509214401245115 l0.909034538269043,2.0191267013549803 1.147932243347168,2.1342094421386717 l0.9259374618530274,1.6050754547119142 -0.5355825901031495,1.9314762115478517 l-1.6417104721069335,1.379086685180664 -2.9591569900512695,2.0720701217651367 l-3.5024009704589845,2.65037841796875 -4.1129802703857425,1.7383567810058593 l-3.0536483764648437,1.453709030151367 -1.8512538909912108,0.14433274269104004 l-0.9823460578918457,-0.3638396024703979 m16.403781127929687,-7.837184906005859 l1.3156088829040526,0.23302052021026612 1.5615068435668946,-0.03781701922416687 l1.7266294479370117,-0.33519835472106935 2.1772361755371095,-0.9298482894897461 l2.5462066650390627,-0.6287127494812011 2.0804840087890626,-0.916431999206543 l2.3854976654052735,-0.6671546936035156 1.4703046798706054,-1.3901140213012695 l1.2859720230102538,-1.1424752235412599 0.39184463024139404,-1.2448829650878905 l0.3630922794342041,-0.44391617774963377 -0.8670221328735351,-0.7401472091674804 l-1.4943724632263184,-0.3709183931350708 -2.0477273941040037,0.19518415927886962 l-1.771221923828125,1.488572120666504 -1.4997849464416504,1.99202880859375 l-1.2016488075256349,1.6219852447509766 0.10395662784576416,2.3453676223754885 l0.7692800521850586,1.6896234512329102 2.241835594177246,1.888270378112793 l2.5461847305297853,0.3886122465133667 3.0615453720092773,0.03105119466781616 l3.6059806823730467,-0.7113394737243652 3.7027698516845704,-0.7673099040985107 m10.795818328857422,-7.306669616699219 l-0.6695643424987793,-0.28935670852661133 -1.0329929351806642,-0.6630532264709472 l-1.243056297302246,-0.5237168788909912 -1.704057502746582,-0.3212031364440918 l-1.5731571197509766,0.11645611524581909 -1.9308038711547852,0.6183920860290527 l-1.7325519561767577,1.2493005752563477 -1.4891136169433594,1.6171794891357423 l-0.841341209411621,2.5169551849365233 -0.2560065031051636,2.195291519165039 l0.6346817016601562,1.9848358154296875 0.8992284774780274,0.5970166206359864 l1.5719276428222657,0.18030260801315307 1.8798721313476563,-1.095844841003418 l2.184392738342285,-1.9684921264648438 2.265753173828125,-2.397843933105469 l2.1905328750610353,-2.506791877746582 1.712099838256836,-2.2532262802124023 l0.998202896118164,-1.9952775955200195 0.4521745204925537,-1.3870464324951173 l0.10594322681427001,-0.23933103084564208 -0.43437652587890624,-0.32393274307250974 l-0.2956801414489746,0.24865291118621827 -0.34177608489990235,1.272878646850586 l-0.7995218276977539,1.9708477020263673 -0.612839937210083,2.4679861068725586 l0.13535542488098146,2.717624282836914 0.6669221878051758,2.3100461959838867 m16.026335144042967,-18.521905517578126 l-0.5473765850067138,-0.5354336738586426 0.1921634554862976,0.06706812977790833 l-0.054044944047927854,0.08130419254302979 -0.05279077291488647,0.8452017784118653 l-0.08850361108779907,2.829886627197266 -0.5308927536010742,3.4243938446044924 l-1.102217674255371,3.1760053634643555 -0.8749614715576172,3.4355186462402343 l-0.3140129566192627,2.6262786865234373 0.5589959621429443,2.499965476989746 l1.0767315864562987,1.873452377319336 1.1876029014587401,0.723966407775879 l1.249007225036621,0.1968951940536499 1.3767982482910157,-0.7382064819335937 l1.5043187141418457,-1.3850542068481446 1.274205780029297,-1.4838083267211915 m-6.261658477783203,-4.937318420410156 l-0.5350608348846435,-0.2562728404998779 0.07508018612861633,-0.218857741355896 l0.7230989456176757,-0.48381576538085935 1.5379108428955077,-0.8988198280334473 l1.8033109664916993,-1.0156928062438966 2.6532291412353515,-0.1948822021484375 l2.5279766082763673,-0.08195704221725464 m2.0412933349609377,15.163031005859375 l1.4429550170898438,0.17747484445571898 1.8748552322387695,-0.4225455284118652 l2.6822662353515625,-0.963629150390625 2.3170150756835937,-1.997891616821289 l2.7412843704223633,-1.9665664672851562 1.874934768676758,-2.409147262573242 l0.7877835750579834,-2.3641359329223635 0.4943093776702881,-1.0691267013549806 l0.044814133644104005,-0.8066818237304687 -0.3192852735519409,-0.5283491134643554 l-0.9160012245178223,-0.6319293975830078 -1.0840280532836915,-0.1919865608215332 l-1.6959781646728516,0.7129254341125488 -2.0850008010864256,1.5825432777404784 l-2.080091857910156,2.416378402709961 -1.6601116180419921,2.502614212036133 l-0.4996800422668457,1.6091339111328125 0.2649154901504517,0.9111360549926758 l1.9034759521484375,1.0097017288208008 2.6194581985473633,0.475860071182251 m19.477935791015625,-3.4218093872070314 l-1.388393497467041,-1.0670218467712402 -1.180047607421875,-0.9069536209106446 l-1.765619659423828,-1.3519689559936523 -2.5003795623779297,-1.1870051383972169 l-2.075030517578125,-0.0926491677761078 -1.7403121948242188,0.5392069816589355 l-1.8182910919189452,1.1669188499450684 -1.698585319519043,1.6933076858520508 l-0.8750658988952636,2.272201919555664 0.05092567801475525,1.7545913696289062 l1.453971767425537,1.620168113708496 1.882413101196289,0.8054171562194824 l2.636080741882324,-0.02675027251243591 2.7197244644165037,-0.8093810081481934 l2.6607236862182617,-1.5041410446166992 2.5329647064208984,-2.0171695709228517 m0.9293693542480469,-14.055615234375 l-0.25458195209503176,-0.19593372344970703 0.30460515022277834,0.4503806114196777 l-0.4631598472595215,0.6799789428710937 0.41890902519226075,3.0102500915527344 l-0.11600234508514404,3.982928466796875 -1.2623757362365722,3.877244567871094 l-0.6253515243530273,3.371702194213867 0.32856342792510984,2.7610965728759767 m45.4494384765625,-14.590333557128906 l-1.7112825393676758,-0.15235774517059325 -2.403488349914551,-0.023885026574134827 l-2.6423976898193358,1.0786465644836425 -2.1063892364501955,0.9963544845581055 l-1.4657022476196289,0.9641618728637695 -0.6739922046661377,1.1367106437683105 l0.049420294165611264,1.1636171340942383 0.8841782569885254,1.3037763595581056 l2.0729902267456053,1.4837685585021974 2.0223628997802736,1.1282572746276855 l1.3726608276367187,0.763061237335205 0.5265144824981689,0.3812946081161499 l-0.38251116275787356,-0.1496814966201782 -1.155439281463623,0.22199735641479493 l-2.5432052612304688,0.24233734607696533 -3.11248779296875,0.10519859790802003 l-3.095094680786133,0.3684856414794922 -2.932935905456543,0.2697293281555176 l-2.653299331665039,0.2228698492050171 -1.696592140197754,0.08549317717552185 l-0.9229374885559082,-0.01694154441356659 0.2690446853637695,-0.14952490329742432 l1.5183106422424317,-0.5421459674835205 2.489196014404297,-1.3255047798156738 m28.049954223632813,-8.438675689697266 l0.35806276798248293,-0.5178208351135254 -0.26770639419555664,-0.49112472534179685 l-0.08150067925453186,-0.10025880336761475 -0.7915215492248535,-0.1585877537727356 l-0.6448250770568847,0.028458017110824584 -1.3592741012573242,-0.10777088403701782 l-2.410598373413086,0.847689437866211 -2.5126983642578127,1.8158552169799804 l-2.183485221862793,2.064099884033203 -0.7688620090484619,2.636053466796875 l-0.30956335067749025,1.5995574951171876 1.0943506240844727,1.1896072387695313 l1.787738037109375,0.14723068475723267 2.6076290130615236,-0.49177231788635256 l2.054109573364258,-1.1457277297973634 1.703514862060547,-1.67239990234375 l0.8895084381103515,-2.254303741455078 0.20329859256744384,-2.705363464355469 l0.13982294797897338,-2.008551597595215 -0.6817551136016846,-0.8526491165161133 l0.16710982322692872,0.1527186632156372 -0.24093892574310302,-0.23109536170959472 l0.21740808486938476,0.2535520076751709 1.173641300201416,0.8065008163452149 m9.289608001708984,1.7910621643066407 l-0.32632994651794434,-0.3551208972930908 -0.1552433729171753,-0.33929517269134524 l-0.004998185485601425,-0.024508845806121827 -0.23966829776763915,-0.010458018630743027 l-0.05823304057121277,-0.12348423004150391 0.03683914244174957,0.14692177772521972 l-0.0016188506036996842,0.08706743121147156 -0.0547809362411499,0.11180111169815063 l-0.16918549537658692,0.029974225163459777 -0.10581159591674805,-0.06515268087387086 l0.20257279872894288,-0.3245392322540283 -0.24967715740203858,-0.08641448020935058 l0.551076602935791,0.2607899188995361 -0.47959256172180176,0.027271997928619385 l0.19173662662506102,0.1522087574005127 -0.4479072570800781,1.5346687316894532 l0.35185585021972654,2.185781478881836 0.23008296489715577,2.364926338195801 l1.0670662879943849,1.0951539039611817 2.06514949798584,0.5830188751220703 l2.8907657623291017,0.007486633211374283 2.922529602050781,-1.185719108581543 l3.7611907958984374,-1.2245268821716309 3.0825977325439453,-2.45491886138916 m3.1034053802490233,-22.019041442871092 l-0.9877902030944824,0.18451950550079346 -0.09749746918678284,0.7873774528503418 l0.2202366590499878,2.50711669921875 0.040467894077301024,3.5156097412109375 l0.5265769958496094,4.013858413696289 0.2809784412384033,3.834971237182617 l0.5694695472717285,3.6671802520751955 0.9558684349060058,3.085940933227539 l0.4308504581451416,2.5056848526000977 0.4621540069580078,1.6765071868896484 l0.13168126344680786,1.1698747634887696 0.39325995445251466,0.25234758853912354 l0.2507039546966553,0.200622034072876 0.48205885887145994,-0.17014074325561523 l0.6094294548034668,-0.9646189689636231 1.7860094070434571,-1.7541133880615234 l2.5982187271118162,-1.733823013305664 2.471847343444824,-1.0764514923095703 l2.0527975082397463,-0.7943033695220947 1.5356692314147948,-0.3037797212600708 l0.9447283744812012,0.16257104873657227 0.43680806159973146,0.4394680500030518 l0.6597380638122559,0.8249259948730469 -0.021319371461868287,1.3543596267700195 m-1.3028178215026855,-4.245645523071289 l0.05929165482521057,-0.3526461124420166 -0.3953227996826172,-0.4349555015563965 l0.17794984579086304,-0.032596242427825925 0.2849448204040527,0.275875186920166 l0.32900204658508303,0.5323801040649414 1.0098910331726074,1.4707017898559571 l0.47693357467651365,1.8732473373413085 1.127718448638916,2.42946720123291 l1.2423514366149901,2.072335052490234 1.5496767997741698,1.3986242294311524 l1.338653564453125,0.9795575141906738 1.3076263427734376,0.6277530670166016 l-0.06674999594688416,-0.223185396194458 0.5431838035583496,0.23454840183258058 l-0.6983156204223633,-0.36036813259124756 -0.13328912258148193,-0.21968457698822022 l0.0011317385360598564,-0.5205022811889648 0.02983206808567047,-1.2667434692382813 l2.0038938522338867,-1.5251577377319336 1.9608457565307618,-1.5620388984680176 l2.370797348022461,-1.7482616424560546 2.4604351043701174,-1.4724802017211913 l1.5921574592590333,-1.4250555992126466 1.518648052215576,-0.5236087799072265 m1.845473289489746,3.476765823364258 l0.09613007307052612,0.16664466857910157 0.057255512475967406,-0.017484189569950105 l-0.04265833199024201,-0.12268236875534058 -1.0348817825317382,-2.1003353118896486 l-0.5776337623596192,-2.698835754394531 -1.7177417755126954,-2.9496341705322267 l-1.163188362121582,-2.4997520446777344 -1.8835960388183595,-2.8762128829956053 l-0.886292839050293,-2.2998706817626955 0.4131784915924072,-1.6753341674804687 l1.4189997673034669,-1.464744472503662 2.7762836456298827,-1.105709171295166 l3.4483543395996095,-0.2896010398864746 3.297894287109375,-0.34786434173583985 l4.184547805786133,0.5052738189697266 2.73504638671875,0.6072372436523438 l2.333095932006836,1.5293237686157226 2.4895498275756838,2.3921621322631834 m49.3259521484375,0.35034914016723634 l-0.4938626289367676,-0.10754870176315308 -1.6641748428344727,-0.8151615142822266 l-1.896061325073242,-1.1505313873291017 -2.5013031005859374,-1.1266140937805176 l-2.7081893920898437,-0.8627607345581054 -2.6866588592529297,-0.2646082878112793 l-3.7126689910888673,0.35549905300140383 -2.4813869476318358,1.8208009719848632 l-2.2941396713256834,3.1208721160888673 -0.5797683715820312,3.9634849548339846 l-0.07374484539031982,3.5715797424316404 0.9023207664489746,2.653642272949219 l2.1414052963256838,1.5163230895996094 2.5584156036376955,0.7653541564941406 l1.9930009841918945,-0.6660495281219483 3.254991912841797,-1.7212688446044921 l1.947334098815918,-2.5898971557617188 2.1224763870239256,-3.260402297973633 l1.6381475448608398,-3.886110305786133 1.4072628021240234,-3.498763656616211 l0.5969058036804199,-2.0588363647460937 0.20539960861206055,-0.8278535842895508 l-0.20886502265930176,-0.039298444986343384 -0.12739300727844238,0.5266495227813721 l0.6687741279602051,2.0623828887939455 0.4894538402557373,3.1072933197021486 l0.6982683181762696,3.8018115997314452 0.714987325668335,3.599216079711914 l0.5314998149871826,2.978917694091797 0.943384838104248,1.7340051651000976 l1.034171962738037,0.8751031875610351 1.1479141235351562,-0.014469771087169648 m3.299246978759766,-18.02177734375 l-0.28435943126678465,-0.3764679431915283 -0.21192679405212403,-0.3395371437072754 l-0.4052013874053955,-0.05873174667358398 -0.17482399940490723,0.4066322326660156 l0.44948711395263674,2.3885623931884767 -0.2572344779968262,2.9082141876220704 l1.1208152770996094,3.814555358886719 1.4022221565246582,2.716571044921875 l2.0627277374267576,1.7243844985961914 2.0007097244262697,0.33460488319396975 l2.754961395263672,-0.9311446189880371 2.6441349029541015,-2.004079055786133 l1.717320442199707,-3.022435760498047 2.092692565917969,-3.1711542129516603 l1.7790206909179687,-3.1727806091308595 1.3278301239013672,-2.117038345336914 l0.10114058256149291,-0.4392728805541992 -0.27437877655029297,0.10944576263427734 l0.5073651790618896,1.309743309020996 -1.0588289260864259,2.075655937194824 l1.0000304222106933,3.0230899810791017 -0.3470179557800293,3.328251266479492 l0.9243563652038574,2.4552680969238283 0.34887871742248533,1.094092559814453 l1.3997076034545899,0.14823217391967775 1.874708366394043,-0.378476619720459 l2.2799747467041014,-1.2231955528259277 2.2042911529541014,-1.4398106575012206 l1.7355213165283203,-1.6092512130737304 1.53609037399292,-1.3172253608703612 l1.5521584510803224,-0.7119603157043457 1.74060115814209,-0.06845322847366334 l0.2602067947387695,-0.07866290211677551 0.3006760597229004,0.4487802028656006 l0.37839541435241697,0.641607666015625 0.4784071922302246,1.3915769577026367 l0.5853793621063232,1.7426946640014649 0.7834069728851318,1.9668750762939453 l1.1656240463256835,1.6762845993041993 0.9291460037231445,0.8981858253479004 l2.872405242919922,0.8291215896606445 1.6758712768554687,-0.09103981256484986 l2.4349594116210938,-0.17002142667770387 1.8234308242797852,-0.9441946983337403 l2.3150798797607424,-1.435185432434082 2.305538368225098,-1.5452283859252929 l2.007310485839844,-1.8224872589111327 2.1830112457275392,-1.925023651123047 l1.6230405807495116,-2.0579925537109376 1.4093584060668944,-1.5529417037963866 l0.3720727443695068,-1.409951114654541 -0.010193011164665223,-0.783384132385254 l-0.8598063468933106,-0.7810180187225342 -0.4046588897705078,-0.24266858100891114 l-1.009322738647461,0.2765291690826416 -1.0120288848876953,0.8621002197265625 l-1.802762222290039,1.4030303955078125 -1.4084224700927734,2.4553977966308596 l-0.9602307319641114,2.3666358947753907 -0.3381971836090088,2.654547691345215 l0.6871676921844483,1.9455646514892577 1.1616022109985351,1.1855716705322266 l1.5417214393615724,0.4520102977752686 1.9728450775146484,-0.5320324897766113 l2.483587455749512,-1.3443620681762696 2.526163864135742,-2.111223030090332 l2.2404876708984376,-2.652015495300293 2.046158027648926,-1.7874935150146485 l1.5126495361328125,-0.5917675495147705 1.2197991371154786,-0.3519588947296143 l0.7161458015441895,0.31597228050231935 0.9759918212890625,0.7928004741668702 l-0.3511786699295044,1.8430231094360352 -0.709019947052002,2.9130523681640623 l-2.1410429000854494,2.3695981979370115 -0.9623559951782227,2.294000816345215 l-1.6407520294189453,1.4829776763916016 -1.4859503746032714,0.5326704025268555 l-1.5233341217041017,-0.18396830558776855 -0.3141993522644043,-0.7810704231262207 m6.258873367309571,-22.268531799316406 l-0.05661105513572693,-0.6035173416137696 -0.028106677532196044,-0.001912907138466835 l-0.021135738492012023,-0.10115624666213989 0.06308538913726806,0.10407135486602784 l0.17755578756332396,0.16957683563232423 -0.2200167179107666,0.21342113018035888 l0.05759731531143188,0.12977368831634523 -0.26688423156738283,0.04267945885658264 m23.507005310058595,14.856727600097656 l0.13478925228118896,-0.024962663650512695 0.15599730014801025,0.2214742660522461 l0.3763312101364136,0.0772014856338501 2.400806427001953,0.0766537070274353 l3.9979175567626952,0.12987655401229858 3.376001739501953,-0.9806406974792481 l2.067123603820801,-1.4099607467651367 1.9054943084716798,-1.3519256591796875 m52.06336669921875,-0.8423683166503906 l-0.9490036010742188,1.1783674240112305 0.5883274555206299,1.885611343383789 l0.18940316438674926,2.6995317459106447 0.20083448886871338,3.208072280883789 l0.08035593628883361,3.1864646911621093 0.029222583770751952,2.5380905151367186 l0.6103484153747558,2.353312683105469 -0.7348384380340576,1.3480534553527832 l0.9397134780883789,0.6960967063903809 0.8558389663696289,-1.1332265853881835 l0.4551517963409424,-1.7556268692016601 1.4218074798583984,-1.7516023635864257 l1.2423246383666993,-0.5047247409820557 1.247464942932129,-0.2608764171600342 l1.1702552795410157,-0.23962728977203368 1.9681785583496094,-0.1800457000732422 l3.0848056793212892,-0.3444430589675903 3.375177001953125,-1.2990766525268556 l3.3511962890625,-1.0729422569274902 2.2289947509765624,-1.4772710800170898 l1.1590932846069335,-1.2043953895568849 0.007163293659687042,-1.0274856567382813 l-0.5643692016601562,-1.3434515953063966 -1.468351173400879,-1.3669523239135741 l-2.0416942596435548,-1.067469596862793 -2.1829891204833984,-0.5606112480163574 l-1.3026572227478028,0.16549910306930543 -1.1758688926696776,0.9795317649841309 l-0.24437618255615234,2.6988479614257814 0.0605928361415863,3.9836105346679687 l1.2768709182739257,4.527538299560547 2.7948389053344727,4.591463088989258 l2.959578514099121,4.1024433135986325 3.634061813354492,3.9886165618896485 l8.852725982666016,10.763014221191407 1.8708499908447265,1.2238465309143067 l1.6846025466918946,0.5998312950134277 1.5012078285217285,-0.559174919128418 l2.1190170288085937,-1.057589054107666 m23.529476928710938,-20.62250671386719 l0.31122941970825196,0.7859389305114746 -0.18278110027313232,0.8634784698486329 l0.14371325969696044,1.067364501953125 0.25921428203582764,1.4153326034545899 l0.621070146560669,1.3121330261230468 0.2802207708358765,1.5048359870910644 l0.6019161224365235,2.2080175399780275 0.08703308701515197,1.9638687133789063 l-0.1285686731338501,2.221072196960449 0.3529828548431396,1.9410158157348634 l-0.28968570232391355,1.186978244781494 -0.04739239811897278,0.5879645347595215 l-0.053269577026367185,0.10360589027404785 -0.24693374633789061,-0.8161078453063965 l0.45673317909240724,-1.104829692840576 -0.20128183364868163,-1.5207828521728515 l0.5297221183776856,-1.649362564086914 1.0225997924804688,-1.7256244659423827 l0.9857343673706055,-1.83746337890625 16.354922485351562,-8.337261199951172 l1.6985572814941405,0.5434077262878418 0.6159239768981933,0.2787576675415039 l0.058205097913742065,0.8263617515563965 -0.5800607204437256,1.2221770286560059 l-0.6988969802856445,1.9743637084960937 -1.3137901306152344,1.9082841873168945 l-1.678603744506836,1.7049493789672852 -3.730746841430664,4.844287872314453 l0.9413430213928222,-0.32394325733184814 0.8072165489196778,-0.8464556694030761 l1.8422979354858398,-0.684443187713623 1.964863395690918,-1.3914911270141601 l2.252107620239258,-1.3771876335144042 2.4059770584106444,-1.572735595703125 l2.8006450653076174,-0.9343482971191406 2.355426025390625,-0.863250732421875 l1.8034568786621095,-0.44666271209716796 1.5464012145996093,-0.255527925491333 l10.073234558105469,-1.5645289421081543 2.6239292144775392,-2.232027053833008 l2.430440902709961,-1.2207125663757323 1.3718339920043945,-0.8305206298828125 l0.324730658531189,-0.26684534549713135 -0.14161300659179688,0.5097378730773926 l-1.034571075439453,1.6809906005859374 -2.1420469284057617,2.6212932586669924 l-2.6475336074829103,3.541888427734375 -1.836320686340332,3.2595451354980467 l-0.7012470245361329,1.9639429092407226 0.22377228736877441,0.6793508052825927 l0.6166524887084961,-0.35974411964416503 1.5349765777587892,-1.3830501556396484 l2.7059585571289064,-2.2588199615478515 2.1679384231567385,-2.9676742553710938 l3.0229412078857423,-2.422891616821289 2.0897003173828126,-2.597811698913574 l1.1079208374023437,-1.7345932006835938 0.3282341718673706,-1.2745614051818848 l0.5189260959625244,-0.1385796070098877 -0.2425678014755249,-0.30699572563171384 l0.07512624263763427,0.08618865013122559 0.3409726142883301,-0.197159743309021 l1.5011497497558595,-0.5129634857177734 2.231016159057617,-1.1195321083068848 l3.0987165451049803,-2.105129051208496 m44.68369750976562,-26.86170654296875 l-0.28066415786743165,0.09052163362503052 -0.7134613037109375,0.5250379562377929 l-1.71531982421875,1.7088605880737304 -3.1147415161132814,2.9249467849731445 l-3.80225830078125,5.001587677001953 -4.412563705444336,6.1560829162597654 l-3.948461151123047,6.713971710205078 -3.2357337951660154,7.058696746826172 l-1.7936519622802733,6.008418273925781 -0.5152647972106934,4.302869415283203 l1.2771359443664552,2.6771495819091795 1.8965723037719726,0.4653474807739258 l3.149689865112305,-1.0810752868652345 3.933381271362305,-2.869698333740234 l4.373039245605469,-4.144573211669922 4.792474746704102,-5.155559539794922 l4.804212951660157,-3.9767379760742188 2.7165945053100584,-3.623153305053711 l1.4411974906921388,-2.0599178314208983 -0.1005297303199768,-0.7420331954956054 l-0.5318430900573731,-0.3864971399307251 -1.1078340530395507,0.3445749282836914 l-1.9403770446777344,1.2362863540649414 -2.568895149230957,1.9007450103759767 l-1.9432178497314454,3.071495246887207 -2.1292518615722655,2.784113883972168 l-1.7447490692138672,2.405956268310547 -0.7639132022857666,1.787594985961914 l0.1663766622543335,0.7944604873657226 0.3399486541748047,0.010286267846822739 l1.1864810943603517,-0.16442722082138062 1.6600139617919922,-1.0408406257629395 l2.6441341400146485,-1.4065832138061523 3.275499725341797,-2.0677206039428713 l3.0810327529907227,-2.6369325637817385 3.011285400390625,-2.2551834106445314 l2.189258575439453,-1.5914274215698243 0.950379753112793,-0.5996596813201904 l0.06021794080734253,-0.015390266478061677 -0.22879598140716553,1.111906147003174 l-1.853720474243164,2.12216739654541 -2.422176170349121,2.7372732162475586 l-2.464828300476074,3.099687194824219 -1.3981037139892578,2.6721271514892577 l-0.16806602478027344,1.2623607635498046 1.0663948059082031,0.18513104915618897 l2.1947742462158204,-0.6344565868377685 2.9930105209350586,-2.083369255065918 l3.8015975952148438,-2.2571136474609377 3.4642276763916016,-2.4199352264404297 l3.5429672241210937,-1.205894374847412 2.5278432846069334,-1.0131402015686035 l1.8819425582885743,-0.27599425315856935 1.5809690475463867,-0.3411645650863647 l1.6630598068237306,0.002787839248776436 1.765640640258789,-0.2885205984115601 l2.610681343078613,-0.16226558685302733 2.842319679260254,-1.1863287925720214 l3.0222728729248045,-1.5345545768737794 2.3899456024169923,-2.0335403442382813 l1.6590444564819335,-1.7178020477294922 0.9341660499572754,-0.9903086662292481 l-0.6061912059783936,-0.5803536415100098 -1.1148685455322265,0.25626745223999026 l-2.1457033157348633,1.4600341796875 -3.1710155487060545,3.009249687194824 l-3.460748291015625,4.1381690979003904 -4.205229949951172,4.3899993896484375 l-3.0349218368530275,4.7526298522949215 -2.499006462097168,3.6514823913574217 l-0.375412130355835,2.1340044021606444 0.1969834566116333,-0.18790993690490723 l2.2405338287353516,-1.4296369552612305 4.381327819824219,-3.1436784744262694 l4.737677764892578,-3.911817932128906 5.822163391113281,-3.5658164978027345 l3.8093494415283202,-2.2130088806152344 1.1831130027770995,-0.830295181274414 l0.6586797714233399,0.7299898147583008 -0.767643928527832,1.6598077774047852 l-0.49118409156799314,2.8607295989990233 -0.7512834072113037,1.3190001487731933 l-0.07991892695426941,0.43072071075439455 0.7574457168579102,-0.5840976715087891 l1.7263954162597657,-1.3731966018676758 2.162359046936035,-1.2081099510192872 l2.768263816833496,-0.8752239227294922 1.396462631225586,-0.18358522653579712 l-0.05444151759147644,0.4044351100921631 -0.816104793548584,2.634994697570801 l-1.6303390502929687,2.671799087524414 -1.5236014366149901,1.9873451232910155 l0.24462504386901857,1.2817941665649415 0.8315052032470703,0.15009201765060426 l1.9605226516723633,-0.7097480773925782 2.9626903533935547,-1.5466885566711426 l3.6930870056152343,-2.2128812789916994 4.175975036621094,-2.603419876098633 l4.490110778808594,-2.8812074661254883 3.760036849975586,-2.311382293701172 l2.093623161315918,-1.4523788452148438 0.43929152488708495,-0.1065674066543579 l-0.6327046394348145,0.13189624547958373 -1.6533843994140625,1.3751785278320312 l-2.481041145324707,3.1919366836547853 -3.2238887786865233,5.0215293884277346 l-3.4130523681640623,5.992724609375 -2.246231460571289,5.2317665100097654 l-0.9129611015319824,3.895093536376953 0.24455578327178956,1.242424774169922 l1.1314987182617187,-0.3920099973678589 1.9724765777587892,-2.470035743713379 l3.1067481994628907,-4.894687271118164 3.4468917846679688,-6.134148025512696 l4.540828704833984,-6.754933166503906 4.630084991455078,-7.285868835449219 l4.942474746704102,-6.336559677124024 3.586924743652344,-4.637310028076172 l2.6710136413574217,-2.221787452697754 1.0426140785217286,-0.7694434642791748 l0.31021814346313475,0.35057268142700193 -0.47928876876831056,2.1328575134277346 l-1.4790087699890138,4.533460998535157 -1.8499074935913087,5.848834228515625 l-3.198019790649414,7.043445587158203 -2.513375091552734,7.075011444091797 l-1.301746940612793,5.269320678710938 -0.19415920972824097,2.9106334686279296 l0.9757116317749024,0.9680715560913086 1.5968734741210937,-0.6101990222930909 l3.576825714111328,-2.3207796096801756 3.7765125274658202,-3.9870525360107423 l4.326095199584961,-3.7289382934570314 4.125637435913086,-2.4176074981689455 l2.579207420349121,-0.9693272590637207 1.4137876510620118,0.196551513671875 l0.5299642086029053,1.191368579864502 -0.10206006765365601,2.775743103027344 l-1.6514781951904296,3.4924026489257813 -1.4486465454101562,3.502071762084961 l-1.1101001739501952,3.2465847015380858 -0.41573333740234375,1.4179629325866698 l0.7555330276489258,0.6373494148254395 1.0707268714904785,-1.0146072387695313 l1.8566543579101562,-1.3302398681640626 2.067203330993652,-2.5172725677490235 l2.6236240386962892,-2.623476028442383 2.2608699798583984,-1.8208187103271485 l1.073542594909668,-0.7485785961151123 0.3590881586074829,-0.09900047779083251 l-0.5970847606658936,0.4392274856567383 -1.6325923919677734,1.9356048583984375 l-1.8174427032470704,2.429926872253418 -1.8900482177734375,2.39254150390625 l-0.7489553451538086,2.7436227798461914 -0.5526297092437744,2.317026138305664 l-0.2513016700744629,0.5971338272094726 0.9872858047485351,0.39031476974487306 l1.5036523818969727,-0.5446988105773926 1.6409931182861328,-1.6759437561035155 l2.7530614852905275,-2.166927146911621 2.250315475463867,-2.7057369232177733 l2.6493179321289064,-1.7525617599487304 1.632766342163086,-0.9483552932739258 l0.43945651054382323,0.4124401092529297 0.17037978172302246,1.8844635009765625 l-0.7843675136566162,2.752713203430176 -1.6640003204345704,3.795914077758789 l-1.4641913414001464,3.2659019470214843 -0.47002763748168946,2.2350921630859375 l0.4983099937438965,0.4776937961578369 1.6147188186645507,-0.9271058082580567 l2.5872114181518553,-2.6423437118530275 3.1604042053222656,-2.6994552612304688 l2.601879119873047,-2.6792192459106445 2.8262710571289062,-1.6567804336547851 m7.60248031616211,-5.034221649169922 l-1.2627828598022461,1.1595215797424316 -1.7816499710083007,3.4457447052001955 l-2.6465179443359377,3.7156913757324217 -1.9640005111694336,4.129829406738281 l-1.5298008918762207,2.4201944351196287 -0.33336615562438965,1.0010557174682617 l0.8060211181640625,0.17799122333526612 1.3421725273132323,-1.106237030029297 l1.3286069869995116,-2.672272491455078 1.7253435134887696,-3.195250701904297 l1.3471370697021485,-3.7777984619140623 0.5223107814788819,-3.469569778442383 l-0.3412294864654541,-1.595106029510498 -1.8655094146728515,0.04381391108036041 l-1.3713834762573243,0.8936853408813477 -0.9170487403869629,1.1839399337768555 l0.04100643396377564,0.6040551662445068 0.7802073955535889,0.6919649124145508 l1.590673828125,0.31944396495819094 2.969783401489258,0.38330893516540526 l3.420105743408203,-0.6861021041870117 3.472827911376953,-1.2897960662841796 l3.166173553466797,-1.6879093170166015 3.434172821044922,-1.7070497512817382 l1.8438570022583007,-1.3477012634277343 0.6406445503234863,-0.22335774898529054 l-0.3003110647201538,0.22278156280517578 -1.0879374504089356,1.1943259239196777 l-2.0534801483154297,2.4324272155761717 -2.4532087326049803,3.0495222091674803 l-2.3484094619750975,2.9747800827026367 -1.51458683013916,3.172398567199707 l-0.5024585247039794,2.26206111907959 0.11787883043289185,1.2020655632019044 l0.9335567474365234,0.9596213340759278 0.5547431945800781,-0.5056572437286377 l1.526947593688965,0.28723504543304446 1.0038639068603517,-0.9036392211914063 l1.0147476196289062,-1.2242603302001953 1.4462471008300781,-1.5789241790771484 l1.3083882331848145,-2.2003589630126954 1.9171653747558595,-2.0047426223754883 l1.850069236755371,-2.0477724075317383 2.0479225158691405,-1.2909006118774413 l1.541892910003662,-0.9414640426635742 1.0994750022888184,-0.4709974765777588 l0.8864078521728516,-0.41524405479431153 0.7165627002716064,-0.19256176948547363 l0.5973430633544922,-0.05414983630180359 0.6627253532409668,0.07586124539375305 l0.5646520137786866,-0.33868167400360105 1.0878815650939941,0.3473039150238037 l0.9076710700988769,0.15509378910064697 0.7098074436187745,-0.3047282934188843 l0.43998379707336427,-0.33666970729827883 0.985722827911377,0.04322406947612763 l0.293621826171875,-0.11765155792236329 0.007437810301780701,-0.01928521543741226 l-0.1354924440383911,0.037513124942779544 -1.1513891220092773,-0.07767527103424073 l-1.4794148445129394,0.49448719024658205 -1.187003231048584,1.0132713317871094 l-1.2378379821777343,1.1825983047485351 -0.9563899993896484,1.819196891784668 l-0.4363227367401123,2.627943420410156 0.266296911239624,2.9289966583251954 l0.8471631050109864,2.401827812194824 1.3465692520141601,1.6074394226074218 l1.797762680053711,0.8655246734619141 2.345738410949707,0.35432507991790774 l2.2812950134277346,-0.8410097122192383 2.5377803802490235,-1.4365849494934082 l2.4139177322387697,-2.5139692306518553 2.568849563598633,-2.28197021484375 l1.9933195114135742,-2.1984394073486326 1.6574823379516601,-2.0158462524414062 m39.5285400390625,-3.9561992645263673 l-1.7307388305664062,0.1252938389778137 -1.8335765838623046,0.1478115439414978 l-1.8390012741088868,0.37645955085754396 -2.0231464385986326,0.679856538772583 l-2.020276641845703,1.6064006805419921 -1.284456443786621,2.384451675415039 l-0.5288610458374023,3.020595741271973 0.6228020668029786,3.025875282287598 l1.3048590660095214,1.560438060760498 2.7238880157470704,1.0660520553588868 l3.0548141479492186,-0.20652623176574708 m9.497479248046876,-3.7598445892333983 l-0.621328067779541,1.26170072555542 " fill="none" stroke="black" stroke-width="1" /></svg>