<?xml version="1.0" encoding="utf-8" ?>
<svg baseProfile="full" height="107.38466746071356" version="1.1" width="563.7087811432781" xmlns="http://www.w3.org/2000/svg" xmlns:ev="http://www.w3.org/2001/xml-events" xmlns:xlink="http://www.w3.org/1999/xlink"><defs /><rect fill="white" height="107.38466746071356" width="563.7087811432781" x="0" y="0" /><path d="M25,82.20618263939397 m12.75311737060547,-12.363623046875 l-1.082043170928955,2.908481788635254 -0.4438375949859619,1.3480166435241698 l0.5770720958709716,2.348594856262207 0.36591980457305906,1.5106056213378907 l1.1168092727661132,1.8061607360839844 1.6242597579956055,1.4580674171447754 l2.0931064605712892,0.9872880935668945 2.377132606506348,0.17489271163940429 l1.9991275787353515,-0.7388200283050537 1.8719680786132813,-0.6601743698120117 l0.6664419651031495,-1.7433561325073241 0.17188386917114257,-1.7997760772705078 l-0.7898288249969483,-2.1129663467407225 -1.4233840942382812,-1.937767791748047 l-2.1962583541870115,-1.3632987976074218 -3.0073013305664062,-1.3236884117126464 l-2.30715389251709,-0.02971480190753937 -1.4948788642883302,0.36708166599273684 l-0.43916993141174315,0.022815501689910887 m33.38499450683594,-8.266921997070312 l-0.09720972776412964,0.1465359926223755 0.39350361824035646,1.1252002716064453 l0.22859597206115723,1.2923410415649415 0.5255957126617432,2.7775901794433593 l-0.5158770084381104,1.7014854431152344 -0.38327977657318113,2.6972671508789063 l-0.188665771484375,2.07497501373291 0.32396864891052246,2.354966926574707 l0.7084543704986572,1.7675832748413085 0.6100636005401612,0.7663918495178222 l1.0939054489135742,0.6413993835449219 1.3797101974487305,0.07546694278717041 l1.647609329223633,-0.7151122570037842 1.8406509399414062,-1.229500961303711 l2.308003616333008,-1.2822312355041503 2.0838146209716797,-2.248670196533203 l1.6529365539550782,-2.543979263305664 2.127826690673828,-1.3824406623840333 l1.5594253540039062,-1.270189380645752 0.8787996292114257,-1.1355510711669923 l0.3728231191635132,-0.7008172035217285 -0.5474157333374023,-0.4854620933532715 l-0.5469560146331787,0.4670431137084961 -1.290418815612793,0.673828125 l-2.3447967529296876,1.1128950119018555 -1.928370475769043,2.087335395812988 l-1.3132367134094238,1.7102214813232421 -0.1853863477706909,1.6195125579833984 l0.6245474815368652,1.4531906127929688 1.4703436851501466,1.2503782272338868 l1.6221359252929688,0.8080362319946289 1.5883898735046387,0.7854979038238525 l1.279715633392334,0.3232447147369385 1.230881118774414,0.078624427318573 l1.2571006774902345,0.32540597915649416 0.24172515869140626,-0.558917760848999 m22.51471862792969,-20.378146362304687 l-0.11420967578887939,-0.0975378155708313 -0.05724549889564514,-0.04165942966938019 l0.29551670551300047,0.4009407043457031 0.2907501220703125,0.6524899482727051 l0.1666844367980957,0.9270144462585449 0.7894003868103028,2.2488786697387697 l0.4559445381164551,2.8573814392089845 0.5848140239715576,3.0912981033325195 l0.2721811294555664,2.129534912109375 0.7684267044067383,2.1738140106201174 l0.4894223213195801,1.3769621849060059 0.5476989269256591,1.3276652336120605 l0.24705073833465577,0.8344590187072753 0.34276432991027833,0.8380392074584961 l-0.13112330436706543,0.7802005767822265 -0.03407060503959656,0.5339527606964112 l-0.42085752487182615,0.030957448482513427 -0.4051215648651123,-0.14235247373580934 l0.06561120748519897,0.2805447816848755 -0.42430739402770995,-0.4419731616973877 l-0.7861068725585938,-0.7956051349639892 -0.6503419399261474,-0.695364236831665 l-0.641019344329834,-0.9058618545532227 -0.6478526592254639,-1.0931997299194336 l-1.2433146476745605,-1.189154052734375 -1.1125017166137696,-0.7917511940002442 l-0.8846166610717774,-0.596043062210083 -0.8001171112060547,-0.5636506080627441 l-0.3592733383178711,-0.44263262748718263 -0.009468229115009308,-0.028418216109275817 l0.09497160911560058,-0.059000468254089354 0.12746167182922363,-0.12149009704589844 l0.1562567710876465,-0.2054760694503784 0.4728076934814453,-0.15491843223571777 l1.4982914924621582,0.21021566390991211 1.4032087326049805,-0.17104179859161378 l1.8156606674194335,0.2510080099105835 1.4471378326416016,-0.021406611800193785 l1.3689157485961914,0.30196123123168944 0.8711291313171386,-0.12221472263336182 m-1.4514892578125,-2.742893600463867 l-0.4507430076599121,-0.30052759647369387 -0.2952234983444214,-0.2513959646224976 l0.42616753578186034,0.33548424243927 0.122622811794281,-0.24833190441131592 l1.6507223129272461,0.556538200378418 2.2106931686401365,0.07538092136383057 l5.425879669189453,-1.2298416137695312 0.30752542018890383,-1.0000161170959472 l0.8469689369201661,-0.7589056491851807 0.7188856124877929,-0.6472286701202392 l-0.24722962379455565,-0.5043044567108155 -0.6704977035522461,-0.5107433319091796 l-1.6614635467529297,-0.6309934616088867 -1.6594520568847657,0.0380348801612854 l-1.212119197845459,0.35441758632659914 -0.4705975532531738,0.6999059677124023 l0.13788647651672364,0.8712597846984863 0.6513739109039307,1.161200714111328 m27.43365478515625,-3.019989776611328 l-0.2979626178741455,-1.1539498329162599 0.22099215984344484,-0.8618216514587402 l-0.5762056827545166,-1.2892136573791504 -0.9745604515075683,-0.8802267074584961 l-1.8441736221313476,-0.7122798919677734 -1.865785789489746,0.034568220376968384 l-2.147335243225098,0.48128738403320315 -1.7719305038452149,1.092573642730713 l-1.232102394104004,1.3540543556213378 -0.7480884075164795,1.8057954788208008 l-0.5971665382385254,2.303152084350586 0.24267866611480712,2.766780662536621 l0.42934503555297854,2.5683366775512697 1.4246949195861816,2.598489761352539 l1.692013931274414,1.6264680862426757 2.6307891845703124,1.2091774940490723 l2.745029258728027,0.2375025987625122 3.312334442138672,-0.5472739219665528 l2.4438352584838867,-1.445249366760254 2.47152156829834,-2.1108877182006838 l1.8732295989990235,-2.4915157318115235 1.7538671493530273,-2.6601806640625 l0.5058514595031738,-2.023810386657715 0.3904423713684082,-1.499829387664795 l-0.39501998424530027,-0.954958724975586 -0.6458121299743652,-0.40380220413208007 l-0.07989975810050964,0.016261529922485352 -0.02976895570755005,-0.03748035430908203 l-0.09021297097206116,0.23775207996368408 0.5215278625488281,1.0372067451477052 l1.3124771118164062,1.8614618301391601 1.3043255805969238,1.850548553466797 l1.5496807098388672,1.700841522216797 1.8865264892578124,1.7708309173583985 l1.7938901901245117,1.213246726989746 0.7377424240112305,0.4813967704772949 l1.2932016372680664,0.23286643028259277 0.6337128639221191,-0.3782707691192627 l0.9827535629272461,-1.4114180564880372 1.5577962875366211,-2.1496782302856445 l0.5184852600097656,-2.3441627502441404 0.635831069946289,-1.574143886566162 l0.16682411432266236,-1.2287293434143067 -0.11696339845657348,-0.7131661891937255 l-0.6769937515258789,-0.3988550901412964 0.23839409351348878,0.32649328708648684 l-0.06684590578079223,0.20580651760101318 0.116736900806427,0.5407525062561035 l0.2937735080718994,1.1705171585083007 -0.12716939449310302,1.0426128387451172 l-0.21399734020233155,1.5836874008178712 0.24991683959960936,1.9488655090332032 l0.03346380591392517,1.3794797897338866 0.4661667823791504,0.7047593116760253 l0.6892122268676758,0.35404560565948484 0.6143266677856445,-0.07382886409759522 m8.371697998046875,-25.465956115722655 l0.062379729747772214,0.06852582097053528 0.038710808753967284,0.08551608324050904 l0.5602244377136231,0.26866488456726073 0.48199830055236814,0.41095547676086425 l0.20758442878723143,1.289461040496826 0.41248064041137694,2.097227096557617 l0.10141401290893555,3.087088775634766 0.18995904922485352,3.5682651519775392 l0.06822357177734376,3.896519088745117 -0.17721858024597167,3.5413814544677735 l0.27488687038421633,3.0345232009887697 0.5459976673126221,2.3902273178100586 l0.364264702796936,1.6267005920410156 1.1734971046447753,0.9213616371154785 l0.9623889923095703,0.31827268600463865 0.3505565166473389,0.07196041345596313 m-11.27598876953125,-8.374659729003906 l-0.11210010051727295,-0.5068331718444824 1.1883877754211425,-0.7595120429992676 l2.810922622680664,-1.1908883094787597 3.7343021392822267,-0.961337661743164 l3.6003631591796874,-1.1651216506958009 3.9657142639160154,-0.665745210647583 l3.050785255432129,-0.49873671531677244 2.461349678039551,-0.578467845916748 m0.45142168998718263,1.712221908569336 l0.22047228813171388,0.13193342685699463 -0.24242639541625977,-0.1306387662887573 l-0.1997655749320984,0.10044374465942382 -0.1930805563926697,0.5962998390197753 l-0.6671505928039551,1.57134952545166 -0.7761761665344238,2.514256477355957 l-0.5629422664642334,2.531692886352539 0.31053481101989744,1.9007137298583985 l0.3809981822967529,1.1973825454711915 0.8113964080810547,0.7606577396392822 l1.7380577087402345,0.18741440773010254 1.5260939598083496,-0.6044013500213623 l1.1075405120849608,-1.6346858978271483 1.3058197021484375,-2.1850683212280275 l1.9335922241210937,-2.2454034805297853 1.1848104476928711,-2.1375633239746095 l1.6788591384887694,-1.5080665588378905 -0.12913113832473755,-1.098258876800537 l0.8155050277709961,0.012024547904729843 -0.2429145336151123,-0.03211295008659363 l0.1620746374130249,-0.086321359872818 -0.06865379214286804,-0.030783239006996154 l-0.0330313503742218,0.20937032699584962 0.5066778659820557,0.3157236099243164 l-0.7711778163909913,0.007743369042873383 0.2685179948806763,0.29695982933044435 l-0.05971593856811523,0.2263488292694092 1.3661707878112792,1.0292147636413573 l-1.6148433685302734,1.1462753295898438 0.21802921295166017,2.0473445892333983 l-1.1389692306518555,2.183430480957031 -0.41200928688049315,2.68442440032959 l-0.8878181457519532,2.3601686477661135 -0.15607975721359252,1.4922307968139648 l-0.4432505130767822,-0.017963825166225432 1.3225265502929688,0.5133708000183106 l0.8129091262817383,0.13150036334991455 0.5503103256225585,-0.16649320125579833 l0.9079887390136718,-0.1418846368789673 0.8525640487670898,-0.28446593284606936 m11.008110809326173,-15.120755004882813 l0.8517634391784668,-0.5532335758209228 -0.32409167289733887,-0.27961268424987795 l-0.459562349319458,-0.39677085876464846 -0.17531036138534545,-0.4294750690460205 l-0.12658650875091554,-0.13666974306106566 -0.46895403861999513,0.0263899028301239 l-0.28204476833343506,0.38269658088684083 -0.8789079666137696,1.7030960083007813 l-0.8413494110107422,2.9362911224365233 -0.34328789710998536,3.1621532440185547 l0.7202601909637452,2.7786561965942385 1.0012927055358887,1.5634264945983887 l0.6931617259979248,1.0269379615783691 1.5737973213195802,0.2465679407119751 l0.9301698684692383,0.13791940212249756 1.537930393218994,-0.5183187484741211 l0.9683910369873047,-1.1620243072509766 1.7367755889892578,-1.8668500900268554 l1.537137794494629,-2.4544559478759767 0.7215924263000488,-2.5212955474853516 l-0.08378798961639404,-1.6669780731201171 0.19826756715774535,-0.7379298686981202 l-1.352175807952881,-0.6960711479187012 -0.8625200271606446,-0.43575520515441896 m10.494911193847656,5.4015251159667965 l0.264480447769165,0.0029799809679389 -0.3350236415863037,-0.2555765867233276 l0.5058661460876465,-0.12943689823150634 0.2710688591003418,-0.6070676803588867 l-0.08459520936012269,-0.7695033073425293 0.9621639251708984,-0.0720224380493164 l0.7647855281829834,-2.427613067626953 0.8680610656738281,-2.571591377258301 l0.5178360939025879,-2.5176624298095702 0.5799388885498047,-1.9731931686401367 l0.21905295848846434,-1.1428659439086915 0.3585232734680176,-0.46773056983947753 l0.20105268955230712,0.22563629150390624 -0.12199130058288574,0.06944751739501953 l0.07795128822326661,0.3005937099456787 -0.39622328281402586,0.7870846748352051 l-0.7870012283325195,1.7960870742797852 -1.0544668197631837,2.2700387954711916 l-0.21927347183227539,2.729150390625 0.13096277713775634,1.8331684112548827 l0.23926763534545897,0.7728842735290528 1.0592889785766602,0.7908858776092529 l1.3251275062561034,0.2290928840637207 0.9489538192749023,-0.27611029148101807 l1.1128287315368652,-0.6310468196868897 1.1621862411499024,-0.6728844165802002 l0.8456375122070312,-1.2617799758911132 0.894294548034668,-1.2272436141967773 l0.7285025596618653,-1.326372241973877 0.8452078819274902,-0.49184355735778806 l0.275710129737854,-1.0829888343811036 0.20904242992401123,-1.1064117431640625 l0.32932376861572266,-0.9825827598571777 0.04729427099227905,-0.8111499786376953 l-0.5092108726501465,-0.9754131317138672 -0.5749719619750977,-0.6896347522735595 l-0.3042427062988281,-0.31816654205322265 -0.08502788543701172,-0.34649827480316164 l0.11460527181625366,-0.3015303611755371 -0.011027268320322036,-0.3715384006500244 l0.10301051139831544,-0.053102290630340575 -0.41191997528076174,-0.3109423637390137 l0.39109899997711184,0.36747207641601565 -0.16291545629501342,-0.18928014039993285 l0.06204465627670288,0.1486788272857666 m0.3998195886611938,1.5031834602355958 l0.6838243484497071,0.356857442855835 0.37510108947753906,0.44773502349853517 l0.12539806365966796,0.4224283218383789 -0.3846522569656372,0.7796140670776367 l-0.07164431214332581,1.4953435897827148 -1.1413769721984863,1.424050235748291 l-0.7093362808227539,2.187455177307129 -0.1386757016181946,2.5265567779541014 l0.052948004007339476,1.9648775100708007 0.019884981215000153,1.0235928535461425 l0.5790017127990723,0.6135225772857666 0.6109885215759278,0.27112603187561035 l1.437920379638672,0.02400900274515152 1.7630603790283204,-0.37413883209228516 l2.0672992706298827,-1.1306707382202148 2.2716907501220702,-1.2194934844970704 l1.5279716491699218,-1.5062574386596679 1.5349501609802245,-0.9251644134521484 l1.0566235542297364,-0.7386183261871337 0.695030689239502,-0.2568950176239014 l-0.5920838356018067,-0.7910800457000733 -0.006598231941461563,-0.2502521276473999 l-0.31863043308258054,-0.372342848777771 -0.21396217346191407,-0.15597848892211913 l-0.6522047996520997,-0.11050364971160889 -0.5431416034698486,-0.34650704860687254 l-0.20944457054138182,0.0824952781200409 0.38453528881072996,0.1649749755859375 l-0.2024700880050659,0.12848875522613526 0.00837942138314247,-0.014622515439987183 l-0.07717239260673522,0.20400497913360596 -0.1191831350326538,-0.1311424970626831 l-0.2244783401489258,-0.050295567512512206 0.22390227317810057,0.1595807671546936 l0.21564860343933107,0.18113242387771605 -0.5438460350036621,-0.2216503620147705 l0.28566226959228513,0.06877778768539429 0.19275438785552979,0.5038476467132569 l-0.008923176676034927,-0.06818335056304932 0.30257363319396974,0.17736873626708985 l-0.23800156116485596,-0.1597553610801697 0.38080406188964844,0.05640264749526978 l-0.6301219940185547,-0.3069367170333862 0.571800422668457,0.4336087226867676 l-0.2952424049377441,-0.2584284543991089 -0.26620283126831057,-0.01982564926147461 l0.08543562889099121,0.004506407305598259 0.33510384559631345,0.18598005771636963 l-0.1753695011138916,-0.15353925228118898 0.49233131408691405,0.2890107870101929 l-0.7072028636932373,-0.25895075798034667 0.3162952423095703,0.10274996757507324 l-0.3385127067565918,-0.22196855545043945 0.24164202213287353,0.17334258556365967 l0.21368832588195802,0.07040467858314514 -0.09918603301048279,-0.14784504175186158 l0.017651650309562682,-0.10625612735748291 0.19689072370529176,0.17205630540847777 l-0.29784302711486815,-0.12348897457122802 -0.23339738845825195,-0.19631195068359375 l0.35542864799499513,0.24534120559692382 -0.23662135601043702,-0.1120215654373169 l-0.27847681045532224,-0.215506911277771 0.26781373023986815,0.0935505747795105 l-0.1086980938911438,-0.1378381371498108 -0.10472475290298462,-0.0013456856831908226 l0.5303795337677002,0.17243032455444335 -0.48081560134887696,-0.3311270236968994 l0.18303933143615722,0.23052451610565186 -0.20136616230010987,-0.2369509220123291 l0.29230613708496095,0.25518150329589845 -0.043368163704872134,-0.09738433361053467 l-0.0777279794216156,-0.04490661323070526 -0.02287742346525192,-0.13266099691390992 l-0.11388908624649048,-0.059098351001739505 0.15353260040283204,0.17557476758956908 l0.23125195503234863,0.04913935661315918 m33.58399963378906,-14.64635009765625 l-0.10524311065673828,0.04720014929771423 0.45317654609680175,0.2516769886016846 l0.8911229133605957,0.7406316757202148 0.19690535068511963,0.41162571907043455 l0.33664731979370116,0.8717615127563476 -0.2888439655303955,1.3667569160461426 l0.14871749877929688,2.1117437362670897 0.0375593364238739,2.7346689224243166 l0.5829146385192872,2.9878938674926756 -0.3029303550720215,2.4246158599853516 l-0.3736345529556274,2.415498733520508 -0.12486008405685425,2.774504852294922 l-0.2746608257293701,2.181985855102539 -0.2236863851547241,1.7447050094604493 l-0.42004804611206054,1.0472359657287598 -0.09091880917549133,0.4791761875152588 m-4.250467300415039,-10.836170959472657 l-0.15951865911483765,-0.0010429267771542073 0.0836590051651001,-0.29299747943878174 l0.218489408493042,-0.02257811278104782 2.1703317642211912,-0.18494523763656617 l2.1279186248779296,-0.34520134925842283 2.034474182128906,-0.5368887901306152 l1.810239028930664,-0.6521327495574951 2.7480308532714846,-0.316202187538147 m8.603713989257812,-1.0127765655517578 l-0.18031656742095947,0.3236889600753784 -0.04028192162513733,1.2877341270446778 l-0.15547746419906616,1.7755739212036132 -0.1951983690261841,2.048673629760742 l-0.2288562297821045,2.3408126831054688 -0.3057784795761108,2.404577445983887 l-0.595577621459961,2.1464767456054688 0.10375524759292602,1.6959360122680665 l0.04866309762001038,1.0026565551757813 0.14193351268768312,-0.04283154010772705 l0.7530547142028808,-0.6132960796356202 0.741835069656372,-2.0626953125 m3.594316101074219,-19.46727752685547 l-0.5208711147308349,-0.5660654067993164 -0.21199111938476561,-0.2879946231842041 l-0.10936914682388306,-0.08593035340309144 0.5978829383850097,0.3073101043701172 m7.54912109375,-11.927971649169923 l-0.01588466912508011,0.05190893411636353 0.029097503423690795,0.1483635663986206 l0.463940954208374,0.7905102729797363 -0.5922523498535156,1.3555238723754883 l-0.14524542093276976,2.3033449172973635 -0.24995224475860595,2.7855323791503905 l-0.7803048610687255,2.8408233642578127 -0.7653496742248536,3.4209484100341796 l-1.446221160888672,3.4545314788818358 -0.3564577579498291,3.7878482818603514 l-0.6194277286529541,3.2314586639404297 0.1941279649734497,3.268288421630859 l0.4944443225860596,2.8498695373535154 0.9660235404968261,2.2158205032348635 l1.9431903839111329,1.688046646118164 1.6784568786621095,0.6741765022277832 l2.4946430206298826,0.25349595546722414 2.0997554779052736,-0.20645036697387695 l1.5571356773376466,-0.19236724376678466 -0.02362821251153946,-0.3015594005584717 l-0.09496791362762451,-0.4565786838531494 m-13.560026550292969,-8.506825256347657 l-0.12413424253463745,-0.30990257263183596 0.12632499933242797,-0.12570607662200928 l1.191486930847168,0.035714340209960935 1.4914152145385742,-0.5531057357788086 l2.6006202697753906,-0.07764004468917847 2.572168159484863,-0.08228552341461182 l2.3846874237060547,-0.5650598526000976 3.113755226135254,-0.30440573692321776 l3.44892578125,-1.0035564422607421 2.5365524291992188,-1.1851028442382812 l2.630907440185547,-1.4295799255371093 2.3136478424072267,-1.8317884445190429 m9.693907165527344,-27.05091552734375 l0.32282841205596924,-0.03967312276363373 0.17587066888809205,0.02802949845790863 l-0.25078630447387695,0.2974619626998901 -0.3703028678894043,1.5469657897949218 l-0.36330673694610593,2.2751731872558594 -0.7577632904052735,2.784417152404785 l-0.9706668853759766,3.720734405517578 -1.2801721572875977,4.375356292724609 l-1.2293737411499024,4.790214157104492 -1.3121135711669922,4.9960487365722654 l-0.5641337394714355,5.021910858154297 -0.8179880142211914,4.607921600341797 l-0.0433307945728302,3.933573532104492 -0.3819574356079102,2.494678497314453 l-0.1962183713912964,1.316358470916748 0.08458051085472107,0.4517345905303955 l0.5252681255340577,0.21279530525207518 -0.15434732437133789,-0.174133825302124 l0.17533808946609497,-0.20326776504516603 -0.1229891061782837,-0.9620983123779296 l0.3193062782287598,-1.2912335395812988 0.48387775421142576,-1.3867420196533202 l-0.04012198448181152,-1.827072525024414 0.6334630966186523,-1.778632354736328 m41.741766357421874,-22.183551025390624 l-0.4080476760864258,-0.47532172203063966 0.8795647621154785,0.3168452739715576 l-0.1926801919937134,-0.6786121368408203 0.30872507095336915,-1.079124927520752 l0.16216115951538085,-1.5871344566345216 -0.4148764133453369,-1.4088288307189942 l-0.4985225200653076,-1.4544443130493163 -1.4197641372680665,-1.0091838836669922 l-1.4419923782348634,-0.4461363792419434 -1.684377670288086,0.38389432430267334 l-2.4570308685302735,1.0539939880371094 -2.4907323837280275,2.099868392944336 l-1.935748291015625,2.9846677780151367 -1.4485050201416017,3.4630722045898437 l-0.7858566761016845,4.324302673339844 -0.4828349113464355,4.978379821777343 l0.34020969867706297,5.172983169555664 0.5933208465576172,4.826036834716797 l0.8477916717529297,4.325737762451172 0.7864810943603515,3.371820831298828 l0.828621768951416,2.0281578063964845 0.17904422283172608,0.4089035511016846 l0.6933819770812988,-0.0933786153793335 0.5449298858642578,-1.1150688171386718 l0.07085055112838745,-1.9756675720214845 -0.657655906677246,-3.079909896850586 l-0.23084115982055664,-2.311970520019531 -0.059788298606872556,-2.0617748260498048 m-7.3387001037597654,-3.2118736267089845 l0.4735867500305176,0.05462448000907898 -0.005521009117364884,-0.32114434242248535 l2.5999662399291994,-0.17539312839508056 2.671207237243652,-1.818730926513672 l2.7247573852539064,-1.5191603660583497 1.4340380668640136,-1.458062744140625 l1.7156970977783204,0.3695372104644775 m15.118280029296875,6.997016143798828 l0.08284597992897033,-0.4658998489379883 0.029103738069534302,-0.41877593994140627 l-0.3602015495300293,-0.7760156631469727 -0.8431163787841797,-0.7284459114074707 l-0.1687660813331604,-0.7818575859069824 -1.2927810668945312,-1.1846948623657227 l-0.9116220474243164,-0.5882884979248046 -1.571383571624756,-0.48443450927734377 l-1.486067295074463,0.28710036277770995 -1.6108043670654297,0.6264877319335938 l-1.8165977478027344,1.5781906127929688 -1.4551285743713378,2.6700536727905275 l-0.6950544834136962,3.1576301574707033 -0.2314708948135376,2.564057540893555 l0.9256643295288086,1.7814844131469727 1.5303383827209474,0.734276008605957 l2.2239593505859374,0.029065895080566406 2.310536575317383,-1.1115342140197755 l1.3940513610839844,-2.185709762573242 1.2348526954650878,-2.505984878540039 m1.0950588226318358,-12.39114761352539 l-0.2165982246398926,-0.1003799319267273 -0.1365395665168762,-0.14598602056503296 l0.3676930904388428,0.33888218402862547 0.877083683013916,1.0515121459960937 l0.9122105598449707,1.95963134765625 0.14954116344451904,2.1486255645751955 l0.9174242973327636,3.1860904693603516 0.4080402374267578,3.254118728637695 l0.2694600820541382,2.538499641418457 0.41220459938049314,1.4547874450683593 l0.8985937118530274,0.5244461059570312 1.9589126586914063,-0.3680691719055176 l2.745103454589844,-0.9374407768249512 2.284668731689453,-2.0005813598632813 l2.6244319915771483,-1.4788446426391602 2.4556562423706056,-1.2783542633056642 l2.190517234802246,-0.8602242469787598 2.2442188262939453,-0.48432331085205077 l2.2062450408935548,-0.12546889781951903 1.2408409118652344,-0.29783124923706056 l1.5908574104309081,0.4446705341339111 0.3123709917068481,0.15509274005889892 l-0.05344910621643066,0.1334460496902466 -0.10206825733184814,0.10034449100494384 l-0.5696975708007812,0.08813784122467042 0.07789229154586792,-0.33298802375793457 l-0.9958638191223145,-0.8141776084899902 -1.1238458633422852,-1.0217126846313476 l-1.0274713516235352,-0.3177069664001465 -1.2657042503356934,-0.0896876573562622 l-1.2382061004638671,0.7847972393035889 -0.9517012596130371,1.4395346641540527 l-0.47010488510131837,2.218164825439453 0.18132951259613037,2.1447780609130858 l1.4819681167602539,1.9687227249145507 1.677376937866211,0.758639144897461 l2.281871795654297,0.13923897743225097 2.3764884948730467,-0.23874964714050292 l1.3907392501831055,-0.9361824989318848 1.2988819122314452,-0.9597099304199219 l0.12339696884155274,-1.4751298904418946 -0.8083924293518067,-1.67772216796875 l-0.723954725265503,-1.3763338088989259 -1.7922475814819336,-0.9525259971618653 l-1.7311260223388671,-0.6338911056518555 -2.215839385986328,0.08064878582954407 l-1.7810333251953125,0.884930419921875 m41.41871948242188,1.464912509918213 l0.5719065189361572,-1.3731226921081543 -0.40924777984619143,-1.7484210968017577 l-0.20146009922027588,-1.2330856323242188 -1.0722381591796875,-1.0301990509033203 l-1.9521459579467773,-0.5243840217590332 -2.0731124877929688,0.4814483642578125 l-2.386041259765625,0.9423970222473145 -1.2978288650512695,1.9943191528320312 l-1.8612682342529296,2.1337024688720705 -0.2638363838195801,2.509328079223633 l-0.03035614490509033,2.0578235626220702 1.2405336380004883,1.3485626220703124 l1.2536359786987306,0.6105137348175049 1.8737354278564453,-0.5514046669006347 l4.140357589721679,-0.9300277709960938 3.4976276397705077,-1.7194883346557617 l3.2698787689208983,-2.179405403137207 2.9787254333496094,-2.1304929733276365 l0.8842842102050781,-1.549295425415039 0.2561930179595947,-1.0464731216430665 l-1.2429679870605468,-0.8491305351257324 -0.9113690376281738,-0.5880659103393555 l-2.5571968078613283,-0.42794013023376465 -1.3254217147827148,0.4830814838409424 l-1.5878820419311523,0.8213703155517578 -1.1150073051452636,1.533197021484375 l-0.5106939792633056,1.80572566986084 0.7005777835845948,1.806920623779297 m26.79971923828125,-9.227140808105469 l0.5378157615661621,-1.0434304237365724 0.19034463167190552,-0.7976211547851563 l-0.46396756172180176,-0.8625613212585449 -0.33656911849975585,-0.576396369934082 l-1.3426490783691407,-0.4735140800476074 -1.1272430419921875,-0.3496417045593262 l-1.5683403015136719,0.27212545871734617 -1.269617462158203,0.6032149791717529 l-1.2846868515014649,1.055386734008789 -1.0426980972290039,1.4010544776916505 l-0.4615607261657715,1.4895809173583985 0.3292104721069336,1.2714404106140136 l0.9510568618774414,1.1613451004028321 1.4570524215698242,0.8245002746582031 l2.46243953704834,0.6166532039642334 1.212784194946289,0.07840096354484558 l2.661534881591797,0.5930507183074951 1.413124179840088,0.4204427242279053 l1.5705926895141602,0.8988115310668945 0.4347039222717285,0.8007682800292969 l0.08260643482208252,1.058682632446289 -0.19397189617156982,1.3920197486877441 l-1.0136062622070312,1.4704184532165527 -1.2147730827331542,1.2337546348571777 l-1.625312614440918,0.6182210445404053 -1.6806015014648437,0.40230598449707033 l-2.1312381744384767,0.025624600052833558 -1.812009048461914,0.021817988157272337 l-0.6946603775024414,-0.12577699422836303 -1.4004239082336425,-0.7990963935852051 l-0.4388019561767578,-0.6361799240112305 -0.24302935600280762,-0.4513662815093994 m18.83910369873047,-27.872283935546875 l0.06363168358802795,0.06879056096076966 0.326985502243042,0.9853800773620606 l0.05323403477668762,1.7913784027099608 0.7952857971191406,2.438877487182617 l0.5345690250396729,2.9468505859375 0.18419612646102906,3.3910430908203124 l0.5920145988464356,4.010528945922852 0.08804696202278137,3.9911239624023436 l-0.1420254588127136,3.5686649322509765 -0.7391848087310791,2.866136932373047 l-0.1485869765281677,2.065311241149902 0.33890347480773925,1.2816064834594727 l-0.1554044008255005,0.3512202262878418 0.006204885244369507,-0.07099122405052186 l0.3842448711395264,-0.055866801738739015 -0.056905388832092285,-0.5606780529022217 m7.691935729980469,-16.369110107421875 l-0.10294492244720459,-0.020342716574668886 0.3277021646499634,0.31275460720062254 l0.23975028991699218,0.9512861251831055 -0.11773120164871216,1.4865903854370117 l-0.1809014081954956,2.3898134231567383 0.1407873034477234,2.599544143676758 l-0.08182548880577087,2.7418954849243162 -0.37809739112854,2.518396186828613 l0.49621968269348143,1.963190460205078 0.1893347382545471,1.2999828338623047 l0.3329074144363403,1.1729931831359863 0.7744009494781494,0.7083191871643066 m-0.5182483196258545,-14.345272827148438 l0.16982920169830323,-0.06192374229431152 0.08388359546661377,-0.4912134647369385 l0.7108803749084472,-0.21014199256896973 0.5406290054321289,-0.32024905681610105 l0.820158576965332,-0.28681230545043945 1.3799185752868652,-0.39681529998779297 l1.331361675262451,-0.35986626148223877 1.4895364761352539,-0.48516287803649905 m8.131170654296875,3.3168594360351564 l0.13690805435180664,-0.1873420000076294 -0.5749802589416504,-0.03226729035377503 l-0.4382274627685547,0.04358624815940857 -0.7905582904815673,-0.2437206506729126 l-0.15085761547088622,0.09619157314300537 -1.46531400680542,0.11898274421691894 l-0.6014803886413574,0.4763917922973633 -1.736608123779297,0.7454370975494384 l-1.7861129760742187,1.1485051155090331 -1.5658960342407227,1.6401033401489258 l-2.0315839767456056,1.8267074584960938 -1.5535459518432617,2.2211318969726563 l-1.3465879440307618,1.4579831123352052 -0.04064631760120392,1.1276334762573241 l0.39931747913360593,0.5541463375091553 1.1515950202941894,0.6829070091247559 l1.7401216506958008,0.08460786938667297 2.606201171875,0.16560078859329225 l2.449018669128418,-0.6795317649841308 2.2937524795532225,-0.26647262573242186 m3.7206668853759766,-3.2060531616210937 l0.42415342330932615,0.0629490315914154 0.156823992729187,-0.1371248960494995 l0.33153223991394043,-0.726433515548706 0.5749035835266113,-0.9459677696228027 l1.179090976715088,-1.2208318710327148 0.7192101001739502,-0.9879151344299316 l1.3418107986450196,-1.0227085113525392 0.676586103439331,-0.707668685913086 l0.49578118324279785,-0.5320494174957275 0.4022210121154785,-0.036291635036468504 l-0.5633882999420166,-0.4268044948577881 -0.1570612907409668,-0.13309381008148194 l-0.9796183586120606,-0.21975491046905518 -1.7817298889160156,0.26878092288970945 l-1.8311880111694336,0.6452075958251953 -1.439356803894043,1.109856128692627 l-1.8712121963500976,1.073427104949951 -0.9303049087524414,1.3060110092163086 l-0.5220746040344239,1.1658111572265626 -0.04154661595821381,1.346989631652832 l0.17021578550338745,1.3982714653015136 0.33717913627624513,1.268482780456543 l0.580089521408081,1.1589357376098632 1.3538722038269042,1.286858367919922 l2.1194293975830076,0.8705137252807618 2.243134689331055,0.52816743850708 l1.9437139511108399,0.07459326982498168 2.204791259765625,-0.4412380218505859 m1.1572847366333008,-10.195709991455079 l-0.38820228576660154,-0.11948431730270385 0.4041956901550293,0.24838249683380126 l0.29559903144836425,0.18395206928253174 0.26625254154205324,0.19308565855026244 l0.928099536895752,0.7702223777770996 1.4644134521484375,1.3641934394836426 l0.6665689945220947,1.5952713012695312 0.6766024112701416,1.2642107009887695 l0.17564053535461427,0.8060626983642578 -0.5361028671264648,0.7406269073486328 l-0.06603258848190308,0.34340457916259765 -0.11877495050430298,0.3343758821487427 l0.5155735015869141,0.11988046169281005 -0.17109994888305663,-0.018355362117290497 l-0.11427915096282959,0.032904648780822755 0.3856168270111084,0.0025421712547540666 l-0.16696979999542236,-0.16766279935836792 -0.29046895503997805,-0.22276763916015624 l-0.38373355865478515,-0.5075003623962402 -0.9378259658813477,-0.6266675472259522 l-1.0707101821899414,-0.6521203994750977 -0.8510343551635742,-0.5290987968444825 l-1.4366965293884277,-0.6965034484863282 -1.4993742942810058,-0.4581905841827393 l-1.9649538040161132,0.12648913860321045 -1.2122015953063965,0.31803810596466064 l-0.5921234130859375,0.8938405990600586 -0.25378777980804446,0.3110217809677124 l-0.23190748691558838,0.6177334308624267 0.4346400260925293,0.4507960319519043 l0.9359413146972656,0.4698383331298828 1.4426941871643066,0.20175487995147706 l2.436223030090332,-0.12159663438796997 3.5414329528808595,-0.31345186233520506 l3.2348236083984374,-0.42847752571105957 2.392591857910156,-0.46873927116394043 m4.333879470825195,-7.232037353515625 m0.03969124257564545,-0.12464636564254761 l0.34495499134063723,0.5648823261260987 0.26563751697540283,0.7909346103668213 l-0.07591192722320557,1.456692600250244 0.3285481929779053,1.6769598007202149 l0.06597216129302978,1.9220035552978516 -0.3877648115158081,1.851905632019043 l-0.6642263412475586,1.4600221633911132 -0.2662266492843628,1.0682817459106446 l0.13838510513305663,1.290235996246338 0.016830362379550934,0.754972505569458 " fill="none" stroke="black" stroke-width="1" /></svg>