<?xml version="1.0" encoding="utf-8" ?>
<svg baseProfile="full" height="107.38804397927598" version="1.1" width="708.0921539722015" xmlns="http://www.w3.org/2000/svg" xmlns:ev="http://www.w3.org/2001/xml-events" xmlns:xlink="http://www.w3.org/1999/xlink"><defs /><rect fill="white" height="107.38804397927598" width="708.0921539722015" x="0" y="0" /><path d="M25,52.275201416015626 m14.974578857421875,-27.275201416015626 l-0.15611343383789061,1.449562168121338 -0.35720057487487794,2.634607124328613 l-0.23404879570007325,2.6175939559936525 0.10488872528076172,4.153996276855469 l0.4718797206878662,4.7290691375732425 0.5147617340087891,4.692043304443359 l0.6089961528778076,4.103384399414063 0.4875680446624756,3.7341991424560548 l0.15992863178253175,1.1751712799072265 0.5325127124786377,0.9712980270385743 l1.046318244934082,0.14123051166534423 1.4407608032226562,-0.7656322002410889 l1.6305824279785157,-0.9104248046875 1.5038308143615722,-0.7002375602722168 l1.0840600967407226,-0.4925074577331543 1.032188320159912,0.3430869817733765 l0.7696524143218995,0.7198895454406739 0.38549532890319826,1.195838737487793 l1.0706344604492188,2.534469413757324 0.019936248660087585,1.0631464958190917 l0.5292953491210938,1.2220911979675293 0.4416516780853271,0.17283499240875244 l0.7449917316436767,0.024014635384082793 0.8555337905883789,-1.671232032775879 m1.1891490936279296,-8.356014251708984 l-0.4262040138244629,-0.01441408097743988 0.13279569149017334,0.3375005483627319 l-0.15124568939208985,0.004807475954294205 0.8118566513061524,1.392186737060547 m7.474967193603516,-0.5715003967285156 l0.027841398119926454,-0.09619342088699341 -0.2818769931793213,-0.3412060499191284 l-0.6246265411376953,-0.6566677093505859 -0.8294355392456054,-0.2737478256225586 l-1.089707851409912,-0.1232792854309082 -1.195156955718994,0.2460961103439331 l-1.1528520584106445,0.9352972030639648 -1.2846220970153808,3.444186782836914 l-0.45425238609313967,3.7997833251953126 -1.328133487701416,1.3472131729125976 l-0.11662650108337402,0.5747240066528321 -0.06824712753295899,-0.24353721141815185 l0.07947164177894592,-0.017159366607666017 0.06264343857765198,-0.17967071533203124 l0.6719122886657715,0.7637720108032227 0.0719665229320526,-0.18476271629333496 l0.8749868392944335,-0.8517298698425293 1.6098339080810546,-0.9503644943237305 l1.4287979125976562,-2.2914772033691406 2.169520950317383,-1.983088493347168 l2.102952766418457,-3.1053380966186523 2.2526647567749025,-2.342319107055664 l1.5447634696960448,-1.5939053535461425 0.20558242797851561,-0.3142535209655762 l-0.07015120983123779,-0.07520517706871033 0.13739259243011476,0.5287961006164551 l-0.22605817317962645,1.118169403076172 -0.7698002815246582,2.1393753051757813 l-0.7321067333221436,2.7965953826904295 -1.2356171607971191,3.073963928222656 l-0.5329609394073487,3.136517333984375 m7.549600219726562,-8.00997543334961 l-0.837526512145996,1.4155978202819823 -0.5651292324066162,1.8570110321044921 l-0.6030797958374023,2.6219919204711912 -0.23414671421051025,2.1012802124023438 l0.2629460334777832,1.3620781898498535 0.7777495384216309,0.6789875030517578 l1.4852775573730468,0.5926700592041015 1.2189056396484375,-0.751759147644043 l1.225498104095459,-1.8319313049316406 0.7268943786621094,-2.8522884368896486 l0.45458188056945803,-2.5302827835083006 -0.1790297269821167,-1.8100313186645507 m5.200115585327149,-11.839069366455078 l0.27859246730804443,-0.03248515427112579 -0.23962786197662353,-0.02957535982131958 l0.15112112760543822,1.4912338256835938 -0.035562270879745485,2.2944257736206053 l-0.05826951265335083,3.369997024536133 -0.8175260543823242,3.5100818634033204 l-0.603818130493164,4.0555473327636715 -0.3998146057128906,3.5726882934570314 l-0.17981700897216796,2.312188148498535 0.17664932012557982,1.3116037368774414 l0.4298196315765381,0.3357552051544189 0.7481165885925293,-0.16752570867538452 m6.056480789184571,-10.996829223632812 l-0.25951619148254396,0.8890045166015625 0.059296423196792604,1.6741813659667968 l-0.0035842999815940855,1.8680128097534179 -0.10594799518585205,1.4617769241333007 l0.2685158014297485,1.6438058853149413 -0.3170743942260742,0.9112345695495605 l0.03337417840957642,0.42555713653564453 0.04317091405391693,0.0012143519707024097 l0.42584877014160155,0.4218742847442627 0.08226984739303589,-0.5048442840576172 l0.43329429626464844,-1.0478460311889648 0.664937686920166,-1.813775634765625 l0.9374943733215332,-1.8445838928222655 1.4502975463867187,-1.2763794898986816 l0.6675704002380372,-1.4097681999206544 1.052116870880127,-0.07090050578117371 l0.08826990127563476,-0.29671220779418944 0.4495126724243164,0.41046485900878904 l0.6451731204986573,1.2254045486450196 0.5821247577667237,1.6236751556396485 l-0.13274301290512086,1.7170856475830079 0.21028432846069336,2.145461654663086 l0.2889396190643311,1.5693260192871095 0.6589505672454834,1.0350905418395997 m7.553608703613281,-5.18182601928711 l1.210988998413086,-0.8266533851623535 1.1579118728637696,-1.2088237762451173 l0.9859917640686036,-1.142494297027588 0.5924478054046631,-1.1459152221679687 l0.4542065143585205,-1.1810666084289552 -0.7577913284301758,-1.2494775772094726 l-0.6114424705505371,-0.24457764625549316 -1.8504388809204102,-0.24974455833435058 l-1.3378585815429687,1.8137985229492188 -1.8410282135009766,2.08593635559082 l-1.077570915222168,2.3081207275390625 -0.6994510173797608,1.8222434997558594 l0.46218304634094237,1.9143259048461914 0.6551668643951416,0.757106351852417 l2.057945442199707,0.7775748252868653 3.0491621017456056,-0.17900640964508058 m26.139877319335938,-11.362855529785156 l-0.20980300903320312,0.41103382110595704 -0.3346273899078369,0.8226743698120117 l-0.14922609329223632,1.7993515014648438 -0.06259760856628419,1.9395679473876952 l-0.05053510665893555,1.8861587524414063 0.26179482936859133,2.095104217529297 l-0.09450840950012207,1.6980859756469726 0.5644699096679687,2.3285465240478516 l-0.34517803192138674,0.9923884391784668 0.14668203592300416,0.7700369834899903 l0.018536336719989777,0.10466231107711792 0.20705182552337648,-0.18616665601730348 l0.04299980103969574,-0.8187769889831543 0.4131793022155762,-1.2149595260620116 l0.5041971683502198,-1.5923237800598145 0.4132837295532227,-2.179923248291016 l0.4180281639099121,-2.1147287368774412 0.8831668853759765,-1.7219255447387696 l0.44415035247802737,-2.0287160873413086 0.7790345191955567,-1.124204158782959 l0.07083112001419067,-1.120400333404541 0.28653531074523925,-0.33389959335327146 l-0.01791405975818634,-0.11783313751220703 -0.12740434408187867,0.022988362610340117 l-0.1589369773864746,-0.13014065027236937 0.30533623695373535,0.889813232421875 l0.08088945746421813,0.31998133659362793 0.692398977279663,0.8506633758544921 l0.550389575958252,0.27703592777252195 0.5273266792297363,0.02588542103767395 l1.143515396118164,-0.16894011497497557 1.7581233978271484,0.2857145071029663 l1.4191222190856934,-0.6418734073638916 1.8337862014770507,0.21372537612915038 l1.6042055130004882,-0.0779898226261139 1.1328659057617188,-0.34709141254425047 m2.302874755859375,2.645642852783203 l-0.09544000625610352,0.11057977676391602 0.6027875900268554,0.22157928943634034 l0.6858591079711914,-0.26897966861724854 1.478477954864502,-0.42200307846069335 l2.0495326995849608,-0.6259000301361084 1.4878273963928224,-1.175757598876953 l1.686507797241211,-0.9541184425354003 0.7990396022796631,-1.2672405242919922 l0.3767881393432617,-0.6239402294158936 0.06825371980667114,-0.39348247051239016 l-0.4846795082092285,-0.4803318500518799 -1.014218521118164,-0.37468504905700684 l-2.001041603088379,0.1036259412765503 -2.5149986267089846,0.7848737716674805 l-2.725535583496094,1.3745777130126953 -2.0036184310913088,2.106156349182129 l-1.473005199432373,1.83001651763916 -0.8618598937988281,1.7269039154052734 l0.17023224830627443,1.5061532020568849 0.9067756652832031,1.4967897415161133 l0.8563712120056153,0.5824283599853516 2.362740707397461,0.9593025207519531 l1.886235809326172,-0.25896027088165285 2.252315139770508,-0.7351397514343262 l2.5499399185180662,-0.8009047508239746 1.967947006225586,-1.462809181213379 l1.7252773284912108,-1.3957118034362792 1.2557230949401856,-1.2926591873168944 m3.563831329345703,-5.666900634765625 l-0.07651167511940002,0.2598822593688965 -0.3411559104919434,0.987067699432373 l-0.19992245435714723,1.9242246627807618 -0.8526463508605957,1.9761808395385743 l-0.04713020920753479,2.410457420349121 -0.5255892276763916,1.7719112396240235 l0.05064520835876465,1.4953986167907716 0.5410655975341797,0.8720268249511719 l0.5707685947418213,-0.08130281567573547 1.141110897064209,-0.4167782306671143 l1.1764724731445313,-1.2865147590637207 2.0051050186157227,-1.4071145057678223 l1.928292465209961,-1.5252729415893556 1.8195508956909179,-1.2321313858032226 l1.9257474899291993,-0.2580116271972656 1.1681894302368163,0.1832350730895996 l0.7591446876525879,0.8147098541259765 0.44759883880615237,1.7404397964477538 l0.1675853729248047,2.6384552001953123 -0.2764779329299927,3.593402099609375 l-0.5618271827697754,4.589720916748047 -0.8777984619140625,4.571922302246094 l-0.859495735168457,4.044559478759766 -0.3224273920059204,3.301712417602539 l-0.3151221513748169,1.9616239547729493 -0.6854496002197266,0.8885553359985352 l-0.9208230018615723,-0.2460405111312866 -1.2924652099609375,-0.8448835372924804 m19.451089477539064,-23.800233459472658 l-0.48911585807800295,-0.3585901498794556 -0.6377264976501464,-0.896328353881836 l-0.8386057853698731,-1.2202388763427734 -0.9839000701904297,-1.8621252059936524 l-0.06758658885955811,-0.785262155532837 0.6021007537841797,-0.7837539672851562 l0.881719970703125,-1.2950453758239746 1.4048170089721679,-1.0497493743896484 l1.7088815689086914,-0.8705151557922364 1.6595218658447266,-0.28374860286712644 l1.7585084915161133,0.4435222625732422 1.7349924087524413,1.0520906448364258 l0.916895580291748,1.557185745239258 -0.18048195838928222,1.7347467422485352 l-0.47701139450073243,2.3845584869384764 -1.0094911575317382,2.0405378341674805 l-1.5686679840087892,1.3256416320800781 -1.5713347434997558,0.8384055137634278 l-1.588103675842285,-0.32002785205841067 -0.9956753730773926,-0.7807586193084717 m12.616090393066406,-11.15718765258789 l-0.0062639228999614716,-0.00024523085448890924 0.6479192256927491,0.9815329551696778 l-0.04599708318710327,1.438554859161377 -0.37804815769195554,2.1544795989990235 l-0.44563655853271483,2.3166637420654297 -0.6632810592651367,2.097488021850586 l-0.5774176597595215,1.765064811706543 -0.9047622680664062,0.5389805793762207 m2.7220977783203124,-19.60892333984375 l0.6052925109863281,-1.2814701080322266 0.2698970794677734,-1.428830909729004 l0.8640512466430664,-0.6271705627441406 0.3800352096557617,-0.5375444889068604 m3.2500511169433595,16.445205688476562 l0.025688734650611878,1.252324676513672 0.46190676689147947,1.9860502243041993 l0.5692511081695557,2.341615676879883 0.254546070098877,1.5200586318969727 l-0.1790076971054077,0.839133358001709 0.36006779670715333,0.8950155258178711 l0.30342941284179686,0.30294089317321776 -0.18610507249832153,-0.3847491264343262 l0.7940210819244384,-0.1827693462371826 1.1009380340576171,-1.5537046432495116 l1.3323298454284669,-2.4219974517822265 1.9558923721313477,-2.0560096740722655 l1.7760623931884765,-1.6166244506835938 1.4416955947875976,-0.9596329689025879 l0.8552531242370606,-0.3641446590423584 0.9800595283508301,0.4620999336242676 l0.40204925537109376,1.0646503448486329 0.5218956947326661,1.8696075439453126 l0.16257615089416505,2.0869047164916994 -0.16607571840286256,2.0852128982543947 l-0.20292482376098633,1.6741720199584962 -0.20392365455627443,1.0793718338012694 l0.3664841890335083,0.5654061317443848 0.13194799423217773,0.0649530827999115 m12.35235595703125,-9.355780029296875 l0.2318518877029419,-0.24151196479797363 -1.0567606925964355,-0.4532320022583008 l-0.555680799484253,0.35517148971557616 -1.2347387313842773,0.7372854232788086 l-1.1512603759765625,1.7645599365234375 -1.6146076202392579,2.0203035354614256 l-0.6047210216522216,2.4642097473144533 -0.8875810623168945,1.9562267303466796 l-0.0031120039522647856,1.341433334350586 0.9804851531982421,0.3879759073257446 l1.1401029586791993,-0.27458083629608154 1.9341796875,-1.0717082023620605 l1.6558235168457032,-1.877853775024414 1.9167097091674805,-2.42725830078125 l1.9238649368286134,-3.2656822204589844 2.322932815551758,-3.378427505493164 l1.5628894805908202,-3.840102767944336 1.3084056854248047,-3.510097885131836 l0.939232063293457,-2.708062934875488 0.7534419059753418,-1.815838623046875 l-0.33545727729797364,-1.0077133178710938 -0.20347213745117188,0.0019241824746131897 l-0.27439165115356445,0.6977304935455322 -0.7524861335754395,2.4080883026123048 l-0.37616548538208006,3.7327716827392576 -0.690840196609497,4.041632080078125 l0.5725886821746826,4.2453655242919925 -0.23781392574310303,3.4754066467285156 l0.13262128829956055,2.6955909729003906 0.7763090610504151,1.9930412292480468 l1.0436372756958008,1.24639949798584 0.7776496410369873,0.06878075003623962 m25.488084411621095,-16.063935852050783 l-0.4476346492767334,1.9337766647338868 -0.6408180713653564,2.501239776611328 l-0.25219435691833497,2.8753461837768555 -0.08260670900344849,2.47821044921875 l-0.006206376850605011,1.8043670654296875 -0.08047277927398681,1.3678974151611327 l0.23752257823944092,1.061126708984375 -0.3597577095031738,-0.03687445521354675 l-0.2156696081161499,-0.039313703775405884 -0.019324859976768492,-0.2820742607116699 l-0.34902713298797605,-0.9431266784667969 -0.5790466785430908,-1.8122474670410156 l-0.42935590744018554,-2.2080385208129885 0.2180549383163452,-2.0483772277832033 l0.49271416664123535,-1.3703131675720215 0.13777893781661987,-1.2638179779052734 l0.5534213066101075,-0.9956012725830078 1.0474371910095215,-0.7961126327514648 l0.7155916213989257,-0.6886556625366211 1.0790895462036132,-0.23078198432922364 l0.8789447784423828,0.022778916358947753 1.5173401832580566,0.5550615310668945 l1.0068659782409668,0.6256785869598389 0.9703929901123047,0.6378913879394531 m3.1984121322631838,-0.5847014904022216 l0.2687838077545166,0.22698845863342285 -0.27647087574005125,0.22571394443511963 l0.5463623046875,1.243036651611328 -0.6421248435974121,1.3764881134033202 l0.5419306755065918,1.800299072265625 -0.32332401275634765,1.308026123046875 l1.2634316444396974,1.5152265548706054 1.1869827270507813,0.874346923828125 l1.5806571006774903,0.05437015295028687 2.083978271484375,-0.5419035434722901 l1.8840843200683595,-1.2237180709838866 2.241116523742676,-1.5214662551879883 l1.6455093383789063,-2.0365230560302736 0.7408666610717773,-2.3039529800415037 l0.9230471611022949,-1.6705331802368164 -0.27225050926208494,-0.8817909240722657 l0.11326812505722046,0.10666639804840088 -0.33339486122131345,0.7996867179870606 l-0.7286204814910888,1.5203553199768067 -0.8524059295654297,2.7429153442382814 l-0.85302734375,2.730699348449707 -1.087785530090332,2.6091232299804688 l0.4046123504638672,3.248988723754883 0.0017661651596426963,3.079715347290039 m46.38460083007813,-24.666928100585938 l0.4311689853668213,0.5988486289978028 0.5528621196746826,0.7987930774688721 l-0.00790356770157814,0.543076753616333 0.19232786893844606,1.1639114379882813 l-0.44915108680725097,1.599433422088623 0.3152455806732178,2.570135498046875 l0.22334589958190917,2.698236083984375 0.9530904769897461,3.278028869628906 l0.319234824180603,2.987432670593262 0.9067009925842285,2.4878589630126955 l1.5337175369262694,1.4589228630065918 0.3403177261352539,0.3432966709136963 l2.239917755126953,0.3422654151916504 0.8792780876159668,-0.8130892753601074 l1.1916819572448731,-1.316126251220703 1.0890634536743165,-1.9473358154296876 l0.759366798400879,-2.419995880126953 0.7852165699005127,-2.601129341125488 l0.6856925010681152,-2.872842788696289 0.7126996040344238,-3.026902770996094 l0.6132469654083252,-2.790182876586914 0.8932560920715332,-1.9832426071166993 l0.7941245555877685,-1.4108529090881348 -0.5579176902770996,-1.4840106964111328 m-0.8253475189208984,0.9336856842041016 l-0.7376587390899658,1.2160415649414062 -0.41101250648498533,2.2588510513305664 l-0.6513087272644043,2.851251792907715 -0.299680757522583,3.0933837890625 l-0.2328946352005005,2.7294380187988283 -0.12831778526306153,2.086778450012207 l0.3401076316833496,1.5197446823120118 0.2528798818588257,0.4631948947906494 l0.995909309387207,-0.022216373682022096 0.9529777526855469,-0.8948993682861328 l1.2492353439331054,-1.2380489349365233 m9.237975311279296,-18.997712707519533 l0.3340725898742676,0.4519620895385742 0.3936929225921631,0.5284882545471191 l-0.12654569149017333,1.1582356452941895 -0.09672608971595764,2.1485145568847654 l0.19543225765228273,3.2496578216552736 -0.12718451023101807,3.7464130401611326 l-0.2824279308319092,3.648903656005859 -0.21222352981567383,3.0885293960571287 l-0.40981616973876955,1.985323143005371 0.423751163482666,1.4191778182983399 l0.338371729850769,0.11737161874771118 0.3300247430801392,-0.22031352519989014 l0.5179752826690673,-0.5029751777648925 1.6905744552612305,-1.4820554733276368 l1.305209255218506,-1.9082630157470704 2.0065610885620115,-1.0984474182128907 l1.6848703384399415,-0.23335909843444824 1.2039718627929688,0.03174739778041839 l0.9179574966430664,0.1994964599609375 1.160577392578125,0.45208039283752444 l-0.3513202667236328,0.2751160144805908 0.16000642776489257,0.08032413721084594 l-0.7541417598724365,0.16340540647506713 -0.802498722076416,0.2913395166397095 l-1.0525354385375976,0.30317208766937254 -0.9491938591003418,0.6380929946899414 l-1.1263179779052734,0.5634504318237304 -0.9196011543273925,0.9391323089599609 l-0.6860344409942627,0.8729413986206055 -0.07603678107261658,0.7989595413208008 l-0.07250617742538452,0.21859235763549806 0.5478958129882813,0.307100772857666 l1.092676544189453,0.03735797107219696 1.0213199615478517,-0.9567205429077148 l2.1793743133544923,-1.3841008186340331 1.7557291030883788,-1.8374698638916016 l1.5055790901184083,-1.8513072967529296 1.1452799797058106,-1.5368877410888673 l0.8767535209655761,-1.2031036376953126 -0.05908207893371582,-0.6106979370117187 l-0.17798526287078859,0.01062982901930809 -0.3390786647796631,0.6301218032836914 l-0.7487182140350341,1.6841428756713868 -0.47625555992126467,2.635564613342285 l-0.18613762855529786,2.4875904083251954 0.1298428773880005,2.239060401916504 l1.044050407409668,1.3709869384765625 1.3875235557556151,0.21202149391174316 l1.3218741416931152,-0.7787713050842285 2.001560020446777,-1.222155475616455 l2.0233707427978516,-1.509304904937744 1.5543526649475097,-1.492946720123291 m4.265638732910157,-5.279080200195312 l0.16432465314865113,0.8609670639038086 0.4540875911712646,1.5902873992919921 l-0.05059886574745178,1.780846405029297 -0.3783675193786621,1.698404312133789 l-0.08279693722724915,1.7383647918701173 -0.09276961684226989,0.879332160949707 l0.43583316802978517,0.7780714988708496 -0.1572962999343872,0.10653234720230102 l0.29635679721832275,0.1395067095756531 -0.4084027290344238,-0.4880565643310547 l0.6610810279846191,-1.4829399108886718 0.0307713121175766,-2.0920246124267576 l0.30330486297607423,-2.0824440002441404 0.20541558265686036,-1.6327974319458007 l0.5371167659759521,-1.2197994232177733 -0.163887357711792,-1.4109676361083985 l1.0494069099426269,-0.7502798080444336 0.15736284255981445,-0.8155475616455078 l0.9839780807495118,-0.30302042961120607 0.4976921558380127,-0.24629809856414794 l1.3185482025146484,0.37915983200073244 0.9384382247924805,0.6339194297790527 l0.8372663497924805,0.8663285255432129 0.4694565773010254,1.1416083335876466 m15.031718444824218,-2.134428787231445 l-0.39723825454711914,-0.33125340938568115 -0.9564194679260254,-0.41437253952026365 l-0.9495392799377441,0.18464376926422119 -1.4282840728759765,0.484796142578125 l-1.7192075729370118,1.4214767456054687 -1.9178094863891602,1.9589603424072266 l-0.9481063842773437,2.716818618774414 -0.7663998603820801,1.7653480529785157 l-0.21539406776428222,0.9159262657165528 0.4156301498413086,0.39108858108520506 l0.9267934799194336,-0.17841814756393432 1.7589767456054688,-0.6113375663757324 l1.7678155899047852,-1.1016691207885743 1.7977933883666992,-1.4917784690856934 l2.132022476196289,-1.3537350654602052 1.1265917778015138,-2.0730091094970704 l1.4946096420288086,-0.7414348602294922 0.6041128158569335,0.21977658271789552 l-0.2613572597503662,0.17400128841400148 -0.07008641362190246,1.4799207687377929 l-0.45859494209289553,2.2055423736572264 0.8753211021423339,1.9586071014404296 l1.002382755279541,1.6550893783569336 1.3340312004089356,0.8053094863891601 m16.293251037597656,-21.671038818359374 l-0.6273046016693116,-0.04074018895626068 0.7372543334960937,0.24394557476043702 l-0.42720952033996584,0.41241278648376467 0.16260950565338134,1.4348295211791993 l-0.3572472095489502,2.934661102294922 -0.7508093833923339,4.201447296142578 l-0.0191548153758049,4.813140487670898 -0.36441256999969485,3.3978866577148437 l-0.3847222328186035,2.6296066284179687 0.12443923950195312,2.205582046508789 l-0.058026498556137084,1.232852077484131 0.5192409515380859,0.8427082061767578 m-2.347136306762695,-9.718069458007813 l-0.014547941088676453,-0.10556651353836059 1.4840718269348145,0.27799148559570314 l1.604591178894043,-0.35321626663208006 2.548332405090332,-0.16681824922561644 l2.4238759994506838,-0.5190608501434326 2.7296024322509767,-0.4790510177612305 l3.5624752044677734,-0.37609071731567384 2.94539852142334,-0.6529672622680665 m27.476254272460938,-7.070015716552734 l-0.5936884403228759,1.1643827438354493 -0.5879186630249024,2.1761333465576174 l0.5407407760620118,2.7174427032470705 -0.2201692819595337,2.7623079299926756 l-0.1616848587989807,2.7527254104614256 0.09497214555740356,2.49202938079834 l-0.26883797645568847,2.261895179748535 -0.34469404220581057,1.7590370178222656 m-4.166869735717773,-5.651928329467774 l-0.1444449543952942,-0.10434340238571167 0.6385015964508056,-0.16370989084243776 l1.6514398574829101,-0.06854358911514283 2.171565055847168,0.0029308779165148737 m13.996539306640624,0.37110674381256104 l0.3121488094329834,-0.543236494064331 0.11231856346130371,-0.577765941619873 l-0.6813398361206054,-0.7430902004241944 -0.46403841972351073,-0.33538026809692384 l-1.2689739227294923,-0.26877498626708984 -1.6399543762207032,0.7039253234863281 l-2.043846321105957,1.1864690780639648 -1.7187942504882812,1.7259294509887695 l-0.6178745269775391,1.9525218963623048 -0.45713300704956056,1.5341583251953126 l-0.1934625029563904,0.9294496536254883 1.1323691368103028,0.8582136154174804 l1.1303242683410644,0.16290944814682007 2.3847578048706053,-0.2714673042297363 l1.8932573318481445,-0.9779986381530762 1.943570899963379,-1.2048803329467774 l1.5767273902893066,-1.2420964241027832 1.0782532691955566,-1.5559868812561035 l0.6626932144165039,-1.6183015823364257 -0.09698018431663513,-1.368617630004883 m-11.482070922851562,-6.490416717529297 l0.10764150619506836,-0.08498673439025879 0.22674267292022704,0.0014337380416691303 l0.7330228805541992,-0.28509368896484377 0.8958373069763184,-0.46418585777282717 m10.095326232910157,20.35535430908203 l-0.021645800769329072,0.12093408107757568 0.7780053615570068,0.6818465709686279 l0.19376713037490845,-0.2914321184158325 0.23154327869415284,-1.4094717025756835 m2.4900814056396485,-17.105230712890624 l-0.4230290412902832,-0.7223174571990967 0.310585618019104,0.3040615081787109 l-0.34043073654174805,0.10658503770828247 0.28676748275756836,1.0653849601745606 m2.143453598022461,9.48236083984375 l0.13997230529785157,0.32541594505310056 0.025863483548164368,0.5709099769592285 l0.7037985324859619,0.7769803047180176 0.45172734260559083,0.7347547531127929 l0.6877825260162354,0.9640680313110351 1.7069982528686523,1.162060260772705 l1.3955021858215333,0.431425952911377 2.0421953201293945,0.23864641189575195 l1.824831771850586,0.021898323297500612 2.1149396896362305,-0.4956199645996094 l1.8818599700927734,-0.6018123626708984 1.6103845596313477,-0.9268070220947265 l1.594796371459961,-0.8348645210266114 0.5019062042236329,-1.3425469398498535 l0.35307817459106444,-1.6154863357543945 -0.3365990877151489,-1.666433334350586 l-0.41863164901733396,-1.1544228553771974 -0.717397403717041,-0.6161416053771973 l-1.0227923393249512,-0.11556565761566162 -1.395059585571289,0.5020567893981933 l-0.9776133537292481,1.4061631202697753 -1.220789909362793,1.9968011856079102 l-1.2538691520690919,2.8296440124511717 -0.7542240142822265,3.116176986694336 l-0.18606328964233398,2.8450199127197267 1.2063965797424316,1.5395661354064942 l2.275501251220703,0.5631846904754638 2.6538393020629885,0.7720049858093262 l2.108478546142578,0.4225770473480225 2.3017044067382812,0.7202326774597168 l1.451466941833496,-0.28540840148925783 1.143730068206787,0.09136734008789063 m30.358782958984374,-13.73348388671875 l-0.7555155754089355,-0.6992830276489258 -0.6467206954956055,-0.4451130390167236 l-0.6812768459320069,0.17596981525421143 -0.9839017868041993,0.5449456214904785 l-1.375440502166748,1.4617143630981446 -1.2345289230346679,2.743089485168457 l-1.1261649131774902,3.5217655181884764 -0.7188930511474609,3.3983837127685548 l-0.3244402170181274,2.8409021377563475 0.0886165201663971,1.2093633651733398 l0.5568857192993164,0.4473456382751465 0.04438809752464294,-0.45980067253112794 l0.8237565040588379,-0.950053596496582 0.8510359764099121,-1.4349834442138671 l1.1205577850341797,-2.3014877319335936 0.7535973072052002,-3.280514144897461 l1.612286376953125,-2.405221939086914 1.677882766723633,-1.3598907470703125 l1.0950803756713867,-1.0366888999938966 1.0362096786499024,-0.7169253826141357 l1.1008991241455077,-0.09579191207885743 1.1898029327392579,-0.1934916853904724 l1.460160732269287,0.040133267641067505 1.8508623123168946,-0.14478166103363038 m6.977369689941407,-3.82044677734375 l-0.16939793825149535,-0.07205451130867005 -0.697756576538086,-0.13567898273468018 l-1.7192396163940429,-0.002861735410988331 -1.8420663833618165,0.9732490539550781 l-1.8320728302001954,2.2935630798339846 -1.4382762908935547,3.4235382080078125 l-1.7271806716918945,3.717624282836914 -0.6156609058380127,3.665507507324219 l0.14102433919906615,1.9396148681640626 0.7769565105438232,0.8149090766906738 l1.2901567459106444,0.040976428985595705 2.1335573196411133,-0.4608604431152344 l1.9774629592895507,-1.400480365753174 2.308233642578125,-1.7499849319458007 l1.9515859603881835,-2.015951156616211 1.6699178695678711,-1.9370973587036133 l0.3806502342224121,-2.178107261657715 0.22086877822875978,-1.2407093048095703 l-1.2789014816284179,-1.1557182312011718 -1.3366347312927247,-0.5360251426696777 l-1.5255818367004395,0.22637858390808105 -1.257829761505127,0.23063907623291016 l-0.0673627495765686,-0.030392855405807495 -0.505470085144043,-0.9419209480285644 m12.327799987792968,2.459337043762207 l-1.1342526435852052,1.1560444831848145 -0.899324607849121,1.6843915939331056 l-0.9336308479309082,2.6505363464355467 -0.6948667526245117,2.645314407348633 l-0.060472267866134646,2.41910343170166 0.43692336082458494,1.677459144592285 l0.8956235885620117,0.6396739959716797 1.9182207107543945,0.44098243713378904 l1.383671760559082,-0.5051667213439941 1.6687446594238282,-0.5651473999023438 l1.2695313453674317,-1.0792306900024413 0.8784201622009278,-2.0137537002563475 m5.584206390380859,-17.197618103027345 l-0.8541477203369141,2.446295166015625 -0.20032918453216553,3.3165828704833986 l-0.8048185348510742,3.765999603271484 -0.24299085140228271,3.739502716064453 l0.042654627561569215,3.091009521484375 0.4826804161071777,2.098729705810547 l0.8566957473754883,1.4979104042053222 1.4433954238891602,0.4337578296661377 m9.914734649658204,-4.102535629272461 l-0.16326687335968018,0.09775763154029846 1.0570374488830567,-0.03970136642456055 l1.6518186569213866,-0.5809226036071777 1.3361550331115724,-0.7153767585754395 l1.6868295669555664,-0.8766183853149414 1.0313099861145019,-1.0914772033691407 l1.3950668334960938,-0.907737922668457 -0.16195375919342042,-0.8499000549316407 l0.26880450248718263,-0.7929340362548828 -0.7111494541168213,-1.1092798233032226 l-1.2305332183837892,-1.05053768157959 -1.3323579788208009,-0.3691315412521362 l-1.5481046676635741,0.5667537689208985 -1.214877223968506,1.3916425704956055 l-0.764222240447998,2.208639907836914 -0.3936398983001709,2.783435821533203 l1.0461901664733886,2.5592668533325194 1.3013952255249024,1.8997137069702148 l1.0186187744140625,0.6201725959777832 3.0210357666015626,-0.12251782417297363 m23.317559814453126,-16.097671508789062 l0.39805121421813966,-0.14210392236709596 -0.08643602728843688,-0.15278977155685425 l-0.006125530600547791,0.14122025966644286 0.317055344581604,0.3716869831085205 l-0.6238768100738525,1.388887596130371 -0.09624896049499512,3.020220947265625 l0.02551001012325287,3.7077957153320313 0.1512075185775757,4.024488830566407 l0.42224717140197754,2.8240753173828126 0.8879688262939454,1.2629972457885743 l1.216349220275879,0.5632755756378174 1.6494035720825195,-0.22167727947235108 l1.6107963562011718,-1.0663734436035157 1.257646369934082,-2.044611930847168 l1.25514497756958,-2.5623266220092775 1.1332740783691406,-3.3846817016601562 m4.98222770690918,-20.52129211425781 l0.056340348720550534,1.5923139572143554 0.30883188247680665,2.014039993286133 l0.7307963371276855,2.769683074951172 -0.09183138608932495,2.682000923156738 l0.22863965034484862,3.2230812072753907 -0.6559651374816895,2.7211492538452147 l0.07823408842086792,2.634978485107422 0.7732728004455567,1.7649269104003906 l0.9086986541748047,0.776190710067749 1.695619773864746,0.14457542896270753 l1.2313776016235352,-0.47686171531677246 2.892950439453125,-0.3103621482849121 l1.639745330810547,-0.6314537525177002 1.1167183876037599,0.061406838893890384 l0.8874238014221192,0.8072181701660156 0.7662673950195312,1.3994958877563477 l0.2144775629043579,1.3278517723083496 0.5189900875091553,2.136066436767578 l-0.15502700805664063,2.1451507568359376 -0.9406660079956055,2.7594499588012695 l-1.1378238677978516,2.7494314193725584 -0.9124818801879883,2.108390998840332 l-1.1367927551269532,1.0089570045471192 -0.9795989036560059,0.7631657600402832 l-0.7374492168426514,0.3730762958526611 -0.6141433715820312,0.022042018175125123 l-1.5656627655029296,-0.7680196285247802 -0.6845136642456054,-0.9151424407958985 l-0.7143089771270752,-0.728314208984375 0.33767964839935305,-0.6540954113006592 l0.6025844097137452,-1.4943204879760743 1.4785953521728517,-1.6532596588134765 m23.065400695800783,-16.603436279296876 l-0.24625895023345948,0.16505832672119142 -0.3965505599975586,0.222383713722229 l-1.786888885498047,1.2074900627136231 -1.643120002746582,2.4538524627685545 l-1.9517925262451172,2.7480388641357423 -2.9068389892578126,2.746027374267578 l-2.201226997375488,2.3524330139160154 -1.809018325805664,1.2040679931640625 l-0.3767292022705078,0.15402860641479493 0.03197510838508606,0.0033323120325803755 l1.4514152526855468,-0.4808207511901855 1.6338327407836915,-0.8560885429382324 l2.675060272216797,-1.4250377655029296 2.447065734863281,-1.5776355743408204 l2.2844362258911133,-0.6569386482238769 1.8317415237426757,0.06578241586685181 l1.1537531852722167,1.131423568725586 0.16209919452667237,1.4099395751953125 l0.12776365280151367,2.5831935882568358 -1.6452520370483399,2.812322998046875 l-1.6431997299194336,3.073919105529785 -1.6983285903930665,2.871572494506836 l-0.2633632183074951,2.025827407836914 -0.9369901657104492,0.8532639503479004 m22.199278259277342,-11.5426513671875 l0.5684962272644043,-0.5118883132934571 1.2352334976196289,-0.9862983703613282 l1.0415973663330078,-1.581693744659424 0.3105142116546631,-1.447225570678711 l-0.5431024551391601,-1.492173194885254 -0.9102124214172364,-1.094379997253418 l-0.7218118667602539,-0.5007601261138916 -2.4774261474609376,-0.46007685661315917 l-1.8685295104980468,0.6063253879547119 -2.2495792388916014,1.6808778762817382 l-1.761990737915039,2.870345687866211 -1.0526474952697753,3.9885299682617186 l-0.6184486389160156,4.438274383544922 0.4857457160949707,2.931450843811035 l0.748239278793335,1.1858013153076172 1.460594367980957,0.4253102779388428 l1.5494885444641113,-0.21370339393615723 0.9705815315246582,-1.0159111976623536 " fill="none" stroke="black" stroke-width="1" /></svg>