<?xml version="1.0" encoding="utf-8" ?>
<svg baseProfile="full" height="138.1491295814514" version="1.1" width="748.9516933636731" xmlns="http://www.w3.org/2000/svg" xmlns:ev="http://www.w3.org/2001/xml-events" xmlns:xlink="http://www.w3.org/1999/xlink"><defs /><rect fill="white" height="138.1491295814514" width="748.9516933636731" x="0" y="0" /><path d="M25,69.07012023590502 m32.712161254882815,2.272936248779297 l-0.10075958967208862,-0.1957595944404602 0.05074810385704041,-0.4247106075286865 l0.07532543540000916,-0.42195591926574705 -0.17492461204528809,-1.226844596862793 l-0.2224492311477661,-1.1614145278930663 -0.7502501010894775,-1.5466215133666992 l-0.6064738273620606,-2.0224582672119142 -1.5683560371398926,-1.8651725769042968 l-0.6959182739257812,-0.9751320838928222 -1.1369653701782227,-0.7858631134033203 l-1.4230859756469727,-0.47961931228637694 -1.6011093139648438,0.08206322193145751 l-1.478630828857422,1.071063232421875 -2.3202722549438475,1.4506729125976563 l-1.3170018196105957,2.3134429931640623 -0.9377810478210449,3.2928043365478517 l-0.07307692766189575,2.9850120544433594 0.5130453109741211,2.524001884460449 l1.6406251907348632,2.4487773895263674 2.5560253143310545,1.5838914871215821 l2.2890289306640623,0.4194354057312012 3.129166030883789,-0.27770705223083497 l2.5068470001220704,-1.130074405670166 2.4449310302734375,-2.0001199722290037 l1.7558509826660156,-2.6533411026000975 1.6274883270263671,-2.7256134033203123 l0.723761510848999,-2.0712520599365236 0.3728805065155029,-0.8732475280761719 l-0.15916109085083008,-0.1107288956642151 -0.0843569278717041,0.2797090530395508 l-0.2290043830871582,0.25291666984558103 -0.42685837745666505,0.3438453197479248 l-0.8072893142700195,1.242436981201172 -0.21858935356140136,2.15545654296875 l0.2877734899520874,2.3172000885009765 1.484142780303955,2.4972503662109373 l1.6838933944702148,2.4080991744995117 2.2155460357666015,2.319508361816406 l2.0863115310668947,1.5168105125427247 2.861621856689453,0.8956535339355469 m29.426553344726564,-22.86011505126953 l-0.001629318855702877,-0.5081672191619873 2.052385711669922,-2.6554243087768556 l-0.045099970698356626,0.05712063312530517 -0.10026090145111084,0.3388789892196655 l-0.218849515914917,0.7224207878112793 -0.11890245676040649,1.4178106307983398 l0.33758068084716797,2.583107757568359 1.3591060638427734,2.1049930572509767 l1.4293989181518554,1.7150218963623047 4.885001754760742,2.32784481048584 l1.231318473815918,-0.22260093688964844 0.468082857131958,-1.2923585891723632 l-0.16768596172332764,-1.5716917037963867 -0.9448827743530274,-1.8815952301025392 l-1.1258554458618164,-1.8068502426147461 -0.7850625514984131,-1.4493765830993652 l-0.7578421592712402,-0.9853975296020507 0.04729762077331543,-0.2537851810455322 l0.2595884561538696,-0.18897476196289062 m6.899198913574219,3.5037681579589846 l0.6219754219055176,0.8076897621154785 -0.2564000844955444,1.479549503326416 l-0.14195258617401124,1.659564208984375 -0.21710350513458251,1.8093601226806642 l0.14501640796661378,1.8435762405395508 0.4913189888000488,0.9498250961303711 l0.24564037322998047,0.2984708547592163 0.29513323307037354,-0.2937648773193359 l0.31886305809021,-0.9066865921020508 0.4442563533782959,-1.9131229400634766 l0.783860158920288,-2.4491497039794923 0.9493927001953125,-2.3416561126708983 l1.6228713989257812,-1.3491915702819823 0.7570592880249023,-0.7947290420532227 l1.6171104431152343,0.030407193303108215 1.1376914024353026,0.5760157108306885 l1.8022043228149414,1.4779824256896972 2.0225898742675783,2.119010162353516 l0.8344110488891602,2.0545509338378904 1.2240650177001953,2.209861946105957 l-0.041058662533760074,1.8523494720458984 -0.3864719390869141,1.1245811462402344 l-0.082362300157547,0.6194417953491211 0.03771764039993286,0.2552614450454712 l0.424045991897583,0.08568776845932007 -0.6787263870239257,-0.30600199699401853 m30.339166259765626,-25.653192138671876 l0.3118246555328369,-0.46739912033081055 0.32686915397644045,-0.5383709907531739 l-0.6024455547332763,-0.3895456790924072 0.7476227760314942,0.2960334300994873 l0.014144958555698394,0.5090606212615967 0.7954338073730469,2.0377098083496095 l0.5618083477020264,2.9016685485839844 0.45362391471862795,4.012528991699218 l0.8156267166137695,4.71440544128418 1.1412094116210938,4.668852233886719 l1.424671745300293,4.000741577148437 2.009608268737793,2.8999038696289063 l1.2369364738464355,1.5095102310180664 1.3794214248657226,0.9266567230224609 l-0.1413837790489197,-0.28968305587768556 -0.1606786370277405,-0.4286632537841797 m12.355834197998046,-14.405416870117188 l0.04477772414684296,-1.5024828910827637 -0.5152340888977051,-0.9352962493896484 l-1.5390590667724608,-1.002571964263916 -2.7025173187255858,-0.4184901237487793 l-2.4040315628051756,-0.5046574592590332 -2.861273193359375,0.3868545055389404 l-3.4726593017578127,0.8923673629760742 -1.6881584167480468,1.412681770324707 l-0.8750167846679687,1.9195964813232422 0.13182805776596068,2.642873764038086 l0.761480712890625,2.9650989532470704 2.199950408935547,2.487252426147461 l3.083792495727539,1.8892244338989257 2.465079116821289,0.8139172554016113 l2.776584815979004,-0.06340734958648682 2.3057043075561525,-0.45823984146118163 l1.3961103439331055,-1.496924591064453 -0.004017005115747452,-2.853866195678711 l0.7093108177185059,-2.2630775451660154 -0.3467816114425659,-1.3291230201721191 l-0.6286602973937988,-0.8539484977722168 -0.8011936187744141,-0.28535425662994385 l-0.252737021446228,0.018144696950912476 0.22448935508728027,1.1209409713745118 l0.02095237374305725,2.7278511047363283 0.5155143737792969,3.6871879577636717 l0.8746280670166016,3.9070579528808596 0.8525787353515625,3.94640998840332 l0.9341554641723633,4.361022186279297 0.07074145078659058,4.028607177734375 l0.19573270082473754,3.5563980102539063 -0.7479159355163574,3.0740234375 l-1.3393922805786134,2.132287788391113 -0.9380035400390625,1.0363903999328614 l-2.155917739868164,0.16400669813156127 -2.553144645690918,-0.7892274856567383 l-3.688130569458008,-1.4366059303283691 -3.6946762084960936,-2.110881042480469 l-2.6264848709106445,-2.3006263732910157 -1.7734756469726562,-2.543636512756348 m42.718988037109376,-41.840057373046875 l0.03864312767982483,0.5639616012573242 -0.21175150871276854,1.4326309204101562 l0.3532378673553467,2.4592510223388673 0.23151593208312987,3.113612937927246 l0.6173009395599365,3.611065673828125 0.7143914222717285,3.6629348754882813 l0.6515164375305176,4.035012817382812 1.4920093536376953,4.003684234619141 l1.5035776138305663,3.4285728454589846 1.5654911041259765,2.2108659744262695 l1.913250732421875,0.9407588005065918 2.5063716888427736,0.08539236187934876 l2.356193733215332,-0.36762313842773436 3.257945251464844,0.0037588797509670257 l2.2715614318847654,-1.1834116935729981 3.5309471130371093,-1.1578349113464355 l2.0590469360351564,-2.5116575241088865 2.6639942169189452,-2.593593406677246 l1.107259178161621,-2.764742851257324 0.5146270751953125,-3.1292320251464845 l-0.6964407920837402,-2.772914695739746 -1.2619565963745116,-2.106282424926758 l-2.232371520996094,-1.426002597808838 -3.4681827545166017,-0.6613134384155274 l-3.024053192138672,0.5315285682678222 -2.3467428207397463,0.6356429576873779 l-1.1878345489501954,0.9422567367553711 1.2926748275756836,1.733268928527832 m24.410150146484376,9.737225341796876 l0.37751455307006837,-1.497239589691162 -0.008404045552015304,-2.2860435485839843 l-0.743831729888916,-1.4559371948242188 -0.5049304485321044,-1.2204070091247559 l-1.5947938919067384,-0.7873165130615234 -1.4689226150512695,-0.25310161113739016 l-1.399209976196289,0.8371467590332031 -1.8823324203491212,1.3374135971069336 l-1.0406083106994628,1.9827259063720704 -0.1526810884475708,1.671499252319336 l0.45315017700195315,1.7661447525024414 1.62498779296875,1.4877317428588868 l2.0296302795410157,0.6715871810913085 2.891433525085449,0.1500656008720398 l3.101251220703125,-0.6366233825683594 2.7295372009277346,-1.5451592445373534 l1.6344823837280273,-2.4279356002807617 0.6865667819976806,-2.316056823730469 l-0.5680017471313477,-1.8285009384155273 -1.3014453887939452,-1.4495878219604492 l-1.3619952201843262,-0.8036037445068359 -1.5887590408325196,-0.14596898555755616 l-0.4974456787109375,0.40241479873657227 -0.4254763603210449,0.4292336940765381 l0.030211609601974488,0.7449764251708985 0.25912041664123536,0.7520891189575195 l0.3024760723114014,0.15707924365997314 0.8115272521972656,0.339120888710022 l0.5743136405944824,-0.8568564414978027 1.3650640487670898,-0.9800012588500977 l0.5823599815368652,-1.9735116958618164 0.5082149505615234,-2.088325309753418 l1.1651177406311035,-1.482791805267334 0.8868840217590332,-1.0990633964538574 l0.6435090065002441,-1.3938780784606934 0.6855289936065674,-0.823697853088379 l0.9557629585266113,-0.1252661943435669 0.48256855010986327,-0.7911138534545898 l0.6011166095733642,-0.3238232135772705 0.6421668052673339,-0.2761958122253418 l0.3562941074371338,0.06203993558883667 0.22490904331207276,0.47418646812438964 l0.3012809753417969,0.6538228988647461 0.006490828841924668,1.3168492317199707 l-0.0693710207939148,1.8646112442016602 -0.2888294458389282,2.275472640991211 l-0.3610369205474854,2.4607362747192383 -0.02197778522968292,2.7524524688720704 l0.07907570004463196,2.0919525146484377 0.2645565509796143,1.3392175674438476 l0.6959780693054199,1.0555314064025878 0.6218193054199219,0.08333986401557922 l0.5980337142944336,-0.6715729713439942 1.286374855041504,-0.4320546627044678 l0.9239232063293457,-1.480344581604004 0.7490265369415283,-1.8121835708618164 l0.9380423545837402,-1.664522361755371 0.8746661186218262,-1.3505794525146484 l0.6542322158813476,-1.6336093902587892 0.29486784934997556,-1.3441821098327638 l0.2668148517608643,-0.97545166015625 -0.028276515007019044,-0.42544732093811033 l-0.27883400917053225,-0.7770468711853027 0.18664122819900514,0.28704447746276857 l0.028570228815078737,-0.005492858961224556 0.008079621940851212,0.5245527744293212 l-0.26329517364501953,-0.05147997736930847 0.20208215713500977,0.8554369926452636 l-0.13125287294387816,0.7571917057037354 0.08455934524536132,0.6792087554931641 l0.4137507438659668,1.3329170227050782 0.436763334274292,1.349093532562256 l0.6786111831665039,1.645216178894043 0.4618051528930664,1.4056939125061034 l0.9046074867248535,0.9832897186279297 0.7802165031433106,1.1080020904541015 l1.403041934967041,0.7460713386535645 1.3946060180664062,0.2858853340148926 l1.4494881629943848,-0.7985342979431153 1.7275104522705078,-0.9747871398925781 l1.6179977416992188,-1.6190706253051759 1.3048269271850585,-2.186780548095703 m6.582837677001953,-21.290087890625 l0.23198015689849855,0.3834472894668579 -0.3768625736236572,0.995501708984375 l-0.6327457427978516,1.5890018463134765 -0.23920016288757323,2.693882369995117 l-0.1887706995010376,2.7137096405029295 -0.19166340827941894,3.0089855194091797 l0.17563079595565795,3.131758689880371 0.4283309459686279,3.7370155334472654 l0.38983426094055174,3.0296897888183594 0.007269984483718872,1.7998872756958009 l0.5768747806549073,1.3448544502258302 0.20809509754180908,-0.5525760173797607 m1.8963830947875977,-20.456375122070312 l0.16852508783340453,-0.2619707822799683 0.19164443016052246,0.03726446926593781 l-0.3186784744262695,0.5097646713256836 -0.6148323535919189,0.09360777735710143 l-0.3922722578048706,1.1354819297790528 -0.734985637664795,1.181064510345459 l-0.17175812721252443,1.903801155090332 0.2739348173141479,2.8581356048583983 l0.315844988822937,3.349920654296875 0.8012496948242187,3.2617244720458984 l1.3584208488464355,3.5696014404296874 1.4837094306945802,2.405104064941406 l1.3956125259399415,1.0806208610534669 0.34354710578918457,-0.6978140830993652 l0.35998005867004396,-2.338424491882324 -0.07146218419075012,-3.998474884033203 l-0.029608523845672606,-3.706385040283203 -0.33144989013671877,-4.731808090209961 l-0.2985217571258545,-4.6247295379638675 -0.5364328384399414,-4.644718933105469 l-0.5915194511413574,-4.025411605834961 -0.6676853179931641,-2.9447349548339843 l-0.7302329063415527,-1.9806325912475586 -0.6745830535888672,-1.6351036071777343 l-0.2752933740615845,-0.7047976493835449 -0.1509014368057251,0.08708101511001587 m19.122254943847658,11.215186309814452 l-0.6508977890014649,-0.5819082260131836 -0.41919755935668945,0.24224433898925782 l-1.843980598449707,-0.06802800297737122 -2.3645914077758787,0.8162944793701172 l-2.3141284942626954,1.7798755645751954 -3.0099199295043944,1.9914806365966797 l-2.1026351928710936,2.87180233001709 -1.7957820892333984,2.450777053833008 l-1.0479019165039063,2.8160423278808593 -0.3061783790588379,1.8498064041137696 l0.4319309711456299,1.39090576171875 0.999606990814209,0.894626235961914 l1.2295571327209474,0.08829531073570251 1.988194465637207,-0.4990889549255371 l2.1331804275512694,-2.0418781280517577 2.0659923553466797,-1.600182342529297 l1.9305200576782227,-2.5925691604614256 1.4564285278320312,-2.5087703704833983 l1.0385351181030273,-2.3179513931274416 0.9475954055786133,-1.3767454147338867 l0.16370756626129152,-0.8496835708618165 0.23566081523895263,0.2789852380752563 l0.1800113797187805,1.7811403274536133 0.10840120315551757,3.168423652648926 l0.524930763244629,4.690700912475586 0.9247315406799317,5.838743591308594 l1.298776626586914,7.013606262207031 0.9758392333984375,8.083113098144532 l1.8238864898681642,8.568596649169923 1.3518203735351562,8.042132568359374 l1.4467994689941406,8.238907623291016 -0.30695090293884275,5.869598007202148 l-1.3724766731262208,5.144816589355469 -1.2276921272277832,3.8326683044433594 l-2.063754653930664,2.422103500366211 -2.035990524291992,1.1179810523986817 l-2.4201944351196287,-0.41135826110839846 -2.04843807220459,-0.7643406867980957 l-2.2946533203125,-2.2315597534179688 -1.4041893005371093,-2.825872611999512 l-1.6186279296875,-3.2033851623535154 -0.6078609943389892,-2.5632415771484376 l-0.44251179695129395,-3.4117176055908205 0.1761932134628296,-3.094028663635254 l0.4130692005157471,-2.8686496734619142 0.34336817264556885,-3.566218948364258 m19.874586486816405,-42.71604614257812 l0.31153140068054197,0.3731873035430908 -0.1416475534439087,0.5448895454406738 l-0.2913532018661499,2.4733631134033205 -0.4373000621795654,3.913187026977539 l-0.8190762519836425,4.950347518920898 0.06276854872703552,5.797721862792969 l0.08668957948684693,6.48719482421875 0.5642657279968262,6.179969787597656 l0.506801700592041,4.233959579467774 1.0742125511169434,2.809675407409668 l1.2011728286743164,0.9070637702941895 2.0359285354614256,-0.7459014892578125 l2.0935768127441405,-2.4125764846801756 1.9392494201660155,-3.9466983795166017 l1.7556207656860352,-5.106191253662109 1.7418691635131835,-4.952151870727539 l1.7761442184448242,-4.501321411132812 1.3190107345581055,-3.2854007720947265 l0.7809565544128418,-2.396078109741211 0.3881178140640259,-0.30281939506530764 l0.9313460350036621,1.3552903175354003 0.8242040634155273,2.7977981567382812 l0.8436734199523925,4.385478210449219 0.8201689720153809,5.529499816894531 l0.8425147056579589,6.134819793701172 0.5800271987915039,4.970459365844727 l0.29915432929992675,3.563091278076172 -0.017324802279472352,1.1559669494628906 m12.353699493408204,-19.596803283691408 l1.0949477195739745,0.6743439674377442 1.2158337593078614,-0.24453451633453369 l1.663193130493164,-0.39699292182922363 1.1953596115112304,-1.309933567047119 l1.4912286758422852,-2.1225826263427736 0.9942638397216796,-2.3167402267456056 l0.656353235244751,-2.479461669921875 0.4342195987701416,-2.3799503326416014 l-0.5520386219024658,-2.511138916015625 -0.809328842163086,-1.2835749626159667 l-1.4354305267333984,-0.6829609870910645 -1.679966926574707,1.1666316986083984 l-2.4176443099975584,2.088165283203125 -1.266444206237793,3.8255283355712892 l-1.0122245788574218,4.182209777832031 -0.2142951250076294,5.125839614868164 l0.25872130393981935,4.362171173095703 1.0609466552734375,2.934517669677734 l2.166777420043945,2.256356430053711 2.0971664428710937,1.7446264266967773 l2.6385929107666017,0.9793514251708985 2.81075382232666,0.24956467151641845 l2.510875701904297,-0.42266025543212893 3.112388801574707,-0.4321561813354492 m2.319940376281738,-3.7287887573242187 l0.7647135257720947,-0.9310203552246094 0.593825101852417,-1.064884567260742 l0.7106298446655274,-1.3718795776367188 1.21667423248291,-1.552564525604248 l1.069754695892334,-1.95565185546875 1.35383939743042,-2.3301801681518555 l1.225204086303711,-2.52976131439209 1.0900049209594727,-2.3676563262939454 l-0.09761468172073365,-2.284714126586914 -0.03738006353378296,-1.5114507675170898 l-0.5950204849243164,-1.0732359886169434 -1.0751115798950195,-0.8157178878784179 l-1.2486495971679688,0.01848149597644806 -1.7009685516357422,0.9334257125854493 l-1.2660001754760741,2.6068687438964844 -1.183379554748535,3.320269012451172 l-0.04593136310577393,4.101971054077149 0.3899192810058594,3.8175716400146484 l1.4428616523742677,4.099563980102539 2.640333557128906,3.4301719665527344 l3.0325565338134766,2.2732641220092775 3.0450592041015625,1.0641187667846679 l3.1444423675537108,0.6927575588226318 2.962834358215332,-0.5393095493316651 l2.831882858276367,-0.8158708572387695 2.2719747543334963,-1.7561344146728515 l2.351827621459961,-2.1807367324829103 1.9147872924804688,-2.845186233520508 m28.003280639648438,-25.727920532226562 l0.5765262603759765,-1.2757461547851563 -0.6644171714782715,-1.9529111862182618 l-1.5018575668334961,-2.039371681213379 -2.1501708984375,-2.0703758239746093 l-2.7486122131347654,-2.0923931121826174 -2.9832401275634766,-1.112160873413086 l-3.0344655990600584,-0.26255507469177247 -2.233707618713379,0.8512521743774414 l-1.92926082611084,1.6665857315063477 -1.3222759246826172,2.386733818054199 l0.09235516786575318,3.867580032348633 0.673339557647705,4.52433967590332 l1.6485567092895508,5.9223579406738285 2.088364601135254,6.027627944946289 l2.3286758422851563,6.044979095458984 1.2926912307739258,4.510669326782226 l1.1659588813781738,3.2582675933837892 0.401854944229126,1.241425132751465 l0.0902116596698761,0.1785683035850525 -0.6453030586242676,-0.09848385453224182 m-6.10758056640625,-13.845887756347656 l-0.09090847969055176,-0.33658812046051023 -0.051582878828048705,-0.28430910110473634 l0.06694015264511108,-0.2650404930114746 0.047908061742782594,-0.6219738960266114 l0.17056667804718018,-0.5157567977905273 0.20190157890319824,0.11866571903228759 l0.7215622901916504,-0.8874310493469239 1.026090431213379,-0.8324882507324218 l1.2156834602355957,-0.785353708267212 1.7105472564697266,-0.7102535247802735 l2.453088569641113,-0.4586626052856445 2.1850873947143556,-1.3606337547302245 m55.3673828125,1.1361482620239258 l-0.41861610412597655,-0.629498291015625 -0.6190615653991699,-0.2170250177383423 l-0.9866983413696289,0.017709517478942872 -2.3622283935546875,0.3855299472808838 l-2.0239540100097657,1.001387119293213 -2.142755699157715,1.8360401153564454 l-1.9819190979003907,3.2643081665039064 -1.5631620407104492,4.248670196533203 l-0.12297005653381347,4.792890548706055 2.125936508178711,9.510491943359375 l1.7496173858642579,1.9387521743774414 1.7317407608032227,0.8374111175537109 l1.5686975479125977,-0.4067669868469238 2.316332244873047,-1.1739536285400392 l1.7299638748168946,-2.590205764770508 1.6244167327880858,-3.551081085205078 l1.0202220916748046,-4.816250228881836 1.8441753387451172,-5.191949462890625 l0.6194545745849609,-5.645027923583984 0.5455751895904541,-5.0476318359375 l0.7867844104766846,-4.275592041015625 0.12246572971343994,-3.491061782836914 l0.45169906616210936,-2.1882442474365233 -0.25468955039978025,-0.891229248046875 l-0.17794524431228637,0.08842562437057495 -0.09896175861358643,1.069841194152832 l0.12460862398147583,2.6848731994628907 -0.06181110143661499,3.89759521484375 l0.4103693008422852,4.833575820922851 0.2109912157058716,5.599863052368164 l0.27341508865356445,5.275265121459961 0.6931439399719238,5.305663299560547 l0.3740499496459961,3.997801971435547 0.1048720121383667,3.0741603851318358 l0.702151870727539,2.4490785598754883 0.6236738204956055,1.1567839622497558 m8.761516571044922,-18.108045959472655 l0.7463531494140625,0.7131919860839844 0.32648959159851076,1.9564500808715821 l0.21711535453796388,3.621485137939453 0.13474069833755492,4.601226043701172 l0.34568355083465574,4.2914787292480465 0.18100519180297853,3.5839775085449217 l0.3644456624984741,2.0816158294677733 0.06502127647399902,0.8696041107177734 l0.5757710933685303,-0.2837409734725952 0.742340087890625,-1.8795442581176758 l1.1613502502441406,-2.7323110580444334 0.837710952758789,-2.5821266174316406 l1.4535609245300294,-2.5801441192626955 1.2655219078063964,-2.6522294998168947 l2.125667381286621,-1.8166095733642578 2.6546669006347656,-1.3359281539916992 l2.9431974411010744,-0.5353489398956299 3.4549888610839843,-0.20671458244323732 l3.659382629394531,0.3851651668548584 3.4137298583984377,-0.23951923847198486 l3.1168806076049806,0.19525288343429564 3.1688724517822267,-0.06763907670974731 l2.8223052978515626,0.19099913835525512 2.5141796112060546,-0.01473805159330368 l2.198959732055664,0.015894389152526854 1.4126381874084473,-0.5749559879302979 l1.0848139762878417,-0.20503063201904298 0.8102200508117676,0.3135066032409668 l0.08436375856399536,-0.3521504163742065 -0.23627910614013672,-0.4611548900604248 l-0.7290096282958984,-0.6088804721832275 -1.4241696357727052,-1.1263667106628419 l-2.4286724090576173,-1.1457965850830079 -2.058529281616211,0.1376098394393921 l-2.1004037857055664,0.6249325752258301 -1.9995262145996093,1.5383620262145996 l-1.937109375,2.619105911254883 -1.0074913024902343,3.30146484375 l0.2756229639053345,3.998155975341797 0.849515151977539,3.2696609497070312 l2.11020450592041,2.318279266357422 2.53818302154541,2.0168582916259767 l2.5310686111450194,0.036402064561843875 2.7082984924316404,-0.5818996906280518 l2.2184085845947266,-2.0392833709716798 1.6941272735595703,-2.711938667297363 l0.7975556373596191,-3.7989574432373048 0.5795008659362793,-2.8261493682861327 l8.545273590087891,-3.72821044921875 -0.960848045349121,2.3067054748535156 l0.05032497048377991,2.1910678863525392 0.04044017791748047,2.0083518981933595 l0.44179577827453614,2.128834533691406 0.6468387603759765,1.5175236701965331 l1.1617691040039062,0.6967372417449951 1.0511346817016602,-0.29617345333099365 l-0.1332269310951233,-1.417722797393799 0.29966344833374026,-2.5577526092529297 l0.5213032722473144,-2.2605594635009765 1.3240381240844727,-2.3392513275146483 l1.4977987289428711,0.3749439239501953 0.2522109031677246,1.4324520111083985 l0.6301159381866455,3.014827537536621 -0.33113393783569334,3.1763782501220703 l-0.20675671100616455,3.6763530731201173 -0.3281303882598877,3.8867469787597657 l-0.4375006198883057,3.636261749267578 -0.11647366285324097,3.0403472900390627 l0.05735594034194946,2.4033481597900392 -0.5098669052124023,1.1415730476379395 l-0.2359091520309448,0.5370861053466797 0.9118775367736817,0.14445266723632813 l0.7302908420562744,-0.6106667518615723 2.157932662963867,-1.0416131019592285 m20.077500915527345,-41.983709716796874 l0.08102900385856629,0.018336115777492522 -0.25109472274780276,-0.0639651358127594 l0.37792229652404785,0.23989460468292237 -0.6111538887023926,0.8350283622741699 l0.2787659168243408,2.6805538177490233 -1.4991465568542481,3.4261722564697266 l-0.7667014122009277,5.242756271362305 -0.32129740715026855,5.840742111206055 l-0.6160060882568359,5.415815734863282 -0.27633845806121826,4.377726745605469 l-0.34712538719177244,3.2360767364501952 0.622554349899292,2.2323587417602537 l0.30245370864868165,1.190873146057129 -0.1147500991821289,-0.09239192008972168 l-0.3778891324996948,-0.5051653385162354 0.09489965438842773,-1.5517156600952149 m-1.6524833679199218,-11.375135803222657 l0.9638285636901855,0.7890824317932129 1.4234010696411132,0.16235775947570802 l1.811953353881836,-1.056661033630371 2.200310707092285,-1.1039693832397461 l3.1140146255493164,-0.9468711853027344 1.938067626953125,-1.5608452796936034 l2.7674015045166014,-1.7571115493774414 2.9219741821289062,-2.1368778228759764 l1.9778547286987305,-3.088576889038086 1.7135562896728516,-3.7993328094482424 l0.9556453704833985,-3.5046741485595705 -0.08869516849517822,-2.5684625625610353 l-1.0687053680419922,-1.286461067199707 -1.5150344848632813,-0.30695738792419436 l-1.3931476593017578,1.0572145462036133 -1.3831801414489746,2.1642925262451174 l-0.9738874435424805,3.675873565673828 -1.2690731048583985,4.84956169128418 l-0.6480674743652344,5.879411315917968 -0.08470183610916138,5.396178817749023 l0.29309954643249514,4.825375366210937 0.28307018280029295,4.041776275634765 l0.03372804522514343,3.0033329010009764 0.6091824531555176,1.6860271453857423 l0.5416398525238038,0.2715311050415039 -0.2252185106277466,-0.6072665214538574 l1.3171477317810059,-1.339201068878174 1.6319372177124023,-3.327764129638672 l1.8080724716186523,-3.3777191162109377 1.1142650604248048,-2.09970703125 l0.8065852165222168,-1.9970094680786132 0.9261698722839355,-1.3521794319152831 l0.6341203689575196,-0.4646126747131348 0.483758544921875,0.05040410757064819 l0.01009257510304451,0.7302943229675293 0.47545924186706545,1.791287612915039 l0.3615684509277344,2.4767482757568358 0.6977825164794922,2.788156509399414 l0.7388025283813476,2.191262054443359 1.0641849517822266,1.2344531059265136 l1.8153175354003905,0.4785411834716797 1.4906115531921387,-0.366878604888916 l2.4938899993896486,-1.057462215423584 1.8812057495117187,-2.492489051818848 l2.1674921035766603,-2.39847469329834 1.0263911247253419,-2.016209602355957 l0.27209327220916746,-1.3919975280761718 -0.5549861907958984,-0.5824174880981445 l-0.48823227882385256,0.07164783477783203 -0.9562699317932128,0.621379804611206 l-1.0130678176879884,1.6004165649414062 -1.002864933013916,2.232293891906738 l-0.9296530723571778,2.529498291015625 0.874705696105957,2.607042694091797 l1.3269624710083008,2.0886470794677736 1.2205192565917968,1.020345687866211 l2.1240989685058596,0.44515018463134765 2.6533124923706053,-0.23319406509399415 l2.7827388763427736,-0.6482344627380371 3.6445285797119142,-0.9290998458862305 l3.704118347167969,-1.4654060363769532 3.5865570068359376,-1.6519857406616212 l2.979167938232422,-1.9264337539672851 2.840248870849609,-1.622325325012207 l2.024400520324707,-1.2459093093872071 1.415696907043457,-0.8846786499023438 l0.9033768653869629,-0.6955214500427246 -0.01699323207139969,-0.40114054679870603 l-0.35768861770629884,-0.5656276702880859 -0.9235631942749023,-0.7551207065582275 l-1.2304054260253907,-0.8009420394897461 -1.657023811340332,-0.4260247230529785 l-1.6227092742919922,0.21239767074584961 -1.751277542114258,0.6636120796203613 l-1.5173871994018555,1.5080825805664062 -1.0433998107910156,2.4941694259643556 l-0.23949751853942872,3.161525535583496 0.05613843202590942,3.64139404296875 l0.8467465400695801,2.9544864654541017 1.409624195098877,1.8518728256225585 l1.8210798263549806,0.6784124374389648 1.8009700775146484,-0.4293482303619385 l2.5217363357543947,-1.5549121856689454 2.7154729843139647,-2.413099479675293 l2.789483070373535,-3.371367645263672 2.406641960144043,-4.025672149658203 l2.0795692443847655,-3.805002975463867 1.17010498046875,-3.7770225524902346 l1.281324291229248,-2.8728004455566407 0.6489651679992676,-2.4816770553588867 l0.6490650653839112,-1.8216838836669922 -0.27936079502105715,-0.9189115524291992 l-0.11660596132278442,-0.19500131607055665 -0.35509676933288575,0.06983060240745545 l-0.19456520080566406,1.6446849822998046 -0.3086922407150269,2.8967411041259767 l-0.8228102684020996,3.9235435485839845 -0.9297317504882813,4.782266616821289 l-0.29614317417144775,4.7974800109863285 -0.3196115255355835,4.268439865112304 l0.0999790906906128,3.4182769775390627 0.6221282958984375,2.2731040954589843 l1.364933395385742,1.9654600143432617 1.3790948867797852,0.8324296951293946 l1.515917682647705,0.030073875188827516 2.8106544494628904,-0.8440046310424805 m30.791806030273438,-23.553839111328124 l0.311731219291687,-0.015595722198486327 -0.31573150157928465,0.16706676483154298 l-0.387508487701416,0.5241117000579834 -0.9746339797973633,1.3047746658325194 l-0.9464234352111817,1.9967960357666015 -1.0325373649597167,3.0133899688720702 l-1.6038959503173829,3.859482192993164 -1.0937005996704101,4.131747436523438 l-0.5616116523742676,3.536404037475586 -0.3703012943267822,2.6936481475830076 l0.976966667175293,1.873917007446289 1.483311653137207,0.8516775131225586 l2.2512800216674806,0.09917151927947998 2.799648666381836,-0.819835090637207 l3.2193424224853517,-1.396940040588379 3.036581039428711,-1.6504022598266601 l2.0144081115722656,-2.056629943847656 0.46175556182861327,-2.1458742141723635 l-0.11995465755462646,-1.7574356079101563 -0.9099546432495117,-1.5405649185180663 l-1.26631498336792,-1.117728042602539 -1.9218633651733399,-0.30381102561950685 l-2.189271926879883,-0.026729705929756164 -1.1099756240844727,0.2571981430053711 l-0.09673566818237304,-0.13192636966705323 0.37543392181396484,-0.18141745328903197 l0.9741806030273438,-0.8435946464538574 1.893216323852539,-1.014632797241211 l1.4250508308410645,-1.1992778778076172 1.5620326042175292,-1.0335970878601075 l1.595309066772461,-1.2009756088256835 1.4932363510131836,-0.8153325080871582 l1.3392706871032716,-0.844392204284668 0.4421661376953125,-0.3494215488433838 l0.9113856315612793,-0.12053116559982299 -0.6821234703063965,-0.0966641902923584 l0.07801899313926697,0.10170106887817383 -0.9165006637573242,0.03697157502174377 l-0.06705827116966248,0.06891233921051025 0.0037390172481536867,0.02701043486595154 l0.1239729642868042,0.0428747683763504 -0.2715668439865112,0.015677689015865325 l0.1389052987098694,0.19037168025970458 0.7161158561706543,0.7861406326293945 l-0.2908517837524414,0.903068733215332 -0.29022560119628904,1.7431333541870118 l0.22063474655151366,2.6415197372436525 0.3655613899230957,3.4612606048583983 l-0.5548676490783692,3.6782787322998045 -1.0780094146728516,3.455311584472656 l-0.4527712345123291,3.896436309814453 -0.24425168037414552,3.6762020111083986 l-0.022155675292015075,3.425785446166992 0.5650681972503662,2.0280229568481447 l0.7890652656555176,1.1158885955810547 1.1450457572937012,0.29170658588409426 l0.9436050415039062,-0.3076448917388916 1.2438083648681642,-1.1704938888549805 l1.5459348678588867,-1.5703444480895996 1.6424268722534179,-2.055194854736328 l1.4557308197021483,-2.488233947753906 1.0979313850402832,-2.014242172241211 l1.0987082481384278,-1.4489044189453124 0.13065313100814818,-0.5806930065155029 l0.33554987907409667,-0.011979897320270539 -0.3009941577911377,0.6793117046356201 l0.6091439723968506,1.6504037857055665 0.15117667913436889,2.183209228515625 l0.23241903781890869,2.197140121459961 0.27372524738311765,1.9516395568847655 l0.8340473175048828,1.2594287872314454 0.7340921401977539,0.8208166122436523 l1.1293485641479493,-0.09849181771278381 1.1864644050598145,-0.4297307014465332 l1.3031959533691406,-1.4902771949768066 1.3210750579833985,-1.7416736602783203 l0.4701704025268555,-2.3058414459228516 0.6183363914489746,-1.8853500366210938 l0.09223496317863464,-1.0528018951416016 -0.48552751541137695,-0.11896495819091797 l0.3234775304794312,0.24788146018981932 -0.1179855227470398,1.3208418846130372 l0.03380023837089539,1.9383298873901367 0.3664844512939453,1.6200668334960937 l0.7280872344970704,1.0674739837646485 0.9811323165893555,0.2485189437866211 l1.6767852783203125,-0.434605073928833 1.9078977584838868,-1.2526327133178712 l1.3488182067871093,-1.6724689483642579 1.5686302185058594,-2.0497636795043945 l0.9626176834106446,-2.266535758972168 0.05194112062454224,-2.1355371475219727 l-0.22813470363616944,-1.7860389709472657 -0.5857234477996827,-0.9851869583129883 l-1.3853739738464355,-0.281769323348999 -0.5901339530944825,0.36485652923583983 l-1.5464648246765136,0.953707504272461 -1.286511516571045,1.7460386276245117 l-0.7825780391693116,2.8828828811645506 -0.03289976418018341,3.4339393615722655 l0.5656736373901368,3.599468994140625 " fill="none" stroke="black" stroke-width="1" /></svg>