<?xml version="1.0" encoding="utf-8" ?>
<svg baseProfile="full" height="103.04027127325534" version="1.1" width="351.07786202579734" xmlns="http://www.w3.org/2000/svg" xmlns:ev="http://www.w3.org/2001/xml-events" xmlns:xlink="http://www.w3.org/1999/xlink"><defs /><rect fill="white" height="103.04027127325534" width="351.07786202579734" x="0" y="0" /><path d="M25,66.96864518523216 m32.55029296875,-19.017132568359376 l-0.37142581939697267,4.620117568969727 -0.7737931251525879,5.731976318359375 l-1.2882352828979493,5.4472309112548825 -1.091932201385498,5.048299407958984 l-1.2175407409667969,3.1771514892578123 -0.15197579860687255,2.1384506225585938 l-0.13771044015884398,0.27266368865966795 0.3240329742431641,-0.4332940101623535 l0.5454892158508301,-2.7187129974365236 1.499763298034668,-3.265940475463867 l1.8669689178466797,-3.286692810058594 2.264593505859375,-2.4814054489135744 l1.1683036804199218,-1.874532699584961 1.4402275085449219,-0.33976852893829346 l0.6937596797943115,0.4371635437011719 0.31584782600402833,1.2163658142089844 l0.708772087097168,2.3493642807006836 0.21979107856750488,2.0873172760009764 l-0.10594775676727294,2.033540725708008 0.16213433742523192,1.8741724014282226 l0.009790901839733124,1.2774609565734862 0.3217564821243286,1.072414493560791 l0.24347984790802002,0.41803665161132814 0.2093062400817871,0.2904771327972412 m15.828536987304688,-3.2876285552978515 l0.2324824571609497,-0.021882110834121705 -0.05616028904914856,-0.09062110185623169 l-0.5861574172973633,-0.5287909507751465 -0.7801325798034668,-0.8175346374511718 l-1.3286203384399413,-0.937865161895752 -1.270372486114502,-0.5916791439056397 l-1.4608924865722657,-0.15815008878707887 -1.2475650787353516,0.5227495193481445 l-0.9007523536682129,1.217973232269287 -0.7995539665222168,1.3527327537536622 l-0.15025022029876708,1.4930333137512206 0.4732919216156006,0.891018009185791 l0.017076416313648222,0.3635709762573242 0.691385555267334,0.3203763484954834 l0.8342964172363281,-0.13638956546783448 1.2312960624694824,-0.5366110801696777 l0.10537298917770385,-1.4830554962158202 0.56943359375,-1.7253890991210938 l0.41161088943481444,-2.0134471893310546 0.2707092523574829,-2.532390594482422 l0.567274522781372,-2.263200378417969 0.17920721769332887,-1.4002808570861816 l-0.1576704740524292,-1.052353858947754 -0.34261355400085447,-0.552121925354004 l-0.6623494148254394,-0.27146458625793457 -1.2611421585083007,-0.26290163993835447 l-1.2657742500305176,0.19231330156326293 -1.5177675247192384,0.16530560255050658 l-1.062986183166504,0.7162912368774415 -0.7039192199707032,1.1689606666564942 l-0.33809006214141846,1.4352761268615724 -0.08861517906188965,1.5220376014709474 l0.36605219841003417,1.6061344146728516 0.6194709777832031,1.1446843147277832 l1.0752803802490234,1.0564186096191406 1.178706741333008,0.37852187156677247 l1.327436923980713,0.038611358404159545 1.7593219757080079,-0.13154847621917726 l1.3842310905456543,-0.6177225589752198 1.7899066925048828,-0.6747705459594726 l1.5543813705444336,-0.7493884563446045 1.8002479553222657,-0.6377429008483887 l1.9087158203125,-0.8047401428222656 2.1776466369628906,-0.983563232421875 l2.238866424560547,-1.445223331451416 2.59285888671875,-1.5313490867614745 l2.6012222290039064,-2.10872859954834 2.650300216674805,-2.014796257019043 l2.2571598052978517,-2.988825798034668 2.3098865509033204,-2.9750871658325195 l1.2544475555419923,-2.768359375 0.9979608535766602,-2.170266342163086 m-4.848006820678711,0.8997134208679199 l-1.596883773803711,1.1779767990112304 -1.3384156227111816,1.9702972412109374 l-1.3124353408813476,2.3357732772827147 -1.1480693817138672,2.5284446716308593 l0.08296439051628113,2.575943946838379 0.7638561725616455,1.642404556274414 l1.6386354446411133,1.5206388473510741 1.9829998016357422,1.0651260375976563 l2.118460845947266,0.8807421684265136 2.2324209213256836,0.095138019323349 l2.9359672546386717,0.5526457309722901 3.119134712219238,-0.754020881652832 l3.8234107971191404,-0.7850425243377686 4.0970306396484375,-1.167268943786621 m42.663082885742185,-34.90202026367187 l-0.035919550061225894,0.3825684547424316 0.1771809935569763,0.5805962562561036 l-0.41098861694335936,0.8229602813720703 -0.7494988441467285,1.577214813232422 l-1.1133513450622559,1.9812381744384766 -0.8601268768310547,2.7084066390991213 l-1.1927237510681152,3.119297409057617 -0.8277110099792481,3.415873336791992 l-0.4461169719696045,3.434014892578125 -0.07542698979377746,2.6060256958007812 l0.8151451110839844,2.013400840759277 1.971586036682129,1.5351920127868652 l2.3937055587768556,0.34274280071258545 2.968977355957031,0.11153769493103027 l2.8133020401000977,-0.7209486484527587 2.543063163757324,-1.219525146484375 l2.097865676879883,-1.0056647300720214 0.7209084033966064,-0.7064845561981201 l-0.1646440625190735,-0.22722783088684081 -0.30976619720458987,-0.19824956655502318 l-1.3786701202392577,-0.056818324327468875 -2.232249069213867,-0.030146446824073792 l-1.9431282043457032,0.27067949771881106 -1.5422792434692383,0.1434880495071411 m15.405580139160156,-8.291476440429687 l0.44880189895629885,0.14425016641616822 -0.2101989984512329,-0.1765706419944763 l0.006094376742839813,0.589602279663086 -0.6743255615234375,1.1001864433288575 l-1.0459051132202148,1.6603519439697265 -1.1082915306091308,2.3242698669433595 l-1.2388218879699706,2.177029037475586 -0.23043265342712402,2.2909337997436525 l0.2701879024505615,1.2836722373962401 1.1735581398010253,0.9919308662414551 l1.756214714050293,-0.19311556816101075 2.2934574127197265,-0.7244936943054199 l2.0370929718017576,-1.8662721633911132 1.9826351165771485,-1.918596076965332 l1.9241891860961915,-1.9170190811157226 0.9415962219238281,-2.369029235839844 l0.5381398677825928,-1.889766311645508 -0.2710919141769409,-1.3689720153808593 l-0.6348190307617188,-0.7827406883239746 -1.0655519485473632,-0.8999924659729004 m13.40394287109375,6.304165267944336 l0.05671312212944031,0.3871807813644409 -0.21437530517578124,-0.22600183486938477 l0.26057050228118894,0.19916267395019532 0.7857506752014161,-0.31873557567596433 l1.8611436843872071,-0.4805943489074707 2.2576406478881834,-0.9951470375061036 l3.062162399291992,-0.8883866310119629 2.8705652236938475,-1.530641460418701 l2.4835794448852537,-1.6118156433105468 2.479835319519043,-1.5462899208068848 l1.7247879028320312,-1.6399133682250977 0.1277928352355957,-1.9518619537353517 l-0.628792667388916,-1.9828130722045898 -1.301435661315918,-1.4994747161865234 l-3.411396789550781,-1.4007988929748536 -2.9282094955444338,-0.0575802743434906 l-3.143963623046875,0.9970869064331055 -2.8791549682617186,1.8087133407592773 l-2.8665092468261717,2.8693933486938477 -2.3564165115356444,3.4931007385253907 l-1.5365203857421874,3.5782371520996095 -0.7916419029235839,4.069358444213867 l0.0377675712108612,4.279542541503906 -0.2444218158721924,4.1982269287109375 l-0.443511438369751,3.1256113052368164 0.18059074878692627,2.242962646484375 l0.6936636924743652,1.3962573051452636 0.4906459331512451,-0.31032633781433105 l1.5986051559448242,-0.7073586463928223 1.9727725982666016,-2.08062629699707 l2.633128356933594,-2.5125190734863283 2.2503543853759767,-2.824893760681152 m-3.487430191040039,-10.852239990234375 l-0.03212195634841919,-0.22432379722595214 0.5846683502197265,-0.26628329753875735 l1.9701313018798827,-0.3250442028045654 3.306753158569336,-0.7630817413330078 m21.70792999267578,-0.47449846267700196 l-0.9874311447143554,0.7316293716430664 -0.9753631591796875,1.8517362594604492 l-1.9029083251953125,2.173817825317383 -2.3184478759765623,2.866010856628418 l-2.3886188507080077,3.4874645233154298 -2.544601249694824,2.822714614868164 l-1.8341577529907227,2.4905582427978517 -0.9196374893188477,1.3423242568969727 l-0.25722100734710696,-0.3376700639724731 0.48211965560913084,-0.33465168476104734 l1.7458719253540038,-1.8145759582519532 3.461609649658203,-2.136166000366211 l3.0933483123779295,-1.9557395935058595 2.9388492584228514,-1.3788440704345704 l2.613920211791992,-0.03765035271644592 2.123562049865723,0.6380860328674316 l0.0731856107711792,1.2746796607971191 -0.21962907314300537,2.455556869506836 l-1.053669548034668,1.9822107315063477 -0.6743911743164063,1.2327085494995118 l-0.09232861399650574,0.21841347217559814 0.10739277601242066,-0.4879467010498047 l0.25887017250061034,-1.6580022811889648 1.7797325134277344,-2.5886558532714843 m10.7006103515625,-3.544403076171875 l-0.16147130727767944,0.45018730163574217 0.64287428855896,2.476578712463379 l0.12807000875473024,4.990545272827148 -0.6343956470489502,7.022921752929688 l-0.7703027248382568,6.567622375488281 -1.2500267028808594,5.158408355712891 l-1.4294876098632812,3.1505966186523438 -0.8970821380615235,1.407702350616455 m27.680059814453124,-35.362237548828126 l-0.6924220085144043,0.022558911144733428 -0.5858213901519775,-0.1685061573982239 l-0.960234260559082,0.30421173572540283 -1.7507026672363282,0.7759472846984863 l-1.6287094116210938,1.5218454360961915 -1.4607959747314454,2.336073875427246 l-1.0620347023010255,2.4852867126464844 0.9443648338317872,3.590323257446289 l0.5679679870605469,2.7427406311035156 1.119062328338623,2.349439239501953 l1.7369457244873048,1.5018436431884765 1.754220199584961,1.101486587524414 l1.406393051147461,0.18413643836975097 0.9713423728942872,-0.1089353084564209 l0.45122737884521485,-0.8306402206420899 0.24229462146759034,-1.9698768615722657 l-0.8345827102661133,-3.0132965087890624 -0.93667573928833,-2.7289501190185548 l-1.5332654953002929,-2.5822221755981447 -2.090275764465332,-1.8864952087402345 l-2.0426042556762694,-0.4972082138061523 -2.2642690658569338,-0.024817004799842834 l-1.863250732421875,0.4824030876159668 -0.5384314060211182,1.3098267555236816 l-0.18599817752838135,0.32475087642669676 0.3985584735870361,0.05819201469421387 l1.5349794387817384,-0.008299624919891358 2.7753047943115234,-1.1521556854248047 l3.5005119323730467,-1.8136497497558595 4.059428405761719,-2.1742670059204103 l3.98980712890625,-1.9873031616210937 3.732242965698242,-0.8181573867797851 l2.893370819091797,-0.30175104141235354 1.9434768676757812,-0.40255165100097656 l1.7313575744628906,0.02646614909172058 1.9419610977172852,-0.1674262523651123 m14.449998474121093,9.968596649169921 l-0.6320754051208496,-0.24744620323181152 -0.8943822860717774,-0.04488957226276398 l-1.4046638488769532,-0.2514520168304443 -2.470053863525391,-0.6349856853485107 l-2.142704200744629,0.2876768112182617 -2.9443389892578127,0.9009441375732422 l-2.806861686706543,1.26281795501709 -2.678767967224121,1.8596477508544922 l-1.1342715263366698,2.265780448913574 -1.4341864585876465,1.0308053970336915 l0.18908023834228516,0.74888916015625 0.9003437995910645,-0.24269440174102783 l2.328887176513672,-0.9737156867980957 2.9857227325439455,-2.1241636276245117 l3.683135223388672,-3.4877296447753907 3.6782463073730467,-4.004354095458984 l3.2364009857177733,-4.125696182250977 2.643803596496582,-4.1744121551513675 l1.3213435173034669,-3.061896324157715 0.5198187351226806,-1.2778941154479981 l-0.3588156223297119,-0.3509145975112915 -1.3113938331604005,0.2497659683227539 l-0.8097322463989258,1.4951630592346192 -1.0237449645996093,2.7034585952758787 l-0.8153175354003906,3.6917236328125 -0.5181588172912598,3.980255889892578 l0.12601327896118164,3.932520294189453 0.2558912992477417,3.7805633544921875 l0.6248956680297851,3.095117378234863 1.021985912322998,1.8193157196044922 l1.6591926574707032,0.9677770614624024 2.1532201766967773,-0.27882363796234133 m26.948272705078125,-21.368441772460937 l-1.0514079093933106,0.08165308237075805 -0.6319384574890137,0.7851402282714843 l-2.6098827362060546,1.365542221069336 -2.4055973052978517,1.763865089416504 l-2.163096618652344,2.4435752868652343 -1.3913006782531738,1.974966812133789 l-0.09876006841659546,1.2390239715576172 0.9185433387756348,0.6614226341247559 l2.357410430908203,0.5089871406555175 2.8621919631958006,0.3827510356903076 l1.9091476440429687,0.43803997039794923 1.2089746475219727,0.8283897399902344 l0.2680150270462036,0.8205865859985352 -0.8313676834106445,1.2021453857421875 l-2.0186237335205077,1.62927303314209 -3.99154052734375,1.6485797882080078 l-3.318745803833008,1.3671987533569336 -2.7202062606811523,0.4009791374206543 " fill="none" stroke="black" stroke-width="1" /></svg>