<?xml version="1.0" encoding="utf-8" ?>
<svg baseProfile="full" height="98.23947473458556" version="1.1" width="461.3124308942718" xmlns="http://www.w3.org/2000/svg" xmlns:ev="http://www.w3.org/2001/xml-events" xmlns:xlink="http://www.w3.org/1999/xlink"><defs /><rect fill="white" height="98.23947473458556" width="461.3124308942718" x="0" y="0" /><path d="M26.10653264899003,50.623140628792754 m-1.1065326489900287,-7.701235319438734 l0.07738856265419408,0.02422400524741725 -0.0002488179475461182,-0.10779074618690893 l0.01330967482767607,-0.18661329620762876 m8.136185495476974,10.111679077148438 l-0.2310546824806615,0.13853783356515983 0.07755361732683684,0.04897424421812359 l-0.3858696285047029,1.2503419173391241 0.06923015494095652,1.8325679176732113 l-0.16928980225010923,1.961865876850329 -0.05382225387974789,1.9611089606034129 l-0.044182419776916504,2.4195259495785364 -0.4488228245785362,2.68368188958419 l-0.5284924256174188,2.690955312628495 -0.13721852553518196,2.5243654753032483 l-0.21943388487163343,1.549568577816612 0.20186328887939453,1.017447923359118 l0.32437761206375926,0.3971285067106548 0.4180423836959036,-0.25610672800164475 l1.0729517685739618,-0.7747080953497636 m7.166756880910773,-22.13319798519737 l-0.15952774098044947,-0.2310108134621068 -0.07577537235460784,-0.475776521783126 l0.12887293414065712,-0.314137433704577 0.36826073495965256,-0.415044809642591 l0.7472783640811318,-0.7310767424734015 1.2174586245888157,-0.7838496157997533 l2.0200628983347038,-0.8325845316836709 2.602263199655633,-0.37697917536685344 l2.4092186375668176,-0.06583349328292043 2.6367400319952714,0.43591027510793584 l1.7103689093338816,0.5882739016884252 1.2836787575169613,0.7698761287488436 l0.7289964776290091,1.0132930153294613 -0.24854514473362974,0.8934390419407895 l-0.5712082009566458,1.1213301608436985 -1.295232471666838,1.3174835004304584 l-1.1691104487368935,1.02242018047132 -0.7561127010144686,0.7094023855108964 l-0.27426441092240184,0.7804702457628752 0.01832926900763261,0.8086642215126439 m6.838205437911184,-7.19903564453125 l-0.5583921231721577,0.14755995650040477 -0.22235052209151418,0.2625773831417686 l-0.33040207310726766,0.9441035421271073 0.0013820914257513849,1.6261606718364514 l0.2932876285753752,1.703106729607833 0.548940056248715,1.940496745862459 l0.5081500003212377,2.0673749823319283 0.6093762548346269,2.0333314192922494 l0.37979203776309367,1.5626198618035567 0.2870097662273206,1.1901036312705593 l-0.19082464669880114,0.5383948275917455 -0.38142706218518707,0.36428556944194596 l-0.5333187203658255,0.17197114542910927 -0.35945832101922287,-0.1954145306035092 l-0.44775752017372533,-0.5059233715659693 -0.34051144750494705,-1.1512972179212069 m-1.8783633583470394,-9.56679976613898 l-0.1765611171722412,-0.3130870116384406 0.3596405230070415,0.2661016112879703 l-0.025691203380885878,-0.049495317434009756 -0.011860927468851992,0.07579099504571211 l0.9057468615080181,0.4332231220446135 1.2708739230507298,-0.46641199212325246 l1.4651987176192434,-0.8503588626259252 1.5347488804867393,-0.7074965928730211 l1.2070976056550677,-0.3983017268933748 1.0522232055664062,-0.1714664760388826 l0.8981397528397409,-0.24418610020687706 0.527850301642167,-0.3294122093602231 l0.4007649170724969,-0.33037539532310084 0.06273270280737626,0.17851375278673673 l-0.0153936084948088,-0.06453966467004073 -0.017871288876784474,-0.20626123327957957 l-0.16556717220105624,-0.2535926668267501 m9.826073094418174,-0.7592765908492239 l-0.21528000580637077,-0.38597255004079717 0.1407872250205592,-0.4855623245239258 l-0.0477590937363474,-0.13941758557369835 -0.302535333131489,-0.2459969771535773 l-0.7092334345767373,-0.17068737431576378 -0.8757204758493524,0.01975559717730472 l-1.1221731085526316,0.1435374711689196 -1.0204497889468545,0.5702917701319644 l-0.7422470293546978,0.7342637212652909 -0.7402922479729903,0.6979332472148695 l-0.6465753254137541,0.6674094953035054 -0.5253283350091231,0.8776710911800987 l-0.4693364595112048,1.2038853293971012 -0.3202712159407766,1.132539849532278 l-0.4817176618074116,1.2309260117380243 -0.2856115040026213,0.7393972999171207 l-0.5675164774844521,0.7194977810508326 0.21872123919035258,0.47804802342465047 l0.4925292165655839,0.41878326315628855 0.6935781679655376,0.007806165437949331 l1.1796068894235712,-0.15373256331995913 0.911841442710475,-0.6170801865427118 l1.121541976928711,-0.5996979663246557 1.1859712098774158,-1.3419388218929893 l1.3644800688091077,-1.598979347630551 1.4006834532085217,-1.3137675837466591 l1.0639551062332957,-1.157425930625514 0.9286572305779708,-1.2556264776932566 m-2.322967529296875,1.8105320177580182 l-0.33529409609342875,0.9122990056088096 -0.2526777919970061,1.318003403513055 l0.12397437346609015,1.4961704454923932 0.25464514682167455,1.1472532372725637 l0.4682838038394326,0.8427350897538034 0.7084848504317435,0.4142419413516396 l0.9723034908896998,0.07487502850984272 1.2199582551655017,-0.1374159486670243 m5.488421389931126,-1.2060002778705798 l-0.03875522550783659,-0.2365315838863975 0.08129796228910748,0.10840104755602385 l0.11427957133242958,0.1870767442803634 0.047230965212771765,-0.11069059371948242 l-0.036013393025649224,-0.17197607692919278 0.010958757055433173,-0.44000459972180817 l0.36770607295789215,-0.6924301950555098 0.8430645591334293,-0.7980096214695981 m28.053665964226973,-9.686521028217516 l-0.26050384421097605,0.07416079546275892 -0.3205948126943488,-0.08004802151730186 l-0.6864390122263055,-0.32604955372057465 -0.7409402445742959,-0.059508718942341055 l-0.8791630393580386,0.17498059021799187 -1.3261292106226872,0.6419567308927837 l-1.508229506643195,0.8158970883018092 -1.4070358276367188,1.3534075084485506 l-1.2008214247854132,1.453110644691869 -1.0390409168444181,1.8441282573499178 l-0.29865794432790654,1.949683942292866 -0.06318712861914384,1.5479106903076172 l0.5519839336997584,1.4346745139674137 0.9419729333174857,1.0649618851511102 l1.193145149632504,0.4874773527446546 1.2414394177888568,-0.04928151243611386 l1.4369183590537624,-0.19962869192424573 1.529484698646947,-0.7286440196790194 l1.4754615582917865,-1.2230068006013568 1.4242969312165912,-1.5800026341488487 l1.4354239012065686,-1.5786399841308594 1.0866551650197882,-1.6526052575362356 l1.0703604848761308,-1.5768394470214844 0.7814784802888569,-1.4185981750488281 l0.6205517618279708,-0.6926224357203433 0.21169190657766243,-0.19445429350200452 l0.055273859124434624,0.09716338232943886 -0.07046094066218327,0.08240611302225213 l-0.4777955506977282,0.7321121316207083 -0.5468604941117136,1.4584844488846629 l-0.4907278763620477,1.9507594861482318 -0.8612225181178043,1.9508879812140214 l-0.43965384834691096,2.0884572079307153 0.09069052495454487,1.6080148596512644 l0.5348371204576994,1.1683488143117804 1.0265966716565584,0.46553456155877365 l1.4481632834986637,-0.024763766087983783 1.5513079793829667,-0.8533606278268915 l1.7830374868292558,-1.2663910514429997 1.7382928948653371,-1.8788787440249795 m17.63129947060033,-13.045765926963405 l-0.38835676092850535,-0.4906518333836606 -0.3726001538728413,-0.7245613399304842 l-0.33038028917814555,-0.47608184814453125 -0.6170243213051244,-0.3928325050755551 l-1.125754205804122,-0.36661991320158305 -1.2539804358231394,0.015434365523488898 l-1.3983707427978516,0.41482011895430715 -1.8027205216257196,0.7642156701338919 l-1.7174778988486843,1.374745017603824 -1.5071328815660978,1.6129176491185238 l-1.2627983093261719,1.7871212206388776 -0.7617837002402857,2.040397041722348 l-0.7167313224390933,1.9512722617701481 -0.325662562721654,1.8246082506681744 l-0.06237273467214484,1.1974376879240338 0.6069891076338919,0.7403662330225894 l0.594675666407535,0.041742487957603054 0.9439713327508223,-0.08692508622219688 l0.9580963536312705,-0.7464787834569028 1.4641057064658718,-1.2331667448344983 l1.4995506688168174,-1.6628868705347966 1.4866442429391962,-1.6861343383789062 l1.124713094610917,-1.7346737510279606 1.068656419452868,-1.4653819234747636 l0.6716456162302118,-1.0076257806075246 0.29779022618343953,-0.7708229265714946 l0.14787646343833522,-0.21472381290636564 -0.08084848052576969,-0.019069841033534 l-0.22500065753334447,0.03623934168564646 -0.27148778815018504,0.4826670696860866 l-0.6375975859792609,1.1530175460012335 -0.7708223744442588,1.3523964128996198 l-0.3939472750613564,1.7519703915244655 -0.47990432538484273,1.4514615912186473 l-0.16634082794189453,1.5185848035310443 -0.319634337174265,0.9650172183388158 l0.35224638487163346,0.6110252079210783 0.3953977384065327,0.12538867247732063 l0.6115977638646176,-0.18471514551263107 1.4271983096474095,-0.6785110674406353 m6.191617062217311,-7.055228785464638 l0.04578884965495059,-0.04577468884618659 0.03835847816969219,-0.02909409058721442 l0.08295627016770213,0.065315748515882 -0.08775433741117779,0.09770938597227398 l-0.21783291666131271,0.4622138675890471 -0.21728744004902087,1.0651399712813527 l-0.38856491289640727,1.4000613563939144 -0.4966805106715152,1.4202021548622532 l-0.2969649967394377,1.6352537054764598 -0.42774140207391037,1.5219757682398747 l-0.48349330299778986,1.0468877491198088 -0.20025278392590976,0.8452936473645662 l-0.0008432910238441668,0.07599538878390663 0.06727531709169086,-0.06258702905554521 l-0.03048759698867798,-0.37643706171136154 0.5104516179938066,-1.0333872343364514 l0.6864686263234991,-1.6411792353579873 0.9925791087903475,-1.3117618560791016 l1.23426648190147,-1.2724932620399876 1.1692433608205695,-1.0888154883133738 l1.0238458733809621,-0.7224950790405273 0.65121118645919,-0.5143032073974609 l0.5860572614167866,0.17758233923661082 0.3914060592651367,0.5480121311388517 l-0.05939262164266486,1.2698195608038652 -0.4300424676192434,1.623801783511513 l-0.3036357227124666,1.5425087778191817 -0.34686603044208725,1.0491072002210116 l-0.008981863919057344,0.8339034130698756 0.2894534562763415,0.3781335981268632 l0.5097285822818154,-0.09142433342180754 1.0245716697291325,-0.5702942798012182 l1.6169762862356085,-1.2069149017333984 1.7731700696443256,-1.0837287902832031 l1.0354945534153988,-0.5452745839169151 0.5283848611932052,-0.4475607621042352 m17.248350444592926,-13.9691017552426 l0.13637896587974147,-0.12856296489113256 -0.0695571648447137,-0.06451493187954552 l0.12624212315208033,0.39308575579994603 -0.3040391018516139,1.2319931231046979 l-0.5152557272660104,1.5977341501336348 -2.4681454708701684,6.5611122532894735 l-0.9100551605224609,2.9384032801577917 -0.45115089416503906,1.9658403898540295 l-0.5202210576910722,1.035292675620631 0.279917742076673,0.1842075649060701 l0.6745477977551912,-0.4407908289056075 0.7020958348324424,-1.7034127084832442 l1.0748225764224404,-2.151967500385485 4.363453915244655,-6.588129143965872 l0.6965302919086657,-1.1821387441534745 0.9008615393387643,-0.3508798699629934 l0.9185170625385485,0.37701277983816045 0.48808946107563217,0.9786949157714844 l0.13081645965576172,1.4247011887399774 -0.5822149075959858,1.8117218017578125 l-1.23291015625,2.064518978721217 -2.173870688990543,2.302511315596731 l-1.5950861479106702,2.025461096512644 -1.6614267449629934,1.186797493382504 l-0.47940846493369654,0.6730024438155325 0.03605186625530845,-0.21236494967811986 l0.6875323747333727,-0.7504739761352539 m14.86014757658306,-4.13176165129009 l-0.8728538312410054,-0.3669269461380808 -1.4340274208470394,-0.3625260403281764 l-1.800450375205592,-0.18008597273575633 -1.6324981890226666,0.20617610529849403 l-1.5097762659976357,0.41074102803280477 -1.2748115941097862,0.5730487923873099 l-1.1287386040938527,1.0354537963867188 -0.8069399783485814,1.076677222000925 l-0.7984572962710732,1.7106170654296875 -0.0732735646398444,1.5263119747764187 l0.3465968935113204,0.7384400618703741 0.9589783517937911,0.44088770213880035 l1.4343984503495066,0.25573542243555974 1.7157699183413857,-0.4443106902273078 l2.0432598716334294,-1.070602718152498 1.8664831864206415,-1.3419655247738487 l1.6200205150403475,-1.1106158808657998 0.9511875353361431,-0.7563983013755397 l-0.06532688517319529,-0.2625032726087068 -0.03267187193820351,-0.13190693604318718 l-0.18257803665964226,-0.10364777790872674 -0.012628161593487388,0.11569971787302118 l-0.27229989202399,0.2786459420856677 -0.10799036527934827,1.3718062952945107 l-0.2744002342224121,1.7238309759842723 -0.22574853897094727,1.5268084877415706 l0.3079792825799239,1.1524118122301603 0.1409731664155659,0.19430444115086606 l0.7830265446713096,0.26444781453985916 1.1299334074321545,-0.49161489386307566 l1.551847959819593,-1.282129588880037 1.746795654296875,-1.889069205836246 l2.2901031092593542,-1.8983383178710938 2.1219084890265214,-1.6011796248586554 l1.2851519333688837,-0.7832766081157484 0.8912412743819388,0.02342117617004796 l0.7262591813739977,0.546859440050627 0.5395420476009971,1.0705610576428866 l0.09241529514915064,1.545188401874743 -0.19835519790649414,1.4100522493061267 l0.05950125895048443,1.238760797600997 0.01220853234592237,0.43600378538432877 l0.4898764459710372,0.12304388849358809 0.9285126736289576,-0.49685970105622945 l1.1997331318102384,-0.9198060286672491 1.3206261082699424,-1.2417247169896175 l1.441499910856548,-0.7367365987677323 0.912958446301912,-0.2009763466684442 l0.6238761701081929,0.34660402097200094 0.4548098915501645,0.4665548424971731 l0.5490661922254061,0.8569901115015933 0.43374282435366984,0.7528969614129317 m7.288937217310855,-4.00424515573602 l-0.6336847606458162,0.05156334764079044 -1.3648363414563631,0.22819320779097707 l-2.3945842542146383,1.1405250147769326 -1.6990452816611843,2.2276675575657894 l-0.8789337559750205,1.8573706777472245 0.17073256091067665,0.6728707363730982 l0.5799742748862818,-0.0006198175251483917 1.3250314812911184,-0.4892396424946032 m7.886743645918997,-14.813119988692435 l-0.29701478857743113,0.3384624029460706 -0.3482884858783923,0.19023732135170385 l-0.09732335492184288,0.7774931255139803 -0.15286247353804738,1.2150715275814659 l-0.069191480937757,1.8295346310264187 -0.02584312307207208,2.2965140091745475 l0.11434459686279297,1.9505942495245683 0.48965700049149363,1.8863143920898438 l0.34337319825824936,1.1167869567871094 0.6924633226896587,1.0852285686292147 l0.5724892365305048,0.24702978134155273 0.43758236734490646,0.2539967486732884 m25.512782046669408,-11.606152183131167 l-0.013375426593579744,-0.7269324252479955 -0.15869700281243576,-1.364268051950555 l-0.32453787954230057,-1.4836711883544922 -0.5964940723619963,-1.2317588203831722 l-0.6373138929668226,-1.0472944159256785 -0.37943478634482936,-0.3437619962190327 l-0.3135229411878084,0.038552698336149514 0.36129058034796463,0.8125901473195929 l0.02417306209865369,1.6486543354235197 0.2776666691428737,2.5011755290784334 l-0.17636950392472117,2.7277022913882605 -0.37515241221377726,2.7247358623303866 l-0.20754475342599968,3.194394161826686 -0.043280799137918574,2.4208121048776725 l-0.2843141304819207,1.7422509444387335 0.010827771142909401,1.1271839141845703 l0.07310288830807335,0.11325291583412572 0.31451047094244705,-0.040319816062324924 l2.790389211554276,-4.825550280119243 1.4932452753970498,-2.9168100858989514 l1.0628306740208675,-2.134404232627467 0.36489587081106084,-1.5952135387219881 l-0.16589822267231188,-0.8959799314800062 -0.5848674272236071,-0.7329740524291992 l-0.8711965460526315,-0.3540435088308234 -0.6231192036678916,0.017353498621990805 l-0.9755967792711759,0.751334692302503 m7.858733327765214,8.487235621402139 l0.6829071546855726,-0.5739274275930304 0.35374217284353154,-0.5095741874293277 l-0.31614381388614055,-0.6879173078035054 -0.5104494596782484,-0.3754950071635999 l-0.9904196889776933,-0.3129871268021433 -1.0120862659655119,0.28462153986880656 l-1.1500944840280634,0.6120307821976511 -0.9545896429764597,0.8282426532946134 l-0.3223417934618498,1.1616234026457135 0.03839862660357827,0.7213730561105829 l0.45509458843030426,0.32264245183844315 0.8065072109824732,0.18459025182222066 l1.164902636879369,-0.3394395175733064 1.0816695564671566,-0.4393688503064607 l0.8476823505602384,-0.9030269823576275 0.7370004653930664,-1.0477485656738281 l0.3148093474538703,-0.9602448312859786 -0.11007436953092876,-0.6435778768439042 l-0.012451829094635812,-0.1367972022608707 -0.10613691179375899,-0.06942031258030941 l-0.10423010901400917,0.36601395356027705 -0.3258821587813528,1.0177370372571444 l-0.5016423275596217,1.1072337501927425 -0.3053052299901059,0.8066068950452303 l0.17547057804308439,0.2895692022223222 0.1628565286335192,-0.06961879604741146 l0.8145691219129061,-0.4283117997018914 1.0441879473234479,-0.5440881628739206 l1.0266044014378597,-0.17263988444679662 0.6799572392513877,0.07489072649102461 l0.9096644552130448,0.7386858086836966 0.6024336563913446,0.8196442252711246 l0.031156655989195172,0.746581328542609 -0.027755872199409885,0.9182510375976562 l-0.15384029087267423,0.38404775920667145 -0.0019911598218114754,0.030827224254608154 l0.06194748376545153,-0.202655365592555 -0.0540503137990048,-0.6742453324167352 l0.17856019421627647,-0.9730463529887953 0.3726552160162675,-1.1473624580784847 l0.5400141163876182,-0.7577896118164062 0.9059251484118009,-0.6024520271702817 l0.979323336952611,-0.4508576644094367 1.361414859169408,-0.15983280382658305 m18.627317729749176,-4.230439437063117 l-0.17873743960731908,-0.125482860364412 -0.013861226408105148,-0.19537718672501414 l-0.02074360690618816,-0.03168291167209023 -0.1221509481731214,-0.14675945984689812 l-0.1748170350727282,0.6823564328645405 0.020525375479146055,1.7636706703587581 l0.106144716865138,2.6432157817639803 -0.01000280521417919,2.384871633429276 l0.2807233459071109,2.4630853753340873 -0.01954035539376108,1.4235210418701172 l0.17295604003103157,0.22984467054668226 0.036602333972328586,-0.24586747822008634 l0.04154657062731291,-0.977645572863127 -0.12681678721779271,-2.1870342053865133 l-0.22018023541099147,-2.0846499392860816 -0.4419341840242085,-0.9934434388813219 l-0.216281815579063,-0.7180522115607011 0.02251320449929488,-0.023028235686452764 l0.14159698235361198,-0.06434548528570878 0.4602692754645097,0.194975451419228 l1.271697395726254,0.14268328014173007 1.4382364373458059,0.2958522595857319 l1.3999262358012952,0.13098966447930588 1.392011140522204,0.5094570862619501 l1.0617318404348273,0.4958203466315019 0.7035135469938579,0.7185851147300318 l0.02313691063931114,0.4874046727230674 -0.7196233147069028,0.1981049085918226 l-0.7915418524491159,1.1006289030376233 -1.0238255952533923,0.7046293459440532 l-0.7893164785284745,0.4811403374922903 -0.4959956721255654,0.29541279140271637 l-0.022480966229187816,0.0299133627038253 0.15169924183895714,-0.12500835719861483 l0.6144539682488692,-0.41789200431422185 0.8077260569522255,-1.0383669200696444 l0.9975883082339638,-0.8965607693320826 1.1638666454114412,-1.4768598456131785 l1.02013477526213,-1.2565015491686369 0.8169981303967928,-0.3877212875767758 l0.2243840819910953,-0.1323366416128058 0.10229290159125078,0.3636711522152549 l-0.03642005669443231,0.9702099247982627 -0.19250404207330002,1.360160325702868 l0.08192613877748188,1.4294517918636924 0.1659196176026997,0.4364131626329924 l0.7412477794446444,0.36152008960121557 1.0007460744757402,-0.2749466143156353 l1.5671483090049343,-0.8090788188733553 1.6856936404579563,-1.7370942768297697 l1.6058862585770457,-1.8849983215332031 1.3416074451647306,-1.4610726205926192 l0.8069422872442948,-0.7366757141916376 0.07942756853605572,-0.0011235873558019336 l-0.04063865071848819,0.4926861712807103 -0.17975862402664988,0.5975845738461143 l-0.19145695786727102,0.8974581266704359 -0.06149730556889584,1.3128170214201276 l-0.2539877138639751,0.8369493986430921 -0.22391700744628906,0.7522994593570107 l0.07679641246795654,0.5337856192337839 0.22939727180882505,0.29071117702283356 l0.1058425652353387,-0.08509967201634457 0.1565451371042352,0.06634518974705746 m0.7134691539563631,-12.25541767321135 l-0.13693860957497045,-0.26298683568050985 0.05901726296073512,-0.011380452074502645 l0.15004865746749074,0.269630934062757 0.24469348003989772,0.21615992094341077 l0.005870598711465534,-0.09000618206827264 0.18462868740684107,0.31779341948659795 l0.30082966151990387,0.29767317520944697 0.15099865511844032,0.14140671177914269 m3.490689327842311,3.297092638517681 l-0.028268942707463315,0.058656077635915654 0.14321315915961014,0.5092608803196957 l0.07923748618678043,0.6281766891479492 -0.09045061312223736,0.8285533503482216 l0.05344320598401522,1.5224171688682155 0.036725332862452456,1.6661172164113898 l-0.13665151596069336,1.631890949450041 -0.09138565941860802,1.3074461284436678 l-0.03662370066893728,0.6203372353001645 0.36528567263954564,0.23951081225746557 l0.44887848904258326,-0.655812614842465 0.42096587231284693,-1.6747912356728 l0.7400830921373869,-2.2501048037880347 0.9628893199719881,-1.4217900727924548 l0.6607127942537007,-0.8984983343827097 0.553632284465589,-0.08123346378928736 l0.2738001723038523,0.24621200561523438 0.1951510655252557,0.8505252035040605 l0.21382361964175575,1.8592645745528371 -0.027818055529343456,1.5334924396715666 l0.12834472405283073,1.388456244217722 0.5613211079647666,0.7555312106483861 l0.7113456224140368,0.02426655041544061 1.0505787698846114,-1.069913763748972 l1.505753567344264,-1.46357546354595 1.868318658126028,-1.6963836268374795 l1.3398432480661493,-1.7293466266832853 0.7742656908537212,-1.0754521018580387 l0.06688808767419112,-0.5083772257754677 -0.3843235216642681,-0.3760637735065661 l-0.707064478020919,0.20013509298625745 -0.9158232839483964,1.0435181667930202 l-0.9988640233090049,1.4958034314607318 -0.7926640761526007,1.9692730150724713 l-0.1557682940834447,1.2470114858526933 0.5743247082358912,0.6598884180972451 l1.0031207235235917,-0.052678308988872324 m6.986675061677632,-13.976980108963815 l-0.05156799994016949,0.085813654096503 -0.042998520951522026,0.24077980141890676 l-0.3684460489373458,1.3148982399388363 -0.22236610713757968,2.1116114164653577 l-0.18030455237940737,2.0840937965794613 -0.10551727445502031,1.4248135215357731 l0.5254895059685958,1.840476588199013 0.38382156271683543,1.4042531063682155 l0.6667305293836092,1.140749178434673 0.800171601144891,0.5728569030761719 l1.0823396381578947,0.20363143870705053 1.5047620472155119,-0.3275730233443411 l1.4784351148103412,-1.2747875012849506 m1.822216837029708,-7.682472630550987 l-0.48087099978798314,0.16946803896050705 -0.33978748321533203,0.8393736889487818 l-0.4119603257430227,0.745513916015625 -0.4431934356689453,1.3761397913882607 l-0.45014075229042455,1.460246437474301 -0.3361905750475432,1.684992137708162 l0.017844815003244502,1.3919212943629216 0.2684993241962634,0.8783376593338815 l0.688214803996839,0.26878828751413447 0.6073982841090152,-0.750959597135845 l1.0717556602076481,-0.9895001461631373 1.0525060954846834,-1.8360447130705182 l1.0322277671412419,-2.1553734227230676 0.7872328507272821,-1.9677878931949013 l0.6624482807360197,-1.245034368414628 0.05676463403199848,-0.4399306648655942 l0.0646500963913767,0.05176064842625668 -0.30480846605802836,0.5701617190712377 l-0.6382499494050679,1.3664514642012746 -0.11560984661704615,2.7642806203741777 l-0.19475634474503367,1.8713350797954358 0.48067665100097656,1.4472061960320723 l0.5953933816207083,0.075568814026682 1.3951543506823088,-0.3020504399349815 l1.2694405003597862,-1.3688668702778064 1.435106679012901,-1.822137531481291 l1.475033207943565,-1.5678291320800781 0.8017925965158563,-1.798027239347759 l0.5701035449379369,-1.1034372229325144 0.03545940549750077,-0.15495546240555613 l-0.13943758763765035,0.1967953882719341 -0.4153495085866828,0.4191191321925113 l-0.810375263816432,0.6492752777902704 -0.28154217569451584,1.0562213094610917 l-0.0931947858710038,1.029393145912572 0.22083932475039833,0.9253497876619038 l0.6744782297234786,1.2146984903435958 1.127151188097502,0.8315237446835166 l0.9652637682462993,-0.04670183909566779 1.3721541354530735,-0.4734535719219007 m2.2983151486045434,-10.12309345446135 l-0.17408303210609838,0.04535521017877679 -0.03186906952607004,0.6363848134091026 l-0.018407520494962994,1.4080289539537931 0.07362976827119526,1.8331965396278782 l-0.07785398081729286,1.6663348549290706 0.20999031317861458,1.7074193452533923 l0.16640422218724302,1.2768227426629317 0.09325871342106869,0.5496041147332442 l0.17713184105722526,0.27830196681775543 0.11785563669706646,-0.1024767097673918 l0.2751932897065815,-0.457617207577354 0.43666945005718033,-1.6510631159732216 l1.1252614071494655,-1.8650906211451481 1.250187924033717,-1.7790318539268093 l1.4545947627017373,-1.1490908171001233 0.8955630252235814,-1.069230129844264 m26.98436215049342,-1.5790285813181024 l-0.1504824663463392,-0.02281494046512403 0.04155398042578446,0.13340947502537778 l-0.7558027568616366,-0.10026897254743074 -0.7762018504895662,0.3602949443616365 l-1.019027408800627,0.7533241071199116 -0.7472420742637232,1.4960405450118215 l-0.7816497401187295,1.8569884049265009 -0.48263805790951375,1.9859954432437295 l-0.33831995411923055,1.1342164089805202 0.2880319545143529,0.5085050683272513 l0.525467973006399,-0.14128531907734118 1.2203800803736637,-0.6559695193642064 l1.2859079461348684,-1.157724982813785 0.9067433005885074,-1.3902111053466797 l0.6901217008891859,-1.2328758239746094 0.4572050696925113,-0.6714196456106085 l0.14942964754606547,-0.21850427828337016 -0.1646296601546438,-0.13697223914297005 l0.08649217455010665,0.3851351988943 0.12918551344620555,0.6594618747108861 l0.6439518175627056,1.4636164213481702 0.6615282359876131,0.9833823756167763 l0.7062660016511616,0.7661319531892475 0.617108796772204,0.3818524260269968 l0.5589440998278166,0.01454321491090875 1.0700451700310958,-0.2542361209267064 l0.9118871186908922,-1.3491500051398027 0.9411378157766241,-2.098290292840255 l1.2187518069618626,-1.8134500603926809 0.7524329737613076,-1.8882994400827509 l0.5479933588128341,-1.0596891704358553 0.25349775113557516,-0.11438165212932386 l0.11931809626127544,0.13636645517851176 0.14797245828728928,0.8118968762849507 l-0.17595016328912033,1.289994992707905 0.1229464003914281,2.289288169459293 l0.04862866903606214,2.5943314401726973 0.11014433910972193,2.4224293357447575 l0.4614019895854749,1.5076296956915605 0.818354004307797,0.83289593144467 l0.7744306765104595,0.32542600129780014 0.5873393008583471,-0.5010740882471988 l0.9675768802040502,-0.6730809462697882 m10.540365921823602,-14.294581363075658 l0.3938807939228259,-0.3244339290418123 -0.14967572061639084,-0.05897692002748188 l-0.44559784939414576,0.23717300515425832 -0.8719418174342105,1.0012264251708984 l-0.9777727629009046,1.381730029457494 -1.0791648061651933,1.20163977773566 l-0.660802489832828,1.008848089920847 -0.23665307697496915,0.9180732526277241 l0.2373695875469007,0.6830604954769737 0.8804574263723273,0.8911026402523643 l0.8476763273540296,0.6015450828953793 0.826668990285773,0.3459952505011308 l0.6752701307597914,0.33552305321944387 0.8772584011680201,0.48877429962158203 l0.6671277598330849,0.5524911880493164 0.6475990696957237,0.49167693288702713 l0.2683254041169819,0.34092940782245834 0.3148573072333085,0.251331555215936 l0.13882463856747276,0.5892390200966283 -0.5520041616339433,0.2632514803033126 l-0.5252053110223067,0.6731894643683183 -0.8874902223285875,0.5695093054520456 l-0.8988571166992188,0.28229522705078125 -0.9805052907843339,-0.48473990590948807 l-0.4722623825073242,-0.6013575102153578 -0.4281818992213199,-1.0203856418007298 l-0.30348127766659383,-1.008561887239155 -0.056597571623952764,-0.6566463269685444 m18.506516306023848,-3.185481222052323 l-0.4573125337299548,-0.286729938105533 -0.2372030960886102,-0.08446680244646575 l-0.14401405736019737,-0.047671070224360415 -0.306417189146343,0.05125090009287784 l-0.6320748078195673,0.3252463591726203 -0.5076274871826172,1.2607891685084294 l-0.5560626983642578,1.7072350351434005 -0.4771960910997893,1.7207280209189968 l-0.02207011298129433,1.6537431415758634 0.2937582668505217,1.1239985415810032 l0.493295619362279,0.47534691660027756 0.4623389996980366,-0.07453520047037225 l0.7534232390554327,-0.3148900584170693 0.7532222145482114,-0.6667004635459498 l0.6406527067485609,-0.7704757389269377 0.27835080498143244,-0.9973918513247841 l-0.01348596027022914,-0.9967696541234067 -0.054072091453953794,-0.588268380416067 l-0.2352848303945441,-0.3416069432308799 -0.25160674044960424,-0.31400319149619654 l-0.03894742852763126,-0.11627488387258429 -0.06304927876121119,-0.2777997820000899 l0.4661945041857268,-0.1925535703960218 0.8447635048314145,-0.4125355419359709 l1.1640412180047286,-0.5470759743138364 1.093966333489669,-0.4890980469553094 l0.8634837301153886,-0.14632615290190043 0.6514453386005602,0.26918458938598633 l0.49289311860737045,0.7680504447535464 0.018599863115109895,1.1167202999717312 l-0.07902735158016808,1.317920584427683 -0.06419672464069567,1.3355871501721834 l0.3002551229376542,0.9012013485557154 0.18023468318738436,-0.002131148780647077 l0.5005338568436472,-0.20453272367778577 0.8051729704204359,-0.7921144083926552 l1.1270707782946134,-1.0762787869102077 1.1171035766601562,-0.9762057254188939 l0.9473868922183388,-0.534954171431692 0.8391668922022769,0.01875231140538266 l0.5020050751535516,0.26562871431049545 0.25270098134091024,0.5972864251387747 l0.44098703484786184,1.0230298293264288 0.14898714266325297,0.8732780657316509 l0.813606713947497,1.035141894691869 0.5947915629336709,0.3532421965348093 l1.0107186969957853,0.28599415327373306 0.973344602082905,-0.3281083859895405 l1.1716754311009456,-0.95718042474044 1.312480324193051,-1.0377273559570312 l0.7780812414068925,-1.3981021078009355 0.6781552465338456,-1.2242145538330078 l0.6041764711078844,-0.8295724768387643 -0.2539276323820415,-0.8345019691868832 l-0.18075551484760485,-0.2708960081401624 -0.711837467394377,0.023249601062975432 l-0.7668794330797697,0.66537816900956 -1.0888964000501131,1.1407693561754728 l-0.6820874465139288,1.7892769261410362 -0.24111752761037727,1.9210980063990544 l0.19800803535862974,1.2975367495888157 0.3872821707474558,0.3579611527292352 l0.8660185964483964,0.20764122511211194 0.9662592034590872,-0.24948880546971372 l1.1174434862638776,-0.4901037718120374 1.0210030204371403,-0.7904831233777498 l0.9136454933568051,-0.5735497223703485 0.7655541269402755,-0.37748801080804123 l0.18037743317453483,-0.4434854607833059 0.24743366241455078,-0.2666895264073422 l0.015216617207778128,-0.12571304722836144 -0.04575281080446745,-0.09713485993837055 l-0.24875926971435547,-0.17859514136063426 -0.336871347929302,-0.18769156305413498 l-0.1202980593631142,0.013071804454452112 -0.09658584469243099,0.13339130501998098 l-0.018867538163536472,-0.029972292874988756 0.2554879439504523,0.17836130292792068 l-0.08842662761085912,-0.19235047541166606 -0.10667157173156738,-0.06523524460039641 l0.058570924558137595,0.10763572391710784 -0.1128708186902498,-0.069122314453125 l0.0681892194245991,0.008590237090462133 -0.09737529880122135,-0.13707805934705233 l0.05509563496238307,-0.017174280003497477 0.07740674520793714,0.049004661409478435 l-0.11193360780414782,-0.09376623756007145 0.014760161701001619,-0.02111442622385527 l-0.060144813437210884,-0.07500753904643812 0.06373015202974018,-0.0072082139943775375 l-0.05228475206776669,-0.10208883411005924 -0.07740830747704756,-0.020233102534946642 l0.09487995975895931,-0.02084615669752422 -0.07865274579901445,-0.05604638551410876 l0.07476100168730083,0.010022357890480444 -0.19448109676963404,-0.19855087681820519 l0.10635867871736225,0.022680056722540604 0.08793623196451288,0.01633015275001526 l-0.05987033091093365,0.0037707757008703133 0.031882910352004204,-0.023114386357759174 l0.2854250857704564,0.25464976461310135 -0.38645152041786596,-0.3575389761673777 l0.1974908803638659,0.13762657265914113 -0.005921030515118649,-0.06283000268434223 l0.02162635326385498,-0.06594742599286531 0.13343511129680433,0.08734849879616186 l-0.005037612036654824,0.02244890991010164 -0.0752053699995342,-0.12425450274818822 l0.19064165416516757,0.13280302599856728 -0.1501871159202174,-0.021693944931030273 l-0.16967812337373434,-0.09629526263789127 0.20030084409211812,0.08413194982629073 l0.05065175734068218,0.030938964141042608 0.035069791894210015,-0.04452902706045853 l-0.07385936536287006,0.02137569220442521 0.01217922568321228,-0.03190923991956209 l0.09733970541703074,0.05071831376929032 0.15139493189359965,0.11076327374106959 l-0.2709226859243293,-0.21278956061915347 0.1864175796508789,0.1766458185095536 l0.050077121508748906,0.11227655410766602 -0.14214473021657845,-0.00018489165966840168 l-0.14681169861241392,0.042248431004975974 -0.14595300272891396,-0.19521028117129677 " fill="none" stroke="black" stroke-width="1" /></svg>