<?xml version="1.0" encoding="utf-8" ?>
<svg baseProfile="full" height="159.61657318212096" version="1.1" width="812.1899151561556" xmlns="http://www.w3.org/2000/svg" xmlns:ev="http://www.w3.org/2001/xml-events" xmlns:xlink="http://www.w3.org/1999/xlink"><defs /><rect fill="white" height="159.61657318212096" width="812.1899151561556" x="0" y="0" /><path d="M96.3648143157363,86.58598404843363 m12.295467376708984,-0.5136824607849121 l-0.6689560890197754,0.056255531311035153 -0.93380708694458,0.13541777133941652 l-1.3756721496582032,0.3446492195129395 -1.707010841369629,0.9353946685791016 l-1.5256067276000977,1.6289464950561523 -1.4394697189331054,2.027522659301758 l-0.9060486793518067,2.034947967529297 -0.6784086704254151,1.7889352798461915 l0.30637454986572266,1.414258098602295 0.05223027467727661,0.6055123805999756 l0.4675802707672119,0.23614277839660644 0.5045135021209717,-0.7102968692779541 l1.2522783279418945,-0.6767239570617676 1.6926336288452148,-1.7917457580566407 l2.1189109802246096,-1.9624387741088867 2.213058280944824,-1.3844209671020509 l1.4333586692810059,-1.210226821899414 0.693731689453125,-0.24587535858154297 l0.7517276287078858,0.6491293430328369 -0.016127608716487885,1.052980613708496 l-0.18620188236236573,1.4728017807006837 0.5175597190856933,1.7452404022216796 l0.6594877243041992,1.0915748596191406 0.8280909538269043,0.7276063919067383 l1.227692222595215,0.3019475698471069 1.3598705291748048,-0.23970255851745606 l1.8601991653442382,-0.5408078193664551 2.469779205322266,-1.37509765625 m-94.63204956054688,-24.339450073242187 l0.24112961292266846,-0.2446207046508789 -0.01537521779537201,-0.3056999444961548 l-0.21269094944000244,-0.7186727046966552 0.6629798412322998,-0.42115030288696287 l0.3005862236022949,-0.07811156511306763 0.018137164413928986,-0.17291568517684935 l0.09457783699035645,0.25344529151916506 0.17939956188201905,-0.17118313312530517 l-0.29910717010498045,-0.6596382141113282 0.14862504005432128,-0.22713127136230468 l0.349528431892395,-0.561942195892334 0.5158915519714355,-0.796360445022583 m46.072689819335935,38.950634765625 l0.61379976272583,0.6694584846496582 -0.12945348024368286,-0.43111319541931153 l1.1248506546020507,-1.2500055313110352 1.5283223152160645,-2.4512187957763674 l2.0492523193359373,-3.6612545013427735 2.241693115234375,-3.64196662902832 l1.988121795654297,-4.379241943359375 1.721507453918457,-4.732160186767578 l1.5994874954223632,-4.116107940673828 0.9272302627563477,-3.7313301086425783 l0.778715991973877,-2.457086181640625 -0.0041072312742471695,-1.8594085693359375 l-0.4743180751800537,-0.4478592395782471 -0.6066892147064209,-0.35643486976623534 l0.018801896274089812,0.4821725368499756 -0.32612359523773193,0.6949427127838135 l-0.09665946960449219,2.8202846527099608 0.06915289759635926,3.3651588439941404 l0.16218199729919433,4.303368377685547 -0.10835139751434326,4.010646057128906 l0.20125083923339843,3.8800159454345704 0.4589828968048096,3.325605010986328 l0.7003879070281982,3.548796463012695 -0.03880937695503235,2.4391246795654298 l0.7406332969665528,1.7063911437988282 -0.29133119583129885,0.22825148105621337 l0.08091800808906555,0.13529644012451172 0.31243152618408204,0.36382312774658204 l0.6134395599365234,0.22783424854278564 1.1853341102600097,0.4310780048370361 l0.6558437824249268,-0.7410663604736328 1.2826958656311036,-0.37499122619628905 l0.9192460060119629,-2.1394058227539063 2.049116325378418,-2.07952880859375 l1.304548740386963,-3.629960632324219 1.7798753738403321,-3.2361732482910157 l1.1264362335205078,-4.032818603515625 1.343416404724121,-3.990017318725586 l0.8984437942504883,-3.0053768157958984 0.6957785606384277,-1.6763355255126953 l0.1429394006729126,-0.7858250141143799 -0.27849788665771485,-0.02615392804145813 l0.1662643074989319,0.3048714637756348 -0.5311168670654297,0.15481798648834227 l0.1816469669342041,1.770242691040039 -0.2921931743621826,3.0566099166870115 l-0.26785984039306643,3.6424137115478517 0.15154927968978882,3.5279621124267577 l0.2750903606414795,2.547763633728027 0.2515177488327026,1.291689109802246 l0.745611572265625,0.537569808959961 0.721762752532959,-0.06954398155212402 l0.8117225646972657,-0.12827534675598146 0.4504502296447754,-0.9121296882629395 l0.7404468536376954,-1.6096384048461914 0.7843827724456787,-1.8428073883056642 l1.1546889305114747,-1.7279909133911133 1.105057716369629,-0.6702843189239502 l0.23401978015899658,-0.001578819379210472 -0.2883620262145996,-0.35946083068847656 l0.23639347553253173,0.21074266433715821 0.16506919860839844,0.4109799385070801 m6.565155792236328,7.657985687255859 l-0.617626428604126,1.4296416282653808 0.4403432846069336,1.8449535369873047 l0.7117753505706788,0.5380230903625488 0.8565789222717285,0.14656946659088135 l1.0139222145080566,-0.8157155990600586 1.121942901611328,-1.240121078491211 l0.9846368789672851,-1.0327797889709474 0.7523836135864258,-1.7028749465942383 l-0.21939306259155272,-2.045376014709473 0.22556543350219727,-1.024744987487793 l-0.3530001640319824,-0.7233161449432373 -0.6518342018127441,-0.5251959800720215 l-0.519551944732666,-0.15780599117279054 -0.3093224763870239,0.2680962562561035 l-0.04148124158382416,-0.11234277486801147 0.23388128280639647,-0.03642389178276062 l0.9265097618103028,0.30118570327758787 1.5665756225585938,0.0014849558472633361 l1.944207000732422,-0.3458876371383667 2.4413263320922853,-0.9543830871582031 l3.2031654357910155,-0.32890753746032714 3.2163219451904297,-0.7386895179748535 l2.550285530090332,-1.0387744903564453 2.2575111389160156,-0.7833164215087891 l1.0983005523681642,-0.962514591217041 0.9170180320739746,-0.2529618501663208 l0.036674851179122926,0.12200268507003784 -0.5633347034454346,-0.07153326272964478 l-0.8781740188598632,0.5765798091888428 -1.4417783737182617,1.2910907745361329 l-1.5333982467651368,1.9313154220581055 -1.1492643356323242,2.7085807800292967 l-0.7427709579467774,1.9764768600463867 -0.3806757926940918,1.8296833038330078 l0.2669651746749878,1.027859592437744 1.03873291015625,0.6843506813049316 l0.9514894485473633,-0.15462286472320558 1.2162668228149414,-0.6054405689239502 l1.5643945693969727,-0.9743939399719238 1.3206083297729492,-1.589775848388672 l0.906882381439209,-1.7608522415161132 0.7993647575378418,-1.7685510635375976 l0.40799694061279296,-1.5814605712890626 0.5140351772308349,-1.167638397216797 l0.5917227745056153,-1.1250621795654296 0.40306477546691893,-1.0398889541625977 l0.6295322418212891,-0.9252212524414063 0.9521010398864747,-0.8496236801147461 l1.1302045822143554,-0.8959809303283691 1.6446857452392578,0.1288740873336792 l1.9134771347045898,0.032141342759132385 1.7399116516113282,-0.1907947540283203 l1.878502655029297,0.06381580233573914 1.5718788146972655,-0.2153942584991455 l1.4844362258911132,-0.17065374851226806 0.7665069580078125,-0.4254585266113281 l0.22385110855102539,-0.31633915901184084 0.04219102263450623,-0.3716008186340332 l-0.17044328451156615,-0.0664300262928009 -0.7247200965881347,-0.35504100322723386 l-1.0311573982238769,0.0548089861869812 -1.0122455596923827,0.6411638736724854 l-1.5987826347351075,1.3335294723510742 -1.6305177688598633,2.2025850296020506 l-1.5754032135009766,2.3086807250976564 -0.8747432708740235,2.0564605712890627 l-0.39827537536621094,1.422620964050293 0.1493708848953247,1.6906455993652343 l0.3289654731750488,0.9897040367126465 0.9201278686523438,1.148897361755371 l0.9832304000854493,0.11574386358261109 1.7310482025146485,0.23562297821044922 l1.773883056640625,-0.7390105247497558 1.9188106536865235,-0.9772505760192871 l1.8636463165283204,-1.5806588172912597 1.9724271774291993,-2.397210884094238 l2.4050437927246096,-2.0246185302734374 2.115218162536621,-2.538962554931641 l2.1414091110229494,-1.9681804656982422 2.099976348876953,-0.9009997367858886 l1.630264663696289,-0.30403966903686525 1.03370361328125,0.0674940824508667 l0.639223575592041,0.2945871353149414 0.21383907794952392,0.20569331645965577 l0.42045106887817385,0.6463178634643555 0.39054749011993406,1.3130695343017578 l0.11315443515777587,1.77730712890625 -0.07559694051742553,1.7240997314453126 l-0.03373575806617737,2.1705074310302734 -0.41856722831726073,2.002622604370117 l-0.37316040992736815,2.0193687438964845 -0.9583931922912597,1.0591067314147948 l-0.8313365936279297,0.7728997230529785 -0.782634973526001,0.8182285308837891 l-0.6246773719787597,0.5584421634674073 -0.6964601516723633,0.0212790384888649 l-0.10775908231735229,0.027021196484565736 0.1266435503959656,-0.13535921573638915 l0.604807186126709,0.24080286026000977 0.5657484054565429,0.20995805263519288 l1.0290130615234374,0.47432193756103513 1.103111457824707,0.22647500038146973 l1.3682646751403809,0.2666015625 1.3487587928771974,-0.8367607116699218 l1.707785415649414,-0.6651214599609375 1.7777912139892578,-1.435869312286377 l1.8421049118041992,-1.470994472503662 1.8858491897583007,-1.987554931640625 l1.937497329711914,-1.4541152954101562 1.662571334838867,-1.9404489517211914 l1.5436945915222169,-1.2235784530639648 1.6584650039672852,-0.7999616146087647 l1.5541597366333009,-0.5364871025085449 1.041953182220459,-0.6624559879302978 l0.5645260334014892,-0.5365922451019287 0.0884496033191681,-0.55022292137146 l0.13551170825958253,0.1798338770866394 -0.18750500679016113,0.20920300483703613 l-0.19248658418655396,-0.029278650879859924 -0.44530544281005857,0.42351064682006834 l-0.9080475807189942,-0.06440305709838867 -1.2851070404052733,0.4012876510620117 l-1.2788525581359864,0.9297050476074219 -0.9163918495178223,1.3063668251037597 l-1.187320613861084,1.5794615745544434 -1.0498534202575684,2.0284521102905275 l-0.5213199615478515,2.1273685455322267 0.1320934534072876,1.3145181655883789 l0.7866974830627441,0.934184455871582 0.9067410469055176,-0.4256109714508057 l1.3065284729003905,-0.808710765838623 1.0476600646972656,-1.839044952392578 l1.5618344306945802,-1.8394887924194336 1.117525291442871,-2.3897417068481444 l0.7561418533325195,-2.2310302734375 0.9890836715698242,-1.4376726150512695 l0.4931471824645996,-0.1830366849899292 -0.24120380878448486,-0.35958328247070315 l0.08221715688705444,0.18726463317871095 -0.11246817111968994,-0.06374049782752991 l0.30256314277648927,0.9169404029846191 0.14797312021255493,0.15606509447097777 l0.5305645942687989,0.2157600164413452 0.8384281158447265,0.47409849166870116 l0.8099100112915039,0.29596474170684817 1.1634401321411132,-0.2996650218963623 l1.8640209197998048,-0.3929896354675293 2.3471452713012697,-0.7196096897125244 l2.208968734741211,-1.3142494201660155 2.036353874206543,-0.9257596969604492 l1.1625513076782226,-1.1357035636901855 1.1016436576843263,0.036412951350212094 l0.09578735828399658,-0.07241655588150024 -0.07116064429283142,0.01687663495540619 l-0.29758172035217284,0.42846360206604006 -0.9944378852844238,0.4726277828216553 l-1.2990527153015137,1.1995145797729492 -1.4306102752685548,1.5992305755615235 l-1.5752669334411622,2.4996124267578126 -1.4727933883666993,2.488037109375 l-0.9034241676330567,2.4053836822509767 -0.39443259239196776,1.252680206298828 l0.16584540605545045,1.1960759162902832 0.489348030090332,0.3429374933242798 l1.0249643325805664,0.09432291984558105 0.8982980728149415,-0.6499343872070312 l1.2252262115478516,-0.8831918716430665 0.8787107467651367,-2.12941951751709 l1.1817874908447266,-1.9172090530395507 1.1365734100341798,-1.8599834442138672 l0.8986004829406739,-1.9809364318847655 0.7647361278533935,-1.6663200378417968 l-0.04987187683582306,-1.4658211708068847 -0.26143460273742675,-0.6086091995239258 l-0.10947468280792236,0.2665800809860229 -0.14673969745635987,0.6309407234191895 l-0.4000987529754639,0.7611606597900391 -0.0069606006145477295,1.1151486396789552 l-0.007420825213193894,1.0828617095947266 0.2835348606109619,1.4505744934082032 l0.5132818698883057,1.3377099990844727 0.7899077415466309,1.188656997680664 l0.9450117111206054,0.7771465301513671 0.9350726127624511,0.20731201171875 l1.1143339157104493,-0.13242281675338746 1.402321720123291,-0.2975578308105469 l1.296212387084961,-1.1021379470825194 1.257530689239502,-0.8959650993347168 l0.8313055992126465,-1.5105563163757325 0.5258283138275146,-1.2026102066040039 l0.9523943901062012,-0.41456313133239747 0.12469103336334228,-0.62930908203125 l0.16955046653747557,0.3636131525039673 -0.030152618885040283,-0.07175034880638123 l-0.1299600839614868,-0.03480362296104431 -0.15023921728134154,0.9384912490844727 l-0.4041050910949707,1.0113676071166993 -0.2671205520629883,1.9962453842163086 l-0.09411320686340333,1.9328369140625 0.008435729891061783,1.0282164573669434 l0.7109272956848145,0.6511704444885253 0.16104550361633302,-0.2330639600753784 l0.7294819355010986,-0.5133800983428956 1.3178533554077148,-0.43861727714538573 l1.1006831169128417,-1.1021810531616212 1.5407303810119628,-1.0030451774597169 l1.4442662239074706,-0.7704367160797119 1.2188939094543456,-0.4730886459350586 l0.5468740940093995,0.011839192360639572 0.737583065032959,0.6631866455078125 l0.25595645904541015,0.8551275253295898 0.5169469833374023,1.3736319541931152 l0.594909954071045,1.2935547828674316 0.500251293182373,0.7162493705749512 l0.6989386081695557,0.22288708686828612 1.1032468795776367,0.2628727912902832 l1.350314998626709,-0.6739493370056152 1.4066902160644532,-1.2654003143310546 l1.67989501953125,-1.7750341415405273 1.1380661010742188,-1.9681821823120118 l0.9746931076049805,-1.6806428909301758 0.30184600353240965,-1.870029830932617 l0.17991480827331544,-0.4789005756378174 -0.7198211669921875,-0.3860569953918457 l-0.7686697006225586,0.07429761290550232 -0.8640469551086426,0.7904552936553955 l-0.9794526100158691,1.957168960571289 -0.35709009170532224,2.251552772521973 l-0.232615065574646,2.252878189086914 0.004093188792467117,1.3213587760925294 l0.6279532432556152,1.6031164169311523 0.8217003822326661,1.1792174339294434 l0.6606909751892089,0.6856627464294434 0.7839131832122803,0.3211438417434692 l0.7658541202545166,-0.47220649719238283 0.9461273193359375,-0.46268014907836913 l0.6529207229614258,-0.8354274749755859 0.7050688743591309,-1.3148675918579102 l0.7392816543579102,-1.6863834381103515 0.4762879371643066,-1.9782453536987306 l0.7875004291534424,-1.565120315551758 0.9565371513366699,-1.0980462074279784 l0.49019460678100585,-0.903736686706543 0.7953808784484864,-0.0024094944819808006 l0.8106218338012695,-0.16926910877227783 0.6008371829986572,-0.21166567802429198 l1.0763198852539062,0.6091144561767579 0.7268143177032471,0.4178782939910889 l0.7499413013458252,0.46267132759094237 0.7226051807403564,0.6402664184570312 l0.1539361596107483,-0.18113352060317994 -0.02915971577167511,-0.06035958528518677 l-0.16418920755386351,-0.341701602935791 -0.6076849937438965,-0.10490982532501221 l-0.3281939268112183,1.0091468811035156 -0.8593374252319336,1.5932363510131835 l-0.011259306967258454,2.3057315826416014 -0.35560951232910154,1.4686965942382812 l0.6418085098266602,1.378481101989746 0.557849931716919,0.3759851694107056 l1.3295022010803224,0.320522403717041 1.217258834838867,-0.252923583984375 l1.475413703918457,-0.9141929626464844 1.231850814819336,-1.3147193908691406 l0.42593965530395506,-1.4255889892578124 0.004318515211343766,-1.0868535041809082 l-0.04124506711959839,-0.5566230297088623 -0.5343279838562012,-0.42238388061523435 l-0.37675693035125735,0.0009410213679075241 0.02423432618379593,-0.0737319529056549 l-0.11490727663040161,0.3478836536407471 0.0965520203113556,0.5264071464538574 l-0.016423094272613525,1.145530891418457 0.2562894582748413,2.035772705078125 l0.28043601512908933,3.2772926330566405 0.16913007497787474,4.3018241882324215 l0.35609748363494875,4.849394989013672 0.6529772758483887,5.427896881103516 l0.7006936073303223,5.12806396484375 0.6311472892761231,4.64146614074707 l0.7379839420318604,4.391818618774414 0.2902819156646729,3.5537944793701173 l-0.09176896810531616,2.663111114501953 -0.6059269905090332,1.504942035675049 l-0.6926030158996582,1.2305051803588867 m-1.0111702919006347,-19.8167236328125 l0.4183055877685547,-0.4021321773529053 0.42026538848876954,-0.994722557067871 l0.5718545913696289,-1.139252281188965 0.8245468139648438,-1.5878944396972656 l0.5554106712341309,-2.192516326904297 0.24230601787567138,-2.743158149719238 l0.8709355354309082,-2.398678207397461 0.43230481147766114,-2.6492988586425783 l0.5015542507171631,-2.7170732498168944 0.07849962711334228,-2.6623212814331056 l-0.011116568744182587,-2.26175594329834 -0.2174138069152832,-2.2127845764160154 l0.21310276985168458,-0.9683371543884277 -0.5180925846099853,-0.6550784111022949 l-0.018128201365470886,-0.02268116921186447 -0.014100636541843414,0.11732194423675538 l0.27568519115448,1.4982590675354004 0.10560715198516846,1.9724237442016601 l-0.24021100997924805,2.2117504119873046 0.6659049034118653,3.288365936279297 l0.3684477567672729,2.467133331298828 1.3399227142333985,2.5748292922973635 l0.840396499633789,1.2361702919006348 1.180768871307373,0.9620604515075684 l1.3825651168823243,0.18360936641693115 1.2081718444824219,-0.603107500076294 m10.332817840576173,-6.189942169189453 l1.0957059860229492,-0.8418800354003906 0.6800545692443848,-1.486804485321045 l0.5436020374298096,-1.6695743560791017 0.08410442471504212,-1.461068344116211 l0.019209450483322142,-0.4558722496032715 -0.4261814594268799,-0.9158662796020508 l-0.8298245429992676,-0.6813290596008301 -1.0571106910705566,-0.5447287082672119 l-1.2867388725280762,-0.10215849876403808 -0.869085693359375,0.6322512149810791 l-0.991001033782959,0.7251368045806885 -0.9348889350891113,1.5744836807250977 l-0.31554200649261477,2.351946258544922 0.046492761373519896,1.895423698425293 l0.11914979219436646,2.0310552597045897 0.7717589855194091,1.9320899963378906 l1.2691107749938966,1.5379580497741698 1.0294416427612305,0.5117241859436035 l1.3185235023498536,0.02258267402648926 1.170937728881836,-0.6108538627624511 l0.9395362854003906,-1.3194161415100099 0.9230135917663574,-1.9869966506958008 l0.8138889312744141,-1.9452316284179687 0.5934113979339599,-1.6494485855102539 l0.6864216327667236,-0.9957681655883789 0.06225071549415588,-0.6948888301849365 l0.2512786626815796,0.1358175277709961 -0.10379209518432617,0.16394393444061278 l0.36409547328948977,1.4551864624023438 0.031857645511627196,1.3082963943481445 l0.12307404279708863,1.3567971229553222 0.38218739032745364,1.6138174057006835 l0.774550199508667,1.6492826461791992 0.6619972229003906,1.3564937591552735 l1.2500439643859864,0.9894350051879883 1.411093807220459,0.9395413398742676 l1.820876693725586,0.03880871534347534 1.7375215530395507,-0.11901239156723023 l1.5671573638916017,-0.6537644863128662 1.9499488830566407,-0.594654655456543 l1.8094537734985352,-0.7823888778686523 1.9767271041870118,-1.0607955932617188 l1.7387571334838867,-1.450344181060791 1.7445932388305665,-1.4840970039367676 l1.3110492706298829,-2.146016311645508 1.107240581512451,-1.1583688735961915 l0.7555851459503173,-1.4487342834472656 0.17681574821472168,-0.8214169502258301 l-0.3567783355712891,-0.8049001693725586 -0.41481614112854004,-0.2853096008300781 l-1.0632579803466797,0.20836665630340576 -1.4934515953063965,1.0729053497314454 l-1.3770013809204102,1.6059913635253906 -0.6951779365539551,2.1758216857910155 l-0.47541060447692873,2.4743743896484376 -0.19523025751113893,2.3606245040893556 l0.38554987907409666,1.699856948852539 1.1883295059204102,1.760413932800293 l1.3525452613830566,0.4815836429595947 1.6544431686401366,0.8316064834594726 l2.010872650146484,-0.16714375019073485 2.6443269729614256,-0.30022077560424804 l2.217188262939453,-0.11356946229934692 1.6576198577880858,-0.1412100076675415 l1.4940595626831055,-0.055631333589553834 1.1286523818969727,-0.09273015260696411 l0.8252283096313476,-0.1268684983253479 1.0331201553344727,-0.19087868928909302 l0.5496576309204102,-0.9753910064697265 m24.43228759765625,-34.565426635742185 l0.02531212866306305,0.1771129846572876 0.15367982387542725,0.41080322265625 l0.04872360527515411,0.3016979694366455 -0.17513316869735718,0.03807753622531891 l0.2665629148483276,0.5626416206359863 0.3255614280700684,1.3741966247558595 l-0.09019113183021546,2.4770397186279296 -0.21411778926849365,2.894007682800293 l0.02601306438446045,3.6475383758544924 0.11499307155609131,4.3929389953613285 l0.40278239250183107,4.677994155883789 0.7671660900115966,4.7793525695800785 l0.5918965816497803,3.4599945068359377 1.0071257591247558,2.485315704345703 l1.0792542457580567,1.038759136199951 0.79794921875,-0.17113311290740968 l1.3476042747497559,-1.530644989013672 1.9562274932861328,-2.2374252319335937 l2.1075849533081055,-3.860418701171875 2.0071413040161135,-4.203899765014649 l1.7371480941772461,-5.1053203582763675 1.2782597541809082,-5.1815643310546875 l1.3434289932250976,-5.0271240234375 0.6990114212036133,-5.018411636352539 l0.5410170555114746,-3.6149085998535155 0.08941043615341186,-2.5388086318969725 l0.14421484470367432,-0.602143383026123 -0.6278553485870362,0.2882555961608887 l-0.7751368522644043,1.7220087051391602 -0.7618965625762939,3.475946807861328 l-0.4862079620361328,5.487716293334961 -0.37785987854003905,6.87891845703125 l-0.013014847040176391,7.049886322021484 0.5535228729248047,6.31473388671875 l0.8786247253417969,3.6701560974121095 1.506781005859375,2.334241485595703 l1.2606612205505372,0.5597657203674317 1.6891912460327148,0.10227800607681274 l1.9341094970703125,-1.1237992286682128 2.362106704711914,-2.132522392272949 l2.6502607345581053,-2.781316566467285 1.7965890884399414,-3.373280334472656 l0.7088148593902588,-3.1677364349365233 -0.2816771507263184,-2.410370635986328 l-1.0180805206298829,-1.8825077056884765 -1.8395353317260743,-1.2558335304260253 l-1.7533409118652343,0.22431206703186035 -1.5040367126464844,0.7202639102935791 l-1.5555021286010742,1.6980897903442382 -0.515238094329834,2.5790992736816407 l-0.04886677861213684,3.028791046142578 1.209841537475586,3.573114013671875 l1.8824182510375977,2.8115207672119142 2.0894392013549803,1.3525936126708984 l2.9258449554443358,0.06466751098632813 2.488466262817383,-2.3057071685791017 l2.408685302734375,-2.7881185531616213 m-3.2767398834228514,-10.95816421508789 l-0.7229807376861572,0.828553295135498 1.463173007965088,1.2972482681274413 l1.7198755264282226,0.5857972621917724 2.152183723449707,-0.15063685178756714 l2.5136529922485353,-1.1221407890319823 2.309672546386719,-1.1646015167236328 l1.8785966873168944,-0.2387007713317871 1.5601608276367187,0.13866019248962402 l0.6314778327941895,0.11528887748718261 0.7280293464660644,0.9524532318115234 l0.005054448544979095,1.859250831604004 0.0725406289100647,3.2953983306884767 l-0.13538039922714235,3.3500015258789064 -0.16179087162017822,0.8638142585754395 l-0.4750178337097168,0.36509170532226565 -0.0021498452872037886,0.06745178103446961 l-0.4141270637512207,-0.32339670658111574 0.1671509861946106,0.1450206995010376 l0.1064233660697937,-0.15430532693862914 0.5408377170562744,-0.6084499835968018 l0.9306927680969238,-1.258283805847168 1.17529354095459,-1.8819042205810548 l1.2534242630004884,-2.165312576293945 1.5263439178466798,-2.785267639160156 l1.7266212463378907,-2.4958894729614256 1.9660531997680664,-1.7808050155639648 l1.3189476013183594,-0.9880506515502929 1.1821989059448241,-0.10026302337646484 l0.8454388618469239,0.2471912384033203 0.9864930152893067,1.1489290237426757 l-0.2373741626739502,1.8388355255126954 0.7840607643127442,2.6201107025146486 l0.6164545536041259,1.723348045349121 0.8975829124450684,1.1514928817749024 l1.295584774017334,0.6793490409851074 1.3355655670166016,0.16289834976196288 l1.4476260185241698,-0.7253322601318359 1.720145034790039,-1.0611116409301757 l0.7841350555419921,-1.4028800964355468 0.9033366203308105,-0.5646061897277832 l-0.6626306056976319,-0.3939164161682129 0.35697410106658933,0.12807586193084716 l-0.25095219612121583,0.37250118255615233 -0.17994683980941772,1.1751358032226562 l0.3085635662078857,0.7364668369293212 0.48940277099609375,0.15051593780517578 l0.9146431922912598,0.2487260341644287 -0.02549888491630554,-0.9129150390625 l0.5360228538513183,-1.2371181488037108 0.9132001876831055,-1.0196918487548827 l2.580470848083496,-0.590752124786377 0.5552786827087403,-0.8947426795959472 l-0.16387882232666015,-1.2473798751831056 0.7292041301727294,-0.6936483383178711 l-0.3001809597015381,-0.6097588062286377 -4.521722793579102,2.755845642089844 l-0.9849795341491699,0.7341790676116944 -0.327085280418396,2.9944067001342773 l-0.6409399509429932,2.8779504776000975 0.4160336971282959,0.5401296138763427 l1.4866843223571777,0.23352560997009278 2.4320144653320312,-0.505459213256836 m35.3880615234375,-18.118501281738283 l0.02792382538318634,0.01334792673587799 0.2924363613128662,0.2980389356613159 l-0.27285332679748536,-0.1920629024505615 0.2629047393798828,0.24793705940246583 l0.015848368406295776,-0.05531722903251648 -0.08381357789039612,-0.1857386827468872 l-0.15864667892456055,-0.07744096517562866 -0.027262839674949645,-0.20777561664581298 l0.06261652708053589,0.23331680297851562 0.11850334405899048,-0.04761265516281128 l0.15606497526168822,0.026131802797317506 -0.16883907318115235,-0.13878120183944703 l0.02144668102264404,0.018413618206977844 0.014756335318088532,-0.10738508701324463 l0.036961880326271054,-0.17229235172271729 0.29015536308288575,0.08496219515800477 l0.019457152485847472,-0.4657402992248535 0.18686341047286986,-0.14430725574493408 l0.07358145117759704,-0.10847710371017456 -0.2992666006088257,-0.2880438804626465 l0.4140869140625,0.3193629741668701 -0.24277315139770508,-0.3122697830200195 l0.25780887603759767,0.25712511539459226 -0.3776838302612305,-0.35339984893798826 l0.18895511627197265,0.015569047629833221 0.44414453506469725,0.5183568000793457 l-0.243536114692688,-0.1870133399963379 0.3127424955368042,0.4129616737365723 l-0.47908334732055663,-0.2987885713577271 -0.06603929400444031,-0.04581761360168457 l0.19947458505630494,0.2528076648712158 0.49455108642578127,0.30881056785583494 l-0.27574470043182375,-0.5562681674957275 0.8792739868164062,-1.0232215881347657 l1.1469645500183105,-1.6660026550292968 1.756521224975586,-1.164377212524414 l1.9310394287109376,-1.4611525535583496 1.4481498718261718,-1.9470922470092773 l2.159628677368164,-1.5238553047180177 1.6003463745117188,-1.9090219497680665 l1.8054643630981446,-1.0482264518737794 1.072597599029541,-0.6091480731964112 l0.7804993629455567,0.09124756455421448 0.7205687522888183,0.5147778511047363 l-0.020067282021045685,0.9029980659484863 -0.43341817855834963,1.9325901031494142 l-1.4427249908447266,2.013309860229492 -0.9968819618225098,2.7675018310546875 l-0.9932273864746094,2.430179405212402 -0.6593401908874512,2.0116947174072264 l-0.03607669174671173,1.632755661010742 0.4593658924102783,1.1599678993225098 l0.9988167762756348,0.817626667022705 1.3693588256835938,0.4072750091552734 l1.6904403686523437,-0.229856538772583 2.215387153625488,-0.7935936927795411 l2.6576642990112305,-1.127794361114502 2.797599029541016,-1.4373371124267578 l1.9021602630615235,-2.02652587890625 2.4856826782226564,-1.3468390464782716 l1.6002933502197265,-1.6132051467895507 1.4168690681457519,-1.1867040634155273 l0.3781541585922241,-1.120619773864746 0.2969271183013916,-0.6719410419464111 l-0.23576037883758544,-0.30509469509124754 -1.002142333984375,0.04613561928272247 l-1.4478858947753905,0.43458070755004885 -1.893490982055664,1.642784309387207 l-1.737408447265625,2.2656978607177733 -1.734244155883789,2.369125556945801 l-1.7398365020751954,2.4359725952148437 -0.30550737380981446,2.653145599365234 l0.3814187288284302,2.454989433288574 1.573133373260498,2.0257015228271484 l2.4514461517333985,1.4628179550170899 3.534151077270508,-0.04623254835605621 l3.9128265380859375,-0.6439691066741944 3.667655181884766,-1.0810909271240234 l3.036734771728516,-1.1309870719909667 2.5512367248535157,-1.4445738792419434 m25.080656433105467,-28.112960815429688 l0.2257563591003418,0.30593893527984617 -0.02366700619459152,-0.053161239624023436 l-0.13681846857070923,-0.0853535771369934 0.13895034790039062,0.19043271541595458 l-0.04875015616416931,-0.06030396223068237 -0.0036634236574172975,0.05624071955680847 l-0.17196959257125854,0.16108858585357666 0.13181036710739136,0.11123125553131104 l-0.31302154064178467,-0.14921332597732545 0.12162845134735108,0.010143525898456573 l-0.0837797462940216,-0.04544306397438049 -0.08547946810722351,-0.045360445976257324 l0.11208530664443969,0.0942576766014099 0.029263678193092345,-0.0835593044757843 l-0.013305523991584777,-0.01612561196088791 -0.09584448337554932,-0.11408360004425049 l-0.08578994274139404,-0.09024206399917603 0.07979003190994263,0.027269181609153748 l-0.10138311386108398,-0.08119033575057984 0.45644264221191405,0.10756592750549317 l-0.42130246162414553,-0.33078608512878416 0.1942448616027832,-0.15010671615600585 l0.5789448738098144,-0.09928060173988343 -0.16376649141311644,-0.5208487510681152 l0.2808875799179077,-0.31645057201385496 -0.5471473217010498,-0.6937231540679931 l0.019247496128082277,-0.35573468208312986 -0.06854864954948425,-0.34268693923950194 l-0.066366046667099,-0.4205049514770508 -0.06941890716552734,-0.2385256767272949 l-0.0644835114479065,-0.47721109390258787 -0.08099258542060853,-0.24720118045806885 l-0.10298106670379639,-0.10050520896911622 0.12770452499389648,-0.6944921016693115 l0.8260772705078125,-0.8614446640014648 0.8879734992980957,-1.1571352005004882 l1.6229063034057618,-1.6355714797973633 1.3336627960205079,-2.097344970703125 l1.7410154342651367,-1.6978630065917968 1.777031707763672,-1.6143402099609374 l1.4049177169799805,-0.9508832931518555 0.9010333061218262,-0.4777681827545166 l-0.30377123355865476,-0.17865095138549805 0.2917133569717407,0.24541168212890624 l0.338047456741333,1.0853861808776855 -0.6336518287658691,1.560518169403076 l0.19673770666122437,2.505538749694824 -0.5527091979980469,2.6540029525756834 l0.23941948413848876,3.0931076049804687 -0.5778704643249511,3.1012887954711914 l-0.031237754225730895,3.364025115966797 -0.39074432849884033,3.3215232849121095 l0.39675614833831785,3.4829750061035156 0.24032816886901856,2.720123291015625 l0.014549130201339721,1.9104610443115235 0.2775717258453369,1.3755348205566407 l0.2895394802093506,0.40896072387695315 -0.028845158219337464,0.08625112771987915 l-0.014705817401409148,-0.10525331497192383 -0.4910744667053223,-0.6925330638885498 m-5.234655380249023,-12.421617126464843 l-0.5470454692840576,-0.6992678642272949 0.10761036872863769,-0.1313076138496399 l-0.07152315974235535,-0.17257001399993896 0.06861300468444824,-0.13284196853637695 l0.762073278427124,-0.11537203788757325 2.068429946899414,-0.37632668018341064 l1.8588966369628905,-0.6754579067230224 3.0264760971069338,-0.5556318283081054 l2.859827423095703,-0.6612215995788574 3.7875694274902343,-0.06845639944076538 l3.3325031280517576,-0.19141144752502443 2.635360527038574,-0.19335052967071534 l2.439916801452637,0.37628772258758547 1.1524910926818848,0.4033790111541748 l1.0070347785949707,0.7642578601837158 -0.36939682960510256,0.31710047721862794 m43.3529296875,-4.603227996826172 l-0.6016329765319824,-0.6144338130950928 -1.1672072410583496,-0.47140016555786135 l-1.4752721786499023,-0.34341404438018797 -2.3453109741210936,0.17007069587707518 l-2.5184209823608397,0.40606489181518557 -1.9828929901123047,1.3103597640991211 l-3.1813480377197267,1.4472269058227538 -2.7046241760253906,2.1679935455322266 l-1.1281085014343262,2.792735290527344 -1.025339126586914,2.605416488647461 l-0.295616602897644,1.9443111419677734 0.6544413566589355,1.6315326690673828 l1.111257553100586,0.7003746032714844 1.7797113418579102,0.003042615205049515 l0.7224989891052246,-0.8781903266906739 0.7398869514465332,-1.1098126411437987 l1.1001133918762207,-1.3472241401672362 0.9778053283691406,-1.93828125 l0.8769941329956055,-2.4228696823120117 0.7409071445465087,-2.8231128692626952 l0.9501663208007812,-2.192121696472168 0.3150803565979004,-1.3792816162109376 l0.38268818855285647,-0.4439419746398926 0.10482702255249024,0.1337967872619629 l0.3499251365661621,0.5399038791656494 0.20411322116851807,1.5551043510437013 l-0.1373152494430542,2.744327926635742 -0.2677804470062256,2.9375715255737305 l0.6438447952270507,2.0822147369384765 1.1733230590820312,1.2341408729553223 l2.2329710006713865,0.535800838470459 1.7144481658935546,-0.5104165077209473 l2.3646602630615234,-1.11616849899292 2.345903205871582,-1.7837909698486327 l2.76757698059082,-1.786236572265625 1.9918615341186523,-1.4519859313964845 l1.6182954788208008,-0.38176555633544923 1.2133079528808595,-0.40159831047058103 l1.2615678787231446,0.007080470025539398 1.081255054473877,0.10772745609283448 l0.9609661102294922,0.3520816326141357 0.5188925266265869,0.41026887893676756 l0.011935026198625565,0.09327680468559266 0.20547404289245605,0.17944774627685547 l-0.06685690879821778,0.06530550718307496 -0.10224210023880005,-0.13219287395477294 l-0.03414012193679809,-0.21184828281402587 -0.7755733489990234,-0.7128345966339111 l-0.9545999526977539,-0.3499042510986328 -1.6531002044677734,-0.35777997970581055 l-1.4110498428344727,0.018644644320011138 -1.9367843627929688,0.5838315486907959 l-2.133744812011719,1.420009708404541 -2.790985870361328,1.6832836151123047 l-0.8312968254089356,1.9475095748901368 -1.048773193359375,1.1927114486694337 l-0.5609047412872314,0.6294284343719483 0.2514465093612671,0.41070218086242677 l1.3484943389892579,0.12495715618133545 1.659195327758789,-0.3507148027420044 l1.733932876586914,-1.685642623901367 2.3485027313232423,-1.7682846069335938 l2.1115474700927734,-2.837473678588867 1.8109333038330078,-2.5250432968139647 m1.1818843841552735,-0.08639254570007324 l-0.684537410736084,-0.7156887054443359 -0.8484100341796875,-1.0576754570007325 l-1.2386924743652343,-1.5717859268188477 -1.3341754913330077,-1.6742589950561524 l-0.6363544940948487,-1.0323545455932617 -0.8483334541320801,-0.6098467826843261 l-0.2747847080230713,0.06815820932388306 -0.1314911961555481,0.0005190182477235794 l1.077035140991211,1.0474374771118165 1.7026384353637696,1.8185426712036132 l1.788661575317383,1.8557863235473633 2.7036333084106445,2.272720527648926 l2.7869312286376955,2.0174150466918945 3.397077178955078,2.018113708496094 l3.3420082092285157,1.6168439865112305 4.216386413574218,1.8634960174560546 l4.126607894897461,1.4312299728393554 2.929795265197754,0.6533073425292969 l2.9134891510009764,0.3969459533691406 1.8318389892578124,-0.4640183448791504 l1.3812522888183594,-1.603339958190918 1.5516796112060547,-2.7183799743652344 m7.416460418701172,-28.036785888671876 l-0.36212027072906494,-0.23028876781463622 -0.47136621475219725,0.9255521774291993 l-0.4736067771911621,3.0913579940795897 0.19454551935195924,3.9116512298583985 l0.7126282691955567,3.6892314910888673 1.2208885192871093,3.9423179626464844 l1.174853229522705,3.8360363006591798 1.332253646850586,3.3788066864013673 l1.8011428833007812,2.816311836242676 1.212605857849121,1.7863290786743165 l1.0516814231872558,0.9140578269958496 0.47981715202331543,-0.28579888343811033 m-13.813201904296875,-12.416023254394531 l-0.22388944625854493,-0.11102782487869263 0.39352848529815676,-0.1942233920097351 l2.4606685638427734,-0.4142822265625 3.6302120208740236,-0.9299150466918945 l4.283104705810547,-1.045230770111084 4.448266983032227,-0.2170391082763672 l3.678742218017578,0.0897441565990448 m33.045166015625,7.761196136474609 l0.4798130512237549,-0.608592939376831 2.014890670776367,-0.6374006271362305 l2.006496047973633,-0.6096934795379638 1.4837536811828613,-1.0820268630981444 l1.8954570770263672,-1.1285011291503906 1.8201692581176758,-1.5001886367797852 l1.5462114334106445,-1.3875428199768067 0.07589293122291565,-1.4384180068969727 l-0.06221611499786377,-0.6999036788940429 -0.8530215263366699,-0.3809508323669434 l-1.3230924606323242,0.060214048624038695 -2.179824447631836,0.9979015350341797 l-1.6829456329345702,1.7460199356079102 -1.1660670280456542,2.1494930267333983 l-0.8948919296264648,2.1377790451049803 0.2304452657699585,1.8536258697509767 l1.1712584495544434,1.5403446197509765 1.852015495300293,1.0394558906555176 l2.609918785095215,0.8158200263977051 2.5585891723632814,-0.057597005367279054 l1.9675712585449219,-0.9374026298522949 1.6871978759765625,-1.0168334007263184 l2.106989860534668,-1.0942139625549316 0.3351603984832764,-1.5707513809204101 m-6.671586608886718,-10.654072570800782 l0.6922175884246826,0.2483508825302124 -0.004723474755883217,-0.09849622845649719 l0.9303227424621582,0.2692708015441895 1.6232612609863282,-0.19203145503997804 l2.5267446517944334,-0.1438754081726074 2.5851409912109373,-0.2133763074874878 l2.550050735473633,-0.2666698694229126 1.841445541381836,0.03540136814117432 l0.7815402030944825,0.22121613025665282 0.6076500415802002,0.37182044982910156 l0.0003151962300762534,0.9608333587646485 -0.31390795707702634,1.6556777954101562 l-0.7527818202972412,2.1466142654418947 -0.9364052772521972,2.6894901275634764 l-0.6570723533630372,3.21383056640625 m4.337487030029297,5.57763671875 l0.891300106048584,-0.25629096031188964 1.2179099082946778,-1.489610195159912 l1.6278324127197266,-1.7594467163085938 2.1830799102783205,-1.405534553527832 l1.455300235748291,-1.3651581764221192 1.3603056907653808,-0.6971898555755616 l0.7274203300476074,0.06644636392593384 0.9946950912475586,0.6382391452789307 l0.4902277946472168,1.1792705535888672 1.5876526832580566,1.4375214576721191 l1.2764016151428224,1.022514820098877 0.6434040069580078,0.3445868492126465 l0.4559149265289307,-0.1388363718986511 1.1083277702331542,-0.5117619037628174 l1.3646173477172852,-1.5083346366882324 0.13761529922485352,-2.0622753143310546 l0.39065659046173096,-2.1020809173583985 -0.245469331741333,-2.0372077941894533 l-0.5508838653564453,-1.3792152404785156 -1.1911701202392577,-0.8937932968139648 l-1.0786537170410155,-0.3514569759368896 -0.5624346733093262,0.12181050777435302 l-0.31089508533477783,0.3265818119049072 -0.02029375433921814,0.4370768070220947 m13.004133605957032,-0.27042200565338137 l0.15989540815353392,0.03939166367053985 0.18685576915740967,-0.3756778001785278 l0.13486156463623047,-0.1524123191833496 -0.21606783866882323,0.2195582151412964 l-0.812156867980957,1.1364398002624512 -1.2532538414001464,1.5563645362854004 l-0.7599184513092041,1.6964448928833007 0.012373660504817963,1.684485626220703 l0.7005946636199951,1.0864875793457032 2.079642486572266,0.8613109588623047 l1.6677108764648438,-0.38433279991149905 3.541686248779297,-0.8257450103759766 l2.9747846603393553,-1.489711380004883 1.9235794067382812,-2.0593326568603514 l0.11142944097518921,-1.903080940246582 -1.4889105796813964,-1.8503854751586915 l-2.9522815704345704,-1.4132752418518066 -2.770786094665527,-0.8370261192321777 l-2.7837026596069334,-0.3100334644317627 -1.4401863098144532,-0.031096431612968444 l-0.5629077911376953,0.1857853651046753 0.15947651863098145,0.8349185943603515 l1.305438232421875,1.4000278472900392 m12.197068786621093,-1.4744722366333007 l-0.6609502792358398,-0.2701714277267456 0.28270645141601564,0.4189199924468994 l0.15555498600006104,0.6236462116241455 0.36413729190826416,1.5951787948608398 l0.827657413482666,2.1456573486328123 1.5937162399291993,2.269454765319824 l0.8466032028198243,1.587661361694336 1.519758415222168,1.374334716796875 l1.559494400024414,0.559286642074585 2.3319112777709963,0.33916687965393066 l1.5296936988830567,-0.9230640411376954 1.8874597549438477,-1.0673365592956543 l1.2233152389526367,-1.5222084045410156 0.7309751033782959,-0.8562699317932129 l-0.22732205390930177,-0.06603611111640931 -0.17693673372268676,-0.004644029587507248 l0.04874338209629059,0.6732766628265381 0.16739732027053833,1.1574934005737305 l1.2320186614990234,1.347033977508545 1.1208535194396974,1.225424861907959 l2.0093326568603516,0.917807674407959 1.7791522979736327,0.0870184063911438 l2.4029531478881836,-0.3565945863723755 2.53818302154541,-0.4023733615875244 l2.0861789703369142,-0.6890398979187011 2.6265941619873048,-0.741595458984375 l3.170454978942871,-1.03160400390625 2.688029479980469,-2.0842235565185545 l2.4764270782470703,-1.5415914535522461 1.0377545356750488,-1.1443561553955077 l0.5190104961395263,-0.49345550537109373 -0.1304429888725281,0.02847203314304352 " fill="none" stroke="black" stroke-width="1" /></svg>